<svg width="30" height="30" viewBox="0 0 30 30" fill="none" xmlns="http://www.w3.org/2000/svg">
<path d="M9.4751 5.1L7.6876 3.3125C4.6876 5.6 2.7126 9.125 2.5376 13.125H5.0376C5.2251 9.8125 6.9251 6.9125 9.4751 5.1ZM24.9626 13.125H27.4626C27.2751 9.125 25.3001 5.6 22.3126 3.3125L20.5376 5.1C23.0626 6.9125 24.7751 9.8125 24.9626 13.125ZM22.5001 13.75C22.5001 9.9125 20.4501 6.7 16.8751 5.85V5C16.8751 3.9625 16.0376 3.125 15.0001 3.125C13.9626 3.125 13.1251 3.9625 13.1251 5V5.85C9.5376 6.7 7.5001 9.9 7.5001 13.75V20L5.0001 22.5V23.75H25.0001V22.5L22.5001 20V13.75ZM15.0001 27.5C15.1751 27.5 15.3376 27.4875 15.5001 27.45C16.3126 27.275 16.9751 26.725 17.3001 25.975C17.4251 25.675 17.4876 25.35 17.4876 25H12.4876C12.5001 26.375 13.6126 27.5 15.0001 27.5Z" fill="#FF7070"/>
</svg>
