<svg width="69" height="82" viewBox="0 0 69 82" fill="none" xmlns="http://www.w3.org/2000/svg">
<path d="M67.3712 38.1633L45.1735 29.7224L36.8846 1.81425C36.5654 0.738 35.595 0 34.5 0C33.405 0 32.4346 0.738 32.1154 1.81425L23.829 29.7224L1.62884 38.1633C0.648544 38.5374 0 39.4932 0 40.5669C0 41.6381 0.648544 42.599 1.62884 42.9706L23.8165 51.4089L32.1079 80.1678C32.4222 81.2543 33.395 82 34.5 82C35.6025 82 36.5778 81.2543 36.8921 80.1653L45.1835 51.4063L67.3736 42.968C68.349 42.599 69 41.6406 69 40.5669C69 39.4958 68.349 38.5374 67.3712 38.1633Z" fill="#565FFF"/>
</svg>
