<svg width="194" height="169" viewBox="0 0 194 169" fill="none" xmlns="http://www.w3.org/2000/svg">
<g clip-path="url(#clip0_4998_188171)">
<path opacity="0.5" fill-rule="evenodd" clip-rule="evenodd" d="M73.1311 89.8955C78.4732 109.967 77.6084 131.186 70.6507 150.756L50.7719 143.688C56.2672 128.232 56.9839 111.468 52.8119 95.5821C48.5942 79.5228 39.5839 65.1364 26.9899 54.3345L40.7256 38.3203C56.4909 51.8425 67.7891 69.8242 73.1311 89.8955ZM-26.1738 116.317L-26.1836 116.328L-26.1835 116.329L-26.1738 116.317Z" fill="#07A098"/>
<path opacity="0.5" fill-rule="evenodd" clip-rule="evenodd" d="M123.148 92.6043C116.968 111.224 116.576 131.279 122.021 150.126L131.6 147.359C126.738 130.545 127.051 112.645 132.516 95.9949C138.037 79.1736 148.55 64.4403 162.647 53.7507L156.637 45.8226C141.003 57.6742 129.327 73.9846 123.148 92.6043ZM215.267 123.164L215.28 123.18L214.13 123.512L215.267 123.164Z" fill="#07A098"/>
<path opacity="0.5" fill-rule="evenodd" clip-rule="evenodd" d="M73.1995 78.607C67.9756 98.3063 56.5323 115.575 40.3778 128.139L27.0519 112.755C41.7892 101.155 51.7705 84.888 55.412 66.4721C58.2562 52.0879 57.1034 37.0462 52.1848 22.7939L69.6413 17.7872C77.1829 37.7029 78.4234 58.9077 73.1995 78.607Z" fill="#07A098"/>
<path opacity="0.5" fill-rule="evenodd" clip-rule="evenodd" d="M99.9041 13.2588L86.9551 11.9014C90.4605 58.0136 103.213 104.486 124.234 147.748L135.481 142.415C115.473 101.281 103.307 57.1026 99.9041 13.2588Z" fill="#0EB4F6"/>
<path opacity="0.5" fill-rule="evenodd" clip-rule="evenodd" d="M86.5795 155.982C85.8433 110.425 73.3491 65.8402 50.332 26.5531L67.5351 16.4746C92.2962 58.7394 105.723 106.682 106.515 155.66L86.5795 155.982Z" fill="#0A405F"/>
<path opacity="0.5" fill-rule="evenodd" clip-rule="evenodd" d="M152.935 130.399L163.04 113.213C120.814 88.386 72.8923 74.8839 23.9161 74.0149L23.5624 93.9484C69.0886 94.7555 113.658 107.305 152.935 130.399ZM18.8701 358.397L18.8706 358.412L18.8698 358.414L18.8701 358.397Z" fill="#C4DFFF"/>
<path opacity="0.5" fill-rule="evenodd" clip-rule="evenodd" d="M37.1801 129.529L27.0753 112.343C69.3011 87.5159 117.223 74.0138 166.199 73.1447L166.553 93.0782C121.027 93.8855 76.4568 106.435 37.1801 129.529ZM171.245 357.537L171.245 357.543L171.245 357.544L171.245 357.537Z" fill="#822468"/>
<path opacity="0.5" fill-rule="evenodd" clip-rule="evenodd" d="M106.275 156.027C107.053 110.948 119.41 66.836 142.135 27.9313L122.579 16.4746C97.8182 58.7394 84.3914 106.682 83.5994 155.66L106.275 156.027Z" fill="#E88063"/>
<path opacity="0.5" fill-rule="evenodd" clip-rule="evenodd" d="M63.8182 149.915C87.7558 110.292 121.451 77.4729 161.666 54.5878L153.897 40.9233C111.314 65.1321 75.7038 99.9276 50.5162 141.94L63.8182 149.915Z" fill="#686868"/>
<path fill-rule="evenodd" clip-rule="evenodd" d="M44.1863 39.5093L38.6157 34.585C31.772 42.3268 26.5995 51.3977 23.4219 61.2301L30.4799 63.5111C33.3746 54.5478 38.0884 46.4021 44.1863 39.5093Z" fill="#07A098"/>
<path fill-rule="evenodd" clip-rule="evenodd" d="M28.5364 70.9645L21.2593 69.499C19.2193 79.6288 19.2917 90.0705 21.4719 100.171L28.7271 98.605C27.7382 94.0015 27.2176 89.2241 27.2176 84.3252C27.2176 79.7514 27.6713 75.2837 28.5364 70.9645Z" fill="#07A098"/>
<path fill-rule="evenodd" clip-rule="evenodd" d="M110.192 10.799C100.076 8.69303 89.634 8.69725 79.5195 10.8114L81.0381 18.0764C85.5082 17.1468 90.1399 16.6583 94.8857 16.6583C99.6125 16.6583 104.226 17.1429 108.68 18.0653L110.192 10.799Z" fill="#07A098"/>
<path fill-rule="evenodd" clip-rule="evenodd" d="M71.5292 12.9463C61.7084 16.1597 52.6564 21.3651 44.9395 28.2369L49.8838 33.7893C56.7558 27.6657 64.8849 22.9227 73.8358 19.9958L71.5292 12.9463Z" fill="#07A098"/>
<path fill-rule="evenodd" clip-rule="evenodd" d="M159.151 105.558C156.199 114.498 151.433 122.614 145.289 129.47L150.828 134.43C157.722 126.733 162.953 117.696 166.195 107.885L159.151 105.558Z" fill="#07A098"/>
<path fill-rule="evenodd" clip-rule="evenodd" d="M109.124 150.49C104.533 151.474 99.7689 151.991 94.8839 151.991C90.2961 151.991 85.815 151.535 81.4834 150.664L80.0137 157.94C90.1422 159.986 100.584 159.92 110.686 157.746L109.124 150.49Z" fill="#07A098"/>
<path fill-rule="evenodd" clip-rule="evenodd" d="M139.818 134.919C132.938 141.033 124.803 145.765 115.848 148.68L118.145 155.733C127.97 152.533 137.029 147.34 144.755 140.479L139.818 134.919Z" fill="#07A098"/>
<path fill-rule="evenodd" clip-rule="evenodd" d="M161.119 98.229C162.056 93.7417 162.549 89.0912 162.549 84.3257C162.549 79.6186 162.068 75.0238 161.153 70.5876L168.421 69.0811C170.519 79.199 170.505 89.641 168.383 99.7537L161.119 98.229Z" fill="#07A098"/>
<path fill-rule="evenodd" clip-rule="evenodd" d="M159.434 63.9676L166.508 61.7367C163.4 51.882 158.292 42.7747 151.504 34.9844L145.898 39.8689C151.946 46.8025 156.602 54.9803 159.434 63.9676Z" fill="#07A098"/>
<path fill-rule="evenodd" clip-rule="evenodd" d="M145.471 28.8167C137.834 21.8565 128.843 16.5471 119.06 13.2207L116.672 20.2429C125.583 23.2716 133.658 28.1067 140.463 34.3118L145.471 28.8167Z" fill="#07A098"/>
<path fill-rule="evenodd" clip-rule="evenodd" d="M30.5559 105.373L23.5059 107.68C26.7192 117.501 31.9246 126.553 38.7964 134.27L44.3493 129.325C38.2257 122.453 33.4828 114.324 30.5559 105.373Z" fill="#07A098"/>
<path fill-rule="evenodd" clip-rule="evenodd" d="M49.8403 134.82L44.8906 140.369C52.6017 147.248 61.6492 152.461 71.4672 155.683L73.78 148.635C64.8322 145.7 56.7071 140.95 49.8403 134.82Z" fill="#07A098"/>
<path d="M85.0978 4.74613C85.0704 4.4981 85.1018 4.26944 85.1919 4.06013C85.2818 3.84839 85.4165 3.67599 85.5963 3.54293C85.7785 3.4096 85.9875 3.32991 86.2234 3.30387C86.5006 3.27327 86.7499 3.31343 86.9713 3.42435C87.1928 3.53527 87.3645 3.70829 87.4864 3.94341L87.0889 3.9873C87.0014 3.8419 86.8863 3.73524 86.7434 3.66733C86.603 3.59915 86.4404 3.57526 86.2556 3.59566C86.0781 3.61526 85.9234 3.67418 85.7915 3.77243C85.6596 3.87067 85.5619 4.00082 85.4986 4.16287C85.435 4.32249 85.4145 4.50442 85.437 4.70868C85.4593 4.9105 85.519 5.08358 85.6162 5.22791C85.7131 5.36981 85.8366 5.47432 85.9868 5.54142C86.1369 5.60853 86.3008 5.63228 86.4783 5.61268C86.6631 5.59228 86.8167 5.53471 86.9391 5.43997C87.0637 5.34253 87.1529 5.21332 87.2065 5.05235L87.604 5.00845C87.536 5.26208 87.4061 5.46718 87.2142 5.62374C87.022 5.77786 86.7873 5.87022 86.5101 5.90083C86.2742 5.92687 86.053 5.89591 85.8464 5.80797C85.6419 5.71732 85.4729 5.57969 85.3393 5.39508C85.2057 5.21047 85.1252 4.99415 85.0978 4.74613Z" fill="#686868"/>
<path d="M89.323 5.55106C89.1353 5.56617 88.9612 5.53723 88.8007 5.46424C88.6426 5.39106 88.5134 5.27997 88.4131 5.13096C88.315 4.97933 88.2576 4.79988 88.2409 4.5926C88.2244 4.38777 88.2538 4.20379 88.329 4.04066C88.4065 3.8749 88.5187 3.74438 88.6657 3.64911C88.8124 3.55141 88.9809 3.4949 89.1711 3.4796C89.3613 3.46429 89.5367 3.49313 89.6971 3.56612C89.8574 3.63667 89.9878 3.74645 90.0881 3.89545C90.1909 4.04425 90.2506 4.22229 90.2673 4.42956C90.284 4.63684 90.2524 4.82345 90.1724 4.98941C90.0948 5.15273 89.9813 5.28335 89.8321 5.38125C89.6829 5.47915 89.5132 5.53576 89.323 5.55106ZM89.2995 5.25844C89.419 5.24883 89.5289 5.21176 89.6292 5.14724C89.7296 5.08272 89.8069 4.99182 89.8613 4.87455C89.9181 4.75708 89.9401 4.61787 89.9271 4.45693C89.9142 4.29599 89.8715 4.16199 89.7991 4.05492C89.7266 3.94785 89.6371 3.87161 89.5303 3.8262C89.4234 3.77836 89.3102 3.75924 89.1907 3.76885C89.0688 3.77866 88.9589 3.81573 88.861 3.88006C88.7653 3.94175 88.6915 4.03113 88.6396 4.14821C88.5876 4.26528 88.5681 4.40429 88.5811 4.56523C88.5942 4.72861 88.6346 4.86403 88.7021 4.9715C88.7721 5.07876 88.8593 5.15642 88.9638 5.20446C89.0681 5.25006 89.18 5.26805 89.2995 5.25844Z" fill="#686868"/>
<path d="M91.4287 2.72531L91.5661 5.43732L91.2326 5.45421L91.0952 2.74221L91.4287 2.72531Z" fill="#686868"/>
<path d="M93.8542 2.65707L93.9111 5.37195L93.5772 5.37895L93.5203 2.66406L93.8542 2.65707Z" fill="#686868"/>
<path d="M96.1163 3.03651C96.0527 3.03595 95.9991 3.01347 95.9554 2.96905C95.9118 2.92463 95.8902 2.87062 95.8908 2.80702C95.8913 2.74341 95.9138 2.68979 95.9582 2.64614C96.0026 2.60249 96.0567 2.58094 96.1203 2.5815C96.1814 2.58203 96.2326 2.6045 96.2738 2.64889C96.3174 2.69331 96.339 2.74732 96.3384 2.81092C96.3379 2.87453 96.3154 2.92815 96.271 2.9718C96.229 3.01547 96.1774 3.03704 96.1163 3.03651ZM96.2749 3.3645L96.2573 5.37534L95.9234 5.37243L95.941 3.36158L96.2749 3.3645Z" fill="#686868"/>
<path d="M99.3271 3.42811C99.5715 3.4375 99.7667 3.51967 99.9125 3.67461C100.058 3.82711 100.126 4.0427 100.115 4.32138L100.07 5.50578L99.7398 5.4931L99.7835 4.35637C99.7912 4.15591 99.747 4.0012 99.6508 3.89223C99.5547 3.78082 99.4198 3.72178 99.2463 3.71511C99.0703 3.70835 98.9276 3.75796 98.8183 3.86392C98.7114 3.96999 98.6539 4.12813 98.6458 4.33837L98.6031 5.44943L98.2694 5.43661L98.3466 3.42717L98.6803 3.43998L98.6693 3.726C98.7393 3.62586 98.8315 3.54984 98.9462 3.49794C99.0632 3.44613 99.1902 3.42285 99.3271 3.42811Z" fill="#686868"/>
<path d="M101.321 5.6509C101.168 5.64041 101.031 5.60538 100.913 5.54581C100.795 5.48379 100.703 5.404 100.639 5.30643C100.574 5.20641 100.543 5.09514 100.544 4.97261L100.888 4.99607C100.891 5.0968 100.932 5.18173 101.01 5.25084C101.091 5.32012 101.2 5.35943 101.337 5.36874C101.464 5.3774 101.566 5.35615 101.643 5.305C101.72 5.25386 101.761 5.18557 101.767 5.10015C101.773 5.01228 101.739 4.94494 101.663 4.89813C101.588 4.84887 101.47 4.79792 101.31 4.74528C101.163 4.69608 101.044 4.64871 100.951 4.60317C100.861 4.55535 100.785 4.49006 100.722 4.4073C100.662 4.32226 100.636 4.21507 100.645 4.08571C100.652 3.9832 100.689 3.89131 100.755 3.81005C100.822 3.72878 100.913 3.66757 101.029 3.62641C101.145 3.58281 101.275 3.56591 101.419 3.57573C101.641 3.59087 101.816 3.65924 101.945 3.78083C102.074 3.90242 102.137 4.06118 102.134 4.2571L101.8 4.23439C101.8 4.12894 101.763 4.04182 101.69 3.97304C101.618 3.90442 101.518 3.8657 101.388 3.85689C101.269 3.84873 101.172 3.86787 101.098 3.9143C101.023 3.96073 100.983 4.02544 100.978 4.10842C100.973 4.17432 100.99 4.23065 101.029 4.27741C101.07 4.3219 101.121 4.35973 101.183 4.39091C101.247 4.4198 101.336 4.45403 101.448 4.49358C101.589 4.54245 101.704 4.58949 101.792 4.63469C101.879 4.67746 101.952 4.73884 102.011 4.81883C102.071 4.89898 102.099 5.00016 102.093 5.12236C102.086 5.2322 102.048 5.32896 101.981 5.41267C101.914 5.49638 101.823 5.56003 101.707 5.60363C101.594 5.64496 101.465 5.66071 101.321 5.6509Z" fill="#686868"/>
<path d="M131.884 12.8608C131.959 12.9171 132.016 12.9899 132.055 13.0794C132.096 13.1699 132.114 13.2655 132.111 13.3662C132.11 13.4679 132.086 13.5642 132.038 13.6552C131.978 13.7699 131.894 13.8584 131.786 13.9207C131.68 13.9809 131.556 14.0084 131.415 14.0033C131.277 13.9971 131.133 13.9542 130.981 13.8744L130.137 13.43L131.328 11.1667L132.14 11.594C132.294 11.6749 132.411 11.7698 132.492 11.8787C132.574 11.9855 132.619 12.0964 132.628 12.2115C132.636 12.3266 132.612 12.4382 132.555 12.5465C132.485 12.6807 132.389 12.7728 132.269 12.8228C132.152 12.8718 132.023 12.8845 131.884 12.8608ZM131.109 12.2996L131.606 12.5612C131.745 12.6341 131.869 12.658 131.979 12.6329C132.089 12.6079 132.174 12.538 132.234 12.4233C132.295 12.3085 132.304 12.1987 132.263 12.0939C132.221 11.9891 132.129 11.8991 131.986 11.8239L131.496 11.5658L131.109 12.2996ZM131.083 13.6172C131.231 13.6947 131.364 13.7204 131.482 13.6944C131.601 13.6685 131.693 13.5938 131.758 13.4704C131.824 13.3448 131.832 13.2235 131.783 13.1065C131.736 12.9874 131.639 12.8896 131.494 12.8132L130.981 12.5432L130.561 13.342L131.083 13.6172Z" fill="#686868"/>
<path d="M135.041 14.9568C135.009 15.0118 134.972 15.0682 134.93 15.1259L133.539 14.3208C133.451 14.4985 133.431 14.6666 133.481 14.8253C133.533 14.9831 133.636 15.1061 133.789 15.1943C133.913 15.2666 134.034 15.2981 134.149 15.2887C134.268 15.2784 134.373 15.2344 134.463 15.1566L134.775 15.3367C134.631 15.477 134.459 15.5597 134.258 15.5847C134.058 15.6075 133.854 15.5589 133.647 15.4388C133.482 15.3433 133.355 15.2204 133.267 15.0703C133.18 14.9215 133.139 14.7579 133.144 14.5795C133.149 14.3989 133.204 14.2187 133.308 14.0387C133.412 13.8588 133.54 13.7218 133.69 13.628C133.841 13.5342 134.001 13.4886 134.172 13.4914C134.346 13.4932 134.518 13.5432 134.687 13.6412C134.853 13.7368 134.978 13.8574 135.063 14.0029C135.149 14.1484 135.188 14.3043 135.183 14.4705C135.18 14.6359 135.133 14.798 135.041 14.9568ZM134.777 14.7236C134.841 14.6135 134.871 14.5052 134.868 14.3987C134.866 14.2901 134.834 14.1911 134.773 14.1019C134.715 14.0117 134.635 13.9372 134.533 13.8784C134.387 13.7939 134.235 13.7682 134.077 13.8013C133.922 13.8356 133.789 13.9311 133.679 14.0876L134.777 14.7236Z" fill="#686868"/>
<path d="M136.894 15.3815L136.26 16.3827C136.207 16.4654 136.188 16.5354 136.201 16.5928C136.215 16.6481 136.265 16.7033 136.352 16.7583L136.56 16.8898L136.408 17.1285L136.154 16.9675C135.997 16.868 135.902 16.7572 135.87 16.6351C135.837 16.513 135.873 16.3693 135.978 16.204L136.612 15.2028L136.392 15.0633L136.539 14.8308L136.759 14.9703L137.031 14.5425L137.313 14.7213L137.042 15.149L137.485 15.4299L137.337 15.6624L136.894 15.3815Z" fill="#686868"/>
<path d="M140.248 17.2756C140.373 17.3619 140.466 17.467 140.529 17.5909C140.594 17.7128 140.617 17.8465 140.6 17.9921C140.585 18.1391 140.524 18.2891 140.418 18.442L139.744 19.4169L139.473 19.2291L140.12 18.2934C140.234 18.1284 140.279 17.9741 140.257 17.8306C140.235 17.685 140.153 17.5628 140.01 17.464C139.866 17.3638 139.719 17.3291 139.569 17.3598C139.422 17.392 139.289 17.4945 139.169 17.6676L138.537 18.5822L138.262 18.3923L139.807 16.1587L140.081 16.3486L139.518 17.1635C139.631 17.1166 139.75 17.1027 139.877 17.1218C140.005 17.1423 140.129 17.1936 140.248 17.2756Z" fill="#686868"/>
<path d="M159.907 37.1201C160.108 36.9727 160.322 36.8859 160.548 36.8597C160.777 36.832 160.993 36.8629 161.198 36.9524C161.405 37.0439 161.578 37.1854 161.718 37.3769C161.883 37.6019 161.972 37.8381 161.986 38.0854C162.001 38.3326 161.936 38.5677 161.793 38.7906L161.557 38.4679C161.639 38.3196 161.674 38.1666 161.662 38.0089C161.651 37.8532 161.591 37.7003 161.481 37.5503C161.376 37.4061 161.247 37.3014 161.096 37.236C160.946 37.1707 160.784 37.1509 160.612 37.1768C160.442 37.2012 160.274 37.2741 160.108 37.3955C159.944 37.5154 159.824 37.6535 159.747 37.8096C159.673 37.9644 159.644 38.1235 159.66 38.2872C159.677 38.4508 159.738 38.6046 159.844 38.7488C159.953 38.8988 160.08 39.0033 160.223 39.0622C160.37 39.1216 160.526 39.1345 160.692 39.1007L160.929 39.4235C160.675 39.491 160.432 39.4806 160.201 39.3922C159.971 39.3024 159.774 39.145 159.61 38.92C159.469 38.7285 159.386 38.5213 159.359 38.2983C159.336 38.0759 159.371 37.8608 159.464 37.6529C159.558 37.4451 159.705 37.2675 159.907 37.1201Z" fill="#686868"/>
<path d="M161.842 40.3809C162.014 40.2675 162.186 40.2029 162.361 40.1872C162.537 40.1702 162.701 40.1982 162.852 40.2713C163.005 40.3464 163.13 40.4585 163.229 40.6074C163.326 40.7543 163.379 40.9027 163.387 41.0527C163.395 41.2026 163.369 41.3359 163.308 41.4524L163.614 41.2499L163.801 41.5314L162.124 42.6413L161.937 42.3598L162.25 42.1532C162.115 42.1629 161.979 42.1343 161.841 42.0673C161.706 42.0011 161.591 41.8955 161.495 41.7507C161.396 41.6018 161.344 41.4428 161.337 41.2738C161.331 41.1049 161.371 40.9418 161.458 40.7847C161.545 40.6276 161.673 40.493 161.842 40.3809ZM162.779 41.8028C162.905 41.7191 162.999 41.6206 163.059 41.5075C163.119 41.3944 163.144 41.2778 163.135 41.1577C163.13 41.0382 163.092 40.9265 163.023 40.8225C162.955 40.7184 162.867 40.6398 162.762 40.5865C162.656 40.5332 162.539 40.5121 162.412 40.5233C162.284 40.5344 162.157 40.5818 162.031 40.6655C161.902 40.7506 161.807 40.8503 161.745 40.9648C161.685 41.0779 161.657 41.1942 161.663 41.3136C161.671 41.4317 161.709 41.5428 161.778 41.6468C161.847 41.7508 161.934 41.8295 162.04 41.8828C162.149 41.9367 162.267 41.9582 162.395 41.947C162.524 41.9346 162.652 41.8865 162.779 41.8028Z" fill="#686868"/>
<path d="M166.034 45.2356C166.114 45.3701 166.157 45.5068 166.163 45.6457C166.171 45.7833 166.138 45.9158 166.063 46.0431C165.988 46.1704 165.87 46.2817 165.71 46.3769L164.692 46.9838L164.523 46.7001L165.5 46.1177C165.673 46.0149 165.778 45.8936 165.817 45.7535C165.86 45.6144 165.838 45.4723 165.751 45.3273C165.662 45.1781 165.543 45.0882 165.394 45.0576C165.247 45.0257 165.083 45.0636 164.902 45.1713L163.95 45.7388L163.781 45.4551L164.758 44.8726C164.93 44.7699 165.036 44.6485 165.075 44.5085C165.117 44.3693 165.095 44.2273 165.009 44.0823C164.92 43.9331 164.801 43.8431 164.652 43.8125C164.505 43.7806 164.341 43.8185 164.16 43.9263L163.208 44.4937L163.037 44.2069L164.764 43.1772L164.935 43.464L164.686 43.6125C164.81 43.6154 164.925 43.6497 165.03 43.7154C165.136 43.7833 165.223 43.875 165.292 43.9906C165.378 44.1355 165.422 44.2831 165.423 44.4333C165.425 44.5836 165.378 44.7236 165.285 44.8533C165.436 44.829 165.578 44.8525 165.711 44.9238C165.845 44.9951 165.953 45.099 166.034 45.2356Z" fill="#686868"/>
<path d="M166.678 48.5671C166.622 48.5971 166.56 48.6255 166.494 48.6525L165.737 47.2347C165.568 47.3388 165.463 47.4713 165.421 47.6322C165.383 47.7941 165.405 47.9528 165.488 48.1081C165.556 48.2355 165.642 48.3256 165.745 48.3787C165.852 48.4328 165.964 48.4505 166.081 48.4321L166.251 48.7493C166.055 48.7929 165.865 48.7722 165.681 48.6874C165.499 48.6014 165.352 48.4527 165.239 48.2412C165.149 48.0729 165.106 47.9017 165.11 47.7275C165.116 47.5556 165.167 47.395 165.265 47.2457C165.365 47.0953 165.506 46.9711 165.69 46.8731C165.873 46.7752 166.054 46.726 166.231 46.7256C166.408 46.7253 166.569 46.7713 166.712 46.8638C166.859 46.9572 166.979 47.0903 167.071 47.2629C167.161 47.4313 167.204 47.5998 167.2 47.7684C167.195 47.9371 167.147 48.0905 167.054 48.2287C166.965 48.3679 166.839 48.4807 166.678 48.5671ZM166.577 48.23C166.689 48.1701 166.772 48.094 166.825 48.0017C166.88 47.9083 166.906 47.8075 166.901 47.6993C166.899 47.5921 166.87 47.4867 166.815 47.3831C166.735 47.2342 166.62 47.1322 166.469 47.0772C166.318 47.0243 166.155 47.0352 165.979 47.11L166.577 48.23Z" fill="#686868"/>
<path d="M169.12 49.9292L166.667 51.0939L166.523 50.7923L168.976 49.6275L169.12 49.9292Z" fill="#686868"/>
<path d="M176.659 77.4602L174.116 77.7275L174.081 77.3954L176.624 77.1281L176.659 77.4602Z" fill="#686868"/>
<path d="M174.325 79.997C174.315 79.8432 174.331 79.7036 174.373 79.578C174.419 79.4522 174.485 79.3507 174.573 79.2734C174.663 79.196 174.769 79.1494 174.89 79.1335L174.914 79.4776C174.815 79.4944 174.737 79.5464 174.679 79.6339C174.621 79.7237 174.598 79.837 174.607 79.9736C174.616 80.1005 174.651 80.1986 174.712 80.2679C174.774 80.3372 174.847 80.3689 174.932 80.3629C175.02 80.3567 175.082 80.3132 175.118 80.2322C175.157 80.151 175.191 80.0272 175.221 79.8608C175.249 79.7092 175.28 79.5845 175.312 79.4866C175.347 79.3909 175.402 79.3062 175.475 79.2324C175.551 79.1609 175.653 79.1206 175.783 79.1116C175.885 79.1044 175.981 79.1283 176.071 79.1834C176.161 79.2384 176.234 79.3203 176.291 79.4292C176.35 79.5379 176.384 79.6642 176.394 79.8082C176.41 80.0303 176.366 80.2136 176.264 80.3581C176.161 80.5026 176.012 80.5865 175.818 80.61L175.794 80.2768C175.899 80.2622 175.98 80.2136 176.038 80.1311C176.096 80.051 176.121 79.9463 176.112 79.8169C176.103 79.6973 176.071 79.6039 176.015 79.5368C175.959 79.4696 175.889 79.4389 175.806 79.4447C175.74 79.4493 175.687 79.4739 175.646 79.5184C175.607 79.5653 175.577 79.6213 175.554 79.6867C175.535 79.7543 175.513 79.8465 175.489 79.9634C175.46 80.1102 175.429 80.23 175.397 80.323C175.366 80.4159 175.316 80.4967 175.244 80.5654C175.173 80.6366 175.077 80.6777 174.955 80.6887C174.845 80.6964 174.744 80.6728 174.652 80.6179C174.56 80.563 174.484 80.4813 174.425 80.3726C174.369 80.2662 174.336 80.141 174.325 79.997Z" fill="#686868"/>
<path d="M176.139 82.2897C176.256 82.3444 176.348 82.4244 176.415 82.5297C176.483 82.6375 176.519 82.7697 176.525 82.9261L176.18 82.9382L176.177 82.8502C176.164 82.4761 175.954 82.2961 175.548 82.3103L174.456 82.3485L174.444 82.0148L176.454 81.9446L176.465 82.2783L176.139 82.2897Z" fill="#686868"/>
<path d="M175.493 84.0113C175.699 84.0113 175.879 84.0529 176.033 84.1361C176.189 84.2192 176.31 84.333 176.396 84.4773C176.482 84.6241 176.524 84.7868 176.524 84.9654C176.524 85.1415 176.487 85.2944 176.411 85.4241C176.335 85.5538 176.239 85.6504 176.124 85.714H176.491V86.0516H174.48V85.714H174.855C174.737 85.6479 174.639 85.5489 174.561 85.4168C174.485 85.2871 174.447 85.1354 174.447 84.9617C174.447 84.7831 174.491 84.6217 174.58 84.4773C174.668 84.333 174.791 84.2192 174.95 84.1361C175.109 84.0529 175.29 84.0113 175.493 84.0113ZM175.49 85.714C175.641 85.714 175.773 85.6834 175.886 85.6222C175.998 85.5611 176.084 85.4779 176.143 85.3727C176.204 85.27 176.235 85.1562 176.235 85.0314C176.235 84.9067 176.205 84.7929 176.146 84.6902C176.088 84.5874 176.002 84.5055 175.89 84.4443C175.777 84.3832 175.645 84.3526 175.493 84.3526C175.339 84.3526 175.205 84.3832 175.09 84.4443C174.977 84.5055 174.89 84.5874 174.829 84.6902C174.77 84.7929 174.741 84.9067 174.741 85.0314C174.741 85.1562 174.77 85.27 174.829 85.3727C174.89 85.4779 174.977 85.5611 175.09 85.6222C175.205 85.6834 175.338 85.714 175.49 85.714Z" fill="#686868"/>
<path d="M175.442 89.1617C175.378 89.1595 175.311 89.1535 175.241 89.1437L175.297 87.5374C175.098 87.5427 174.941 87.6045 174.824 87.7228C174.71 87.8436 174.649 87.9921 174.643 88.1681C174.638 88.3124 174.667 88.4333 174.73 88.531C174.795 88.6312 174.883 88.7028 174.994 88.7458L174.981 89.1052C174.79 89.0447 174.636 88.9316 174.52 88.766C174.405 88.6004 174.352 88.3979 174.361 88.1583C174.368 87.9676 174.416 87.7979 174.507 87.6493C174.598 87.5032 174.723 87.39 174.883 87.3099C175.044 87.2299 175.229 87.1935 175.437 87.2008C175.645 87.208 175.826 87.256 175.979 87.3445C176.133 87.4331 176.248 87.5535 176.326 87.7055C176.407 87.8601 176.443 88.0351 176.437 88.2307C176.43 88.4214 176.382 88.5887 176.294 88.7325C176.206 88.8763 176.087 88.9847 175.938 89.0578C175.791 89.1335 175.625 89.1681 175.442 89.1617ZM175.524 88.8194C175.651 88.8238 175.761 88.7995 175.853 88.7464C175.948 88.6935 176.02 88.6189 176.07 88.5227C176.122 88.4291 176.151 88.3236 176.155 88.2062C176.161 88.0375 176.112 87.8914 176.008 87.7678C175.905 87.6467 175.758 87.5743 175.568 87.5505L175.524 88.8194Z" fill="#686868"/>
<path d="M176.955 90.7324L174.246 90.543L174.269 90.2099L176.978 90.3993L176.955 90.7324Z" fill="#686868"/>
<path d="M168.388 119.547L167.613 119.184L167.218 120.028L166.969 119.912L167.364 119.068L166.567 118.694L166.125 119.638L165.875 119.521L166.459 118.275L168.779 119.361L168.195 120.608L167.946 120.491L168.388 119.547Z" fill="#686868"/>
<path d="M166.098 123.54C166.027 123.68 165.934 123.789 165.819 123.868C165.707 123.947 165.577 123.989 165.429 123.994C165.281 123.998 165.125 123.957 164.959 123.873L163.904 123.333L164.055 123.039L165.067 123.557C165.246 123.648 165.405 123.673 165.544 123.632C165.685 123.594 165.793 123.5 165.87 123.349C165.949 123.195 165.962 123.046 165.909 122.903C165.857 122.762 165.738 122.643 165.551 122.547L164.564 122.042L164.715 121.748L165.728 122.267C165.906 122.358 166.065 122.383 166.204 122.342C166.345 122.304 166.453 122.209 166.53 122.059C166.609 121.904 166.622 121.756 166.569 121.613C166.518 121.471 166.399 121.353 166.211 121.257L165.225 120.752L165.377 120.455L167.167 121.371L167.015 121.668L166.757 121.536C166.82 121.643 166.852 121.758 166.852 121.882C166.851 122.007 166.82 122.13 166.758 122.25C166.681 122.4 166.58 122.516 166.453 122.597C166.327 122.678 166.183 122.713 166.024 122.703C166.124 122.817 166.18 122.95 166.191 123.101C166.201 123.252 166.17 123.399 166.098 123.54Z" fill="#686868"/>
<path d="M165.264 125.627C165.295 125.572 165.34 125.535 165.4 125.518C165.46 125.501 165.517 125.508 165.573 125.539C165.629 125.57 165.665 125.615 165.682 125.675C165.699 125.735 165.692 125.793 165.661 125.848C165.631 125.902 165.587 125.936 165.528 125.951C165.469 125.968 165.411 125.961 165.355 125.93C165.3 125.899 165.263 125.854 165.246 125.794C165.228 125.736 165.234 125.681 165.264 125.627ZM164.9 125.609L163.143 124.631L163.305 124.34L165.062 125.318L164.9 125.609Z" fill="#686868"/>
<path d="M164.687 127.253L162.362 125.85L162.534 125.564L164.86 126.967L164.687 127.253Z" fill="#686868"/>
<path d="M162.48 129.382L160.663 126.752L160.852 126.463L161.447 127.324L163.556 127.731L163.353 128.041L161.644 127.68L162.668 129.093L162.48 129.382Z" fill="#686868"/>
<path d="M53.4886 14.0003L54.9305 16.0905L54.6556 16.2802L53.5804 14.7215L53.9609 16.7594L53.7676 16.8928L51.9925 15.8125L53.0698 17.3741L52.795 17.5637L51.353 15.4735L51.649 15.2693L53.6142 16.4636L53.1956 14.2024L53.4886 14.0003Z" fill="#686868"/>
<path d="M55.1751 13.3311C55.1191 13.3612 55.0613 13.3673 55.0017 13.3495C54.942 13.3316 54.8971 13.2946 54.867 13.2386C54.8368 13.1826 54.8307 13.1248 54.8486 13.0651C54.8665 13.0055 54.9034 12.9606 54.9594 12.9304C55.0133 12.9014 55.0689 12.8965 55.1264 12.9155C55.1861 12.9334 55.231 12.9704 55.2611 13.0264C55.2913 13.0824 55.2974 13.1402 55.2795 13.1998C55.2638 13.2583 55.229 13.3021 55.1751 13.3311ZM55.4721 13.5421L56.4255 15.3126L56.1315 15.471L55.1781 13.7004L55.4721 13.5421Z" fill="#686868"/>
<path d="M56.9606 13.6569C56.8837 13.4663 56.8549 13.284 56.8742 13.11C56.8927 12.9336 56.9528 12.7788 57.0546 12.6453C57.1586 12.5109 57.2934 12.4103 57.459 12.3434C57.6223 12.2774 57.7783 12.2553 57.9269 12.277C58.0755 12.2988 58.2009 12.351 58.3029 12.4338L58.1654 12.0936L58.4785 11.9671L59.2318 13.8316L58.9187 13.9581L58.7785 13.611C58.7613 13.7447 58.7061 13.8725 58.6129 13.9946C58.5211 14.1135 58.3947 14.2054 58.2336 14.2705C58.068 14.3374 57.9018 14.3571 57.735 14.3295C57.5682 14.3019 57.4165 14.23 57.2798 14.1137C57.1431 13.9974 57.0367 13.8451 56.9606 13.6569ZM58.5407 13.0224C58.4839 12.8818 58.4061 12.7708 58.3072 12.6893C58.2083 12.6079 58.0991 12.5597 57.9796 12.5446C57.8614 12.5264 57.7445 12.5407 57.6288 12.5874C57.5131 12.6342 57.4187 12.704 57.3454 12.7969C57.2721 12.8899 57.2282 12.9999 57.2137 13.1272C57.1991 13.2544 57.2202 13.3884 57.2771 13.529C57.3348 13.6719 57.4136 13.7852 57.5133 13.8689C57.6122 13.9503 57.7207 14.0002 57.8389 14.0184C57.9561 14.0343 58.0726 14.0189 58.1883 13.9722C58.304 13.9255 58.3985 13.8556 58.4717 13.7627C58.5464 13.6666 58.5909 13.5549 58.6055 13.4277C58.6191 13.2981 58.5975 13.1631 58.5407 13.0224Z" fill="#686868"/>
<path d="M142.135 149.17L143.249 150.643L142.975 150.851L141.86 149.377C141.756 149.24 141.697 149.103 141.682 148.966C141.667 148.83 141.69 148.699 141.752 148.574C141.813 148.452 141.908 148.342 142.035 148.245C142.163 148.149 142.293 148.085 142.425 148.054C142.557 148.023 142.685 148.031 142.809 148.078C142.933 148.125 143.047 148.217 143.15 148.353L142.874 148.561C142.808 148.474 142.737 148.414 142.662 148.382C142.587 148.351 142.511 148.343 142.434 148.36C142.356 148.377 142.279 148.414 142.205 148.47C142.133 148.525 142.079 148.589 142.045 148.663C142.011 148.738 142 148.819 142.013 148.905C142.026 148.992 142.067 149.08 142.135 149.17Z" fill="#686868"/>
<path d="M140.503 150.54L140.526 150.574C140.606 150.689 140.663 150.807 140.698 150.929C140.733 151.051 140.744 151.17 140.732 151.286C140.72 151.404 140.683 151.513 140.622 151.615C140.561 151.719 140.475 151.809 140.364 151.885C140.252 151.963 140.137 152.012 140.019 152.033C139.901 152.055 139.785 152.051 139.671 152.021C139.557 151.992 139.449 151.94 139.347 151.864C139.245 151.789 139.155 151.694 139.075 151.579L139.052 151.545C138.972 151.43 138.915 151.312 138.881 151.191C138.846 151.07 138.835 150.95 138.848 150.832C138.86 150.716 138.897 150.606 138.958 150.503C139.018 150.402 139.105 150.312 139.217 150.235C139.329 150.157 139.443 150.108 139.56 150.086C139.678 150.065 139.794 150.069 139.909 150.098C140.022 150.128 140.13 150.18 140.231 150.255C140.333 150.331 140.423 150.426 140.503 150.54ZM140.254 150.763L140.23 150.729C140.175 150.65 140.114 150.581 140.046 150.523C139.979 150.466 139.909 150.424 139.834 150.396C139.758 150.368 139.681 150.358 139.602 150.366C139.524 150.375 139.447 150.406 139.372 150.459C139.297 150.51 139.242 150.571 139.207 150.64C139.172 150.711 139.155 150.786 139.155 150.866C139.155 150.946 139.17 151.027 139.199 151.11C139.229 151.194 139.271 151.276 139.326 151.355L139.349 151.389C139.404 151.468 139.465 151.535 139.533 151.591C139.6 151.649 139.672 151.692 139.748 151.719C139.823 151.748 139.9 151.759 139.979 151.751C140.057 151.744 140.133 151.714 140.209 151.661C140.284 151.61 140.339 151.549 140.374 151.478C140.408 151.407 140.425 151.332 140.425 151.25C140.425 151.17 140.41 151.089 140.38 151.005C140.35 150.922 140.308 150.842 140.254 150.763Z" fill="#686868"/>
<path d="M138.305 154.139L136.835 151.812L137.115 151.635L138.586 153.962L138.305 154.139ZM137.459 152.652L137.578 152.583C137.648 152.695 137.697 152.809 137.725 152.925C137.753 153.041 137.76 153.153 137.746 153.261C137.732 153.368 137.697 153.467 137.641 153.556C137.584 153.648 137.506 153.724 137.407 153.787C137.326 153.838 137.246 153.873 137.168 153.891C137.09 153.911 137.013 153.912 136.937 153.893C136.861 153.875 136.787 153.835 136.715 153.775C136.643 153.716 136.573 153.632 136.505 153.524L135.826 152.45L136.108 152.272L136.789 153.349C136.843 153.435 136.899 153.495 136.957 153.531C137.015 153.567 137.076 153.582 137.139 153.575C137.203 153.568 137.27 153.543 137.341 153.498C137.41 153.454 137.465 153.399 137.504 153.333C137.542 153.268 137.565 153.197 137.574 153.119C137.582 153.042 137.576 152.963 137.558 152.882C137.538 152.802 137.505 152.726 137.459 152.652Z" fill="#686868"/>
<path d="M134.739 154.829L133.979 153.507L134.266 153.342L135.232 155.022L134.961 155.179L134.739 154.829ZM134.567 154.372L134.689 154.307C134.754 154.423 134.798 154.539 134.821 154.655C134.844 154.773 134.847 154.885 134.829 154.992C134.81 155.099 134.771 155.196 134.711 155.283C134.65 155.372 134.569 155.445 134.467 155.504C134.385 155.551 134.303 155.583 134.224 155.598C134.145 155.614 134.069 155.612 133.994 155.59C133.918 155.568 133.846 155.526 133.776 155.463C133.707 155.4 133.641 155.314 133.577 155.203L132.944 154.102L133.233 153.936L133.868 155.04C133.919 155.128 133.972 155.191 134.028 155.229C134.085 155.268 134.145 155.285 134.209 155.28C134.273 155.276 134.341 155.254 134.414 155.212C134.485 155.171 134.542 155.118 134.583 155.055C134.624 154.991 134.65 154.921 134.663 154.844C134.674 154.767 134.671 154.688 134.656 154.606C134.64 154.525 134.61 154.447 134.567 154.372Z" fill="#686868"/>
<path d="M28.8383 132.832L28.3258 132.137C28.2095 131.979 28.1354 131.828 28.1034 131.684C28.0706 131.539 28.0805 131.403 28.1329 131.277C28.1836 131.151 28.2772 131.037 28.4137 130.936C28.5099 130.866 28.6124 130.82 28.7213 130.801C28.8285 130.781 28.9369 130.787 29.0465 130.819C29.1545 130.851 29.2591 130.908 29.3605 130.989L29.4482 131.044L29.9299 131.698L29.7056 131.867L29.3419 131.374C29.2682 131.274 29.1896 131.204 29.106 131.163C29.0216 131.123 28.9371 131.108 28.8527 131.118C28.7683 131.128 28.69 131.16 28.6179 131.213C28.5371 131.273 28.4782 131.341 28.441 131.417C28.4038 131.494 28.394 131.578 28.4117 131.67C28.4276 131.762 28.475 131.862 28.5536 131.969L28.8609 132.385L30.7329 131.005L30.9381 131.284L28.8383 132.832ZM30.0333 130.056L29.4578 131.269L29.2427 130.98L29.7969 129.772L29.8142 129.759L30.0333 130.056Z" fill="#686868"/>
<path d="M27.875 127.637L26.6362 128.466L26.4508 128.189L28.0618 127.111L28.2383 127.374L27.875 127.637ZM27.5006 127.812L27.4209 127.699C27.5281 127.627 27.635 127.572 27.7416 127.534C27.8466 127.495 27.9489 127.479 28.0486 127.484C28.1484 127.489 28.244 127.519 28.3356 127.574C28.4261 127.63 28.5099 127.715 28.587 127.831C28.6395 127.909 28.6763 127.989 28.6973 128.069C28.7177 128.149 28.7196 128.228 28.7032 128.307C28.6868 128.385 28.649 128.463 28.5899 128.54C28.53 128.616 28.4465 128.69 28.3393 128.762L27.3 129.458L27.1156 129.182L28.1579 128.484C28.2304 128.436 28.2851 128.388 28.3221 128.34C28.3575 128.292 28.3798 128.245 28.3889 128.198C28.3965 128.151 28.3941 128.107 28.3817 128.065C28.3687 128.022 28.3496 127.982 28.3243 127.944C28.2459 127.827 28.1615 127.749 28.0709 127.71C27.9794 127.672 27.8855 127.664 27.7891 127.686C27.6911 127.707 27.5949 127.749 27.5006 127.812Z" fill="#686868"/>
<path d="M24.6309 126.76L24.4582 126.475L26.4905 125.244L26.8272 125.073L26.985 125.334L24.6309 126.76ZM25.2909 124.439L25.3231 124.419C25.4436 124.346 25.5642 124.293 25.6847 124.259C25.8042 124.226 25.9185 124.214 26.0275 124.223C26.1365 124.233 26.2361 124.265 26.3263 124.319C26.4164 124.373 26.4927 124.452 26.5552 124.555C26.619 124.66 26.6571 124.764 26.6696 124.865C26.6805 124.966 26.6681 125.064 26.6324 125.16C26.5967 125.255 26.5403 125.349 26.463 125.441C26.3851 125.531 26.2891 125.619 26.1749 125.705L26.0339 125.79C25.9039 125.852 25.7808 125.897 25.6645 125.924C25.5477 125.95 25.4386 125.957 25.3373 125.944C25.2351 125.932 25.1422 125.898 25.0588 125.841C24.9744 125.784 24.9006 125.704 24.8375 125.6C24.7744 125.495 24.7388 125.391 24.7308 125.285C24.7218 125.18 24.7381 125.078 24.7799 124.979C24.8211 124.878 24.8851 124.782 24.972 124.691C25.0579 124.6 25.1642 124.516 25.2909 124.439ZM25.4957 124.705L25.4635 124.724C25.3808 124.774 25.3077 124.829 25.2445 124.888C25.1802 124.948 25.1307 125.012 25.0959 125.079C25.0602 125.146 25.0431 125.217 25.0449 125.292C25.0456 125.367 25.0704 125.445 25.1193 125.525C25.1626 125.597 25.2126 125.652 25.2693 125.69C25.3254 125.727 25.3855 125.752 25.4497 125.763C25.5128 125.775 25.5781 125.777 25.6454 125.768C25.7112 125.759 25.7755 125.743 25.8385 125.72L26.2079 125.497C26.2695 125.437 26.3224 125.369 26.3665 125.292C26.409 125.214 26.4323 125.132 26.4365 125.044C26.44 124.955 26.4136 124.864 26.3573 124.771C26.3109 124.695 26.256 124.639 26.1925 124.603C26.1274 124.567 26.0571 124.549 25.9815 124.549C25.9053 124.547 25.826 124.56 25.7435 124.588C25.6611 124.616 25.5785 124.654 25.4957 124.705Z" fill="#686868"/>
<path d="M24.7636 121.825L22.9794 122.184L22.8096 121.872L25.1467 121.484C25.1973 121.476 25.2538 121.473 25.3163 121.473C25.3793 121.471 25.4437 121.478 25.5095 121.494C25.5753 121.51 25.6373 121.539 25.6954 121.58C25.754 121.621 25.8045 121.679 25.8468 121.757C25.8594 121.78 25.8723 121.811 25.8854 121.85C25.8986 121.889 25.907 121.917 25.9108 121.934L25.6757 122.065C25.6722 122.056 25.6661 122.042 25.6574 122.024C25.6492 122.004 25.6431 121.99 25.6391 121.982C25.6031 121.916 25.5636 121.865 25.5206 121.829C25.4787 121.792 25.4287 121.769 25.3706 121.759C25.313 121.749 25.2428 121.751 25.16 121.766L24.7636 121.825ZM23.4272 123.005L24.5076 121.842L24.7732 121.6L24.9942 121.75L23.6004 123.323L23.4272 123.005Z" fill="#686868"/>
<path d="M22.7992 48.6848L22.5146 49.2816L22.2624 49.1652L22.5208 48.6235C22.5635 48.534 22.5857 48.4486 22.5874 48.3674C22.5891 48.2861 22.5706 48.2138 22.532 48.1504C22.4929 48.0854 22.434 48.0341 22.3553 47.9966C22.269 47.9555 22.191 47.9388 22.1211 47.9465C22.0507 47.9526 21.9869 47.9837 21.9297 48.0398C21.8719 48.0943 21.8184 48.1733 21.769 48.2768L21.5499 48.7361L23.6491 49.7373L23.5002 50.0495L21.1455 48.9263L21.5135 48.1549C21.5711 48.0342 21.6349 47.9323 21.705 47.8492C21.7739 47.7656 21.85 47.7033 21.9331 47.6622C22.0157 47.6196 22.1045 47.5997 22.1997 47.6028C22.2948 47.6058 22.3974 47.6336 22.5074 47.686C22.6044 47.7323 22.6805 47.799 22.7355 47.8862C22.7895 47.9728 22.8202 48.0721 22.8276 48.1842C22.8355 48.2952 22.8185 48.4128 22.7765 48.537L22.7992 48.6848ZM23.8936 49.2247L23.5573 49.9298L23.3875 49.6324L23.6397 49.1036C23.687 49.0044 23.7099 48.9121 23.7083 48.8266C23.7072 48.7401 23.6842 48.6636 23.6391 48.5971C23.593 48.5301 23.5268 48.476 23.4406 48.4349C23.3532 48.3932 23.2703 48.3728 23.1918 48.3738C23.1133 48.3747 23.0408 48.4003 22.9744 48.4507C22.908 48.5011 22.8496 48.5792 22.7992 48.6848L22.5871 49.1296L22.338 49.0068L22.628 48.3987L22.7502 48.3756C22.8139 48.267 22.892 48.1865 22.9846 48.134C23.076 48.081 23.1735 48.0541 23.2772 48.0532C23.3813 48.0513 23.4841 48.0745 23.5854 48.1228C23.7321 48.1927 23.8406 48.2842 23.9111 48.3973C23.981 48.5087 24.0146 48.6352 24.0119 48.7769C24.0081 48.918 23.9687 49.0673 23.8936 49.2247Z" fill="#686868"/>
<path d="M25.1243 46.924C25.062 47.0438 24.9853 47.1419 24.8943 47.2184C24.8028 47.2933 24.7018 47.3464 24.5912 47.3778C24.4812 47.408 24.3656 47.4152 24.2446 47.3994C24.1236 47.3835 24.0027 47.3441 23.8819 47.2812L23.8152 47.2465C23.6753 47.1737 23.5615 47.0882 23.4739 46.9901C23.3852 46.8914 23.3212 46.7867 23.2819 46.676C23.2426 46.5653 23.2267 46.4547 23.2344 46.3442C23.2421 46.2338 23.271 46.1303 23.3212 46.0339C23.3852 45.911 23.4616 45.8161 23.5503 45.7491C23.6395 45.6811 23.7372 45.6384 23.8433 45.6209C23.9483 45.6028 24.0594 45.6068 24.1765 45.6327C24.2925 45.6581 24.411 45.7023 24.5317 45.7651L24.6637 45.8338L23.9952 47.118L23.7552 46.9931L24.2706 46.0029L24.2484 45.9913C24.1699 45.9559 24.0874 45.9331 24.001 45.9232C23.9152 45.9122 23.8338 45.9237 23.7568 45.9577C23.6799 45.9917 23.6152 46.059 23.5628 46.1597C23.5281 46.2264 23.5104 46.2953 23.5097 46.3664C23.5081 46.4369 23.5243 46.5066 23.5584 46.5755C23.5926 46.6445 23.6436 46.7107 23.7115 46.7744C23.7793 46.838 23.8652 46.8968 23.969 46.9509L24.0358 46.9856C24.1174 47.0281 24.2 47.057 24.2836 47.0722C24.3667 47.0859 24.4466 47.085 24.5233 47.0697C24.6005 47.0533 24.6707 47.0219 24.734 46.9754C24.7978 46.9278 24.8507 46.8638 24.8926 46.7832C24.9467 46.6794 24.9712 46.5804 24.9664 46.4863C24.9615 46.3922 24.9376 46.2996 24.8948 46.2086L25.1289 46.1043C25.1657 46.1706 25.1947 46.2456 25.2158 46.3293C25.2368 46.413 25.2415 46.5049 25.2297 46.6052C25.2185 46.7044 25.1833 46.8107 25.1243 46.924Z" fill="#686868"/>
<path d="M24.886 44.1536L26.2132 44.9044L26.0499 45.1929L24.3626 44.2383L24.517 43.9654L24.886 44.1536ZM25.2667 44.4595L25.1941 44.577C25.0793 44.5106 24.9824 44.4332 24.9035 44.3446C24.8236 44.2555 24.7643 44.1602 24.7256 44.0587C24.6869 43.9572 24.6714 43.8537 24.6789 43.7482C24.686 43.641 24.7184 43.5365 24.7761 43.4346C24.8231 43.3515 24.8769 43.2831 24.9374 43.2295C24.9969 43.1753 25.0643 43.1386 25.1396 43.1195C25.2156 43.0993 25.2996 43.0988 25.3917 43.118C25.4827 43.1365 25.5839 43.1773 25.6951 43.2402L26.8008 43.8658L26.6367 44.1559L25.5279 43.5285C25.4395 43.4785 25.3615 43.4515 25.2937 43.4475C25.225 43.4429 25.1645 43.4588 25.1124 43.4952C25.0592 43.531 25.012 43.5853 24.9708 43.658C24.9302 43.7298 24.9082 43.8038 24.9049 43.8801C24.9021 43.9554 24.9151 44.0294 24.944 44.102C24.9735 44.1736 25.0158 44.2407 25.0709 44.3035C25.1255 44.3646 25.1908 44.4166 25.2667 44.4595Z" fill="#686868"/>
<path d="M99.4363 164.46L99.0936 164.49C99.0971 164.325 99.1312 164.174 99.196 164.037C99.2608 163.901 99.3595 163.789 99.4921 163.7C99.6247 163.613 99.7952 163.56 100.003 163.542C100.156 163.529 100.297 163.545 100.427 163.591C100.556 163.638 100.669 163.709 100.768 163.806C100.866 163.904 100.946 164.025 101.008 164.168C101.069 164.313 101.107 164.476 101.123 164.658L101.145 164.917C101.161 165.099 101.152 165.266 101.117 165.418C101.081 165.571 101.023 165.704 100.942 165.818C100.859 165.932 100.756 166.023 100.633 166.091C100.509 166.16 100.367 166.201 100.207 166.215C100.01 166.232 99.8411 166.21 99.699 166.148C99.5569 166.086 99.4427 165.993 99.3562 165.869C99.2687 165.746 99.2086 165.599 99.1757 165.429L99.5184 165.399C99.5457 165.519 99.5858 165.621 99.6386 165.704C99.6915 165.788 99.7617 165.85 99.8492 165.89C99.9366 165.931 100.048 165.945 100.182 165.933C100.297 165.923 100.397 165.892 100.482 165.84C100.565 165.789 100.632 165.72 100.685 165.634C100.736 165.548 100.771 165.447 100.791 165.331C100.811 165.216 100.815 165.089 100.803 164.951L100.78 164.688C100.769 164.561 100.745 164.443 100.709 164.333C100.672 164.223 100.623 164.129 100.56 164.049C100.498 163.969 100.423 163.909 100.334 163.868C100.245 163.827 100.143 163.812 100.028 163.822C99.8816 163.835 99.767 163.869 99.6842 163.923C99.6014 163.977 99.5418 164.049 99.5053 164.14C99.4677 164.231 99.4447 164.337 99.4363 164.46Z" fill="#686868"/>
<path d="M97.7269 164.672L97.7284 164.713C97.7335 164.853 97.718 164.983 97.6817 165.104C97.6456 165.226 97.5909 165.333 97.5178 165.424C97.4446 165.516 97.3547 165.589 97.2478 165.642C97.141 165.696 97.0202 165.725 96.8853 165.73C96.7492 165.735 96.626 165.715 96.5155 165.669C96.4039 165.624 96.3082 165.558 96.2285 165.471C96.1477 165.386 96.0848 165.283 96.0398 165.164C95.9948 165.046 95.9698 164.918 95.9647 164.778L95.9631 164.737C95.958 164.597 95.9736 164.467 96.0098 164.346C96.046 164.225 96.1012 164.118 96.1756 164.026C96.2487 163.935 96.3387 163.862 96.4455 163.808C96.5511 163.755 96.672 163.726 96.8081 163.721C96.9441 163.716 97.0674 163.736 97.1778 163.781C97.2883 163.828 97.3839 163.893 97.4648 163.979C97.5445 164.066 97.6068 164.168 97.6517 164.286C97.6967 164.404 97.7217 164.532 97.7269 164.672ZM97.3971 164.725L97.3956 164.684C97.3921 164.588 97.3774 164.497 97.3515 164.412C97.3258 164.328 97.289 164.254 97.2412 164.19C97.1922 164.126 97.1324 164.076 97.0618 164.04C96.9912 164.006 96.91 163.99 96.818 163.994C96.7273 163.997 96.6486 164.018 96.5819 164.058C96.5141 164.099 96.4587 164.153 96.4157 164.22C96.3728 164.287 96.3415 164.364 96.322 164.449C96.3012 164.536 96.2926 164.628 96.2962 164.725L96.2977 164.766C96.3012 164.861 96.3164 164.951 96.3434 165.035C96.3693 165.12 96.4067 165.194 96.4556 165.258C96.5034 165.324 96.5627 165.374 96.6333 165.41C96.7027 165.445 96.7834 165.462 96.8753 165.458C96.9661 165.455 97.0453 165.433 97.1132 165.392C97.1798 165.351 97.2352 165.297 97.2793 165.228C97.3222 165.161 97.3535 165.084 97.373 164.997C97.3926 164.911 97.4006 164.821 97.3971 164.725Z" fill="#686868"/>
<path d="M94.2814 166.507L94.3198 163.755L94.653 163.76L94.6146 166.512L94.2814 166.507Z" fill="#686868"/>
<path d="M92.0081 163.836C92.1428 163.845 92.2636 163.875 92.3703 163.928C92.4758 163.981 92.5651 164.052 92.6384 164.141C92.7105 164.229 92.7637 164.332 92.798 164.449C92.8324 164.566 92.8451 164.693 92.8363 164.828L92.8315 164.904C92.8213 165.061 92.789 165.199 92.7346 165.319C92.6801 165.44 92.6101 165.541 92.5247 165.622C92.4393 165.702 92.3445 165.761 92.2403 165.799C92.1361 165.837 92.0298 165.852 91.9213 165.845C91.7831 165.836 91.6654 165.804 91.5683 165.75C91.4701 165.696 91.3916 165.624 91.3328 165.534C91.2739 165.445 91.2327 165.342 91.2091 165.224C91.1855 165.108 91.1781 164.982 91.1869 164.846L91.1965 164.697L92.6413 164.791L92.6238 165.061L91.5099 164.989L91.5082 165.014C91.5075 165.1 91.5199 165.184 91.5457 165.268C91.5702 165.351 91.6136 165.42 91.6758 165.477C91.738 165.534 91.8257 165.566 91.9389 165.573C92.014 165.578 92.0842 165.566 92.1494 165.538C92.2146 165.511 92.2719 165.468 92.3212 165.409C92.3705 165.35 92.4105 165.277 92.4413 165.189C92.4722 165.101 92.4913 164.999 92.4989 164.882L92.5038 164.807C92.5097 164.715 92.5028 164.628 92.483 164.545C92.4619 164.464 92.4289 164.391 92.384 164.327C92.3378 164.263 92.2807 164.211 92.2126 164.172C92.1433 164.133 92.0634 164.111 91.9728 164.105C91.856 164.097 91.7555 164.115 91.6714 164.157C91.5872 164.199 91.5122 164.259 91.4462 164.335L91.2562 164.163C91.3021 164.102 91.359 164.045 91.4271 163.992C91.4951 163.939 91.5774 163.898 91.6739 163.868C91.7692 163.838 91.8806 163.828 92.0081 163.836Z" fill="#686868"/>
<path d="M15.4344 93.9473L13.6041 94.198L13.5574 93.8572L15.3877 93.6064C15.5581 93.5831 15.7067 93.5983 15.8334 93.6521C15.9601 93.7059 16.0627 93.7901 16.1411 93.9047C16.2181 94.0184 16.2675 94.1545 16.2893 94.3131C16.311 94.4716 16.303 94.6162 16.2655 94.7467C16.2279 94.8773 16.1583 94.9851 16.0566 95.0701C15.9549 95.1552 15.8194 95.2093 15.6502 95.2325L15.6033 94.8899C15.7121 94.875 15.7987 94.8426 15.8631 94.7928C15.9274 94.743 15.9712 94.6803 15.9946 94.6048C16.0179 94.5281 16.0232 94.4435 16.0105 94.3512C15.9982 94.2613 15.9683 94.1834 15.9207 94.1176C15.8717 94.0507 15.8065 94.0018 15.7251 93.9708C15.6425 93.9399 15.5456 93.932 15.4344 93.9473Z" fill="#686868"/>
<path d="M15.4651 89.5992L14.4704 89.681C14.3942 89.6873 14.3294 89.7082 14.276 89.7437C14.2213 89.7782 14.181 89.827 14.155 89.8903C14.1291 89.9536 14.1198 90.0298 14.1271 90.1191C14.134 90.2025 14.1543 90.2745 14.188 90.3353C14.2217 90.3948 14.2632 90.4405 14.3126 90.4724C14.3618 90.5031 14.4133 90.5163 14.4668 90.5119L14.494 90.8423C14.4249 90.8479 14.355 90.8357 14.2842 90.8056C14.2134 90.7754 14.1479 90.7293 14.0877 90.6671C14.0261 90.6039 13.9754 90.5265 13.9356 90.4351C13.8944 90.3426 13.869 90.238 13.8594 90.1214C13.8479 89.9809 13.8615 89.8551 13.9003 89.7441C13.939 89.6318 14.0041 89.5414 14.0955 89.4727C14.1857 89.403 14.3028 89.3622 14.4468 89.3503L15.3469 89.2763C15.4112 89.2711 15.4792 89.2601 15.5509 89.2434C15.6225 89.2255 15.6836 89.2031 15.7342 89.1762L15.7627 89.1738L15.7911 89.5185C15.7543 89.5383 15.7048 89.5555 15.6425 89.5703C15.579 89.5851 15.5199 89.5947 15.4651 89.5992ZM14.6193 89.6112L14.8512 89.5886L14.8786 89.9225C14.8864 90.0166 14.901 90.0999 14.9225 90.1724C14.9429 90.245 14.97 90.3051 15.0039 90.3527C15.0377 90.4002 15.0784 90.4352 15.1258 90.4577C15.172 90.4803 15.2248 90.4891 15.2844 90.4842C15.3451 90.4792 15.3993 90.461 15.4471 90.4295C15.4948 90.398 15.5313 90.3537 15.5566 90.2965C15.5806 90.2381 15.5892 90.1685 15.5826 90.0876C15.5742 89.9864 15.5455 89.8988 15.4962 89.825C15.447 89.7511 15.3896 89.6941 15.324 89.654C15.2583 89.6126 15.1961 89.5926 15.1374 89.5938L15.2848 89.4397C15.3355 89.4439 15.3927 89.462 15.4564 89.4939C15.5202 89.5258 15.5826 89.5704 15.6436 89.6277C15.7034 89.6839 15.7552 89.7528 15.799 89.8343C15.8416 89.9147 15.8672 90.0072 15.8758 90.112C15.8866 90.243 15.8704 90.3599 15.8274 90.463C15.7842 90.5648 15.722 90.6466 15.6408 90.7084C15.5583 90.7691 15.4635 90.8039 15.3563 90.8127C15.2527 90.8212 15.16 90.8085 15.0781 90.7745C14.995 90.7405 14.9241 90.6876 14.8655 90.6158C14.8057 90.544 14.7576 90.4556 14.7215 90.3507C14.6853 90.2458 14.6617 90.1273 14.6509 89.9952L14.6193 89.6112Z" fill="#686868"/>
<path d="M14.1055 86.1412L15.6584 86.0978L15.6677 86.4309L13.7297 86.4851L13.7209 86.1698L14.1055 86.1412ZM14.6178 86.195L14.6168 86.3492C14.4842 86.3517 14.3613 86.3378 14.2481 86.3075C14.1338 86.2772 14.0339 86.2304 13.9485 86.1671C13.863 86.1037 13.7963 86.0237 13.7482 85.9271C13.6989 85.8305 13.6724 85.7177 13.6688 85.5887C13.6663 85.498 13.6771 85.414 13.7012 85.3369C13.7242 85.2598 13.7623 85.1924 13.8157 85.1347C13.869 85.0771 13.9383 85.0315 14.0234 84.9981C14.1085 84.9646 14.2119 84.9462 14.3337 84.9428L15.6251 84.9067L15.6343 85.2381L14.3591 85.2737C14.2576 85.2765 14.1769 85.2961 14.1169 85.3325C14.057 85.3676 14.0141 85.4166 13.9884 85.4794C13.9615 85.5423 13.9492 85.6156 13.9515 85.6992C13.9543 85.7971 13.9739 85.8784 14.0103 85.9431C14.0468 86.0078 14.096 86.059 14.158 86.0967C14.22 86.1344 14.2907 86.1611 14.37 86.1768C14.4481 86.1914 14.5307 86.1974 14.6178 86.195ZM14.4001 84.9445L14.4743 85.1647C14.368 85.1665 14.2655 85.152 14.1666 85.1213C14.0677 85.0894 13.9792 85.0423 13.901 84.98C13.8227 84.9164 13.7602 84.8375 13.7133 84.7432C13.6653 84.649 13.6395 84.5404 13.6361 84.4174C13.6332 84.3135 13.6444 84.2212 13.6696 84.1404C13.6948 84.0584 13.7353 83.9892 13.7911 83.9327C13.8456 83.875 13.9167 83.8306 14.0042 83.7994C14.0918 83.7683 14.1965 83.7511 14.3183 83.7477L15.5917 83.7121L15.601 84.0452L14.324 84.0809C14.2153 84.0839 14.1316 84.1036 14.0729 84.1399C14.0129 84.175 13.9719 84.224 13.9497 84.2867C13.9263 84.3483 13.9158 84.4215 13.9182 84.5063C13.9202 84.5791 13.9346 84.6433 13.9612 84.6987C13.9879 84.7541 14.0238 84.8003 14.0691 84.8373C14.1131 84.8743 14.1635 84.9021 14.2202 84.9209C14.2768 84.9384 14.3368 84.9463 14.4001 84.9445Z" fill="#686868"/>
<path d="M15.376 80.9851L14.3783 80.959C14.3019 80.957 14.2352 80.9707 14.1783 81.0003C14.1202 81.0287 14.0748 81.0729 14.0422 81.133C14.0095 81.1931 13.9921 81.2679 13.9897 81.3574C13.9875 81.441 13.9999 81.5148 14.0269 81.5789C14.054 81.6417 14.0903 81.6917 14.1359 81.7287C14.1816 81.7646 14.2313 81.7832 14.285 81.7846L14.2763 82.116C14.2071 82.1142 14.1389 82.0944 14.0718 82.0568C14.0046 82.0192 13.9445 81.9663 13.8913 81.898C13.837 81.8284 13.7949 81.7461 13.7651 81.6509C13.7342 81.5545 13.7203 81.4478 13.7233 81.3308C13.727 81.1898 13.7542 81.0663 13.8047 80.9601C13.8554 80.8527 13.9298 80.7698 14.0281 80.7114C14.1253 80.6518 14.2461 80.6239 14.3906 80.6277L15.2933 80.6513C15.3578 80.653 15.4266 80.6494 15.4998 80.6406C15.5729 80.6306 15.6361 80.6149 15.6892 80.5936L15.7178 80.5943L15.7088 80.94C15.6701 80.9557 15.619 80.9675 15.5555 80.9754C15.4908 80.9833 15.4309 80.9865 15.376 80.9851ZM14.5339 80.9057L14.7668 80.9082L14.7581 81.2431C14.7556 81.3375 14.7611 81.4219 14.7747 81.4963C14.7871 81.5707 14.8076 81.6334 14.8361 81.6843C14.8647 81.7353 14.9013 81.7744 14.946 81.8019C14.9895 81.8293 15.0411 81.8438 15.1008 81.8454C15.1617 81.847 15.2175 81.8347 15.2684 81.8086C15.3193 81.7824 15.3604 81.7423 15.3917 81.6881C15.4218 81.6327 15.4379 81.5645 15.44 81.4833C15.4427 81.3818 15.4236 81.2916 15.3826 81.2129C15.3416 81.1341 15.2907 81.0713 15.2298 81.0243C15.1689 80.9761 15.1093 80.9494 15.0509 80.9443L15.214 80.807C15.2639 80.8166 15.3189 80.8408 15.3788 80.8794C15.4387 80.918 15.4959 80.9691 15.5504 81.0327C15.6038 81.095 15.6478 81.169 15.6826 81.2548C15.7163 81.3393 15.7317 81.4341 15.7289 81.5392C15.7255 81.6706 15.6968 81.7851 15.6429 81.8829C15.589 81.9795 15.5183 82.0541 15.4309 82.1068C15.3423 82.1582 15.2443 82.1825 15.1368 82.1797C15.0329 82.177 14.9421 82.1543 14.8644 82.1116C14.7854 82.069 14.7207 82.0087 14.6701 81.9309C14.6184 81.8531 14.5802 81.7601 14.5556 81.6519C14.5309 81.5437 14.5203 81.4233 14.5238 81.2908L14.5339 80.9057Z" fill="#686868"/>
<path d="M13.2044 77.2733L15.9477 77.494L15.921 77.8262L13.1776 77.6055L13.2044 77.2733Z" fill="#686868"/>
<path d="M58.0685 156.949L58.6623 157.24L58.5433 157.491L58.0043 157.227C57.9152 157.183 57.8301 157.16 57.7489 157.158C57.6677 157.155 57.5952 157.173 57.5314 157.211C57.466 157.249 57.4141 157.308 57.3757 157.386C57.3337 157.472 57.3162 157.55 57.3231 157.62C57.3285 157.69 57.3589 157.754 57.4144 157.812C57.4683 157.87 57.5468 157.925 57.6498 157.975L58.1067 158.199L59.1299 156.11L59.4405 156.263L58.2927 158.605L57.5252 158.229C57.4051 158.17 57.3038 158.106 57.2215 158.035C57.1387 157.965 57.0772 157.888 57.037 157.805C56.9951 157.722 56.9763 157.633 56.9803 157.537C56.9843 157.442 57.0131 157.34 57.0667 157.231C57.114 157.134 57.1815 157.059 57.2693 157.005C57.3564 156.952 57.4561 156.922 57.5682 156.916C57.6793 156.909 57.7967 156.927 57.9205 156.97L58.0685 156.949ZM58.6198 155.861L59.3214 156.204L59.0222 156.371L58.4961 156.113C58.3974 156.065 58.3053 156.041 58.2198 156.042C58.1333 156.042 58.0565 156.064 57.9896 156.108C57.9221 156.154 57.8674 156.219 57.8253 156.305C57.7827 156.392 57.7615 156.475 57.7616 156.553C57.7617 156.632 57.7866 156.705 57.8363 156.772C57.886 156.838 57.9634 156.898 58.0685 156.949L58.511 157.166L58.3856 157.414L57.7806 157.117L57.7588 156.995C57.6509 156.93 57.5712 156.851 57.5197 156.758C57.4676 156.666 57.4417 156.568 57.442 156.465C57.4411 156.361 57.4654 156.258 57.5148 156.157C57.5863 156.011 57.6789 155.904 57.7926 155.834C57.9048 155.766 58.0317 155.733 58.1733 155.738C58.3144 155.743 58.4632 155.784 58.6198 155.861Z" fill="#686868"/>
<path d="M55.6879 156.152L56.4626 154.713L56.7545 154.871L55.8354 156.578L55.5514 156.425L55.6879 156.152ZM55.0052 156.143L55.1529 155.872C55.1742 155.891 55.1957 155.906 55.2172 155.919C55.2371 155.933 55.2607 155.947 55.2881 155.961C55.3554 155.998 55.4205 156.019 55.4833 156.026C55.5462 156.033 55.6057 156.027 55.6618 156.008C55.718 155.989 55.7707 155.959 55.8201 155.918C55.8678 155.877 55.9115 155.828 55.9513 155.769L56.0588 155.766C56.0033 155.869 55.9412 155.96 55.8725 156.04C55.8028 156.119 55.7277 156.182 55.6472 156.228C55.5661 156.275 55.482 156.3 55.3947 156.304C55.3059 156.307 55.2152 156.284 55.1227 156.235C55.1016 156.223 55.0789 156.208 55.0543 156.188C55.0293 156.169 55.0129 156.154 55.0052 156.143Z" fill="#686868"/>
<path d="M52.786 154.84L53.77 153.17L54.0572 153.339L53.0732 155.009L52.786 154.84ZM52.8338 155.465C52.8065 155.511 52.7696 155.542 52.723 155.558C52.6754 155.573 52.6238 155.564 52.5682 155.531C52.5137 155.499 52.4814 155.458 52.4714 155.409C52.4603 155.36 52.4684 155.312 52.4957 155.266C52.5218 155.222 52.5591 155.192 52.6078 155.178C52.6548 155.164 52.7056 155.173 52.7601 155.205C52.8157 155.238 52.8488 155.278 52.8594 155.326C52.8684 155.374 52.8599 155.421 52.8338 155.465Z" fill="#686868"/>
<path d="M50.3257 151.394L49.7865 152.234C49.7452 152.298 49.7224 152.362 49.7182 152.426C49.7124 152.491 49.7267 152.552 49.7612 152.611C49.7957 152.67 49.8506 152.724 49.926 152.773C49.9964 152.818 50.0659 152.845 50.1347 152.855C50.2025 152.865 50.264 152.86 50.3193 152.84C50.3737 152.819 50.4153 152.787 50.4444 152.741L50.7233 152.92C50.6859 152.979 50.6337 153.027 50.5668 153.065C50.4998 153.103 50.4234 153.127 50.3374 153.137C50.2498 153.147 50.1575 153.141 50.0607 153.117C49.9622 153.093 49.8637 153.05 49.7652 152.987C49.6466 152.91 49.555 152.823 49.4903 152.725C49.4246 152.626 49.3923 152.519 49.3933 152.405C49.3927 152.291 49.4314 152.173 49.5095 152.052L49.9973 151.292C50.0322 151.237 50.0648 151.177 50.0951 151.11C50.1244 151.042 50.1437 150.98 50.153 150.923L50.1685 150.899L50.4595 151.086C50.4529 151.127 50.4366 151.177 50.4104 151.235C50.3836 151.295 50.3553 151.348 50.3257 151.394ZM49.8215 152.073L49.9443 151.875L50.2263 152.056C50.3057 152.107 50.3807 152.146 50.4514 152.173C50.5215 152.201 50.5857 152.216 50.6441 152.218C50.7024 152.22 50.7549 152.209 50.8016 152.185C50.8476 152.162 50.8867 152.125 50.9189 152.075C50.9519 152.024 50.9703 151.97 50.9743 151.913C50.9783 151.855 50.9652 151.8 50.9351 151.745C50.9034 151.69 50.8533 151.641 50.7849 151.597C50.6995 151.542 50.6125 151.512 50.5239 151.506C50.4354 151.501 50.3552 151.512 50.2834 151.539C50.2107 151.566 50.157 151.604 50.1223 151.651L50.0894 151.44C50.1235 151.403 50.1726 151.368 50.2367 151.337C50.3008 151.306 50.3741 151.283 50.4567 151.269C50.5377 151.256 50.6238 151.257 50.7152 151.271C50.8049 151.286 50.894 151.322 50.9825 151.379C51.093 151.45 51.1762 151.534 51.2318 151.631C51.2865 151.727 51.3138 151.826 51.3135 151.928C51.3117 152.03 51.2817 152.127 51.2236 152.217C51.1675 152.305 51.101 152.371 51.0242 152.415C50.9468 152.461 50.8617 152.485 50.769 152.488C50.6756 152.492 50.5763 152.476 50.471 152.441C50.3657 152.406 50.2572 152.353 50.1457 152.281L49.8215 152.073Z" fill="#686868"/>
<path d="M47.7712 151.074L48.6436 149.824L48.9155 150.013L47.8063 151.603L47.5491 151.424L47.7712 151.074ZM48.1116 150.724L48.2217 150.807C48.1449 150.915 48.0587 151.004 47.9631 151.075C47.8668 151.146 47.7663 151.196 47.6617 151.225C47.557 151.254 47.4525 151.26 47.3481 151.242C47.2421 151.225 47.1411 151.183 47.0451 151.116C46.9667 151.061 46.9037 151.001 46.8561 150.936C46.8077 150.872 46.7775 150.801 46.7656 150.724C46.7526 150.647 46.76 150.563 46.7878 150.473C46.8148 150.384 46.8649 150.287 46.9381 150.183L47.6649 149.141L47.9382 149.331L47.2094 150.376C47.1513 150.46 47.117 150.535 47.1067 150.602C47.0956 150.67 47.1058 150.731 47.1371 150.787C47.1677 150.843 47.2173 150.895 47.2859 150.943C47.3535 150.99 47.4251 151.019 47.5008 151.03C47.5754 151.039 47.6503 151.033 47.7253 151.011C47.7994 150.989 47.8702 150.953 47.9378 150.904C48.0038 150.855 48.0617 150.795 48.1116 150.724Z" fill="#686868"/>
</g>
<defs>
<clipPath id="clip0_4998_188171">
<rect width="192.403" height="167.999" fill="white" transform="translate(0.71875 0.5)"/>
</clipPath>
</defs>
</svg>
