<svg width="1443" height="474" viewBox="0 0 1443 474" fill="none" xmlns="http://www.w3.org/2000/svg">
<g opacity="0.04">
<path d="M588.437 784.771C527.539 1096.13 454.696 1189.16 454.696 1189.16L235.774 1053.14C235.774 1053.14 308.816 911.64 338.952 674.589C360.829 502.5 345.406 288.577 345.406 288.577L579.009 143.265C579.009 143.265 638.445 529.09 588.437 784.771Z" fill="white" stroke="#0EB4F6" stroke-width="1.85623"/>
<path d="M840.752 697.985C888.663 351.723 981.813 220.841 981.813 220.841L1207.64 357.108C1207.64 357.108 1153.99 456.409 1104.72 735.742C1075.14 903.477 1097.37 1122.54 1097.37 1122.54L871.254 1266.49C871.254 1266.49 812.915 899.166 840.752 697.985Z" fill="white" stroke="#0EB4F6" stroke-width="1.85623"/>
<path d="M808.313 608.404C545.379 394.419 454.764 220.131 454.764 220.131L683.227 77.9704C683.227 77.9704 732.631 198.624 961.961 376.599C1091.05 476.778 1246.96 558.2 1246.96 558.2L1248.59 870.424C1248.59 870.424 970.412 740.325 808.313 608.404Z" fill="white" stroke="#0EB4F6" stroke-width="1.85623"/>
<path d="M731.65 840.734C435.571 989.177 324.3 1106.88 324.3 1106.88L568.6 1269.83C568.6 1269.83 668.944 1176.98 911.492 1061.36C1057.14 991.93 1247.37 980.602 1247.37 980.602L1247.37 698.493C1247.37 698.493 952.606 729.955 731.65 840.734Z" fill="white" stroke="#0EB4F6" stroke-width="1.85623"/>
<path d="M1248.59 870.427C1248.59 870.427 970.413 740.328 808.314 608.407L726.607 544.666L936.129 358.591L1033.9 428.987C1142.57 503.687 1246.96 558.203 1246.96 558.203L1248.59 870.427Z" fill="white" stroke="#0EB4F6" stroke-width="1.85623"/>
<path d="M683.864 578.486C378.951 714.365 192.68 710.672 192.68 710.672V427.75C192.68 427.75 314.747 436.511 573.882 319.777C720.835 253.579 863.734 147.197 863.734 147.197L1116.68 302.577C1116.68 302.577 871.842 494.717 683.864 578.486Z" fill="white" stroke="#0EB4F6" stroke-width="1.85623"/>
</g>
</svg>
