<svg width="137" height="137" viewBox="0 0 137 137" fill="none" xmlns="http://www.w3.org/2000/svg">
<path d="M62.9373 79.978C42.7416 89.0471 36.8463 91.4837 36.688 92.3842C36.5766 93.0179 39.0543 93.0065 41.0254 92.3558C51.6791 88.8646 75.0887 77.7471 74.8347 76.2584C74.6455 74.9873 72.6802 75.6046 62.9373 79.978Z" fill="#FFCD65"/>
<path d="M5.21096 93.4535C5.00577 94.6209 7.57475 96.2415 9.35785 96.0735C10.6839 95.9627 16.8615 93.0944 28.6462 88.2546C40.0172 83.6172 42.6626 82.2598 42.2264 81.2204C41.5563 79.5554 35.8242 82.4331 15.9211 89.25C4.97528 93.0338 5.30476 92.9198 5.21096 93.4535Z" fill="#FFCD65"/>
<path d="M54.0814 77.5284C77.1202 69.3029 72.1734 70.2557 90.0647 64.9076C106.036 60.116 108.086 59.995 112.973 63.2952C118.441 67.007 119.376 66.3806 118.008 59.8823C117.41 57.0264 117.325 55.9454 117.652 54.8682C118.391 52.4195 120.298 49.0068 121.786 47.5835C126.514 42.982 118.25 43.8332 117.603 43.9945C114.267 44.7834 111.366 42.8981 107.633 37.5314C105.159 34.002 100.595 32.5809 101.242 35.5485C102.634 41.9134 100.794 47.8822 91.6419 53.3911C84.2257 57.8296 73.1597 63.8616 63.5227 68.2193C49.436 74.6144 48.2104 75.3273 49.0333 76.7098C49.5871 77.6667 52.428 78.1318 54.0814 77.5284ZM97.4931 55.3135C106.44 49.0123 106.643 43.7527 106.948 43.1875C110.891 46.1843 110.254 45.9003 115.738 47.1737L114.542 48.8891C111.92 52.6574 112.42 58.4186 112.414 58.452L110.053 57.2118C105.548 54.8726 101.483 54.9146 95.8996 57.3372C94.7092 57.8501 93.6364 58.2804 93.5363 58.2628C93.3971 58.2727 95.1794 56.9355 97.4931 55.3135Z" fill="#FFCD65"/>
</svg>
