<svg width="30" height="30" viewBox="0 0 30 30" fill="none" xmlns="http://www.w3.org/2000/svg">
<path d="M29.4238 13.5391L21.5717 10.5445L18.6396 0.643636C18.5267 0.261818 18.1835 0 17.7961 0C17.4088 0 17.0655 0.261818 16.9526 0.643636L14.0214 10.5445L6.16846 13.5391C5.8217 13.6718 5.59229 14.0109 5.59229 14.3918C5.59229 14.7718 5.8217 15.1127 6.16846 15.2445L14.017 18.2382L16.9499 28.4409C17.0611 28.8264 17.4052 29.0909 17.7961 29.0909C18.1861 29.0909 18.5311 28.8264 18.6423 28.44L21.5752 18.2373L29.4246 15.2436C29.7696 15.1127 29.9999 14.7727 29.9999 14.3918C29.9999 14.0118 29.7696 13.6718 29.4238 13.5391Z" fill="#FFAC33"/>
<path d="M11.7768 23.54L9.735 22.7618L8.94088 19.7618C8.83677 19.3655 8.48824 19.0909 8.09029 19.0909C7.69235 19.0909 7.34382 19.3655 7.23882 19.7609L6.44471 22.7609L4.40382 23.5391C4.05706 23.6709 3.82765 24.0118 3.82765 24.3918C3.82765 24.7718 4.05706 25.1127 4.40382 25.2446L6.43412 26.02L7.23441 29.3127C7.33324 29.7164 7.68529 30 8.09029 30C8.49529 30 8.84735 29.7164 8.94618 29.3118L9.74647 26.0191L11.7768 25.2437C12.1235 25.1127 12.3529 24.7718 12.3529 24.3918C12.3529 24.0118 12.1235 23.6709 11.7768 23.54ZM7.94912 3.84638L5.86324 3.05093L5.09029 0.900925C4.96235 0.543653 4.63235 0.307289 4.26265 0.307289C3.89382 0.307289 3.56382 0.543653 3.435 0.900925L2.66294 3.05093L0.576176 3.84638C0.229412 3.97911 0 4.31911 0 4.69911C0 5.07911 0.229412 5.42002 0.576176 5.55183L2.66294 6.34729L3.435 8.49729C3.56382 8.85456 3.89382 9.09093 4.26265 9.09093C4.63147 9.09093 4.96147 8.85456 5.09029 8.49729L5.86235 6.34729L7.94912 5.55183C8.29588 5.41911 8.52529 5.07911 8.52529 4.69911C8.52529 4.31911 8.29588 3.97911 7.94912 3.84638Z" fill="#FFCC4D"/>
</svg>
