<svg width="76" height="76" viewBox="0 0 76 76" fill="none" xmlns="http://www.w3.org/2000/svg">
<path fill-rule="evenodd" clip-rule="evenodd" d="M23.761 0.609619C22.2773 1.72235 23.3283 4.87509 25.6774 6.42055C27.6556 7.71874 36.1247 8.15147 42.3065 7.34783C59.2448 5.06054 68.5175 9.69694 67.5902 19.897C66.292 34.8571 66.0447 45.428 66.972 50.4971C68.0229 56.3699 67.8995 55.9371 65.9213 54.4535C64.0049 53.0317 59.6157 50.1262 57.1429 48.5807C55.1029 47.3444 51.5792 45.5517 50.8992 47.8389C49.7865 51.6099 46.4483 57.4208 43.481 61.3772C36.7428 70.3408 23.761 72.3809 12.6336 70.4645C7.93544 69.6609 7.81181 68.0536 7.99726 64.5299C8.61545 51.919 9.48079 18.2897 10.9644 11.1806C11.7063 7.59511 12.5718 6.97692 15.3536 6.17328C20.2373 4.81327 16.8992 2.46418 11.1501 3.14418C7.13186 3.63873 4.84458 5.12236 3.42276 10.3769C1.25911 18.5988 1.50638 33.5589 0.02274 64.159C-0.348171 71.3299 3.85549 73.8027 9.9137 74.4209C13.4992 74.7918 18.9391 74.9154 28.0883 75.0391C39.4629 75.1627 45.15 75.3481 48.9828 74.7918C53.3101 74.1736 55.2267 72.6281 60.3576 69.2281C76.5541 58.3481 75.9358 59.3372 75.9976 44.9953C76.1212 12.1078 71.5467 3.70055 52.8775 2.83509C47.4375 2.58781 42.1829 1.96962 40.2047 1.41325C35.012 -0.0085729 25.2446 -0.503113 23.761 0.609619ZM34.7645 18.1661C30.2518 18.537 28.7066 21.8752 32.5393 22.9261C35.6921 23.7915 51.5174 23.977 56.772 23.4206C59.9865 23.0497 58.6883 20.7624 56.0919 19.6497C52.2592 17.9806 44.4082 17.3624 34.7645 18.1661ZM26.9757 30.777C16.3429 31.2716 19.1246 34.177 23.8229 35.1043C33.3429 36.9589 58.6265 37.2062 58.6265 34.7334C58.6265 31.3334 46.5103 29.8497 26.9757 30.777ZM27.0372 51.4862C31.4263 51.3626 40.2048 50.6207 41.8121 50.1262C44.5939 49.2607 40.7612 46.2935 35.9393 45.6135C29.4484 44.6862 26.7281 44.4389 25.1827 44.5625C17.0226 44.9953 20.6081 51.6717 27.0372 51.4862ZM66.9101 58.4099C66.1683 58.9663 59.0592 66.1372 50.5283 69.7227C47.3137 71.0827 45.6446 70.8972 47.7464 68.1772C49.4155 65.1481 55.1648 52.3517 56.5866 52.3517C57.3903 52.4135 66.9101 58.4099 66.9101 58.4099Z" fill="#FFCD65"/>
</svg>
