<svg width="82" height="30" viewBox="0 0 82 30" fill="none" xmlns="http://www.w3.org/2000/svg">
<rect width="8.22133" height="21.1686" rx="2" transform="matrix(-1 0 0 1 8.22095 8.32031)" fill="#07A098"/>
<rect width="8.22133" height="11.4055" rx="2" transform="matrix(-1 0 0 1 20.4436 18.0859)" fill="#07A098"/>
<rect width="8.22133" height="29.3436" rx="2" transform="matrix(-1 0 0 1 32.6643 0.146484)" fill="#07A098"/>
<rect width="8.22133" height="5.06976" rx="2" transform="matrix(-1 0 0 1 44.885 24.4199)" fill="#07A098"/>
<rect width="8.22133" height="14.5376" rx="2" transform="matrix(-1 0 0 1 57.1077 14.9531)" fill="#07A098"/>
<rect width="8.22133" height="19.5805" rx="2" transform="matrix(-1 0 0 1 69.3284 9.91016)" fill="#07A098"/>
<rect width="8.22133" height="27.5513" rx="2" transform="matrix(-1 0 0 1 81.5491 1.9375)" fill="#07A098"/>
</svg>
