<svg width="25" height="25" viewBox="0 0 25 25" fill="none" xmlns="http://www.w3.org/2000/svg">
<path d="M22.5225 10.012L16.6125 7.76168L14.4225 1.67938C14.06 0.668667 13.125 0 12.0775 0C11.0325 0 10.0975 0.668667 9.7325 1.67938L7.545 7.76168L1.6325 10.012C0.65 10.3875 0 11.3493 0 12.4243C0 13.4994 0.65 14.4638 1.6325 14.8367L7.545 17.087L9.7325 23.1693C10.0975 24.18 11.0325 24.8487 12.0775 24.8487C13.1225 24.8487 14.0575 24.18 14.4225 23.1693L16.61 17.087L22.5225 14.8367C23.505 14.4612 24.155 13.4994 24.155 12.4243C24.155 11.3493 23.505 10.3875 22.5225 10.012Z" fill="#565FFF"/>
</svg>
