<svg width="330" height="140" viewBox="0 0 330 140" fill="none" xmlns="http://www.w3.org/2000/svg">
<rect width="330" height="140" fill="#CBCBCB"/>
<g clip-path="url(#clip0_6556_221085)">
<rect width="1440" height="4496" transform="translate(-161 -2099)" fill="white"/>
<rect x="-161" y="-422" width="1440" height="760" fill="#FFCD65"/>
<g filter="url(#filter0_d_6556_221085)">
<g clip-path="url(#clip1_6556_221085)">
<path d="M0 0H330V125C330 133.284 323.284 140 315 140H15C6.71573 140 0 133.284 0 125V0Z" fill="white"/>
<path d="M42.28 31.06V45H40.46V38.68H33.36V45H31.54V31.06H33.36V37.18H40.46V31.06H42.28ZM55.1077 34.04V45H53.2877V43.38C52.941 43.94 52.4543 44.38 51.8277 44.7C51.2143 45.0067 50.5343 45.16 49.7877 45.16C48.9343 45.16 48.1677 44.9867 47.4877 44.64C46.8077 44.28 46.2677 43.7467 45.8677 43.04C45.481 42.3333 45.2877 41.4733 45.2877 40.46V34.04H47.0877V40.22C47.0877 41.3 47.361 42.1333 47.9077 42.72C48.4543 43.2933 49.201 43.58 50.1477 43.58C51.121 43.58 51.8877 43.28 52.4477 42.68C53.0077 42.08 53.2877 41.2067 53.2877 40.06V34.04H55.1077ZM60.0006 35.82C60.3206 35.1933 60.774 34.7067 61.3606 34.36C61.9606 34.0133 62.6873 33.84 63.5406 33.84V35.72H63.0606C61.0206 35.72 60.0006 36.8267 60.0006 39.04V45H58.1806V34.04H60.0006V35.82ZM67.4616 35.82C67.7816 35.1933 68.2349 34.7067 68.8216 34.36C69.4216 34.0133 70.1482 33.84 71.0016 33.84V35.72H70.5216C68.4816 35.72 67.4616 36.8267 67.4616 39.04V45H65.6416V34.04H67.4616V35.82ZM72.4225 39.48C72.4225 38.36 72.6492 37.38 73.1025 36.54C73.5558 35.6867 74.1758 35.0267 74.9625 34.56C75.7625 34.0933 76.6492 33.86 77.6225 33.86C78.5825 33.86 79.4158 34.0667 80.1225 34.48C80.8292 34.8933 81.3558 35.4133 81.7025 36.04V34.04H83.5425V45H81.7025V42.96C81.3425 43.6 80.8025 44.1333 80.0825 44.56C79.3758 44.9733 78.5492 45.18 77.6025 45.18C76.6292 45.18 75.7492 44.94 74.9625 44.46C74.1758 43.98 73.5558 43.3067 73.1025 42.44C72.6492 41.5733 72.4225 40.5867 72.4225 39.48ZM81.7025 39.5C81.7025 38.6733 81.5358 37.9533 81.2025 37.34C80.8692 36.7267 80.4158 36.26 79.8425 35.94C79.2825 35.6067 78.6625 35.44 77.9825 35.44C77.3025 35.44 76.6825 35.6 76.1225 35.92C75.5625 36.24 75.1158 36.7067 74.7825 37.32C74.4492 37.9333 74.2825 38.6533 74.2825 39.48C74.2825 40.32 74.4492 41.0533 74.7825 41.68C75.1158 42.2933 75.5625 42.7667 76.1225 43.1C76.6825 43.42 77.3025 43.58 77.9825 43.58C78.6625 43.58 79.2825 43.42 79.8425 43.1C80.4158 42.7667 80.8692 42.2933 81.2025 41.68C81.5358 41.0533 81.7025 40.3267 81.7025 39.5ZM96.0581 34.04L89.4581 50.16H87.5781L89.7381 44.88L85.3181 34.04H87.3381L90.7781 42.92L94.1781 34.04H96.0581ZM100.248 31.06L100.028 41.06H98.5077L98.2877 31.06H100.248ZM99.3477 45.12C99.001 45.12 98.7077 45 98.4677 44.76C98.2277 44.52 98.1077 44.2267 98.1077 43.88C98.1077 43.5333 98.2277 43.24 98.4677 43C98.7077 42.76 99.001 42.64 99.3477 42.64C99.681 42.64 99.961 42.76 100.188 43C100.428 43.24 100.548 43.5333 100.548 43.88C100.548 44.2267 100.428 44.52 100.188 44.76C99.961 45 99.681 45.12 99.3477 45.12ZM110.997 31.06V45H109.177V31.06H110.997ZM116.319 35.54V42C116.319 42.5333 116.432 42.9133 116.659 43.14C116.885 43.3533 117.279 43.46 117.839 43.46H119.179V45H117.539C116.525 45 115.765 44.7667 115.259 44.3C114.752 43.8333 114.499 43.0667 114.499 42V35.54H113.079V34.04H114.499V31.28H116.319V34.04H119.179V35.54H116.319ZM121.664 31.06H123.684L121.764 35.6H120.484L121.664 31.06ZM129.639 45.18C128.799 45.18 128.045 45.04 127.379 44.76C126.712 44.4667 126.185 44.0667 125.799 43.56C125.412 43.04 125.199 42.4467 125.159 41.78H127.039C127.092 42.3267 127.345 42.7733 127.799 43.12C128.265 43.4667 128.872 43.64 129.619 43.64C130.312 43.64 130.859 43.4867 131.259 43.18C131.659 42.8733 131.859 42.4867 131.859 42.02C131.859 41.54 131.645 41.1867 131.219 40.96C130.792 40.72 130.132 40.4867 129.239 40.26C128.425 40.0467 127.759 39.8333 127.239 39.62C126.732 39.3933 126.292 39.0667 125.919 38.64C125.559 38.2 125.379 37.6267 125.379 36.92C125.379 36.36 125.545 35.8467 125.879 35.38C126.212 34.9133 126.685 34.5467 127.299 34.28C127.912 34 128.612 33.86 129.399 33.86C130.612 33.86 131.592 34.1667 132.339 34.78C133.085 35.3933 133.485 36.2333 133.539 37.3H131.719C131.679 36.7267 131.445 36.2667 131.019 35.92C130.605 35.5733 130.045 35.4 129.339 35.4C128.685 35.4 128.165 35.54 127.779 35.82C127.392 36.1 127.199 36.4667 127.199 36.92C127.199 37.28 127.312 37.58 127.539 37.82C127.779 38.0467 128.072 38.2333 128.419 38.38C128.779 38.5133 129.272 38.6667 129.899 38.84C130.685 39.0533 131.325 39.2667 131.819 39.48C132.312 39.68 132.732 39.9867 133.079 40.4C133.439 40.8133 133.625 41.3533 133.639 42.02C133.639 42.62 133.472 43.16 133.139 43.64C132.805 44.12 132.332 44.5 131.719 44.78C131.119 45.0467 130.425 45.18 129.639 45.18ZM154.72 33.84C155.573 33.84 156.333 34.02 157 34.38C157.667 34.7267 158.193 35.2533 158.58 35.96C158.967 36.6667 159.16 37.5267 159.16 38.54V45H157.36V38.8C157.36 37.7067 157.087 36.8733 156.54 36.3C156.007 35.7133 155.28 35.42 154.36 35.42C153.413 35.42 152.66 35.7267 152.1 36.34C151.54 36.94 151.26 37.8133 151.26 38.96V45H149.46V38.8C149.46 37.7067 149.187 36.8733 148.64 36.3C148.107 35.7133 147.38 35.42 146.46 35.42C145.513 35.42 144.76 35.7267 144.2 36.34C143.64 36.94 143.36 37.8133 143.36 38.96V45H141.54V34.04H143.36V35.62C143.72 35.0467 144.2 34.6067 144.8 34.3C145.413 33.9933 146.087 33.84 146.82 33.84C147.74 33.84 148.553 34.0467 149.26 34.46C149.967 34.8733 150.493 35.48 150.84 36.28C151.147 35.5067 151.653 34.9067 152.36 34.48C153.067 34.0533 153.853 33.84 154.72 33.84ZM171.585 34.04L164.985 50.16H163.105L165.265 44.88L160.845 34.04H162.865L166.305 42.92L169.705 34.04H171.585ZM183.207 35.54H180.907V45H179.087V35.54H177.667V34.04H179.087V33.26C179.087 32.0333 179.4 31.14 180.027 30.58C180.667 30.0067 181.687 29.72 183.087 29.72V31.24C182.287 31.24 181.72 31.4 181.387 31.72C181.067 32.0267 180.907 32.54 180.907 33.26V34.04H183.207V35.54ZM186.269 32.26C185.922 32.26 185.629 32.14 185.389 31.9C185.149 31.66 185.029 31.3667 185.029 31.02C185.029 30.6733 185.149 30.38 185.389 30.14C185.629 29.9 185.922 29.78 186.269 29.78C186.602 29.78 186.882 29.9 187.109 30.14C187.349 30.38 187.469 30.6733 187.469 31.02C187.469 31.3667 187.349 31.66 187.109 31.9C186.882 32.14 186.602 32.26 186.269 32.26ZM187.149 34.04V45H185.329V34.04H187.149ZM192.071 35.82C192.391 35.1933 192.844 34.7067 193.431 34.36C194.031 34.0133 194.758 33.84 195.611 33.84V35.72H195.131C193.091 35.72 192.071 36.8267 192.071 39.04V45H190.251V34.04H192.071V35.82ZM201.592 45.18C200.752 45.18 199.999 45.04 199.332 44.76C198.665 44.4667 198.139 44.0667 197.752 43.56C197.365 43.04 197.152 42.4467 197.112 41.78H198.992C199.045 42.3267 199.299 42.7733 199.752 43.12C200.219 43.4667 200.825 43.64 201.572 43.64C202.265 43.64 202.812 43.4867 203.212 43.18C203.612 42.8733 203.812 42.4867 203.812 42.02C203.812 41.54 203.599 41.1867 203.172 40.96C202.745 40.72 202.085 40.4867 201.192 40.26C200.379 40.0467 199.712 39.8333 199.192 39.62C198.685 39.3933 198.245 39.0667 197.872 38.64C197.512 38.2 197.332 37.6267 197.332 36.92C197.332 36.36 197.499 35.8467 197.832 35.38C198.165 34.9133 198.639 34.5467 199.252 34.28C199.865 34 200.565 33.86 201.352 33.86C202.565 33.86 203.545 34.1667 204.292 34.78C205.039 35.3933 205.439 36.2333 205.492 37.3H203.672C203.632 36.7267 203.399 36.2667 202.972 35.92C202.559 35.5733 201.999 35.4 201.292 35.4C200.639 35.4 200.119 35.54 199.732 35.82C199.345 36.1 199.152 36.4667 199.152 36.92C199.152 37.28 199.265 37.58 199.492 37.82C199.732 38.0467 200.025 38.2333 200.372 38.38C200.732 38.5133 201.225 38.6667 201.852 38.84C202.639 39.0533 203.279 39.2667 203.772 39.48C204.265 39.68 204.685 39.9867 205.032 40.4C205.392 40.8133 205.579 41.3533 205.592 42.02C205.592 42.62 205.425 43.16 205.092 43.64C204.759 44.12 204.285 44.5 203.672 44.78C203.072 45.0467 202.379 45.18 201.592 45.18ZM210.381 35.54V42C210.381 42.5333 210.494 42.9133 210.721 43.14C210.948 43.3533 211.341 43.46 211.901 43.46H213.241V45H211.601C210.588 45 209.828 44.7667 209.321 44.3C208.814 43.8333 208.561 43.0667 208.561 42V35.54H207.141V34.04H208.561V31.28H210.381V34.04H213.241V35.54H210.381ZM30.86 69.48C30.86 68.36 31.0867 67.38 31.54 66.54C31.9933 65.6867 32.6133 65.0267 33.4 64.56C34.2 64.0933 35.0933 63.86 36.08 63.86C36.9333 63.86 37.7267 64.06 38.46 64.46C39.1933 64.8467 39.7533 65.36 40.14 66V60.2H41.98V75H40.14V72.94C39.78 73.5933 39.2467 74.1333 38.54 74.56C37.8333 74.9733 37.0067 75.18 36.06 75.18C35.0867 75.18 34.2 74.94 33.4 74.46C32.6133 73.98 31.9933 73.3067 31.54 72.44C31.0867 71.5733 30.86 70.5867 30.86 69.48ZM40.14 69.5C40.14 68.6733 39.9733 67.9533 39.64 67.34C39.3067 66.7267 38.8533 66.26 38.28 65.94C37.72 65.6067 37.1 65.44 36.42 65.44C35.74 65.44 35.12 65.6 34.56 65.92C34 66.24 33.5533 66.7067 33.22 67.32C32.8867 67.9333 32.72 68.6533 32.72 69.48C32.72 70.32 32.8867 71.0533 33.22 71.68C33.5533 72.2933 34 72.7667 34.56 73.1C35.12 73.42 35.74 73.58 36.42 73.58C37.1 73.58 37.72 73.42 38.28 73.1C38.8533 72.7667 39.3067 72.2933 39.64 71.68C39.9733 71.0533 40.14 70.3267 40.14 69.5ZM45.9956 62.26C45.649 62.26 45.3556 62.14 45.1156 61.9C44.8756 61.66 44.7556 61.3667 44.7556 61.02C44.7556 60.6733 44.8756 60.38 45.1156 60.14C45.3556 59.9 45.649 59.78 45.9956 59.78C46.329 59.78 46.609 59.9 46.8356 60.14C47.0756 60.38 47.1956 60.6733 47.1956 61.02C47.1956 61.3667 47.0756 61.66 46.8356 61.9C46.609 62.14 46.329 62.26 45.9956 62.26ZM46.8756 64.04V75H45.0556V64.04H46.8756ZM53.8575 75.18C53.0175 75.18 52.2642 75.04 51.5975 74.76C50.9308 74.4667 50.4042 74.0667 50.0175 73.56C49.6308 73.04 49.4175 72.4467 49.3775 71.78H51.2575C51.3108 72.3267 51.5642 72.7733 52.0175 73.12C52.4842 73.4667 53.0908 73.64 53.8375 73.64C54.5308 73.64 55.0775 73.4867 55.4775 73.18C55.8775 72.8733 56.0775 72.4867 56.0775 72.02C56.0775 71.54 55.8642 71.1867 55.4375 70.96C55.0108 70.72 54.3508 70.4867 53.4575 70.26C52.6442 70.0467 51.9775 69.8333 51.4575 69.62C50.9508 69.3933 50.5108 69.0667 50.1375 68.64C49.7775 68.2 49.5975 67.6267 49.5975 66.92C49.5975 66.36 49.7642 65.8467 50.0975 65.38C50.4308 64.9133 50.9042 64.5467 51.5175 64.28C52.1308 64 52.8308 63.86 53.6175 63.86C54.8308 63.86 55.8108 64.1667 56.5575 64.78C57.3042 65.3933 57.7042 66.2333 57.7575 67.3H55.9375C55.8975 66.7267 55.6642 66.2667 55.2375 65.92C54.8242 65.5733 54.2642 65.4 53.5575 65.4C52.9042 65.4 52.3842 65.54 51.9975 65.82C51.6108 66.1 51.4175 66.4667 51.4175 66.92C51.4175 67.28 51.5308 67.58 51.7575 67.82C51.9975 68.0467 52.2908 68.2333 52.6375 68.38C52.9975 68.5133 53.4908 68.6667 54.1175 68.84C54.9042 69.0533 55.5442 69.2667 56.0375 69.48C56.5308 69.68 56.9508 69.9867 57.2975 70.4C57.6575 70.8133 57.8442 71.3533 57.8575 72.02C57.8575 72.62 57.6908 73.16 57.3575 73.64C57.0242 74.12 56.5508 74.5 55.9375 74.78C55.3375 75.0467 54.6442 75.18 53.8575 75.18ZM59.7467 69.5C59.7467 68.3667 59.9734 67.38 60.4267 66.54C60.8801 65.6867 61.5067 65.0267 62.3067 64.56C63.1201 64.0933 64.0467 63.86 65.0867 63.86C66.4334 63.86 67.5401 64.1867 68.4067 64.84C69.2867 65.4933 69.8667 66.4 70.1467 67.56H68.1867C68.0001 66.8933 67.6334 66.3667 67.0867 65.98C66.5534 65.5933 65.8867 65.4 65.0867 65.4C64.0467 65.4 63.2067 65.76 62.5667 66.48C61.9267 67.1867 61.6067 68.1933 61.6067 69.5C61.6067 70.82 61.9267 71.84 62.5667 72.56C63.2067 73.28 64.0467 73.64 65.0867 73.64C65.8867 73.64 66.5534 73.4533 67.0867 73.08C67.6201 72.7067 67.9867 72.1733 68.1867 71.48H70.1467C69.8534 72.6 69.2667 73.5 68.3867 74.18C67.5067 74.8467 66.4067 75.18 65.0867 75.18C64.0467 75.18 63.1201 74.9467 62.3067 74.48C61.5067 74.0133 60.8801 73.3533 60.4267 72.5C59.9734 71.6467 59.7467 70.6467 59.7467 69.5ZM82.2952 64.04V75H80.4752V73.38C80.1285 73.94 79.6418 74.38 79.0152 74.7C78.4018 75.0067 77.7218 75.16 76.9752 75.16C76.1218 75.16 75.3552 74.9867 74.6752 74.64C73.9952 74.28 73.4552 73.7467 73.0552 73.04C72.6685 72.3333 72.4752 71.4733 72.4752 70.46V64.04H74.2752V70.22C74.2752 71.3 74.5485 72.1333 75.0952 72.72C75.6418 73.2933 76.3885 73.58 77.3352 73.58C78.3085 73.58 79.0752 73.28 79.6352 72.68C80.1952 72.08 80.4752 71.2067 80.4752 70.06V64.04H82.2952ZM89.2481 75.18C88.4081 75.18 87.6548 75.04 86.9881 74.76C86.3215 74.4667 85.7948 74.0667 85.4081 73.56C85.0215 73.04 84.8081 72.4467 84.7681 71.78H86.6481C86.7015 72.3267 86.9548 72.7733 87.4081 73.12C87.8748 73.4667 88.4815 73.64 89.2281 73.64C89.9215 73.64 90.4681 73.4867 90.8681 73.18C91.2681 72.8733 91.4681 72.4867 91.4681 72.02C91.4681 71.54 91.2548 71.1867 90.8281 70.96C90.4015 70.72 89.7415 70.4867 88.8481 70.26C88.0348 70.0467 87.3681 69.8333 86.8481 69.62C86.3415 69.3933 85.9015 69.0667 85.5281 68.64C85.1681 68.2 84.9881 67.6267 84.9881 66.92C84.9881 66.36 85.1548 65.8467 85.4881 65.38C85.8215 64.9133 86.2948 64.5467 86.9081 64.28C87.5215 64 88.2215 63.86 89.0081 63.86C90.2215 63.86 91.2015 64.1667 91.9481 64.78C92.6948 65.3933 93.0948 66.2333 93.1481 67.3H91.3281C91.2881 66.7267 91.0548 66.2667 90.6281 65.92C90.2148 65.5733 89.6548 65.4 88.9481 65.4C88.2948 65.4 87.7748 65.54 87.3881 65.82C87.0015 66.1 86.8081 66.4667 86.8081 66.92C86.8081 67.28 86.9215 67.58 87.1481 67.82C87.3881 68.0467 87.6815 68.2333 88.0281 68.38C88.3881 68.5133 88.8815 68.6667 89.5081 68.84C90.2948 69.0533 90.9348 69.2667 91.4281 69.48C91.9215 69.68 92.3415 69.9867 92.6881 70.4C93.0481 70.8133 93.2348 71.3533 93.2481 72.02C93.2481 72.62 93.0815 73.16 92.7481 73.64C92.4148 74.12 91.9415 74.5 91.3281 74.78C90.7281 75.0467 90.0348 75.18 89.2481 75.18ZM99.6973 75.18C98.8573 75.18 98.104 75.04 97.4373 74.76C96.7707 74.4667 96.244 74.0667 95.8573 73.56C95.4707 73.04 95.2573 72.4467 95.2173 71.78H97.0973C97.1507 72.3267 97.404 72.7733 97.8573 73.12C98.324 73.4667 98.9307 73.64 99.6773 73.64C100.371 73.64 100.917 73.4867 101.317 73.18C101.717 72.8733 101.917 72.4867 101.917 72.02C101.917 71.54 101.704 71.1867 101.277 70.96C100.851 70.72 100.191 70.4867 99.2973 70.26C98.484 70.0467 97.8173 69.8333 97.2973 69.62C96.7907 69.3933 96.3507 69.0667 95.9773 68.64C95.6173 68.2 95.4373 67.6267 95.4373 66.92C95.4373 66.36 95.604 65.8467 95.9373 65.38C96.2707 64.9133 96.744 64.5467 97.3573 64.28C97.9707 64 98.6707 63.86 99.4573 63.86C100.671 63.86 101.651 64.1667 102.397 64.78C103.144 65.3933 103.544 66.2333 103.597 67.3H101.777C101.737 66.7267 101.504 66.2667 101.077 65.92C100.664 65.5733 100.104 65.4 99.3973 65.4C98.744 65.4 98.224 65.54 97.8373 65.82C97.4507 66.1 97.2573 66.4667 97.2573 66.92C97.2573 67.28 97.3707 67.58 97.5973 67.82C97.8373 68.0467 98.1307 68.2333 98.4773 68.38C98.8373 68.5133 99.3307 68.6667 99.9573 68.84C100.744 69.0533 101.384 69.2667 101.877 69.48C102.371 69.68 102.791 69.9867 103.137 70.4C103.497 70.8133 103.684 71.3533 103.697 72.02C103.697 72.62 103.531 73.16 103.197 73.64C102.864 74.12 102.391 74.5 101.777 74.78C101.177 75.0467 100.484 75.18 99.6973 75.18ZM107.207 62.26C106.86 62.26 106.567 62.14 106.327 61.9C106.087 61.66 105.967 61.3667 105.967 61.02C105.967 60.6733 106.087 60.38 106.327 60.14C106.567 59.9 106.86 59.78 107.207 59.78C107.54 59.78 107.82 59.9 108.047 60.14C108.287 60.38 108.407 60.6733 108.407 61.02C108.407 61.3667 108.287 61.66 108.047 61.9C107.82 62.14 107.54 62.26 107.207 62.26ZM108.087 64.04V75H106.267V64.04H108.087ZM115.968 75.18C114.942 75.18 114.008 74.9467 113.168 74.48C112.342 74.0133 111.688 73.3533 111.208 72.5C110.742 71.6333 110.508 70.6333 110.508 69.5C110.508 68.38 110.748 67.3933 111.228 66.54C111.722 65.6733 112.388 65.0133 113.228 64.56C114.068 64.0933 115.008 63.86 116.048 63.86C117.088 63.86 118.028 64.0933 118.868 64.56C119.708 65.0133 120.368 65.6667 120.848 66.52C121.342 67.3733 121.588 68.3667 121.588 69.5C121.588 70.6333 121.335 71.6333 120.828 72.5C120.335 73.3533 119.662 74.0133 118.808 74.48C117.955 74.9467 117.008 75.18 115.968 75.18ZM115.968 73.58C116.622 73.58 117.235 73.4267 117.808 73.12C118.382 72.8133 118.842 72.3533 119.188 71.74C119.548 71.1267 119.728 70.38 119.728 69.5C119.728 68.62 119.555 67.8733 119.208 67.26C118.862 66.6467 118.408 66.1933 117.848 65.9C117.288 65.5933 116.682 65.44 116.028 65.44C115.362 65.44 114.748 65.5933 114.188 65.9C113.642 66.1933 113.202 66.6467 112.868 67.26C112.535 67.8733 112.368 68.62 112.368 69.5C112.368 70.3933 112.528 71.1467 112.848 71.76C113.182 72.3733 113.622 72.8333 114.168 73.14C114.715 73.4333 115.315 73.58 115.968 73.58ZM129.321 63.84C130.655 63.84 131.735 64.2467 132.561 65.06C133.388 65.86 133.801 67.02 133.801 68.54V75H132.001V68.8C132.001 67.7067 131.728 66.8733 131.181 66.3C130.635 65.7133 129.888 65.42 128.941 65.42C127.981 65.42 127.215 65.72 126.641 66.32C126.081 66.92 125.801 67.7933 125.801 68.94V75H123.981V64.04H125.801V65.6C126.161 65.04 126.648 64.6067 127.261 64.3C127.888 63.9933 128.575 63.84 129.321 63.84Z" fill="#161925"/>
<rect x="213" y="95" width="90" height="32.2" rx="16.1" fill="#525AF2"/>
<path d="M234.602 110.714C234.602 109.762 234.817 108.908 235.246 108.152C235.675 107.387 236.259 106.789 236.996 106.36C237.743 105.931 238.569 105.716 239.474 105.716C240.538 105.716 241.467 105.973 242.26 106.486C243.053 106.999 243.632 107.727 243.996 108.67H242.47C242.199 108.082 241.807 107.629 241.294 107.312C240.79 106.995 240.183 106.836 239.474 106.836C238.793 106.836 238.181 106.995 237.64 107.312C237.099 107.629 236.674 108.082 236.366 108.67C236.058 109.249 235.904 109.93 235.904 110.714C235.904 111.489 236.058 112.17 236.366 112.758C236.674 113.337 237.099 113.785 237.64 114.102C238.181 114.419 238.793 114.578 239.474 114.578C240.183 114.578 240.79 114.424 241.294 114.116C241.807 113.799 242.199 113.346 242.47 112.758H243.996C243.632 113.691 243.053 114.415 242.26 114.928C241.467 115.432 240.538 115.684 239.474 115.684C238.569 115.684 237.743 115.474 236.996 115.054C236.259 114.625 235.675 114.032 235.246 113.276C234.817 112.52 234.602 111.666 234.602 110.714ZM247.166 109.174C247.39 108.735 247.708 108.395 248.118 108.152C248.538 107.909 249.047 107.788 249.644 107.788V109.104H249.308C247.88 109.104 247.166 109.879 247.166 111.428V115.6H245.892V107.928H247.166V109.174ZM258.115 111.47C258.115 111.713 258.101 111.969 258.073 112.24H251.941C251.988 112.996 252.244 113.589 252.711 114.018C253.187 114.438 253.761 114.648 254.433 114.648C254.984 114.648 255.441 114.522 255.805 114.27C256.178 114.009 256.44 113.663 256.589 113.234H257.961C257.756 113.971 257.345 114.573 256.729 115.04C256.113 115.497 255.348 115.726 254.433 115.726C253.705 115.726 253.052 115.563 252.473 115.236C251.904 114.909 251.456 114.447 251.129 113.85C250.802 113.243 250.639 112.543 250.639 111.75C250.639 110.957 250.798 110.261 251.115 109.664C251.432 109.067 251.876 108.609 252.445 108.292C253.024 107.965 253.686 107.802 254.433 107.802C255.161 107.802 255.805 107.961 256.365 108.278C256.925 108.595 257.354 109.034 257.653 109.594C257.961 110.145 258.115 110.77 258.115 111.47ZM256.799 111.204C256.799 110.719 256.692 110.303 256.477 109.958C256.262 109.603 255.968 109.337 255.595 109.16C255.231 108.973 254.825 108.88 254.377 108.88C253.733 108.88 253.182 109.085 252.725 109.496C252.277 109.907 252.02 110.476 251.955 111.204H256.799ZM259.321 111.736C259.321 110.952 259.479 110.266 259.797 109.678C260.114 109.081 260.548 108.619 261.099 108.292C261.659 107.965 262.279 107.802 262.961 107.802C263.633 107.802 264.216 107.947 264.711 108.236C265.205 108.525 265.574 108.889 265.817 109.328V107.928H267.105V115.6H265.817V114.172C265.565 114.62 265.187 114.993 264.683 115.292C264.188 115.581 263.609 115.726 262.947 115.726C262.265 115.726 261.649 115.558 261.099 115.222C260.548 114.886 260.114 114.415 259.797 113.808C259.479 113.201 259.321 112.511 259.321 111.736ZM265.817 111.75C265.817 111.171 265.7 110.667 265.467 110.238C265.233 109.809 264.916 109.482 264.515 109.258C264.123 109.025 263.689 108.908 263.213 108.908C262.737 108.908 262.303 109.02 261.911 109.244C261.519 109.468 261.206 109.795 260.973 110.224C260.739 110.653 260.623 111.157 260.623 111.736C260.623 112.324 260.739 112.837 260.973 113.276C261.206 113.705 261.519 114.037 261.911 114.27C262.303 114.494 262.737 114.606 263.213 114.606C263.689 114.606 264.123 114.494 264.515 114.27C264.916 114.037 265.233 113.705 265.467 113.276C265.7 112.837 265.817 112.329 265.817 111.75ZM270.812 108.978V113.5C270.812 113.873 270.891 114.139 271.05 114.298C271.208 114.447 271.484 114.522 271.876 114.522H272.814V115.6H271.666C270.956 115.6 270.424 115.437 270.07 115.11C269.715 114.783 269.538 114.247 269.538 113.5V108.978H268.544V107.928H269.538V105.996H270.812V107.928H272.814V108.978H270.812ZM281.357 111.47C281.357 111.713 281.343 111.969 281.315 112.24H275.183C275.23 112.996 275.487 113.589 275.953 114.018C276.429 114.438 277.003 114.648 277.675 114.648C278.226 114.648 278.683 114.522 279.047 114.27C279.421 114.009 279.682 113.663 279.831 113.234H281.203C280.998 113.971 280.587 114.573 279.971 115.04C279.355 115.497 278.59 115.726 277.675 115.726C276.947 115.726 276.294 115.563 275.715 115.236C275.146 114.909 274.698 114.447 274.371 113.85C274.045 113.243 273.881 112.543 273.881 111.75C273.881 110.957 274.04 110.261 274.357 109.664C274.675 109.067 275.118 108.609 275.687 108.292C276.266 107.965 276.929 107.802 277.675 107.802C278.403 107.802 279.047 107.961 279.607 108.278C280.167 108.595 280.597 109.034 280.895 109.594C281.203 110.145 281.357 110.77 281.357 111.47ZM280.041 111.204C280.041 110.719 279.934 110.303 279.719 109.958C279.505 109.603 279.211 109.337 278.837 109.16C278.473 108.973 278.067 108.88 277.619 108.88C276.975 108.88 276.425 109.085 275.967 109.496C275.519 109.907 275.263 110.476 275.197 111.204H280.041Z" fill="white"/>
<rect x="-29" width="393" height="8" fill="#525AF2"/>
</g>
</g>
</g>
<defs>
<filter id="filter0_d_6556_221085" x="-21" y="-17" width="372" height="182" filterUnits="userSpaceOnUse" color-interpolation-filters="sRGB">
<feFlood flood-opacity="0" result="BackgroundImageFix"/>
<feColorMatrix in="SourceAlpha" type="matrix" values="0 0 0 0 0 0 0 0 0 0 0 0 0 0 0 0 0 0 127 0" result="hardAlpha"/>
<feOffset dy="4"/>
<feGaussianBlur stdDeviation="10.5"/>
<feComposite in2="hardAlpha" operator="out"/>
<feColorMatrix type="matrix" values="0 0 0 0 0.7125 0 0 0 0 0.7125 0 0 0 0 0.7125 0 0 0 0.26 0"/>
<feBlend mode="normal" in2="BackgroundImageFix" result="effect1_dropShadow_6556_221085"/>
<feBlend mode="normal" in="SourceGraphic" in2="effect1_dropShadow_6556_221085" result="shape"/>
</filter>
<clipPath id="clip0_6556_221085">
<rect width="1440" height="4496" fill="white" transform="translate(-161 -2099)"/>
</clipPath>
<clipPath id="clip1_6556_221085">
<path d="M0 0H330V125C330 133.284 323.284 140 315 140H15C6.71573 140 0 133.284 0 125V0Z" fill="white"/>
</clipPath>
</defs>
</svg>
