<svg width="1440" height="880" viewBox="0 0 1440 880" fill="none" xmlns="http://www.w3.org/2000/svg">
<rect width="1440" height="880" fill="#525AF2"/>
<path d="M582.554 197.345C766.5 333.5 764.499 171.5 839.5 137.5C914.201 103.636 922.473 325.156 791.499 408.5C690.032 473.068 636.172 647.89 718.999 650C801.825 652.11 878.908 474.165 1022.98 456.203" stroke="#565FFF" stroke-width="48" stroke-linecap="round"/>
<path d="M720.371 736.163L698.174 727.722L689.885 699.814C689.565 698.738 688.595 698 687.5 698C686.405 698 685.435 698.738 685.115 699.814L676.829 727.722L654.629 736.163C653.649 736.537 653 737.493 653 738.567C653 739.638 653.649 740.599 654.629 740.971L676.817 749.409L685.108 778.168C685.422 779.254 686.395 780 687.5 780C688.603 780 689.578 779.254 689.892 778.165L698.183 749.406L720.374 740.968C721.349 740.599 722 739.641 722 738.567C722 737.496 721.349 736.537 720.371 736.163Z" fill="#565FFF"/>
<path d="M639.522 640.012L633.612 637.762L631.423 631.679C631.06 630.669 630.125 630 629.077 630C628.032 630 627.098 630.669 626.733 631.679L624.545 637.762L618.632 640.012C617.65 640.387 617 641.349 617 642.424C617 643.499 617.65 644.464 618.632 644.837L624.545 647.087L626.733 653.169C627.098 654.18 628.032 654.849 629.077 654.849C630.122 654.849 631.058 654.18 631.423 653.169L633.61 647.087L639.522 644.837C640.505 644.461 641.155 643.499 641.155 642.424C641.155 641.349 640.505 640.387 639.522 640.012Z" fill="#565FFF"/>
<path d="M441.945 731.816L450.567 735.168C452.031 735.732 453 737.201 453 738.838C453 740.475 452.031 741.944 450.567 742.508L441.994 745.849L438.614 760.035C438.197 761.778 436.71 763 435 763C433.29 763 431.803 761.778 431.386 760.039L428.006 745.853L419.433 742.512C417.969 741.944 417 740.475 417 738.838C417 737.201 417.969 735.732 419.433 735.164L428.051 731.812L431.404 718.887C431.848 717.183 433.32 716 435 716C436.68 716 438.152 717.183 438.592 718.891L441.945 731.816Z" fill="#565FFF"/>
</svg>
