<svg width="119" height="50" viewBox="0 0 119 50" fill="none" xmlns="http://www.w3.org/2000/svg">
<path d="M53.4265 11.4712C54.2234 11.4712 54.8671 11.701 55.3575 12.1608C55.8479 12.6104 56.0931 13.1978 56.0931 13.9233C56.0931 14.6385 55.8479 15.2259 55.3575 15.6857C54.8671 16.1353 54.2234 16.36 53.4265 16.36C52.6295 16.36 51.9859 16.1353 51.4954 15.6857C51.0152 15.2259 50.7751 14.6385 50.7751 13.9233C50.7751 13.1978 51.0152 12.6104 51.4954 12.1608C51.9859 11.701 52.6295 11.4712 53.4265 11.4712ZM51.051 34.7815V18.1991H55.8479V34.7815H51.051ZM69.839 17.8926C71.4942 17.8926 72.7765 18.3932 73.6858 19.3945C74.6053 20.3958 75.0651 22.0356 75.0651 24.3141V34.7815H70.2682V24.2834C70.2682 23.323 70.0638 22.664 69.6551 22.3064C69.2567 21.9386 68.6283 21.7547 67.7701 21.7547C66.636 21.7547 65.788 22.2144 65.226 23.134V34.7815H60.4597V18.1991H64.9348L65.1034 20.1148C65.6756 19.3894 66.3601 18.8377 67.157 18.4597C67.9642 18.0816 68.8582 17.8926 69.839 17.8926ZM84.9642 28.1915C83.1558 27.8032 81.7254 27.2004 80.6731 26.383C79.6309 25.5657 79.1098 24.4724 79.1098 23.1033C79.1098 22.1634 79.3755 21.2949 79.9068 20.498C80.4483 19.701 81.2248 19.0676 82.2363 18.5976C83.258 18.1276 84.4534 17.8926 85.8225 17.8926C87.2529 17.8926 88.4994 18.1225 89.5619 18.5823C90.6347 19.0318 91.4572 19.6653 92.0294 20.4826C92.6118 21.2898 92.9029 22.2196 92.9029 23.2719H88.1213C88.1213 22.618 87.9323 22.1123 87.5543 21.7547C87.1865 21.3971 86.6041 21.2183 85.8072 21.2183C85.1635 21.2183 84.6424 21.3715 84.2439 21.678C83.8557 21.9846 83.6616 22.3779 83.6616 22.8581C83.6616 23.3281 83.8863 23.7113 84.3359 24.0076C84.7854 24.2936 85.5364 24.5337 86.5888 24.7279C87.8863 24.9628 88.9898 25.2745 89.8991 25.6627C90.8186 26.051 91.5492 26.5976 92.0907 27.3026C92.6424 27.9973 92.9183 28.8913 92.9183 29.9846C92.9183 30.9552 92.6271 31.8287 92.0447 32.6052C91.4623 33.3817 90.6347 33.9897 89.5619 34.429C88.4891 34.8683 87.2427 35.088 85.8225 35.088C84.3308 35.088 83.0332 34.8173 81.9298 34.2757C80.8365 33.724 80.0038 33.019 79.4317 32.1608C78.8595 31.2924 78.5734 30.3984 78.5734 29.4788H83.0792C83.1098 30.2349 83.3857 30.8019 83.9068 31.18C84.4278 31.558 85.1022 31.747 85.9298 31.747C86.6858 31.747 87.2682 31.604 87.6769 31.3179C88.0958 31.0216 88.3052 30.6282 88.3052 30.1378C88.3052 29.8313 88.2082 29.5708 88.0141 29.3562C87.8301 29.1416 87.4981 28.9424 87.0179 28.7585C86.5377 28.5746 85.8531 28.3856 84.9642 28.1915ZM96.1661 26.3371C96.1661 24.7125 96.4726 23.2617 97.0856 21.9846C97.7089 20.7074 98.6131 19.7061 99.7983 18.9807C100.994 18.2553 102.419 17.8926 104.074 17.8926C105.74 17.8926 107.17 18.2553 108.365 18.9807C109.561 19.7061 110.465 20.7074 111.078 21.9846C111.701 23.2515 112.013 24.7023 112.013 26.3371V26.6589C112.013 28.2834 111.701 29.7342 111.078 31.0114C110.465 32.2885 109.561 33.2898 108.365 34.0152C107.18 34.7304 105.76 35.088 104.105 35.088C102.439 35.088 101.009 34.7304 99.8136 34.0152C98.6182 33.2898 97.7089 32.2936 97.0856 31.0267C96.4726 29.7496 96.1661 28.2936 96.1661 26.6589V26.3371ZM100.948 26.6589C100.948 28.0586 101.193 29.1723 101.683 29.9999C102.184 30.8173 102.991 31.2259 104.105 31.2259C105.198 31.2259 105.99 30.8121 106.48 29.9846C106.981 29.157 107.231 28.0484 107.231 26.6589V26.3371C107.231 24.968 106.981 23.8645 106.48 23.0267C105.99 22.1787 105.188 21.7547 104.074 21.7547C102.981 21.7547 102.184 22.1787 101.683 23.0267C101.193 23.8645 100.948 24.968 100.948 26.3371V26.6589Z" fill="#FFCD65"/>
<path d="M19.333 26.0391C17.3322 35.5933 14.9389 38.4482 14.9389 38.4482L7.74629 34.2743C7.74629 34.2743 10.1461 29.9322 11.1362 22.6581C11.855 17.3774 11.3483 10.813 11.3483 10.813L19.0232 6.35403C19.0232 6.35403 20.976 18.1933 19.333 26.0391Z" fill="#EDA105"/>
<path d="M27.6228 23.3761C29.1969 12.7507 32.2574 8.73455 32.2574 8.73455L39.6769 12.916C39.6769 12.916 37.9141 15.9631 36.2955 24.5347C35.3235 29.6817 36.0539 36.4039 36.0539 36.4039L28.625 40.8211C28.625 40.8211 26.7083 29.5495 27.6228 23.3761Z" fill="url(#paint0_linear_7033_269195)"/>
<path d="M26.557 20.6272C17.9184 14.0609 14.9413 8.71275 14.9413 8.71275L22.4474 4.35044C22.4474 4.35044 24.0705 8.05279 31.6051 13.5141C35.8462 16.5881 40.9688 19.0866 40.9688 19.0866L41.0222 28.6675C41.0222 28.6675 31.8828 24.6753 26.557 20.6272Z" fill="url(#paint1_linear_7033_269195)"/>
<path d="M20.4046 26.0789C11.6467 19.86 6.30761 19.1848 6.30761 19.1848L6.30761 27.9075C6.30761 27.9075 9.67198 28.9435 16.6868 34.1285C20.899 37.2419 25.0214 42.9371 25.0214 42.9371L32.4102 38.4954C32.4102 38.4954 26.9404 30.7198 20.4046 26.0789Z" fill="url(#paint2_linear_7033_269195)"/>
<path d="M24.0379 27.7563C14.3103 32.3114 10.6545 35.9231 10.6545 35.9231L18.6809 40.9234C18.6809 40.9234 21.9777 38.0744 29.9466 34.5264C34.7317 32.3958 40.9818 32.0482 40.9818 32.0482L40.9818 23.3915C40.9818 23.3915 31.2974 24.3569 24.0379 27.7563Z" fill="url(#paint3_linear_7033_269195)"/>
<path d="M41.0223 28.6675C41.0223 28.6675 31.8829 24.6753 26.5572 20.6272L23.8727 18.6713L30.7565 12.9614L33.9689 15.1216C37.5391 17.4138 40.9689 19.0867 40.9689 19.0867L41.0223 28.6675Z" fill="url(#paint4_linear_7033_269195)"/>
<path d="M28.6245 40.8212C28.6245 40.8212 26.7078 29.5495 27.6223 23.3761C27.713 22.7641 27.8086 22.1739 27.9083 21.6052C30.5299 23.1584 35.8254 26.2655 36.0341 26.2683C35.474 31.0711 36.0534 36.404 36.0534 36.404L28.6245 40.8212Z" fill="url(#paint5_linear_7033_269195)"/>
<path d="M22.4678 19.709C12.45 23.8786 6.33008 23.7653 6.33008 23.7653V15.0836C6.33008 15.0836 10.3406 15.3524 18.8544 11.7704C23.6825 9.73901 28.3774 6.47461 28.3774 6.47461L36.6878 11.2425C36.6878 11.2425 28.6438 17.1385 22.4678 19.709Z" fill="#FFCD65"/>
<defs>
<linearGradient id="paint0_linear_7033_269195" x1="34.8724" y1="75.4549" x2="37.8205" y2="10.8064" gradientUnits="userSpaceOnUse">
<stop stop-color="#FFE09F"/>
<stop offset="1" stop-color="#EDA105"/>
</linearGradient>
<linearGradient id="paint1_linear_7033_269195" x1="45.1487" y1="26.4316" x2="26.5333" y2="3.05703" gradientUnits="userSpaceOnUse">
<stop offset="0.00960912" stop-color="#FFCD65"/>
<stop offset="1" stop-color="#FFB00C"/>
</linearGradient>
<linearGradient id="paint2_linear_7033_269195" x1="9.39202" y1="35.318" x2="20.3001" y2="31.8645" gradientUnits="userSpaceOnUse">
<stop stop-color="#FFBD30"/>
<stop offset="1" stop-color="#DF9600"/>
</linearGradient>
<linearGradient id="paint3_linear_7033_269195" x1="32.4292" y1="27.6949" x2="15.9618" y2="41.9302" gradientUnits="userSpaceOnUse">
<stop stop-color="#EDA105"/>
<stop offset="1" stop-color="#FFCD65"/>
</linearGradient>
<linearGradient id="paint4_linear_7033_269195" x1="41.611" y1="24.5364" x2="15.2884" y2="16.1973" gradientUnits="userSpaceOnUse">
<stop stop-color="#FFCD65"/>
<stop offset="1" stop-color="#FFB00C"/>
</linearGradient>
<linearGradient id="paint5_linear_7033_269195" x1="31.5447" y1="42.8991" x2="30.0706" y2="22.22" gradientUnits="userSpaceOnUse">
<stop stop-color="#FFCD65"/>
<stop offset="1" stop-color="#F1AE26"/>
</linearGradient>
</defs>
</svg>
