<svg width="39" height="40" viewBox="0 0 39 40" fill="none" xmlns="http://www.w3.org/2000/svg">
<g clip-path="url(#clip0_6602_225397)">
<rect width="39" height="40" fill="white"/>
<path d="M16.4706 21.586C14.8016 29.5632 12.8052 31.9468 12.8052 31.9468L6.80515 28.4618C6.80515 28.4618 8.80703 24.8365 9.63297 18.7631C10.2326 14.3541 9.80987 8.87323 9.80987 8.87323L16.2123 5.15028C16.2123 5.15028 17.8412 15.0353 16.4706 21.586Z" fill="url(#paint0_linear_6602_225397)"/>
<path d="M23.386 19.3633C24.6991 10.4918 27.2521 7.13857 27.2521 7.13857L33.4414 10.6298C33.4414 10.6298 31.9709 13.174 30.6207 20.3306C29.8099 24.6281 30.4191 30.2407 30.4191 30.2407L24.222 33.9287C24.222 33.9287 22.6231 24.5176 23.386 19.3633Z" fill="#122C7B"/>
<path d="M22.497 17.068C15.2907 11.5856 12.8072 7.12019 12.8072 7.12019L19.0687 3.47795C19.0687 3.47795 20.4228 6.56918 26.708 11.129C30.2459 13.6956 34.5192 15.7817 34.5192 15.7817L34.5637 23.7811C34.5637 23.7811 26.9397 20.4479 22.497 17.068Z" fill="url(#paint1_linear_6602_225397)"/>
<path d="M17.3645 21.6197C10.0588 16.4274 5.60493 15.8636 5.60493 15.8636L5.60493 23.1465C5.60493 23.1465 8.41145 24.0115 14.2631 28.3406C17.777 30.9401 21.2158 35.6952 21.2158 35.6952L27.3795 31.9867C27.3795 31.9867 22.8166 25.4946 17.3645 21.6197Z" fill="url(#paint2_linear_6602_225397)"/>
<path d="M20.3959 23.0201C12.2813 26.8233 9.23164 29.8389 9.23164 29.8389L15.9272 34.0138C15.9272 34.0138 18.6773 31.6351 25.3249 28.6727C29.3166 26.8939 34.5304 26.6036 34.5304 26.6036L34.5304 19.3758C34.5304 19.3758 26.4517 20.1819 20.3959 23.0201Z" fill="url(#paint3_linear_6602_225397)"/>
<path d="M34.5637 23.7805C34.5637 23.7805 26.9396 20.4473 22.497 17.0674L20.2576 15.4343L26 10.667L28.6797 12.4706C31.658 14.3844 34.5191 15.7811 34.5191 15.7811L34.5637 23.7805Z" fill="url(#paint4_linear_6602_225397)"/>
<path d="M24.2218 33.9286C24.2218 33.9286 22.6229 24.5175 23.3858 19.3631C23.4614 18.8521 23.5412 18.3593 23.6243 17.8845C25.8113 19.1813 30.2287 21.7755 30.4028 21.7779C29.9356 25.7879 30.4189 30.2405 30.4189 30.2405L24.2218 33.9286Z" fill="url(#paint5_linear_6602_225397)"/>
<path d="M19.086 16.3008C10.7292 19.7821 5.62402 19.6875 5.62402 19.6875V12.4389C5.62402 12.4389 8.96955 12.6634 16.0717 9.67257C20.0993 7.97654 24.0157 5.25098 24.0157 5.25098L30.9481 9.23188C30.9481 9.23188 24.2379 14.1546 19.086 16.3008Z" fill="#525AF2"/>
</g>
<defs>
<linearGradient id="paint0_linear_6602_225397" x1="12.9911" y1="6.58197" x2="8.83828" y2="29.7188" gradientUnits="userSpaceOnUse">
<stop stop-color="#0D2663"/>
<stop offset="1" stop-color="#0B1063"/>
</linearGradient>
<linearGradient id="paint1_linear_6602_225397" x1="23.6015" y1="8.65729" x2="15.0593" y2="2.8271" gradientUnits="userSpaceOnUse">
<stop stop-color="#324BCA"/>
<stop offset="1" stop-color="#292F9D"/>
</linearGradient>
<linearGradient id="paint2_linear_6602_225397" x1="3.47006" y1="19.312" x2="24.2467" y2="34.5908" gradientUnits="userSpaceOnUse">
<stop stop-color="#1F2489"/>
<stop offset="1" stop-color="#282FAA"/>
</linearGradient>
<linearGradient id="paint3_linear_6602_225397" x1="34.9495" y1="22.9689" x2="12.7744" y2="32.4841" gradientUnits="userSpaceOnUse">
<stop stop-color="#122C7B"/>
<stop offset="1" stop-color="#525AF2"/>
</linearGradient>
<linearGradient id="paint4_linear_6602_225397" x1="37.3033" y1="21.1401" x2="20.3598" y2="9.79595" gradientUnits="userSpaceOnUse">
<stop stop-color="#4E56F9"/>
<stop offset="1" stop-color="#292F9D"/>
</linearGradient>
<linearGradient id="paint5_linear_6602_225397" x1="27.5713" y1="34.2921" x2="27.0433" y2="16.8506" gradientUnits="userSpaceOnUse">
<stop stop-color="#525AF2"/>
<stop offset="0.0001" stop-color="white"/>
<stop offset="0.0002" stop-color="#525AF2"/>
<stop offset="1" stop-color="#3A41D1"/>
</linearGradient>
<clipPath id="clip0_6602_225397">
<rect width="39" height="40" fill="white"/>
</clipPath>
</defs>
</svg>
