<svg width="18" height="19" viewBox="0 0 18 19" fill="none" xmlns="http://www.w3.org/2000/svg">
<path d="M17.54 3.01906L16.15 1.33906C15.88 0.999062 15.47 0.789062 15 0.789062H3C2.53 0.789062 2.12 0.999062 1.84 1.33906L0.46 3.01906C0.17 3.35906 0 3.80906 0 4.28906V16.7891C0 17.8891 0.9 18.7891 2 18.7891H16C17.1 18.7891 18 17.8891 18 16.7891V4.28906C18 3.80906 17.83 3.35906 17.54 3.01906ZM3.24 2.78906H14.76L15.57 3.75906H2.44L3.24 2.78906ZM2 16.7891V5.78906H16V16.7891H2ZM10.45 7.78906H7.55V10.7891H5L9 14.7891L13 10.7891H10.45V7.78906Z" fill="#07A098"/>
</svg>
