<svg width="11" height="23" viewBox="0 0 11 23" fill="none" xmlns="http://www.w3.org/2000/svg">
<path d="M9.5 5.29883V16.7988C9.5 19.0088 7.71 20.7988 5.5 20.7988C3.29 20.7988 1.5 19.0088 1.5 16.7988V4.29883C1.5 2.91883 2.62 1.79883 4 1.79883C5.38 1.79883 6.5 2.91883 6.5 4.29883V14.7988C6.5 15.3488 6.05 15.7988 5.5 15.7988C4.95 15.7988 4.5 15.3488 4.5 14.7988V5.29883H3V14.7988C3 16.1788 4.12 17.2988 5.5 17.2988C6.88 17.2988 8 16.1788 8 14.7988V4.29883C8 2.08883 6.21 0.298828 4 0.298828C1.79 0.298828 0 2.08883 0 4.29883V16.7988C0 19.8388 2.46 22.2988 5.5 22.2988C8.54 22.2988 11 19.8388 11 16.7988V5.29883H9.5Z" fill="#686868"/>
</svg>
