<svg width="24" height="24" viewBox="0 0 24 24" fill="none" xmlns="http://www.w3.org/2000/svg">
<circle cx="12" cy="12" r="12" fill="#E7F7FE"/>
<path fill-rule="evenodd" clip-rule="evenodd" d="M14.2868 9.71442C14.2868 10.9773 13.2639 12.0001 12.001 12.0001C10.7382 12.0001 9.71532 10.9773 9.71532 9.71442C9.71532 8.45157 10.7382 7.42871 12.001 7.42871C13.2639 7.42871 14.2868 8.45157 14.2868 9.71442ZM7.42969 15.4287C7.42969 13.9087 10.4754 13.143 12.0011 13.143C13.5268 13.143 16.5725 13.9087 16.5725 15.4287V16.0002C16.5725 16.3145 16.3154 16.5716 16.0011 16.5716H8.00112C7.68683 16.5716 7.42969 16.3145 7.42969 16.0002V15.4287Z" fill="#161925"/>
</svg>
