<svg width="41" height="41" viewBox="0 0 41 41" fill="none" xmlns="http://www.w3.org/2000/svg">
<g clip-path="url(#clip0_5139_5675)">
<circle cx="20.793" cy="20.6953" r="20" fill="#DAF2FF"/>
<path fill-rule="evenodd" clip-rule="evenodd" d="M24.6013 16.8867C24.6013 18.9914 22.8966 20.6962 20.7918 20.6962C18.6871 20.6962 16.9823 18.9914 16.9823 16.8867C16.9823 14.7819 18.6871 13.0771 20.7918 13.0771C22.8966 13.0771 24.6013 14.7819 24.6013 16.8867ZM13.1729 26.4107C13.1729 23.8773 18.249 22.6011 20.7919 22.6011C23.3348 22.6011 28.4109 23.8773 28.4109 26.4107V27.3631C28.4109 27.8869 27.9824 28.3154 27.4586 28.3154H14.1252C13.6014 28.3154 13.1729 27.8869 13.1729 27.3631V26.4107Z" fill="#001E2F"/>
</g>
<defs>
<clipPath id="clip0_5139_5675">
<rect width="40" height="40" fill="white" transform="translate(0.792969 0.695312)"/>
</clipPath>
</defs>
</svg>
