<svg width="19" height="23" viewBox="0 0 19 23" fill="none" xmlns="http://www.w3.org/2000/svg">
<path d="M9.5 22.6855C10.7375 22.6855 11.75 21.673 11.75 20.4355H7.25C7.25 21.673 8.2625 22.6855 9.5 22.6855ZM16.25 15.9355V10.3105C16.25 6.8568 14.4162 3.96555 11.1875 3.20055V2.43555C11.1875 1.5018 10.4337 0.748047 9.5 0.748047C8.56625 0.748047 7.8125 1.5018 7.8125 2.43555V3.20055C4.595 3.96555 2.75 6.84555 2.75 10.3105V15.9355L0.5 18.1855V19.3105H18.5V18.1855L16.25 15.9355ZM14 17.0605H5V10.3105C5 7.52055 6.69875 5.24805 9.5 5.24805C12.3012 5.24805 14 7.52055 14 10.3105V17.0605Z" fill="#2E2E2E"/>
</svg>
