<svg width="20" height="21" viewBox="0 0 20 21" fill="none" xmlns="http://www.w3.org/2000/svg">
<path d="M9.99 0.945801C4.47 0.945801 0 5.4258 0 10.9458C0 16.4658 4.47 20.9458 9.99 20.9458C15.52 20.9458 20 16.4658 20 10.9458C20 5.4258 15.52 0.945801 9.99 0.945801ZM10 18.9458C5.58 18.9458 2 15.3658 2 10.9458C2 6.5258 5.58 2.9458 10 2.9458C14.42 2.9458 18 6.5258 18 10.9458C18 15.3658 14.42 18.9458 10 18.9458ZM9.78 5.9458H9.72C9.32 5.9458 9 6.2658 9 6.6658V11.3858C9 11.7358 9.18 12.0658 9.49 12.2458L13.64 14.7358C13.98 14.9358 14.42 14.8358 14.62 14.4958C14.83 14.1558 14.72 13.7058 14.37 13.5058L10.5 11.2058V6.6658C10.5 6.2658 10.18 5.9458 9.78 5.9458Z" fill="#686868"/>
</svg>
