<svg width="25" height="23" viewBox="0 0 25 23" fill="none" xmlns="http://www.w3.org/2000/svg">
<g clip-path="url(#clip0_5038_33916)">
<path d="M20.5768 12.3267C20.5768 7.29417 16.6718 3.875 12.3268 3.875C8.02766 3.875 4.07682 7.22083 4.07682 12.3817C3.52682 12.6933 3.16016 13.28 3.16016 13.9583V15.7917C3.16016 16.8 3.98516 17.625 4.99349 17.625H5.91016V12.0333C5.91016 8.48583 8.77932 5.61667 12.3268 5.61667C15.8743 5.61667 18.7435 8.48583 18.7435 12.0333V18.5417H11.4102V20.375H18.7435C19.7518 20.375 20.5768 19.55 20.5768 18.5417V17.4233C21.1177 17.1392 21.4935 16.58 21.4935 15.92V13.8117C21.4935 13.17 21.1177 12.6108 20.5768 12.3267Z" fill="white"/>
</g>
<defs>
<clipPath id="clip0_5038_33916">
<rect width="24" height="22" fill="white" transform="translate(0.328125 0.757812)"/>
</clipPath>
</defs>
</svg>
