<svg width="25" height="23" viewBox="0 0 25 23" fill="none" xmlns="http://www.w3.org/2000/svg">
<g clip-path="url(#clip0_5038_32651)">
<path d="M20.7487 12.439C20.7487 7.40647 16.8437 3.9873 12.4987 3.9873C8.19953 3.9873 4.2487 7.33314 4.2487 12.494C3.6987 12.8056 3.33203 13.3923 3.33203 14.0706V15.904C3.33203 16.9123 4.15703 17.7373 5.16536 17.7373H6.08203V12.1456C6.08203 8.59814 8.9512 5.72897 12.4987 5.72897C16.0462 5.72897 18.9154 8.59814 18.9154 12.1456V18.654H11.582V20.4873H18.9154C19.9237 20.4873 20.7487 19.6623 20.7487 18.654V17.5356C21.2895 17.2515 21.6654 16.6923 21.6654 16.0323V13.924C21.6654 13.2823 21.2895 12.7231 20.7487 12.439Z" fill="#07A098"/>
</g>
<defs>
<clipPath id="clip0_5038_32651">
<rect width="24" height="22" fill="white" transform="translate(0.5 0.870117)"/>
</clipPath>
</defs>
</svg>
