<svg width="24" height="25" viewBox="0 0 24 25" fill="none" xmlns="http://www.w3.org/2000/svg">
<path d="M11.775 5.5H2V22.5H19V13.15" stroke="#4B618A" stroke-width="1.8"/>
<path d="M7 14.375V17.5H10.3329L20.1627 8.28333L16.8298 5.15833L7 14.375ZM9.5952 15.8333H8.77754V15.0667L16.8298 7.51667L17.6474 8.28333L9.5952 15.8333ZM22.7401 4.69167L20.6604 2.74167C20.4826 2.575 20.2604 2.5 20.0293 2.5C19.7983 2.5 19.5761 2.58333 19.4072 2.74167L17.7808 4.26667L21.1136 7.39167L22.7401 5.86667C22.8225 5.78957 22.8878 5.698 22.9324 5.59719C22.977 5.49638 23 5.38831 23 5.27917C23 5.17003 22.977 5.06196 22.9324 4.96115C22.8878 4.86034 22.8225 4.76876 22.7401 4.69167Z" fill="#4B618A"/>
</svg>
