<svg width="17" height="17" viewBox="0 0 17 17" fill="none" xmlns="http://www.w3.org/2000/svg">
<g clip-path="url(#clip0_5199_7366)">
<path d="M13.0885 1.79427H10.3019C10.0219 1.02094 9.28854 0.460938 8.42188 0.460938C7.55521 0.460938 6.82188 1.02094 6.54188 1.79427H3.75521C3.02188 1.79427 2.42188 2.39427 2.42188 3.1276V13.7943C2.42188 14.5276 3.02188 15.1276 3.75521 15.1276H13.0885C13.8219 15.1276 14.4219 14.5276 14.4219 13.7943V3.1276C14.4219 2.39427 13.8219 1.79427 13.0885 1.79427ZM8.42188 1.79427C8.78854 1.79427 9.08854 2.09427 9.08854 2.46094C9.08854 2.8276 8.78854 3.1276 8.42188 3.1276C8.05521 3.1276 7.75521 2.8276 7.75521 2.46094C7.75521 2.09427 8.05521 1.79427 8.42188 1.79427ZM13.0885 13.7943H3.75521V3.1276H5.08854V5.1276H11.7552V3.1276H13.0885V13.7943Z" fill="#686868"/>
</g>
<defs>
<clipPath id="clip0_5199_7366">
<rect width="16" height="16" fill="white" transform="translate(0.421875 0.460938)"/>
</clipPath>
</defs>
</svg>
