<svg width="21" height="22" viewBox="0 0 21 22" fill="none" xmlns="http://www.w3.org/2000/svg">
<path d="M7.4375 10.8379C7.7856 10.8379 8.11944 10.6996 8.36558 10.4535C8.61172 10.2073 8.75 9.87349 8.75 9.52539C8.75 9.17729 8.61172 8.84345 8.36558 8.59731C8.11944 8.35117 7.7856 8.21289 7.4375 8.21289C7.0894 8.21289 6.75556 8.35117 6.50942 8.59731C6.26328 8.84345 6.125 9.17729 6.125 9.52539C6.125 9.87349 6.26328 10.2073 6.50942 10.4535C6.75556 10.6996 7.0894 10.8379 7.4375 10.8379Z" fill="#9D9D9D" fill-opacity="0.79"/>
<path d="M7.23785 14.19C7.16155 14.1032 7.06881 14.0323 6.96497 13.9815C6.86113 13.9308 6.74826 13.9011 6.63288 13.8941C6.5175 13.8872 6.40189 13.9033 6.29273 13.9413C6.18357 13.9793 6.08303 14.0386 5.99692 14.1157C5.9108 14.1928 5.84081 14.2862 5.791 14.3905C5.74118 14.4948 5.71252 14.6079 5.70668 14.7234C5.70084 14.8388 5.71793 14.9543 5.75697 15.0631C5.796 15.1719 5.85621 15.2718 5.9341 15.3572C6.50828 16 7.21189 16.5141 7.99876 16.8658C8.78563 17.2174 9.63798 17.3987 10.4999 17.3977C11.3617 17.3987 12.2141 17.2174 13.0009 16.8658C13.7878 16.5141 14.4914 16 15.0656 15.3572C15.2179 15.184 15.2955 14.9576 15.2817 14.7274C15.268 14.4971 15.1638 14.2816 14.992 14.1278C14.8201 13.9739 14.5945 13.8941 14.3641 13.9058C14.1337 13.9174 13.9173 14.0196 13.7619 14.19C13.3519 14.6495 12.8492 15.017 12.287 15.2683C11.7248 15.5195 11.1157 15.6489 10.4999 15.6477C9.20485 15.6477 8.0411 15.086 7.23785 14.19Z" fill="#9D9D9D" fill-opacity="0.79"/>
<path d="M14.875 9.52539C14.875 9.87349 14.7367 10.2073 14.4906 10.4535C14.2444 10.6996 13.9106 10.8379 13.5625 10.8379C13.2144 10.8379 12.8806 10.6996 12.6344 10.4535C12.3883 10.2073 12.25 9.87349 12.25 9.52539C12.25 9.17729 12.3883 8.84345 12.6344 8.59731C12.8806 8.35117 13.2144 8.21289 13.5625 8.21289C13.9106 8.21289 14.2444 8.35117 14.4906 8.59731C14.7367 8.84345 14.875 9.17729 14.875 9.52539Z" fill="#9D9D9D" fill-opacity="0.79"/>
<path d="M21 11.2754C21 9.89651 20.7284 8.53113 20.2007 7.25721C19.6731 5.9833 18.8996 4.82578 17.9246 3.85077C16.9496 2.87575 15.7921 2.10233 14.5182 1.57466C13.2443 1.04698 11.8789 0.775391 10.5 0.775391C9.12112 0.775391 7.75574 1.04698 6.48182 1.57466C5.20791 2.10233 4.05039 2.87575 3.07538 3.85077C2.10036 4.82578 1.32694 5.9833 0.799265 7.25721C0.27159 8.53113 -2.05469e-08 9.89651 0 11.2754C4.14964e-08 14.0602 1.10625 16.7309 3.07538 18.7C5.04451 20.6691 7.71523 21.7754 10.5 21.7754C13.2848 21.7754 15.9555 20.6691 17.9246 18.7C19.8938 16.7309 21 14.0602 21 11.2754ZM1.75 11.2754C1.75 8.95475 2.67187 6.72915 4.31282 5.08821C5.95376 3.44726 8.17936 2.52539 10.5 2.52539C12.8206 2.52539 15.0462 3.44726 16.6872 5.08821C18.3281 6.72915 19.25 8.95475 19.25 11.2754C19.25 13.596 18.3281 15.8216 16.6872 17.4626C15.0462 19.1035 12.8206 20.0254 10.5 20.0254C8.17936 20.0254 5.95376 19.1035 4.31282 17.4626C2.67187 15.8216 1.75 13.596 1.75 11.2754Z" fill="#9D9D9D" fill-opacity="0.79"/>
</svg>
