<svg width="31" height="31" viewBox="0 0 31 31" fill="none" xmlns="http://www.w3.org/2000/svg">
<path d="M15.4445 2.54102C8.54453 2.54102 2.95703 8.14102 2.95703 15.041C2.95703 21.941 8.54453 27.541 15.4445 27.541C22.357 27.541 27.957 21.941 27.957 15.041C27.957 8.14102 22.357 2.54102 15.4445 2.54102ZM15.457 25.041C9.93203 25.041 5.45703 20.566 5.45703 15.041C5.45703 9.51602 9.93203 5.04102 15.457 5.04102C20.982 5.04102 25.457 9.51602 25.457 15.041C25.457 20.566 20.982 25.041 15.457 25.041ZM14.207 18.791H16.707V21.291H14.207V18.791ZM14.207 8.79102H16.707V16.291H14.207V8.79102Z" fill="#E84949"/>
</svg>
