<svg width="18" height="18" viewBox="0 0 18 18" fill="none" xmlns="http://www.w3.org/2000/svg">
<path d="M9.09866 5.4746L9.78889 7.1041L10.1233 7.89395L10.9772 7.96511L12.7348 8.11454L11.397 9.27441L10.7495 9.83655L10.9416 10.6762L11.3401 12.3911L9.83158 11.4803L9.09866 11.0249L8.36574 11.4661L6.8572 12.3769L7.25568 10.662L7.44781 9.82232L6.80027 9.26018L5.46251 8.10031L7.2201 7.95088L8.07399 7.87972L8.40843 7.08987L9.09866 5.4746ZM9.09866 1.82422L7.09913 6.54196L1.98291 6.97602L5.86811 10.3418L4.70113 15.3441L9.09866 12.69L13.4962 15.3441L12.3292 10.3418L16.2144 6.97602L11.0982 6.54196L9.09866 1.82422Z" fill="#4B618A"/>
</svg>
