<svg width="19" height="19" viewBox="0 0 19 19" fill="none" xmlns="http://www.w3.org/2000/svg">
<path d="M9.42188 2.46094C5.28188 2.46094 1.92188 5.82094 1.92188 9.96094C1.92188 14.1009 5.28188 17.4609 9.42188 17.4609C13.5619 17.4609 16.9219 14.1009 16.9219 9.96094C16.9219 5.82094 13.5619 2.46094 9.42188 2.46094ZM5.72438 14.6709C6.04688 13.9959 8.01188 13.3359 9.42188 13.3359C10.8319 13.3359 12.8044 13.9959 13.1194 14.6709C12.0994 15.4809 10.8169 15.9609 9.42188 15.9609C8.02688 15.9609 6.74438 15.4809 5.72438 14.6709ZM14.1919 13.5834C13.1194 12.2784 10.5169 11.8359 9.42188 11.8359C8.32687 11.8359 5.72437 12.2784 4.65188 13.5834C3.88687 12.5784 3.42188 11.3259 3.42188 9.96094C3.42188 6.65344 6.11438 3.96094 9.42188 3.96094C12.7294 3.96094 15.4219 6.65344 15.4219 9.96094C15.4219 11.3259 14.9569 12.5784 14.1919 13.5834ZM9.42188 5.46094C7.96688 5.46094 6.79688 6.63094 6.79688 8.08594C6.79688 9.54094 7.96688 10.7109 9.42188 10.7109C10.8769 10.7109 12.0469 9.54094 12.0469 8.08594C12.0469 6.63094 10.8769 5.46094 9.42188 5.46094ZM9.42188 9.21094C8.79938 9.21094 8.29688 8.70844 8.29688 8.08594C8.29688 7.46344 8.79938 6.96094 9.42188 6.96094C10.0444 6.96094 10.5469 7.46344 10.5469 8.08594C10.5469 8.70844 10.0444 9.21094 9.42188 9.21094Z" fill="#686868"/>
</svg>
