<svg width="18" height="18" viewBox="0 0 18 18" fill="none" xmlns="http://www.w3.org/2000/svg">
<path d="M2 3.5C1.46957 3.5 0.960859 3.71071 0.585786 4.08579C0.210714 4.46086 0 4.96957 0 5.5V15.5C0 16.0304 0.210714 16.5391 0.585786 16.9142C0.960859 17.2893 1.46957 17.5 2 17.5H16C16.5304 17.5 17.0391 17.2893 17.4142 16.9142C17.7893 16.5391 18 16.0304 18 15.5V5.5C18 4.96957 17.7893 4.46086 17.4142 4.08579C17.0391 3.71071 16.5304 3.5 16 3.5H2ZM2 14.5L5.5 10L8 13L11.5 8.5L16 14.5H2ZM15 0.5C15.5304 0.5 16.0391 0.710714 16.4142 1.08579C16.7893 1.46086 17 1.96957 17 2.5H1C1 1.96957 1.21071 1.46086 1.58579 1.08579C1.96086 0.710714 2.46957 0.5 3 0.5H15Z" fill="#4B618A"/>
</svg>
