<svg width="21" height="22" viewBox="0 0 21 22" fill="none" xmlns="http://www.w3.org/2000/svg">
<path d="M20.4982 11.4743C20.4982 10.63 20.4297 10.0139 20.2815 9.375H10.6406V13.1856H16.2996C16.1855 14.1326 15.5694 15.5588 14.2003 16.5171L14.1811 16.6447L17.2293 19.0062L17.4405 19.0272C19.3801 17.236 20.4982 14.6004 20.4982 11.4743Z" fill="#4285F4"/>
<path d="M10.6379 21.5148C13.4103 21.5148 15.7378 20.602 17.4378 19.0276L14.1976 16.5175C13.3305 17.1222 12.1667 17.5443 10.6379 17.5443C7.92253 17.5443 5.61787 15.7531 4.79633 13.2773L4.67591 13.2876L1.50629 15.7406L1.46484 15.8558C3.1534 19.2101 6.62182 21.5148 10.6379 21.5148Z" fill="#34A853"/>
<path d="M4.79784 13.28C4.58107 12.6411 4.45562 11.9565 4.45562 11.2492C4.45562 10.5418 4.58107 9.85723 4.78644 9.21832L4.78069 9.08224L1.57136 6.58984L1.46636 6.63979C0.770422 8.03174 0.371094 9.59484 0.371094 11.2492C0.371094 12.9035 0.770422 14.4665 1.46636 15.8585L4.79784 13.28Z" fill="#FBBC05"/>
<path d="M10.6379 4.95086C12.566 4.95086 13.8667 5.78374 14.6083 6.47975L17.5063 3.65024C15.7265 1.9959 13.4103 0.980469 10.6379 0.980469C6.62182 0.980469 3.1534 3.28512 1.46484 6.63942L4.78492 9.21795C5.61787 6.74214 7.92253 4.95086 10.6379 4.95086Z" fill="#EB4335"/>
</svg>
