<svg width="26" height="26" viewBox="0 0 26 26" fill="none" xmlns="http://www.w3.org/2000/svg">
<path d="M11.75 20.0508H14.25V17.5508H11.75V20.0508ZM13 0.0507812C6.1 0.0507812 0.5 5.65078 0.5 12.5508C0.5 19.4508 6.1 25.0508 13 25.0508C19.9 25.0508 25.5 19.4508 25.5 12.5508C25.5 5.65078 19.9 0.0507812 13 0.0507812ZM13 22.5508C7.4875 22.5508 3 18.0633 3 12.5508C3 7.03828 7.4875 2.55078 13 2.55078C18.5125 2.55078 23 7.03828 23 12.5508C23 18.0633 18.5125 22.5508 13 22.5508ZM13 5.05078C10.2375 5.05078 8 7.28828 8 10.0508H10.5C10.5 8.67578 11.625 7.55078 13 7.55078C14.375 7.55078 15.5 8.67578 15.5 10.0508C15.5 12.5508 11.75 12.2383 11.75 16.3008H14.25C14.25 13.4883 18 13.1758 18 10.0508C18 7.28828 15.7625 5.05078 13 5.05078Z" fill="#07A098"/>
</svg>
