<svg width="24" height="25" viewBox="0 0 24 25" fill="none" xmlns="http://www.w3.org/2000/svg">
<path d="M20.2602 16.056C20.1148 15.3537 19.8011 14.6971 19.346 14.1427C18.8909 13.5884 18.308 13.1528 17.6474 12.8735C17.1027 12.6466 16.5185 12.5297 15.9284 12.5297C15.3384 12.5297 14.7542 12.6466 14.2095 12.8735C13.9918 12.9725 13.7816 13.0874 13.5808 13.2173L10.8207 10.4572C11.4055 9.53163 11.6285 8.42299 11.4471 7.34332C11.2658 6.26365 10.6927 5.28874 9.83763 4.60508C8.98253 3.92142 7.9054 3.577 6.81228 3.63771C5.71916 3.69841 4.68679 4.15998 3.91264 4.93412C3.1385 5.70826 2.67693 6.74063 2.61623 7.83374C2.55552 8.92685 2.89994 10.004 3.5836 10.8591C4.26727 11.7142 5.24218 12.2872 6.32186 12.4686C7.40153 12.65 8.51018 12.4269 9.43572 11.8421L12.1959 14.6023C11.5837 15.5643 11.3689 16.7264 11.5967 17.8437C11.742 18.5461 12.0557 19.2026 12.5108 19.757C12.966 20.3113 13.5489 20.7469 14.2095 21.0262C14.7542 21.2531 15.3384 21.37 15.9284 21.37C16.5185 21.37 17.1027 21.2531 17.6474 21.0262C18.308 20.7469 18.8909 20.3113 19.346 19.757C19.8011 19.2026 20.1148 18.5461 20.2602 17.8437C20.3779 17.2536 20.3779 16.6461 20.2602 16.056ZM7.08813 10.5652C6.60244 10.5652 6.12767 10.4212 5.72384 10.1514C5.32001 9.88154 5.00527 9.49802 4.81941 9.04932C4.63355 8.60061 4.58492 8.10686 4.67967 7.63052C4.77442 7.15417 5.0083 6.71662 5.35172 6.37319C5.69515 6.02977 6.1327 5.79589 6.60905 5.70114C7.0854 5.60639 7.57915 5.65502 8.02786 5.84088C8.47657 6.02674 8.86009 6.34149 9.12992 6.74531C9.39975 7.14914 9.54377 7.62391 9.54377 8.10959C9.54377 8.76086 9.28505 9.38546 8.82453 9.84598C8.364 10.3065 7.7394 10.5652 7.08813 10.5652Z" fill="#4B618A"/>
</svg>
