<svg width="14" height="14" viewBox="0 0 14 14" fill="none" xmlns="http://www.w3.org/2000/svg">
<path d="M0.25 2.19869C0.25 1.75646 0.42779 1.33234 0.744258 1.01963C1.06073 0.706926 1.48995 0.53125 1.9375 0.53125H12.0625C12.5101 0.53125 12.9393 0.706926 13.2557 1.01963C13.5722 1.33234 13.75 1.75646 13.75 2.19869V8.86845C13.75 9.31069 13.5722 9.73481 13.2557 10.0475C12.9393 10.3602 12.5101 10.5359 12.0625 10.5359H3.97431C3.75055 10.5359 3.53598 10.6238 3.37778 10.7802L0.970563 13.1588C0.911611 13.2172 0.83645 13.257 0.754593 13.2732C0.672736 13.2893 0.587864 13.2811 0.510718 13.2496C0.433572 13.2181 0.36762 13.1647 0.32121 13.0961C0.2748 13.0276 0.250018 12.947 0.25 12.8645V2.19869ZM9.53125 5.53357C9.53125 5.75469 9.62014 5.96675 9.77838 6.1231C9.93661 6.27946 10.1512 6.36729 10.375 6.36729C10.5988 6.36729 10.8134 6.27946 10.9716 6.1231C11.1299 5.96675 11.2188 5.75469 11.2188 5.53357C11.2188 5.31246 11.1299 5.1004 10.9716 4.94404C10.8134 4.78769 10.5988 4.69985 10.375 4.69985C10.1512 4.69985 9.93661 4.78769 9.77838 4.94404C9.62014 5.1004 9.53125 5.31246 9.53125 5.53357ZM6.15625 5.53357C6.15625 5.75469 6.24514 5.96675 6.40338 6.1231C6.56161 6.27946 6.77622 6.36729 7 6.36729C7.22378 6.36729 7.43839 6.27946 7.59662 6.1231C7.75486 5.96675 7.84375 5.75469 7.84375 5.53357C7.84375 5.31246 7.75486 5.1004 7.59662 4.94404C7.43839 4.78769 7.22378 4.69985 7 4.69985C6.77622 4.69985 6.56161 4.78769 6.40338 4.94404C6.24514 5.1004 6.15625 5.31246 6.15625 5.53357ZM3.625 6.36729C3.84878 6.36729 4.06339 6.27946 4.22162 6.1231C4.37986 5.96675 4.46875 5.75469 4.46875 5.53357C4.46875 5.31246 4.37986 5.1004 4.22162 4.94404C4.06339 4.78769 3.84878 4.69985 3.625 4.69985C3.40122 4.69985 3.18661 4.78769 3.02838 4.94404C2.87014 5.1004 2.78125 5.31246 2.78125 5.53357C2.78125 5.75469 2.87014 5.96675 3.02838 6.1231C3.18661 6.27946 3.40122 6.36729 3.625 6.36729Z" fill="#FFCD65"/>
</svg>
