<svg width="14" height="15" viewBox="0 0 14 15" fill="none" xmlns="http://www.w3.org/2000/svg">
<path d="M4.42158 2.87967L3.58742 2.04551C2.18742 3.11301 1.26575 4.75801 1.18408 6.62467H2.35075C2.43825 5.07884 3.23158 3.72551 4.42158 2.87967ZM11.6491 6.62467H12.8157C12.7282 4.75801 11.8066 3.11301 10.4124 2.04551L9.58408 2.87967C10.7624 3.72551 11.5616 5.07884 11.6491 6.62467ZM10.4999 6.91634C10.4999 5.12551 9.54325 3.62634 7.87492 3.22967V2.83301C7.87492 2.34884 7.48408 1.95801 6.99992 1.95801C6.51575 1.95801 6.12492 2.34884 6.12492 2.83301V3.22967C4.45075 3.62634 3.49992 5.11967 3.49992 6.91634V9.83301L2.33325 10.9997V11.583H11.6666V10.9997L10.4999 9.83301V6.91634ZM6.99992 13.333C7.08158 13.333 7.15742 13.3272 7.23325 13.3097C7.61242 13.228 7.92158 12.9713 8.07325 12.6213C8.13158 12.4813 8.16075 12.3297 8.16075 12.1663H5.82742C5.83325 12.808 6.35242 13.333 6.99992 13.333Z" fill="#0EB4F6"/>
</svg>
