<svg width="25" height="25" viewBox="0 0 25 25" fill="none" xmlns="http://www.w3.org/2000/svg">
<path d="M12.6992 22.7314C13.7992 22.7314 14.6992 21.8314 14.6992 20.7314H10.6992C10.6992 21.8314 11.5992 22.7314 12.6992 22.7314ZM18.6992 16.7314V11.7314C18.6992 8.66145 17.0692 6.09145 14.1992 5.41145V3.23145H11.1992V5.41145C8.33922 6.09145 6.69922 8.65145 6.69922 11.7314V16.7314L4.69922 18.7314V19.7314H20.6992V18.7314L18.6992 16.7314ZM16.6992 17.7314H8.69922V11.7314C8.69922 9.25145 10.2092 7.23145 12.6992 7.23145C15.1892 7.23145 16.6992 9.25145 16.6992 11.7314V17.7314Z" fill="#07A098"/>
</svg>
