<svg width="16" height="11" viewBox="0 0 16 11" fill="none" xmlns="http://www.w3.org/2000/svg">
<path d="M7.99996 1.49935C10.5266 1.49935 12.78 2.91935 13.88 5.16602C12.78 7.41268 10.5266 8.83268 7.99996 8.83268C5.47329 8.83268 3.21996 7.41268 2.11996 5.16602C3.21996 2.91935 5.47329 1.49935 7.99996 1.49935ZM7.99996 0.166016C4.66663 0.166016 1.81996 2.23935 0.666626 5.16602C1.81996 8.09268 4.66663 10.166 7.99996 10.166C11.3333 10.166 14.18 8.09268 15.3333 5.16602C14.18 2.23935 11.3333 0.166016 7.99996 0.166016ZM7.99996 3.49935C8.91996 3.49935 9.66663 4.24602 9.66663 5.16602C9.66663 6.08602 8.91996 6.83268 7.99996 6.83268C7.07996 6.83268 6.33329 6.08602 6.33329 5.16602C6.33329 4.24602 7.07996 3.49935 7.99996 3.49935ZM7.99996 2.16602C6.34663 2.16602 4.99996 3.51268 4.99996 5.16602C4.99996 6.81935 6.34663 8.16602 7.99996 8.16602C9.65329 8.16602 11 6.81935 11 5.16602C11 3.51268 9.65329 2.16602 7.99996 2.16602Z" fill="#9D9D9D" fill-opacity="0.79"/>
</svg>
