<svg width="26" height="18" viewBox="0 0 26 18" fill="none" xmlns="http://www.w3.org/2000/svg">
<path d="M9.25 9C11.6625 9 13.625 7.0375 13.625 4.625C13.625 2.2125 11.6625 0.25 9.25 0.25C6.8375 0.25 4.875 2.2125 4.875 4.625C4.875 7.0375 6.8375 9 9.25 9ZM9.25 2.75C10.2875 2.75 11.125 3.5875 11.125 4.625C11.125 5.6625 10.2875 6.5 9.25 6.5C8.2125 6.5 7.375 5.6625 7.375 4.625C7.375 3.5875 8.2125 2.75 9.25 2.75ZM9.3125 15.25H3.9625C5.2 14.625 7.3375 14 9.25 14C9.3875 14 9.5375 14.0125 9.675 14.0125C10.1 13.1 10.8375 12.35 11.725 11.75C10.8125 11.5875 9.95 11.5 9.25 11.5C6.325 11.5 0.5 12.9625 0.5 15.875V17.75H9.25V15.875C9.25 15.6625 9.275 15.45 9.3125 15.25ZM18.625 12.125C16.325 12.125 11.75 13.3875 11.75 15.875V17.75H25.5V15.875C25.5 13.3875 20.925 12.125 18.625 12.125ZM20.1375 9.85C21.0875 9.3125 21.75 8.3 21.75 7.125C21.75 5.4 20.35 4 18.625 4C16.9 4 15.5 5.4 15.5 7.125C15.5 8.3 16.1625 9.3125 17.1125 9.85C17.5625 10.1 18.075 10.25 18.625 10.25C19.175 10.25 19.6875 10.1 20.1375 9.85Z" fill="#525AF2"/>
</svg>
