<svg width="14" height="15" viewBox="0 0 14 15" fill="none" xmlns="http://www.w3.org/2000/svg">
<path d="M9.625 9.24609H9.0325L8.8225 9.04359C9.5575 8.18859 10 7.07859 10 5.87109C10 3.17859 7.8175 0.996094 5.125 0.996094C2.4325 0.996094 0.25 3.17859 0.25 5.87109C0.25 8.56359 2.4325 10.7461 5.125 10.7461C6.3325 10.7461 7.4425 10.3036 8.2975 9.56859L8.5 9.77859V10.3711L12.25 14.1136L13.3675 12.9961L9.625 9.24609ZM5.125 9.24609C3.2575 9.24609 1.75 7.73859 1.75 5.87109C1.75 4.00359 3.2575 2.49609 5.125 2.49609C6.9925 2.49609 8.5 4.00359 8.5 5.87109C8.5 7.73859 6.9925 9.24609 5.125 9.24609Z" fill="#686868"/>
</svg>
