<svg width="25" height="25" viewBox="0 0 25 25" fill="none" xmlns="http://www.w3.org/2000/svg">
<path d="M19.757 13.2456C19.797 12.9256 19.827 12.6056 19.827 12.2656C19.827 11.9256 19.797 11.6056 19.757 11.2856L21.867 9.63562C22.057 9.48562 22.107 9.21562 21.987 8.99562L19.987 5.53562C19.897 5.37562 19.727 5.28562 19.547 5.28562C19.487 5.28562 19.427 5.29563 19.377 5.31563L16.887 6.31563C16.367 5.91563 15.807 5.58563 15.197 5.33563L14.817 2.68563C14.787 2.44563 14.577 2.26562 14.327 2.26562H10.327C10.077 2.26562 9.86699 2.44563 9.83699 2.68563L9.45699 5.33563C8.84699 5.58563 8.28699 5.92563 7.76699 6.31563L5.27699 5.31563C5.21699 5.29563 5.15699 5.28562 5.09699 5.28562C4.92699 5.28562 4.75699 5.37562 4.66699 5.53562L2.66699 8.99562C2.53699 9.21562 2.59699 9.48562 2.78699 9.63562L4.89699 11.2856C4.85699 11.6056 4.82699 11.9356 4.82699 12.2656C4.82699 12.5956 4.85699 12.9256 4.89699 13.2456L2.78699 14.8956C2.59699 15.0456 2.54699 15.3156 2.66699 15.5356L4.66699 18.9956C4.75699 19.1556 4.92699 19.2456 5.10699 19.2456C5.16699 19.2456 5.22699 19.2356 5.27699 19.2156L7.76699 18.2156C8.28699 18.6156 8.84699 18.9456 9.45699 19.1956L9.83699 21.8456C9.86699 22.0856 10.077 22.2656 10.327 22.2656H14.327C14.577 22.2656 14.787 22.0856 14.817 21.8456L15.197 19.1956C15.807 18.9456 16.367 18.6056 16.887 18.2156L19.377 19.2156C19.437 19.2356 19.497 19.2456 19.557 19.2456C19.727 19.2456 19.897 19.1556 19.987 18.9956L21.987 15.5356C22.107 15.3156 22.057 15.0456 21.867 14.8956L19.757 13.2456ZM17.777 11.5356C17.817 11.8456 17.827 12.0556 17.827 12.2656C17.827 12.4756 17.807 12.6956 17.777 12.9956L17.637 14.1256L18.527 14.8256L19.607 15.6656L18.907 16.8756L17.637 16.3656L16.597 15.9456L15.697 16.6256C15.267 16.9456 14.857 17.1856 14.447 17.3556L13.387 17.7856L13.227 18.9156L13.027 20.2656H11.627L11.437 18.9156L11.277 17.7856L10.217 17.3556C9.78699 17.1756 9.38699 16.9456 8.98699 16.6456L8.07699 15.9456L7.01699 16.3756L5.74699 16.8856L5.04699 15.6756L6.12699 14.8356L7.01699 14.1356L6.87699 13.0056C6.84699 12.6956 6.82699 12.4656 6.82699 12.2656C6.82699 12.0656 6.84699 11.8356 6.87699 11.5356L7.01699 10.4056L6.12699 9.70562L5.04699 8.86563L5.74699 7.65562L7.01699 8.16563L8.05699 8.58562L8.95699 7.90562C9.38699 7.58562 9.79699 7.34562 10.207 7.17562L11.267 6.74563L11.427 5.61562L11.627 4.26562H13.017L13.207 5.61562L13.367 6.74563L14.427 7.17562C14.857 7.35562 15.257 7.58562 15.657 7.88562L16.567 8.58562L17.627 8.15562L18.897 7.64563L19.597 8.85563L18.527 9.70562L17.637 10.4056L17.777 11.5356ZM12.327 8.26562C10.117 8.26562 8.32699 10.0556 8.32699 12.2656C8.32699 14.4756 10.117 16.2656 12.327 16.2656C14.537 16.2656 16.327 14.4756 16.327 12.2656C16.327 10.0556 14.537 8.26562 12.327 8.26562ZM12.327 14.2656C11.227 14.2656 10.327 13.3656 10.327 12.2656C10.327 11.1656 11.227 10.2656 12.327 10.2656C13.427 10.2656 14.327 11.1656 14.327 12.2656C14.327 13.3656 13.427 14.2656 12.327 14.2656Z" fill="#07A098"/>
</svg>
