<svg width="24" height="25" viewBox="0 0 24 25" fill="none" xmlns="http://www.w3.org/2000/svg">
<path d="M5.65078 10.5249L7.60078 11.3499C7.83411 10.8832 8.07578 10.4332 8.32578 9.99986C8.57578 9.56653 8.85078 9.13319 9.15078 8.69986L7.75078 8.42486L5.65078 10.5249ZM9.20078 12.5999L12.0508 15.4249C12.7508 15.1582 13.5008 14.7499 14.3008 14.1999C15.1008 13.6499 15.8508 13.0249 16.5508 12.3249C17.7174 11.1582 18.6301 9.86253 19.2888 8.43786C19.9468 7.01253 20.2341 5.69986 20.1508 4.49986C18.9508 4.41653 17.6341 4.70386 16.2008 5.36186C14.7674 6.02053 13.4674 6.93319 12.3008 8.09986C11.6008 8.79986 10.9758 9.54986 10.4258 10.3499C9.87578 11.1499 9.46745 11.8999 9.20078 12.5999ZM13.6508 10.9749C13.2674 10.5915 13.0758 10.1205 13.0758 9.56186C13.0758 9.00386 13.2674 8.53319 13.6508 8.14986C14.0341 7.76653 14.5091 7.57486 15.0758 7.57486C15.6424 7.57486 16.1174 7.76653 16.5008 8.14986C16.8841 8.53319 17.0758 9.00386 17.0758 9.56186C17.0758 10.1205 16.8841 10.5915 16.5008 10.9749C16.1174 11.3582 15.6424 11.5499 15.0758 11.5499C14.5091 11.5499 14.0341 11.3582 13.6508 10.9749ZM14.1258 18.9999L16.2258 16.8999L15.9508 15.4999C15.5174 15.7999 15.0841 16.0705 14.6508 16.3119C14.2174 16.5539 13.7674 16.7915 13.3008 17.0249L14.1258 18.9999ZM21.9508 2.67486C22.2674 4.69153 22.0718 6.65386 21.3638 8.56186C20.6551 10.4705 19.4341 12.2915 17.7008 14.0249L18.2008 16.4999C18.2674 16.8332 18.2508 17.1582 18.1508 17.4749C18.0508 17.7915 17.8841 18.0665 17.6508 18.2999L13.4508 22.4999L11.3508 17.5749L7.07578 13.2999L2.15078 11.1999L6.32578 6.99986C6.55911 6.76653 6.83845 6.59986 7.16378 6.49986C7.48845 6.39986 7.81745 6.38319 8.15078 6.44986L10.6258 6.94986C12.3591 5.21653 14.1758 3.99153 16.0758 3.27486C17.9758 2.55819 19.9341 2.35819 21.9508 2.67486V2.67486ZM3.92578 16.4749C4.50911 15.8915 5.22145 15.5955 6.06278 15.5869C6.90478 15.5789 7.61745 15.8665 8.20078 16.4499C8.78411 17.0332 9.07145 17.7455 9.06278 18.5869C9.05478 19.4289 8.75911 20.1415 8.17578 20.7249C7.75911 21.1415 7.06345 21.4999 6.08878 21.7999C5.11345 22.0999 3.76745 22.3665 2.05078 22.5999C2.28411 20.8832 2.55078 19.5372 2.85078 18.5619C3.15078 17.5872 3.50911 16.8915 3.92578 16.4749ZM5.35078 17.8749C5.18411 18.0415 5.01745 18.3459 4.85078 18.7879C4.68411 19.2292 4.56745 19.6749 4.50078 20.1249C4.95078 20.0582 5.39678 19.9459 5.83878 19.7879C6.28011 19.6292 6.58411 19.4665 6.75078 19.2999C6.95078 19.0999 7.05911 18.8582 7.07578 18.5749C7.09245 18.2915 7.00078 18.0499 6.80078 17.8499C6.60078 17.6499 6.35911 17.5539 6.07578 17.5619C5.79245 17.5705 5.55078 17.6749 5.35078 17.8749V17.8749Z" fill="#4B618A"/>
</svg>
