<svg width="20" height="21" viewBox="0 0 20 21" fill="none" xmlns="http://www.w3.org/2000/svg">
<path fill-rule="evenodd" clip-rule="evenodd" d="M3.99177 4.49121C3.5972 4.49121 3.27734 4.81107 3.27734 5.20564V12.8192C3.27734 13.2023 3.74155 13.393 4.01086 13.1206L5.15698 11.9611C5.29119 11.8253 5.47416 11.7489 5.66508 11.7489H12.2355C12.6301 11.7489 12.9499 11.429 12.9499 11.0344V5.20564C12.9499 4.81107 12.6301 4.49121 12.2355 4.49121H3.99177ZM7.32134 14.6428V13.0945H13.5883C13.9829 13.0945 14.3027 12.7746 14.3027 12.38V7.90918H16.2795C16.6741 7.90918 16.9939 8.22904 16.9939 8.62361V16.4635C16.9939 16.8493 16.5242 17.0387 16.2565 16.7609L15.1153 15.576C14.9806 15.4362 14.7949 15.3572 14.6007 15.3572H8.03576C7.6412 15.3572 7.32134 15.0373 7.32134 14.6428Z" fill="#4B618A"/>
</svg>
