<svg width="24" height="25" viewBox="0 0 24 25" fill="none" xmlns="http://www.w3.org/2000/svg">
<mask id="path-1-inside-1_7120_27712" fill="white">
<path fill-rule="evenodd" clip-rule="evenodd" d="M14.2 2.69531L7.149 9.46142C6.731 9.86253 6.5 10.4009 6.5 10.9603V19.2253C6.5 20.587 7.655 21.6953 9.074 21.6953H17.984C18.765 21.6953 19.48 21.3048 19.876 20.6714L22.813 14.1798C22.934 13.9159 23 13.6309 23 13.3353V12.1953C23 11.0342 22.01 10.0842 20.8 10.0842H14.75L15.762 5.17587C15.817 4.94365 15.784 4.69031 15.674 4.4792C15.421 4.0042 15.102 3.57142 14.706 3.19142L14.2 2.69531ZM13.2202 6.62109L12.5932 9.67165C12.4612 10.2944 12.6372 10.9383 13.0552 11.4239C13.4732 11.9094 14.0892 12.1944 14.7492 12.1944H20.7992V13.3344L17.9722 19.5833H9.07322C8.87522 19.5833 8.69922 19.4144 8.69922 19.2244V10.9489L13.2202 6.62109Z"/>
</mask>
<path fill-rule="evenodd" clip-rule="evenodd" d="M14.2 2.69531L7.149 9.46142C6.731 9.86253 6.5 10.4009 6.5 10.9603V19.2253C6.5 20.587 7.655 21.6953 9.074 21.6953H17.984C18.765 21.6953 19.48 21.3048 19.876 20.6714L22.813 14.1798C22.934 13.9159 23 13.6309 23 13.3353V12.1953C23 11.0342 22.01 10.0842 20.8 10.0842H14.75L15.762 5.17587C15.817 4.94365 15.784 4.69031 15.674 4.4792C15.421 4.0042 15.102 3.57142 14.706 3.19142L14.2 2.69531ZM13.2202 6.62109L12.5932 9.67165C12.4612 10.2944 12.6372 10.9383 13.0552 11.4239C13.4732 11.9094 14.0892 12.1944 14.7492 12.1944H20.7992V13.3344L17.9722 19.5833H9.07322C8.87522 19.5833 8.69922 19.4144 8.69922 19.2244V10.9489L13.2202 6.62109Z" fill="#161925"/>
<path d="M7.149 9.46142L6.45662 8.73989H6.45662L7.149 9.46142ZM14.2 2.69531L14.9001 1.98126L14.2075 1.30219L13.5076 1.97378L14.2 2.69531ZM19.876 20.6714L20.7239 21.2016L20.7594 21.1447L20.7871 21.0836L19.876 20.6714ZM22.813 14.1798L21.904 13.763L21.9019 13.7676L22.813 14.1798ZM14.75 10.0842L13.7706 9.88227L13.5228 11.0842H14.75V10.0842ZM15.762 5.17587L14.7889 4.9454L14.7856 4.95962L14.7826 4.97394L15.762 5.17587ZM15.674 4.4792L16.5609 4.0171L16.5566 4.0091L15.674 4.4792ZM14.706 3.19142L14.0059 3.90551L14.0136 3.91296L14.706 3.19142ZM12.5932 9.67165L13.5715 9.879L13.5727 9.87298L12.5932 9.67165ZM13.2202 6.62109L14.1997 6.82242L14.8454 3.68104L12.5287 5.89872L13.2202 6.62109ZM13.0552 11.4239L12.2974 12.0763H12.2974L13.0552 11.4239ZM20.7992 12.1944H21.7992V11.1944H20.7992V12.1944ZM20.7992 13.3344L21.7103 13.7466L21.7992 13.5501V13.3344H20.7992ZM17.9722 19.5833V20.5833H18.6174L18.8833 19.9955L17.9722 19.5833ZM8.69922 10.9489L8.00772 10.2265L7.69922 10.5218V10.9489H8.69922ZM7.84138 10.183L14.8924 3.41685L13.5076 1.97378L6.45662 8.73989L7.84138 10.183ZM7.5 10.9603C7.5 10.6801 7.61491 10.4003 7.84138 10.183L6.45662 8.73989C5.84709 9.3248 5.5 10.1217 5.5 10.9603H7.5ZM7.5 19.2253V10.9603H5.5V19.2253H7.5ZM9.074 20.6953C8.16801 20.6953 7.5 19.9962 7.5 19.2253H5.5C5.5 21.1777 7.14199 22.6953 9.074 22.6953V20.6953ZM17.984 20.6953H9.074V22.6953H17.984V20.6953ZM19.0281 20.1413C18.822 20.4709 18.4339 20.6953 17.984 20.6953V22.6953C19.0961 22.6953 20.138 22.1386 20.7239 21.2016L19.0281 20.1413ZM21.9019 13.7676L18.9649 20.2592L20.7871 21.0836L23.7241 14.592L21.9019 13.7676ZM22 13.3353C22 13.4797 21.9682 13.623 21.904 13.763L23.722 14.5966C23.8998 14.2087 24 13.782 24 13.3353H22ZM22 12.1953V13.3353H24V12.1953H22ZM20.8 11.0842C21.497 11.0842 22 11.625 22 12.1953H24C24 10.4434 22.523 9.0842 20.8 9.0842V11.0842ZM14.75 11.0842H20.8V9.0842H14.75V11.0842ZM14.7826 4.97394L13.7706 9.88227L15.7294 10.2861L16.7414 5.3778L14.7826 4.97394ZM14.7872 4.94129C14.7863 4.93967 14.7864 4.93948 14.7868 4.94075C14.7872 4.94203 14.7876 4.94387 14.7879 4.94597C14.7882 4.94806 14.7881 4.94946 14.7881 4.94985C14.7881 4.95023 14.7881 4.94875 14.7889 4.9454L16.7351 5.40634C16.8463 4.93655 16.78 4.43769 16.5608 4.01712L14.7872 4.94129ZM14.0136 3.91296C14.3281 4.2147 14.5846 4.561 14.7914 4.94931L16.5566 4.0091C16.2574 3.4474 15.8759 2.92815 15.3984 2.46989L14.0136 3.91296ZM13.4999 3.40936L14.0059 3.90547L15.4061 2.47737L14.9001 1.98126L13.4999 3.40936ZM13.5727 9.87298L14.1997 6.82242L12.2407 6.41977L11.6137 9.47032L13.5727 9.87298ZM13.8131 10.7715C13.5896 10.5118 13.507 10.1831 13.5715 9.879L11.615 9.4643C11.4154 10.4057 11.6849 11.3648 12.2974 12.0763L13.8131 10.7715ZM14.7492 11.1944C14.3783 11.1944 14.0398 11.0348 13.8131 10.7715L12.2974 12.0763C12.9067 12.7841 13.8001 13.1944 14.7492 13.1944V11.1944ZM20.7992 11.1944H14.7492V13.1944H20.7992V11.1944ZM21.7992 13.3344V12.1944H19.7992V13.3344H21.7992ZM18.8833 19.9955L21.7103 13.7466L19.8881 12.9222L17.0611 19.1711L18.8833 19.9955ZM9.07322 20.5833H17.9722V18.5833H9.07322V20.5833ZM7.69922 19.2244C7.69922 20.0052 8.36221 20.5833 9.07322 20.5833V18.5833C9.25846 18.5833 9.40666 18.6598 9.50435 18.7536C9.60131 18.8466 9.69922 19.0071 9.69922 19.2244H7.69922ZM7.69922 10.9489V19.2244H9.69922V10.9489H7.69922ZM12.5287 5.89872L8.00772 10.2265L9.39072 11.6712L13.9117 7.34347L12.5287 5.89872Z" fill="#161925" mask="url(#path-1-inside-1_7120_27712)"/>
<path d="M1 10.0947H3.3C3.85229 10.0947 4.3 10.5424 4.3 11.0947V20.7047C4.3 21.257 3.85228 21.7047 3.3 21.7047H1V10.0947Z" fill="#161925"/>
</svg>
