<svg width="17" height="12" viewBox="0 0 17 12" fill="none" xmlns="http://www.w3.org/2000/svg">
<path d="M6.13021 6.00033C7.73854 6.00033 9.04688 4.69199 9.04688 3.08366C9.04688 1.47533 7.73854 0.166992 6.13021 0.166992C4.52188 0.166992 3.21354 1.47533 3.21354 3.08366C3.21354 4.69199 4.52188 6.00033 6.13021 6.00033ZM6.13021 1.83366C6.82188 1.83366 7.38021 2.39199 7.38021 3.08366C7.38021 3.77533 6.82188 4.33366 6.13021 4.33366C5.43854 4.33366 4.88021 3.77533 4.88021 3.08366C4.88021 2.39199 5.43854 1.83366 6.13021 1.83366ZM6.13021 7.45866C4.18021 7.45866 0.296875 8.43366 0.296875 10.3753V11.8337H11.9635V10.3753C11.9635 8.43366 8.08021 7.45866 6.13021 7.45866ZM2.24688 10.167C2.94688 9.68366 4.63854 9.12533 6.13021 9.12533C7.62188 9.12533 9.31354 9.68366 10.0135 10.167H2.24688ZM11.9969 7.50866C12.9635 8.20866 13.6302 9.14199 13.6302 10.3753V11.8337H16.9635V10.3753C16.9635 8.69199 14.0469 7.73366 11.9969 7.50866ZM11.1302 6.00033C12.7385 6.00033 14.0469 4.69199 14.0469 3.08366C14.0469 1.47533 12.7385 0.166992 11.1302 0.166992C10.6802 0.166992 10.2635 0.275325 9.88021 0.458659C10.4052 1.20033 10.7135 2.10866 10.7135 3.08366C10.7135 4.05866 10.4052 4.96699 9.88021 5.70866C10.2635 5.89199 10.6802 6.00033 11.1302 6.00033Z" fill="#C5C5C5"/>
</svg>
