<svg width="18" height="18" viewBox="0 0 18 18" fill="none" xmlns="http://www.w3.org/2000/svg">
<path d="M14.7912 1.55078H3.40606C2.62119 1.55078 1.98291 2.18906 1.98291 2.97393V11.5128C1.98291 12.2977 2.62119 12.936 3.40606 12.936H5.54078V15.6165L10.0073 12.936H14.7912C15.5761 12.936 16.2144 12.2977 16.2144 11.5128V2.97393C16.2144 2.18906 15.5761 1.55078 14.7912 1.55078ZM14.7912 11.5128H9.61312L6.96393 13.1018V11.5128H3.40606V2.97393H14.7912V11.5128Z" fill="#4B618A"/>
<path d="M8.38912 10.0891H9.81227V7.95436H11.947V6.53121H9.81227V4.39648H8.38912V6.53121H6.25439V7.95436H8.38912V10.0891Z" fill="#4B618A"/>
</svg>
