<svg width="25" height="25" viewBox="0 0 25 25" fill="none" xmlns="http://www.w3.org/2000/svg">
<path d="M5.29736 4.67847V4.50578H5.12467H3.96875H3.79607V4.67847V19.7055C3.79607 20.0578 3.93605 20.3958 4.18521 20.6449L4.30731 20.5228L4.18521 20.6449C4.43437 20.8941 4.77231 21.0341 5.12467 21.0341H20.1517H20.3244V20.8614V19.7055V19.5328H20.1517H5.29736V4.67847Z" fill="white" stroke="white" stroke-width="0.345365"/>
<path d="M20.265 8.74365V8.6291H20.1505H16.1247H16.0101V8.74365V9.89389V10.0084H16.1247H17.9128L13.8243 14.0969L11.4383 11.7054C11.4382 11.7053 11.4382 11.7053 11.4382 11.7052C11.3741 11.6407 11.2978 11.5894 11.2138 11.5544C11.1298 11.5194 11.0396 11.5014 10.9486 11.5014C10.8576 11.5014 10.7674 11.5194 10.6834 11.5544C10.5994 11.5894 10.5231 11.6406 10.4591 11.7052C10.459 11.7053 10.459 11.7053 10.4589 11.7054L6.2666 15.9034L6.18571 15.9844L6.26665 16.0654L7.07757 16.8763L7.15857 16.9573L7.23958 16.8763L10.9485 13.1674L13.3345 15.559C13.3346 15.559 13.3346 15.5591 13.3347 15.5591C13.3988 15.6237 13.475 15.6749 13.559 15.7099C13.643 15.7449 13.7331 15.763 13.8242 15.763C13.9152 15.763 14.0054 15.7449 14.0894 15.7099C14.1734 15.6749 14.2496 15.6237 14.3137 15.5591C14.3137 15.5591 14.3138 15.559 14.3139 15.559L18.8857 10.9816V12.7695V12.884H19.0003H20.1505H20.265V12.7695V8.74365Z" fill="white" stroke="white" stroke-width="0.22911"/>
</svg>
