<svg width="25" height="25" viewBox="0 0 25 25" fill="none" xmlns="http://www.w3.org/2000/svg">
<path d="M5.38598 4.8252V4.65251H5.2133H4.05737H3.88469V4.8252V19.8522C3.88469 20.2046 4.02467 20.5425 4.27383 20.7917L4.39594 20.6696L4.27383 20.7917C4.52299 21.0408 4.86093 21.1808 5.2133 21.1808H20.2403H20.413V21.0081V19.8522V19.6795H20.2403H5.38598V4.8252Z" fill="#07A098" stroke="#07A098" stroke-width="0.345365"/>
<path d="M20.3537 8.89062V8.77607H20.2391H16.2133H16.0987V8.89062V10.0409V10.1554H16.2133H18.0014L13.9129 14.2439L11.5269 11.8523C11.5269 11.8523 11.5268 11.8523 11.5268 11.8522C11.4627 11.7876 11.3864 11.7364 11.3025 11.7014C11.2184 11.6664 11.1283 11.6483 11.0372 11.6483C10.9462 11.6483 10.856 11.6664 10.772 11.7014C10.688 11.7364 10.6118 11.7876 10.5477 11.8522C10.5476 11.8522 10.5476 11.8523 10.5476 11.8523L6.35522 16.0504L6.27433 16.1314L6.35528 16.2124L7.16619 17.0233L7.2472 17.1043L7.3282 17.0233L11.0371 13.3143L13.4231 15.7059C13.4232 15.706 13.4233 15.706 13.4233 15.7061C13.4874 15.7707 13.5636 15.8219 13.6476 15.8569C13.7316 15.8919 13.8218 15.9099 13.9128 15.9099C14.0039 15.9099 14.094 15.8919 14.178 15.8569C14.262 15.8219 14.3382 15.7707 14.4023 15.7061C14.4024 15.706 14.4024 15.706 14.4025 15.7059L18.9743 11.1286V12.9165V13.031H19.0889H20.2391H20.3537V12.9165V8.89062Z" fill="#07A098" stroke="#07A098" stroke-width="0.22911"/>
</svg>
