<svg width="18" height="18" viewBox="0 0 18 18" fill="none" xmlns="http://www.w3.org/2000/svg">
<path d="M4.44155 10.938L1.27148 13.4285V2.39908C1.27148 2.21035 1.34645 2.02936 1.4799 1.89592C1.61335 1.76247 1.79434 1.6875 1.98306 1.6875H12.6567C12.8454 1.6875 13.0264 1.76247 13.1598 1.89592C13.2933 2.02936 13.3683 2.21035 13.3683 2.39908V10.938H4.44155ZM3.94914 9.51483H11.9451V3.11065H2.69463V10.5004L3.94914 9.51483ZM6.25251 12.3611H13.5369L14.7914 13.3467V5.95695H15.503C15.6917 5.95695 15.8727 6.03192 16.0062 6.16537C16.1396 6.29881 16.2146 6.47981 16.2146 6.66853V16.2748L13.0445 13.7843H6.96409C6.77536 13.7843 6.59437 13.7093 6.46093 13.5759C6.32748 13.4424 6.25251 13.2614 6.25251 13.0727V12.3611Z" fill="#4B618A"/>
</svg>
