<svg width="20" height="20" viewBox="0 0 20 20" fill="none" xmlns="http://www.w3.org/2000/svg">
<path d="M14.7444 6.23889L13.9722 5.30556C13.8222 5.11667 13.5944 5 13.3333 5H6.66667C6.40556 5 6.17778 5.11667 6.02222 5.30556L5.25556 6.23889C5.09444 6.42778 5 6.67778 5 6.94444V13.8889C5 14.5 5.5 15 6.11111 15H13.8889C14.5 15 15 14.5 15 13.8889V6.94444C15 6.67778 14.9056 6.42778 14.7444 6.23889ZM6.8 6.11111H13.2L13.65 6.65H6.35556L6.8 6.11111ZM6.11111 13.8889V7.77778H13.8889V13.8889H6.11111ZM10.8056 8.88889H9.19444V10.5556H7.77778L10 12.7778L12.2222 10.5556H10.8056V8.88889Z" fill="#9D9D9D"/>
</svg>
