<svg width="48" height="63" viewBox="0 0 48 63" fill="none" xmlns="http://www.w3.org/2000/svg">
<path opacity="0.2" d="M41.3766 40.8881V26.0178C41.3766 16.8874 36.5296 9.24409 28.077 7.22173V5.19937C28.077 2.7309 26.0968 0.738281 23.6438 0.738281C21.1907 0.738281 19.2106 2.7309 19.2106 5.19937V7.22173C10.7284 9.24409 5.91094 16.8577 5.91094 26.0178V40.8881L0 46.8362V49.8102H47.2875V46.8362L41.3766 40.8881Z" fill="white"/>
<path opacity="0.2" d="M31.737 53.9988C32.3783 57.2067 30.2948 60.3529 27.1069 60.9903C23.8899 61.6334 20.7859 59.5244 20.1445 56.3164L31.737 53.9988Z" fill="white"/>
<circle cx="37.5" cy="14.5" r="9.5" fill="#74CCC8" fill-opacity="0.15"/>
<circle cx="37.5" cy="14.5" r="7.5" fill="#74CCC8" fill-opacity="0.15"/>
<circle cx="37.5" cy="14.5" r="4.5" fill="#39B3AD"/>
</svg>
