<svg width="30" height="30" viewBox="0 0 30 30" fill="none" xmlns="http://www.w3.org/2000/svg">
<path d="M20.4358 16.2174C20.4358 17.8426 19.9538 19.4314 19.0509 20.7827C18.1479 22.1341 16.8646 23.1873 15.363 23.8093C13.8615 24.4312 12.2093 24.594 10.6152 24.2769C9.02122 23.9598 7.55702 23.1772 6.40779 22.028C5.25857 20.8787 4.47594 19.4145 4.15887 17.8205C3.8418 16.2265 4.00453 14.5743 4.62649 13.0727C5.24844 11.5712 6.30169 10.2878 7.65303 9.38488C9.00437 8.48194 10.5931 8 12.2184 8L12.2184 16.2174H20.4358Z" stroke="#525AF2" stroke-width="2.28261" stroke-miterlimit="16"/>
<path d="M16.7836 3.49881C17.8627 3.49881 18.9313 3.71136 19.9282 4.12432C20.9252 4.53729 21.8311 5.14258 22.5942 5.90563C23.3572 6.66869 23.9625 7.57456 24.3755 8.57154C24.7884 9.56852 25.001 10.6371 25.001 11.7162L16.7836 11.7162L16.7836 3.49881Z" stroke="#525AF2" stroke-width="2.28261"/>
</svg>
