<svg width="23" height="23" viewBox="0 0 23 23" fill="none" xmlns="http://www.w3.org/2000/svg">
<path d="M22.1995 9.80747L22.1996 9.80851C22.219 10.0318 22.0406 10.2202 21.8196 10.2203L21.82 10.2203L21.8195 10.0203V10.2203L22.1995 9.80747ZM22.1995 9.80747L22.1407 9.16993L22.1407 9.16991M22.1995 9.80747L22.1407 9.16991M22.1407 9.16991C21.9442 7.04095 20.999 5.03276 19.4783 3.51676L22.1407 9.16991ZM11.0118 11.9882H18.9055C19.1154 11.9882 19.2863 12.1591 19.2863 12.3691L19.2863 12.9565L19.2863 12.9569M11.0118 11.9882L18.3742 16.4792C18.8462 15.365 19.0884 14.1669 19.0863 12.9569H19.2863M11.0118 11.9882V4.09458C11.0118 3.88465 10.8409 3.71372 10.631 3.71372L10.0435 3.71372L11.0118 11.9882ZM19.2863 12.9569C19.2884 14.1937 19.0408 15.4183 18.5583 16.5572M19.2863 12.9569L18.5583 16.5572M16.5783 19.4939C17.4259 18.6462 18.0938 17.6572 18.5583 16.5572M16.5783 19.4939L16.4367 19.3527M16.5783 19.4939C16.5782 19.4939 16.5782 19.494 16.5781 19.4941L16.4367 19.3527M16.5783 19.4939C15.7211 20.3535 14.7024 21.0351 13.5808 21.4995C12.4593 21.9639 11.257 22.202 10.0432 22.2C8.80631 22.2022 7.58173 21.9545 6.44284 21.472M18.5583 16.5572L16.4367 19.3527M16.4367 19.3527C15.5981 20.1936 14.6015 20.8604 13.5043 21.3147C12.407 21.7691 11.2308 22.002 10.0432 22C8.8331 22.0022 7.63506 21.7599 6.52086 21.2879M6.44284 21.472C6.44292 21.4721 6.44299 21.4721 6.44306 21.4721L6.52086 21.2879M6.44284 21.472L6.52086 21.2879M6.44284 21.472C5.34279 21.0075 4.3537 20.3395 3.50598 19.4918M6.52086 21.2879C5.44473 20.8335 4.47711 20.1801 3.6474 19.3504M3.6474 19.3504L3.50618 19.492C3.50611 19.4919 3.50604 19.4919 3.50598 19.4918M3.6474 19.3504C2.80647 18.5118 2.13965 17.5152 1.68531 16.418C1.23097 15.3207 0.998069 14.1445 1.00001 12.9569L10.0432 3.71372H10.0434C8.82944 3.71175 7.62712 3.94982 6.50556 4.41423C5.38404 4.87862 4.3654 5.56017 3.50825 6.41967C2.66421 7.26115 1.99167 8.25859 1.52801 9.35655C1.04551 10.4954 0.797898 11.72 0.800013 12.9569C0.79807 14.1707 1.03614 15.373 1.50052 16.4945C1.96492 17.616 2.64647 18.6347 3.50598 19.4918M3.6474 19.3504L3.50598 19.4918M15.1859 18.1458L15.1858 18.1458C14.5044 18.8219 13.6963 19.3569 12.8078 19.7201C11.9193 20.0834 10.9679 20.2678 10.0081 20.2627L10.0079 20.2627C8.06886 20.2539 6.24743 19.495 4.87626 18.1238C3.49631 16.7438 2.73735 14.9092 2.73735 12.9569C2.73735 11.0045 3.49631 9.16992 4.87626 7.78996C6.02525 6.64097 7.4891 5.92112 9.0745 5.71387V13.7255V13.9255H9.2745H17.286C17.0764 15.5198 16.3498 16.9923 15.1859 18.1458ZM15.3266 18.2878C14.6266 18.9824 13.7963 19.5321 12.8835 19.9053C11.9707 20.2785 10.9932 20.4679 10.007 20.4627L15.3266 18.2878ZM20.0366 8.29491L14.69 8.30951V2.95933C15.9825 3.27578 17.1658 3.93949 18.1108 4.88076C19.0576 5.82549 19.7233 7.01205 20.0366 8.29491Z" fill="#525AF2" stroke="#525AF2" stroke-width="0.4"/>
</svg>
