<svg width="16" height="14" viewBox="0 0 16 14" fill="none" xmlns="http://www.w3.org/2000/svg">
<path d="M7.99996 2.99948C10.5266 2.99948 12.78 4.41948 13.88 6.66615C13.4866 7.47948 12.9333 8.17948 12.2733 8.74615L13.2133 9.68615C14.14 8.86615 14.8733 7.83948 15.3333 6.66615C14.18 3.73948 11.3333 1.66615 7.99996 1.66615C7.15329 1.66615 6.33996 1.79948 5.57329 2.04615L6.67329 3.14615C7.10663 3.05948 7.54663 2.99948 7.99996 2.99948ZM7.28663 3.75948L8.66663 5.13948C9.04663 5.30615 9.35329 5.61281 9.51996 5.99281L10.9 7.37281C10.9533 7.14615 10.9933 6.90615 10.9933 6.65948C11 5.00615 9.65329 3.66615 7.99996 3.66615C7.75329 3.66615 7.51996 3.69948 7.28663 3.75948ZM1.33996 1.57948L3.12663 3.36615C2.03996 4.21948 1.17996 5.35281 0.666626 6.66615C1.81996 9.59281 4.66663 11.6661 7.99996 11.6661C9.01329 11.6661 9.98663 11.4728 10.88 11.1195L13.16 13.3995L14.1 12.4595L2.27996 0.632812L1.33996 1.57948ZM6.33996 6.57948L8.07996 8.31948C8.05329 8.32615 8.02663 8.33281 7.99996 8.33281C7.07996 8.33281 6.33329 7.58615 6.33329 6.66615C6.33329 6.63281 6.33996 6.61281 6.33996 6.57948ZM4.07329 4.31281L5.23996 5.47948C5.08663 5.84615 4.99996 6.24615 4.99996 6.66615C4.99996 8.31948 6.34663 9.66615 7.99996 9.66615C8.41996 9.66615 8.81996 9.57948 9.17996 9.42615L9.83329 10.0795C9.24663 10.2395 8.63329 10.3328 7.99996 10.3328C5.47329 10.3328 3.21996 8.91281 2.11996 6.66615C2.58663 5.71281 3.26663 4.92615 4.07329 4.31281Z" fill="#9D9D9D" fill-opacity="0.79"/>
</svg>
