<svg width="16" height="16" viewBox="0 0 16 16" fill="none" xmlns="http://www.w3.org/2000/svg">
<path fill-rule="evenodd" clip-rule="evenodd" d="M8.8399 3.03279C9.28832 2.7577 9.58743 2.26292 9.58743 1.69828C9.58743 0.834238 8.88699 0.133789 8.02294 0.133789C7.15889 0.133789 6.45844 0.834238 6.45844 1.69828C6.45844 2.25691 6.75123 2.74715 7.19171 3.02394V4.26502C7.19171 4.72016 7.56067 5.08912 8.01581 5.08912C8.47094 5.08912 8.8399 4.72016 8.8399 4.26502V3.03279ZM9.57851 7.70145C9.57851 8.5655 8.87807 9.26595 8.01402 9.26595C7.14997 9.26595 6.44952 8.5655 6.44952 7.70145C6.44952 6.8374 7.14997 6.13696 8.01402 6.13696C8.87807 6.13696 9.57851 6.8374 9.57851 7.70145ZM7.19171 12.3796V11.1384C7.19171 10.6832 7.56067 10.3143 8.01581 10.3143C8.47094 10.3143 8.8399 10.6832 8.8399 11.1384V12.3708C9.28832 12.6459 9.58743 13.1406 9.58743 13.7053C9.58743 14.5693 8.88699 15.2698 8.02294 15.2698C7.15889 15.2698 6.45844 14.5693 6.45844 13.7053C6.45844 13.1466 6.75123 12.6564 7.19171 12.3796ZM3.00151 5.77971C2.53977 6.02828 1.96375 6.03901 1.47625 5.75755C0.727961 5.32553 0.471579 4.3687 0.903603 3.62041C1.33563 2.87213 2.29246 2.61574 3.04074 3.04777C3.52602 3.32794 3.80442 3.82884 3.82233 4.35044L4.8925 4.9683C5.28666 5.19587 5.42171 5.69988 5.19414 6.09404C4.96657 6.4882 4.46256 6.62324 4.06841 6.39568L3.00151 5.77971ZM13.0469 9.67556L11.9742 9.05627C11.5801 8.8287 11.0761 8.96375 10.8485 9.35791C10.6209 9.75207 10.756 10.2561 11.1501 10.4836L12.2182 11.1003C12.2333 11.625 12.5121 12.1298 13 12.4116C13.7483 12.8436 14.7052 12.5872 15.1372 11.8389C15.5692 11.0906 15.3128 10.1338 14.5645 9.70177C14.0797 9.42185 13.5073 9.43093 13.0469 9.67556ZM3.82021 11.102C3.80444 11.6259 3.52574 12.1299 3.03841 12.4113C2.29012 12.8433 1.33329 12.5869 0.90127 11.8386C0.469247 11.0903 0.725629 10.1335 1.47392 9.70147C1.95936 9.42119 2.53258 9.43065 2.99334 9.67619L4.06707 9.05627C4.46123 8.8287 4.96524 8.96375 5.1928 9.35791C5.42037 9.75207 5.28532 10.2561 4.89116 10.4836L3.82021 11.102ZM13.0387 5.77863C13.5008 6.02852 14.078 6.0398 14.5664 5.75783C15.3147 5.32581 15.5711 4.36898 15.1391 3.62069C14.7071 2.8724 13.7502 2.61602 13.0019 3.04804C12.5175 3.32771 12.2393 3.82729 12.2204 4.34785L11.1458 4.9683C10.7516 5.19587 10.6166 5.69988 10.8442 6.09404C11.0717 6.4882 11.5757 6.62324 11.9699 6.39568L13.0387 5.77863Z" fill="#4B618A"/>
</svg>
