<svg width="24" height="25" viewBox="0 0 24 25" fill="none" xmlns="http://www.w3.org/2000/svg">
<g clip-path="url(#clip0_5966_4567)">
<path d="M20.1622 10.3421L23 15.3158L20.1622 15.8684V19.1842H18.4595L15.0541 18.6316L14.4865 22.5H5.97297L4.83784 16.7631C3.08973 15.1517 2 12.8709 2 10.3421C2 5.4585 6.06549 1.5 11.0811 1.5C16.0967 1.5 20.1622 5.4585 20.1622 10.3421Z" stroke="#4B618A" stroke-width="1.78238" stroke-linecap="round" stroke-linejoin="bevel"/>
<path d="M10.9358 11.5903C11.3279 10.8825 12.0816 10.4649 12.5196 9.83852C12.983 9.18159 12.7233 7.95429 11.4094 7.95429C10.5488 7.95429 10.1261 8.60613 9.94787 9.14594L8.62891 8.59086C8.99047 7.50615 9.97333 6.57422 11.4043 6.57422C12.6011 6.57422 13.421 7.11912 13.8386 7.80151C14.195 8.38715 14.4038 9.48205 13.8538 10.2968C13.2427 11.1982 12.6571 11.4732 12.3414 12.0538C12.214 12.288 12.1631 12.4408 12.1631 13.1945H10.6914C10.6863 12.7973 10.6252 12.1505 10.9358 11.5903ZM12.4279 15.2315C12.4279 15.7917 11.9696 16.25 11.4094 16.25C10.8492 16.25 10.3909 15.7917 10.3909 15.2315C10.3909 14.6713 10.8492 14.213 11.4094 14.213C11.9696 14.213 12.4279 14.6713 12.4279 15.2315Z" fill="#4B618A" stroke="#4B618A" stroke-width="0.3"/>
</g>
<defs>
<clipPath id="clip0_5966_4567">
<rect width="24" height="24" fill="white" transform="translate(0 0.5)"/>
</clipPath>
</defs>
</svg>
