<svg width="12" height="16" viewBox="0 0 12 16" fill="none" xmlns="http://www.w3.org/2000/svg">
<path d="M11.0007 13.8333C11.0007 14.75 10.2507 15.5 9.33398 15.5H2.66732C1.75065 15.5 1.00065 14.75 1.00065 13.8333V5.5C1.00065 4.58333 1.75065 3.83333 2.66732 3.83333H9.33398C10.2507 3.83333 11.0007 4.58333 11.0007 5.5V13.8333ZM1.00065 1.33333H3.08398L3.67565 0.741667C3.82565 0.591667 4.04232 0.5 4.25898 0.5H7.74232C7.95898 0.5 8.17565 0.591667 8.32565 0.741667L8.91732 1.33333H11.0007C11.459 1.33333 11.834 1.70833 11.834 2.16667C11.834 2.625 11.459 3 11.0007 3H1.00065C0.542316 3 0.167316 2.625 0.167316 2.16667C0.167316 1.70833 0.542316 1.33333 1.00065 1.33333Z" fill="#07A098"/>
</svg>
