<svg width="24" height="25" viewBox="0 0 24 25" fill="none" xmlns="http://www.w3.org/2000/svg">
<path fill-rule="evenodd" clip-rule="evenodd" d="M8.99902 19.6406C7.99902 19.6406 4.99902 16.6406 4.99902 15.6406C4.99902 15.3076 5.33202 14.6406 5.99902 13.6406L1.99902 12.6406L3.99902 9.64062L7.99902 10.6406C11.999 4.64062 17.999 2.64062 21.999 2.64062C21.999 6.64062 19.999 12.6406 13.999 16.6406L14.999 20.6406L11.999 22.6406L10.999 18.6406C9.99902 19.3076 9.33202 19.6406 8.99902 19.6406ZM8.03902 16.6006C8.39302 16.9556 8.75802 17.2726 9.06202 17.4906C9.28502 17.3666 9.56302 17.1946 9.89002 16.9766L12.89 14.9766C16.788 12.3766 19.129 8.56063 19.798 4.84163C16.079 5.51163 12.262 7.85163 9.66302 11.7496L7.66302 14.7496C7.44502 15.0766 7.27302 15.3546 7.14802 15.5776C7.36802 15.8816 7.68402 16.2476 8.03802 16.6016L8.03902 16.6006Z" fill="#07A098"/>
<path d="M15.499 10.6406C16.3275 10.6406 16.999 9.96905 16.999 9.14062C16.999 8.3122 16.3275 7.64062 15.499 7.64062C14.6706 7.64062 13.999 8.3122 13.999 9.14062C13.999 9.96905 14.6706 10.6406 15.499 10.6406Z" fill="#07A098"/>
<path fill-rule="evenodd" clip-rule="evenodd" d="M3.99902 16.6406L4.99902 18.1406C4.33202 18.8076 3.99902 19.6406 3.99902 20.6406C4.99902 20.6406 5.83202 20.3076 6.49902 19.6406L7.99902 20.6406C6.66602 21.9736 4.66602 22.6406 1.99902 22.6406C1.99902 19.9736 2.66602 17.9736 3.99902 16.6406Z" fill="#07A098"/>
</svg>
