<svg width="20" height="20" viewBox="0 0 20 20" fill="none" xmlns="http://www.w3.org/2000/svg">
<path d="M11.4972 7.99092L11.1436 7.63729L10.79 7.99092L5.75738 13.0242L5.61096 13.1707V13.3778V13.8889V14.3889H6.11096H6.622H6.82912L6.97558 14.2424L12.0082 9.20908L12.3617 8.85556L12.0082 8.50203L11.4972 7.99092ZM13.1081 5.51464C13.1113 5.51143 13.1167 5.50739 13.1246 5.5042C13.1328 5.50087 13.1398 5.5 13.1433 5.5C13.1576 5.5 13.1654 5.50238 13.169 5.50378C13.1719 5.50494 13.1767 5.50723 13.1841 5.51464L14.4839 6.81464L14.8375 6.46111L14.4839 6.81464C14.5054 6.83605 14.5054 6.86951 14.4839 6.89092L13.821 7.55396L12.445 6.17778L13.1081 5.51464ZM5.5 13.1238L11.1436 7.47938L12.5196 8.85556L6.87592 14.5H5.5V13.1238Z" fill="#9D9D9D" stroke="#9D9D9D"/>
</svg>
