<svg width="24" height="25" viewBox="0 0 24 25" fill="none" xmlns="http://www.w3.org/2000/svg">
<path d="M15.5 11.2988C16.3284 11.2988 17 10.6273 17 9.79883C17 8.9704 16.3284 8.29883 15.5 8.29883C14.6716 8.29883 14 8.9704 14 9.79883C14 10.6273 14.6716 11.2988 15.5 11.2988Z" fill="#686868"/>
<path d="M8.5 11.2988C9.32843 11.2988 10 10.6273 10 9.79883C10 8.9704 9.32843 8.29883 8.5 8.29883C7.67157 8.29883 7 8.9704 7 9.79883C7 10.6273 7.67157 11.2988 8.5 11.2988Z" fill="#686868"/>
<path d="M12 16.2988C10.52 16.2988 9.25 15.4888 8.55 14.2988H6.88C7.68 16.3488 9.67 17.7988 12 17.7988C14.33 17.7988 16.32 16.3488 17.12 14.2988H15.45C14.76 15.4888 13.48 16.2988 12 16.2988ZM11.99 2.29883C6.47 2.29883 2 6.77883 2 12.2988C2 17.8188 6.47 22.2988 11.99 22.2988C17.52 22.2988 22 17.8188 22 12.2988C22 6.77883 17.52 2.29883 11.99 2.29883ZM12 20.2988C7.58 20.2988 4 16.7188 4 12.2988C4 7.87883 7.58 4.29883 12 4.29883C16.42 4.29883 20 7.87883 20 12.2988C20 16.7188 16.42 20.2988 12 20.2988Z" fill="#686868"/>
</svg>
