<svg width="24" height="25" viewBox="0 0 24 25" fill="none" xmlns="http://www.w3.org/2000/svg">
<path d="M17.2168 7.39258C17.2168 7.39258 15.9523 7.81988 15.9376 7.81988L9.87655 9.84022C9.77729 9.87332 9.68709 9.92907 9.6131 10.0031C9.53911 10.077 9.48336 10.1672 9.45026 10.2665L7.42992 16.3275C7.43199 16.3424 7 17.6069 7 17.6069L8.28183 17.1794L14.3428 15.1591C14.4421 15.126 14.5323 15.0702 14.6063 14.9963C14.6803 14.9223 14.736 14.8321 14.7691 14.7328L16.7895 8.67179L17.2168 7.39258ZM9.13374 15.4763L10.6221 11.0127L13.598 13.9886L9.13374 15.4763Z" fill="#4B618A"/>
<path d="M12 23.5C9.82441 23.5 7.69767 22.8549 5.88873 21.6462C4.07979 20.4375 2.66989 18.7195 1.83733 16.7095C1.00477 14.6995 0.786929 12.4878 1.21137 10.354C1.6358 8.22022 2.68345 6.26021 4.22183 4.72183C5.76021 3.18345 7.72022 2.1358 9.85401 1.71137C11.9878 1.28693 14.1995 1.50477 16.2095 2.33733C18.2195 3.16989 19.9375 4.57979 21.1462 6.38873C22.3549 8.19767 23 10.3244 23 12.5C22.9967 15.4164 21.8367 18.2123 19.7745 20.2745C17.7123 22.3367 14.9164 23.4967 12 23.5ZM12 3.07143C10.1352 3.07143 8.31229 3.62441 6.76177 4.66043C5.21125 5.69646 4.00277 7.169 3.28914 8.89185C2.57551 10.6147 2.3888 12.5105 2.7526 14.3394C3.1164 16.1684 4.01439 17.8484 5.333 19.167C6.65161 20.4856 8.33162 21.3836 10.1606 21.7474C11.9895 22.1112 13.8853 21.9245 15.6082 21.2109C17.331 20.4972 18.8035 19.2888 19.8396 17.7382C20.8756 16.1877 21.4286 14.3648 21.4286 12.5C21.4257 10.0003 20.4314 7.60378 18.6638 5.83621C16.8962 4.06864 14.4997 3.07434 12 3.07143Z" fill="#4B618A" stroke="#4B618A" stroke-width="0.3"/>
</svg>
