<svg width="22" height="16" viewBox="0 0 22 16" fill="none" xmlns="http://www.w3.org/2000/svg">
<path d="M11 2.56738C14.79 2.56738 18.17 4.69738 19.82 8.06738C18.17 11.4374 14.79 13.5674 11 13.5674C7.21 13.5674 3.83 11.4374 2.18 8.06738C3.83 4.69738 7.21 2.56738 11 2.56738ZM11 0.567383C6 0.567383 1.73 3.67738 0 8.06738C1.73 12.4574 6 15.5674 11 15.5674C16 15.5674 20.27 12.4574 22 8.06738C20.27 3.67738 16 0.567383 11 0.567383ZM11 5.56738C12.38 5.56738 13.5 6.68738 13.5 8.06738C13.5 9.44738 12.38 10.5674 11 10.5674C9.62 10.5674 8.5 9.44738 8.5 8.06738C8.5 6.68738 9.62 5.56738 11 5.56738ZM11 3.56738C8.52 3.56738 6.5 5.58738 6.5 8.06738C6.5 10.5474 8.52 12.5674 11 12.5674C13.48 12.5674 15.5 10.5474 15.5 8.06738C15.5 5.58738 13.48 3.56738 11 3.56738Z" fill="#9D9D9D" fill-opacity="0.79"/>
</svg>
