<svg width="20" height="21" viewBox="0 0 20 21" fill="none" xmlns="http://www.w3.org/2000/svg">
<path d="M0.844482 18.8003C0.844482 19.5197 1.43305 20.1082 2.15242 20.1082H17.8476C18.567 20.1082 19.1555 19.5197 19.1555 18.8003C19.1555 18.0809 18.567 17.4924 17.8476 17.4924H2.15242C1.43305 17.4924 0.844482 18.0809 0.844482 18.8003ZM6.73018 11.9991H13.2698L14.1331 14.0918C14.3293 14.5626 14.787 14.8765 15.2971 14.8765C16.1996 14.8765 16.8013 13.9479 16.4481 13.1239L11.3733 1.39173C11.1379 0.8424 10.6017 0.489258 10 0.489258C9.39836 0.489258 8.86211 0.8424 8.62668 1.39173L3.5519 13.1239C3.19876 13.9479 3.81349 14.8765 4.71596 14.8765C5.22606 14.8765 5.68383 14.5626 5.88002 14.0918L6.73018 11.9991ZM10 3.07896L12.4458 9.64478H7.55418L10 3.07896Z" fill="#686868"/>
</svg>
