<svg width="16" height="16" viewBox="0 0 16 16" fill="none" xmlns="http://www.w3.org/2000/svg">
<path d="M11.8981 11.7611C14.3955 11.7611 15.797 8.9785 15.797 6.30027C15.797 2.85685 13.3355 0.491664 9.27488 0.491664C3.99253 0.491664 0.201452 4.36987 0.201452 9.32632C0.201452 12.8567 2.77076 15.1001 6.65167 15.1001C7.89141 15.1001 9.09521 14.8915 10.1732 14.4567L9.95763 13.3784C9.04131 13.7958 7.96328 13.9697 6.97508 13.9697C3.59725 13.9697 1.54899 12.2828 1.56696 9.18719C1.56696 4.92638 4.72918 1.60469 9.07724 1.60469C12.509 1.60469 14.4674 3.36119 14.4674 6.38723C14.4674 8.21329 13.6948 10.6828 12.1496 10.6828C11.2333 10.6828 11.0896 10.022 11.2513 9.03067L12.1496 4.00466H10.7302L10.5326 5.0829C10.1373 4.24813 9.36472 3.83075 8.23278 3.83075C5.60958 3.83075 3.81286 6.17854 3.81286 8.76981C3.81286 10.5785 4.89089 11.7611 6.74151 11.7611C7.99921 11.7611 9.22098 11.1524 9.95763 10.1437C10.0475 11.1176 10.6763 11.7611 11.8981 11.7611ZM10.1732 7.34374C10.0654 9.13502 8.80773 10.5263 7.22662 10.5263C5.96892 10.5263 5.34007 9.70892 5.34007 8.52633C5.34007 6.80462 6.43607 5.04812 8.23278 5.04812C9.63422 5.04812 10.281 6.07419 10.1732 7.34374Z" fill="#0EB4F6"/>
<path fill-rule="evenodd" clip-rule="evenodd" d="M10.4039 14.5759L10.2518 14.6372C9.1459 15.0832 7.91515 15.2957 6.65246 15.2957C4.67222 15.2957 3.00727 14.7229 1.83522 13.6811C0.661336 12.6377 0 11.1396 0 9.32613C0 4.26541 3.87769 0.295715 9.27567 0.295715C11.3465 0.295715 13.0302 0.89939 14.1979 1.96186C15.3667 3.02526 16 4.53159 16 6.30008C16 7.66863 15.6426 9.07124 14.9566 10.1382C14.2688 11.2078 13.2371 11.9566 11.8989 11.9566C11.2513 11.9566 10.7355 11.7855 10.3681 11.4623C10.1089 11.2342 9.93526 10.9406 9.83851 10.6036C9.05495 11.455 7.91439 11.9566 6.7423 11.9566C5.77066 11.9566 4.98118 11.6448 4.43583 11.0767C3.89229 10.5105 3.6114 9.7108 3.6114 8.76962C3.6114 6.10697 5.46417 3.6348 8.23357 3.6348C8.82448 3.6348 9.33695 3.74371 9.75872 3.9729C10.0223 4.11611 10.2457 4.3038 10.4286 4.53393L10.5615 3.80871H12.3907L11.4518 9.06101C11.4517 9.06149 11.4517 9.06198 11.4516 9.06246C11.3717 9.55303 11.3771 9.91644 11.4824 10.15C11.532 10.2603 11.6031 10.3397 11.7012 10.394C11.802 10.4498 11.9454 10.4869 12.1504 10.4869C12.7955 10.4869 13.3249 9.96987 13.7038 9.14045C14.0767 8.32417 14.2659 7.27811 14.2659 6.38704C14.2659 4.91604 13.7912 3.77759 12.9231 3.00512C12.0526 2.23049 10.7599 1.80026 9.07803 1.80026C4.85183 1.80026 1.76999 5.0242 1.76999 9.187V9.1881C1.76126 10.6921 2.25301 11.8295 3.13338 12.5934C4.01723 13.3602 5.31953 13.7738 6.97587 13.7738C7.9424 13.7738 8.9894 13.6033 9.87231 13.2011L10.1076 13.094L10.4039 14.5759ZM11.2513 9.03067C11.0896 10.022 11.2333 10.6828 12.1496 10.6828C13.6948 10.6828 14.4674 8.21329 14.4674 6.38723C14.4674 3.36119 12.509 1.60469 9.07724 1.60469C4.72918 1.60469 1.56696 4.92638 1.56696 9.18719C1.54899 12.2828 3.59725 13.9697 6.97508 13.9697C7.8959 13.9697 8.89551 13.8185 9.76882 13.4602C9.83272 13.434 9.89516 13.4069 9.95763 13.3784L10.1732 14.4567C9.09521 14.8915 7.89141 15.1001 6.65167 15.1001C2.77076 15.1001 0.201452 12.8567 0.201452 9.32632C0.201452 4.36987 3.99253 0.491664 9.27488 0.491664C13.3355 0.491664 15.797 2.85685 15.797 6.30027C15.797 8.9785 14.3955 11.7611 11.8981 11.7611C10.7948 11.7611 10.1758 11.2361 9.9998 10.4171C9.98091 10.3292 9.96634 10.2381 9.95763 10.1437C9.90214 10.2197 9.84468 10.2932 9.78388 10.3646C9.03749 11.2404 7.90447 11.7611 6.74151 11.7611C4.89089 11.7611 3.81286 10.5785 3.81286 8.76981C3.81286 6.17854 5.60958 3.83075 8.23278 3.83075C9.2319 3.83075 9.95184 4.15574 10.3787 4.8061C10.4354 4.89256 10.4862 4.98495 10.5326 5.0829L10.7302 4.00466H12.1496L11.2513 9.03067ZM9.97247 7.32751C10.0235 6.72612 9.89386 6.20415 9.60828 5.8375C9.32742 5.47692 8.87838 5.24369 8.23357 5.24369C7.41117 5.24369 6.74421 5.64338 6.27621 6.25759C5.80589 6.87482 5.5431 7.70261 5.5431 8.52614C5.5431 9.08618 5.69207 9.53533 5.96551 9.8416C6.23513 10.1436 6.64677 10.3304 7.22741 10.3304C8.67054 10.3304 9.86859 9.05264 9.97213 7.33216L9.97247 7.32751ZM7.22662 10.5263C8.80773 10.5263 10.0654 9.13502 10.1732 7.34374C10.281 6.07419 9.63422 5.04812 8.23278 5.04812C6.43607 5.04812 5.34007 6.80462 5.34007 8.52633C5.34007 9.70892 5.96892 10.5263 7.22662 10.5263Z" fill="#0EB4F6"/>
</svg>
