<svg width="5" height="16" viewBox="0 0 5 16" fill="none" xmlns="http://www.w3.org/2000/svg">
<path d="M2.62891 4C3.72891 4 4.62891 3.1 4.62891 2C4.62891 0.9 3.72891 0 2.62891 0C1.52891 0 0.628906 0.9 0.628906 2C0.628906 3.1 1.52891 4 2.62891 4ZM2.62891 6C1.52891 6 0.628906 6.9 0.628906 8C0.628906 9.1 1.52891 10 2.62891 10C3.72891 10 4.62891 9.1 4.62891 8C4.62891 6.9 3.72891 6 2.62891 6ZM2.62891 12C1.52891 12 0.628906 12.9 0.628906 14C0.628906 15.1 1.52891 16 2.62891 16C3.72891 16 4.62891 15.1 4.62891 14C4.62891 12.9 3.72891 12 2.62891 12Z" fill="#07A098"/>
</svg>
