<svg width="15" height="15" viewBox="0 0 15 15" fill="none" xmlns="http://www.w3.org/2000/svg">
<path fill-rule="evenodd" clip-rule="evenodd" d="M6.29015 12.2301H11.3377C11.5233 12.2301 11.7014 12.3039 11.8326 12.4352L13.0993 13.7018C13.5403 14.1428 14.2943 13.8305 14.2943 13.2069V2.26348C14.2943 1.87688 13.9809 1.56348 13.5943 1.56348H12.4486L6.29015 12.2301ZM9.84215 1.56348L3.68375 12.2301H1.66094C1.27434 12.2301 0.960938 11.9167 0.960938 11.5301V2.26348C0.960938 1.87688 1.27434 1.56348 1.66094 1.56348H9.84215Z" fill="#686868"/>
<path d="M3.63833 14.275C3.84886 14.3966 4.11807 14.3244 4.23962 14.1139L11.7818 1.05043C11.9034 0.839899 11.8312 0.570695 11.6207 0.449145C11.4102 0.327595 11.141 0.399728 11.0194 0.610258L3.47722 13.6737C3.35567 13.8843 3.4278 14.1535 3.63833 14.275Z" fill="#686868"/>
</svg>
