<svg width="25" height="25" viewBox="0 0 25 25" fill="none" xmlns="http://www.w3.org/2000/svg">
<path d="M12.6973 22.71C13.7973 22.71 14.6973 21.81 14.6973 20.71H10.6973C10.6973 21.81 11.5973 22.71 12.6973 22.71ZM18.6973 16.71V11.71C18.6973 8.63996 17.0673 6.06996 14.1973 5.38996V3.20996H11.1973V5.38996C8.33727 6.06996 6.69727 8.62996 6.69727 11.71V16.71L4.69727 18.71V19.71H20.6973V18.71L18.6973 16.71ZM16.6973 17.71H8.69727V11.71C8.69727 9.22996 10.2073 7.20996 12.6973 7.20996C15.1873 7.20996 16.6973 9.22996 16.6973 11.71V17.71Z" fill="white"/>
</svg>
