<svg width="16" height="16" viewBox="0 0 16 16" fill="none" xmlns="http://www.w3.org/2000/svg">
<path d="M7.814 0C8.36141 0 8.88639 0.217457 9.27347 0.604532C9.66054 0.991607 9.878 1.51659 9.878 2.064V12.9375C9.878 13.2085 9.82461 13.4769 9.72089 13.7274C9.61716 13.9778 9.46513 14.2053 9.27347 14.397C9.08181 14.5886 8.85427 14.7407 8.60386 14.8444C8.35344 14.9481 8.08505 15.0015 7.814 15.0015C7.54295 15.0015 7.27456 14.9481 7.02414 14.8444C6.77373 14.7407 6.54619 14.5886 6.35453 14.397C6.16287 14.2053 6.01084 13.9778 5.90711 13.7274C5.80339 13.4769 5.75 13.2085 5.75 12.9375V2.064C5.75 1.51659 5.96746 0.991607 6.35453 0.604532C6.74161 0.217457 7.26659 0 7.814 0ZM13.064 3.75C13.6114 3.75 14.1364 3.96746 14.5235 4.35453C14.9105 4.74161 15.128 5.26659 15.128 5.814V12.9375C15.128 13.4849 14.9105 14.0099 14.5235 14.397C14.1364 14.784 13.6114 15.0015 13.064 15.0015C12.5166 15.0015 11.9916 14.784 11.6045 14.397C11.2175 14.0099 11 13.4849 11 12.9375V5.814C11 5.26659 11.2175 4.74161 11.6045 4.35453C11.9916 3.96746 12.5166 3.75 13.064 3.75ZM2.564 7.5C2.83505 7.5 3.10344 7.55339 3.35386 7.65711C3.60427 7.76084 3.83181 7.91287 4.02347 8.10453C4.21513 8.29619 4.36716 8.52373 4.47089 8.77414C4.57461 9.02456 4.628 9.29295 4.628 9.564V12.9375C4.628 13.4849 4.41054 14.0099 4.02347 14.397C3.63639 14.784 3.11141 15.0015 2.564 15.0015C2.01659 15.0015 1.49161 14.784 1.10453 14.397C0.717457 14.0099 0.5 13.4849 0.5 12.9375V9.564C0.5 9.01659 0.717457 8.49161 1.10453 8.10453C1.49161 7.71746 2.01659 7.5 2.564 7.5Z" fill="#4B618A"/>
</svg>
