<svg width="18" height="16" viewBox="0 0 18 16" fill="none" xmlns="http://www.w3.org/2000/svg">
<path d="M0 1.20031V15.6003H4.5V1.20031H0ZM3.6 12.0003H0.9V11.1003H3.6V12.0003ZM3.6 9.30031H0.9V8.40031H3.6V9.30031ZM5.4 1.20031V15.6003H9.9V1.20031H5.4ZM9 12.0003H6.3V11.1003H9V12.0003ZM9 9.30031H6.3V8.40031H9V9.30031ZM9.9 1.65031L13.59 15.5103L17.91 14.3403L14.31 0.570312L9.9 1.65031ZM16.2 11.1903L13.59 11.9103L13.32 11.0103L15.93 10.2903L16.2 11.1903ZM15.48 8.58031L12.87 9.30031L12.69 8.40031L15.3 7.68031L15.48 8.58031Z" fill="#4B618A"/>
</svg>
