<svg width="25" height="25" viewBox="0 0 25 25" fill="none" xmlns="http://www.w3.org/2000/svg">
<path d="M20.0851 13.937C20.1251 13.617 20.1551 13.297 20.1551 12.957C20.1551 12.617 20.1251 12.297 20.0851 11.977L22.1951 10.327C22.3851 10.177 22.4351 9.90703 22.3151 9.68703L20.3151 6.22703C20.2251 6.06703 20.0551 5.97703 19.8751 5.97703C19.8151 5.97703 19.7551 5.98703 19.7051 6.00703L17.2151 7.00703C16.6951 6.60703 16.1351 6.27703 15.5251 6.02703L15.1451 3.37703C15.1151 3.13703 14.9051 2.95703 14.6551 2.95703H10.6551C10.4051 2.95703 10.1951 3.13703 10.1651 3.37703L9.78511 6.02703C9.17511 6.27703 8.61511 6.61703 8.09511 7.00703L5.60511 6.00703C5.54511 5.98703 5.48511 5.97703 5.42511 5.97703C5.25511 5.97703 5.08511 6.06703 4.99511 6.22703L2.99511 9.68703C2.86511 9.90703 2.92511 10.177 3.11511 10.327L5.22511 11.977C5.18511 12.297 5.15511 12.627 5.15511 12.957C5.15511 13.287 5.18511 13.617 5.22511 13.937L3.11511 15.587C2.92511 15.737 2.87511 16.007 2.99511 16.227L4.99511 19.687C5.08511 19.847 5.25511 19.937 5.43511 19.937C5.49511 19.937 5.55511 19.927 5.60511 19.907L8.09511 18.907C8.61511 19.307 9.17511 19.637 9.78511 19.887L10.1651 22.537C10.1951 22.777 10.4051 22.957 10.6551 22.957H14.6551C14.9051 22.957 15.1151 22.777 15.1451 22.537L15.5251 19.887C16.1351 19.637 16.6951 19.297 17.2151 18.907L19.7051 19.907C19.7651 19.927 19.8251 19.937 19.8851 19.937C20.0551 19.937 20.2251 19.847 20.3151 19.687L22.3151 16.227C22.4351 16.007 22.3851 15.737 22.1951 15.587L20.0851 13.937ZM18.1051 12.227C18.1451 12.537 18.1551 12.747 18.1551 12.957C18.1551 13.167 18.1351 13.387 18.1051 13.687L17.9651 14.817L18.8551 15.517L19.9351 16.357L19.2351 17.567L17.9651 17.057L16.9251 16.637L16.0251 17.317C15.5951 17.637 15.1851 17.877 14.7751 18.047L13.7151 18.477L13.5551 19.607L13.3551 20.957H11.9551L11.7651 19.607L11.6051 18.477L10.5451 18.047C10.1151 17.867 9.71511 17.637 9.31511 17.337L8.40511 16.637L7.34511 17.067L6.07511 17.577L5.37511 16.367L6.45511 15.527L7.34511 14.827L7.20511 13.697C7.17511 13.387 7.15511 13.157 7.15511 12.957C7.15511 12.757 7.17511 12.527 7.20511 12.227L7.34511 11.097L6.45511 10.397L5.37511 9.55703L6.07511 8.34703L7.34511 8.85703L8.38511 9.27703L9.28511 8.59703C9.71511 8.27703 10.1251 8.03703 10.5351 7.86703L11.5951 7.43703L11.7551 6.30703L11.9551 4.95703H13.3451L13.5351 6.30703L13.6951 7.43703L14.7551 7.86703C15.1851 8.04703 15.5851 8.27703 15.9851 8.57703L16.8951 9.27703L17.9551 8.84703L19.2251 8.33703L19.9251 9.54703L18.8551 10.397L17.9651 11.097L18.1051 12.227ZM12.6551 8.95703C10.4451 8.95703 8.65511 10.747 8.65511 12.957C8.65511 15.167 10.4451 16.957 12.6551 16.957C14.8651 16.957 16.6551 15.167 16.6551 12.957C16.6551 10.747 14.8651 8.95703 12.6551 8.95703ZM12.6551 14.957C11.5551 14.957 10.6551 14.057 10.6551 12.957C10.6551 11.857 11.5551 10.957 12.6551 10.957C13.7551 10.957 14.6551 11.857 14.6551 12.957C14.6551 14.057 13.7551 14.957 12.6551 14.957Z" fill="white"/>
</svg>
