<svg width="24" height="25" viewBox="0 0 24 25" fill="none" xmlns="http://www.w3.org/2000/svg">
<path d="M3 6.5L3 7.06934V22.3003H18.2309V13.9233" stroke="#4B618A" stroke-width="1.8"/>
<path d="M9.82123 16.2078H8.33204V8.76371C8.33068 8.25519 8.44828 7.75339 8.67545 7.29843C8.98389 6.61779 9.48177 6.04034 10.1096 5.63509C10.7374 5.22983 11.4687 5.0139 12.2159 5.0131H16.1157V2.5H17.3255L22.0007 7.17523L17.3089 11.867H16.1157V9.35392H13.5794C13.0489 9.35521 12.5333 9.52946 12.1107 9.85024C11.6882 10.171 11.3817 10.6208 11.2379 11.1315L9.82123 16.2078ZM12.2159 5.92696C11.6431 5.92757 11.0827 6.09346 10.6019 6.4047C10.121 6.71595 9.74021 7.15933 9.50512 7.68165L9.49678 7.69919C9.33076 8.02942 9.24482 8.3941 9.2459 8.76371V14.8697L10.3577 10.8859C10.5556 10.1832 10.9772 9.56432 11.5586 9.12295C12.14 8.68158 12.8495 8.44183 13.5794 8.44007H17.0296V10.8539L20.7083 7.17523L17.0296 3.4965V5.92696H12.2159Z" fill="#4B618A" stroke="#4B618A" stroke-width="0.6"/>
</svg>
