<svg width="31" height="31" viewBox="0 0 31 31" fill="none" xmlns="http://www.w3.org/2000/svg">
<path d="M15.457 2.54102C8.55703 2.54102 2.95703 8.14102 2.95703 15.041C2.95703 21.941 8.55703 27.541 15.457 27.541C22.357 27.541 27.957 21.941 27.957 15.041C27.957 8.14102 22.357 2.54102 15.457 2.54102ZM15.457 25.041C9.94453 25.041 5.45703 20.5535 5.45703 15.041C5.45703 9.52852 9.94453 5.04102 15.457 5.04102C20.9695 5.04102 25.457 9.52852 25.457 15.041C25.457 20.5535 20.9695 25.041 15.457 25.041ZM21.1945 9.51602L12.957 17.7535L9.71953 14.5285L7.95703 16.291L12.957 21.291L22.957 11.291L21.1945 9.51602Z" fill="#04BE00"/>
</svg>
