<svg width="20" height="21" viewBox="0 0 20 21" fill="none" xmlns="http://www.w3.org/2000/svg">
<path fill-rule="evenodd" clip-rule="evenodd" d="M3.46366 11.3986C3.04147 11.8208 3.04147 12.5053 3.46366 12.9275L7.73257 17.1964C8.15476 17.6186 8.83926 17.6186 9.26145 17.1964L15.4856 10.9723C15.6883 10.7696 15.8022 10.4946 15.8022 10.2079L15.8022 6.0335C15.8022 5.44486 15.3313 4.96441 14.7428 4.95264L10.4649 4.86708C10.1707 4.8612 9.88685 4.97546 9.6788 5.1835L3.46366 11.3986ZM14.1788 7.87238C14.563 7.48814 14.563 6.86516 14.1788 6.48091C13.7945 6.09667 13.1716 6.09667 12.7873 6.48092C12.4031 6.86516 12.4031 7.48814 12.7873 7.87238C13.1716 8.25663 13.7945 8.25663 14.1788 7.87238Z" fill="#4B618A"/>
</svg>
