<svg width="19" height="16" viewBox="0 0 19 16" fill="none" xmlns="http://www.w3.org/2000/svg">
<path fill-rule="evenodd" clip-rule="evenodd" d="M11.2418 0.174774L5.65979 5.53128C5.32887 5.84883 5.146 6.27501 5.146 6.7179V13.261C5.146 14.339 6.06037 15.2164 7.18375 15.2164H14.2375C14.8558 15.2164 15.4218 14.9073 15.7353 14.4059L18.0605 9.26663C18.1562 9.05772 18.2085 8.83209 18.2085 8.59811V7.69561C18.2085 6.7764 17.4247 6.02431 16.4668 6.02431H11.6772L12.4784 2.13855C12.522 1.9547 12.4958 1.75415 12.4087 1.58702C12.2085 1.21098 11.9559 0.868362 11.6424 0.567529L11.2418 0.174774ZM10.4662 3.28267L9.9698 5.6977C9.8653 6.19073 10.0046 6.70047 10.3356 7.08487C10.6665 7.46927 11.1541 7.6949 11.6766 7.6949H16.4662V8.59739L14.2282 13.5444H7.18314C7.02639 13.5444 6.88705 13.4107 6.88705 13.2603V6.70883L10.4662 3.28267Z" fill="#1FC4FF"/>
<path d="M0.791748 6.03247H2.65425C3.06846 6.03247 3.40425 6.36826 3.40425 6.78247V14.4737C3.40425 14.8879 3.06846 15.2237 2.65425 15.2237H0.791748V6.03247Z" fill="#1FC4FF"/>
</svg>
