<svg width="24" height="25" viewBox="0 0 24 25" fill="none" xmlns="http://www.w3.org/2000/svg">
<path fill-rule="evenodd" clip-rule="evenodd" d="M14.2 2.77539L7.149 9.5415C6.731 9.94261 6.5 10.4809 6.5 11.0404V19.3054C6.5 20.6671 7.655 21.7754 9.074 21.7754H17.984C18.765 21.7754 19.48 21.3848 19.876 20.7515L22.813 14.2598C22.934 13.9959 23 13.7109 23 13.4154V12.2754C23 11.1143 22.01 10.1643 20.8 10.1643H14.75L15.762 5.25595C15.817 5.02372 15.784 4.77039 15.674 4.55928C15.421 4.08428 15.102 3.6515 14.706 3.2715L14.2 2.77539ZM13.2202 6.70117L12.5932 9.75173C12.4612 10.3745 12.6372 11.0184 13.0552 11.504C13.4732 11.9895 14.0892 12.2745 14.7492 12.2745H20.7992V13.4145L17.9722 19.6634H9.07322C8.87522 19.6634 8.69922 19.4945 8.69922 19.3045V11.0289L13.2202 6.70117Z" fill="#9D9D9D" fill-opacity="0.79"/>
<path d="M1 10.1748H3.3C3.85229 10.1748 4.3 10.6225 4.3 11.1748V20.7848C4.3 21.3371 3.85228 21.7848 3.3 21.7848H1V10.1748Z" fill="#9D9D9D" fill-opacity="0.79"/>
</svg>
