<svg width="25" height="25" viewBox="0 0 25 25" fill="none" xmlns="http://www.w3.org/2000/svg">
<path d="M5.84228 4.17871V4.00603H5.6696H4.51367H4.34099V4.17871V19.2057C4.34099 19.5581 4.48097 19.896 4.73013 20.1452L4.85223 20.0231L4.73013 20.1452C4.97929 20.3944 5.31723 20.5343 5.6696 20.5343H20.6966H20.8693V20.3617V19.2057V19.033H20.6966H5.84228V4.17871Z" fill="#525AF2" stroke="#525AF2" stroke-width="0.345365"/>
<path d="M20.81 8.24414V8.12959H20.6954H16.6696H16.555V8.24414V9.39438V9.50893H16.6696H18.4577L14.3692 13.5974L11.9832 11.2058C11.9832 11.2058 11.9831 11.2058 11.9831 11.2057C11.919 11.1411 11.8427 11.0899 11.7588 11.0549C11.6747 11.0199 11.5846 11.0018 11.4935 11.0018C11.4025 11.0018 11.3123 11.0199 11.2283 11.0549C11.1443 11.0899 11.0681 11.1411 11.004 11.2057C11.0039 11.2058 11.0039 11.2058 11.0039 11.2058L6.81152 15.4039L6.73063 15.4849L6.81158 15.5659L7.62249 16.3768L7.70349 16.4578L7.7845 16.3768L11.4934 12.6679L13.8794 15.0594C13.8795 15.0595 13.8796 15.0595 13.8796 15.0596C13.9437 15.1242 14.0199 15.1754 14.1039 15.2104C14.1879 15.2454 14.2781 15.2634 14.3691 15.2634C14.4602 15.2634 14.5503 15.2454 14.6343 15.2104C14.7183 15.1754 14.7945 15.1242 14.8586 15.0596C14.8587 15.0596 14.8587 15.0595 14.8588 15.0594L19.4306 10.4821V12.27V12.3845H19.5452H20.6954H20.81V12.27V8.24414Z" fill="#525AF2" stroke="#525AF2" stroke-width="0.22911"/>
</svg>
