<svg width="25" height="24" viewBox="0 0 25 24" fill="none" xmlns="http://www.w3.org/2000/svg">
<path fill-rule="evenodd" clip-rule="evenodd" d="M9.50586 19C8.50586 19 5.50586 16 5.50586 15C5.50586 14.667 5.83886 14 6.50586 13L2.50586 12L4.50586 9L8.50586 10C12.5059 4 18.5059 2 22.5059 2C22.5059 6 20.5059 12 14.5059 16L15.5059 20L12.5059 22L11.5059 18C10.5059 18.667 9.83886 19 9.50586 19ZM8.54586 15.96C8.89986 16.315 9.26486 16.632 9.56886 16.85C9.79186 16.726 10.0699 16.554 10.3969 16.336L13.3969 14.336C17.2949 11.736 19.6359 7.92 20.3049 4.201C16.5859 4.871 12.7689 7.211 10.1699 11.109L8.16986 14.109C7.95186 14.436 7.77986 14.714 7.65486 14.937C7.87486 15.241 8.19086 15.607 8.54486 15.961L8.54586 15.96Z" fill="#525AF2"/>
<path d="M16.0059 10C16.8343 10 17.5059 9.32843 17.5059 8.5C17.5059 7.67157 16.8343 7 16.0059 7C15.1774 7 14.5059 7.67157 14.5059 8.5C14.5059 9.32843 15.1774 10 16.0059 10Z" fill="#525AF2"/>
<path fill-rule="evenodd" clip-rule="evenodd" d="M4.50586 16L5.50586 17.5C4.83886 18.167 4.50586 19 4.50586 20C5.50586 20 6.33886 19.667 7.00586 19L8.50586 20C7.17286 21.333 5.17286 22 2.50586 22C2.50586 19.333 3.17286 17.333 4.50586 16Z" fill="#525AF2"/>
</svg>
