<svg width="41" height="40" viewBox="0 0 41 40" fill="none" xmlns="http://www.w3.org/2000/svg">
<g clip-path="url(#clip0_4808_231150)">
<circle cx="20.5371" cy="20" r="20" fill="#E7F7FE"/>
<path fill-rule="evenodd" clip-rule="evenodd" d="M24.3466 16.1923C24.3466 18.2971 22.6418 20.0019 20.5371 20.0019C18.4323 20.0019 16.7275 18.2971 16.7275 16.1923C16.7275 14.0876 18.4323 12.3828 20.5371 12.3828C22.6418 12.3828 24.3466 14.0876 24.3466 16.1923ZM12.918 25.7158C12.918 23.1824 17.9942 21.9062 20.537 21.9062C23.0799 21.9062 28.1561 23.1824 28.1561 25.7158V26.6682C28.1561 27.192 27.7275 27.6205 27.2037 27.6205H13.8703C13.3465 27.6205 12.918 27.192 12.918 26.6682V25.7158Z" fill="#E84949"/>
</g>
<defs>
<clipPath id="clip0_4808_231150">
<rect width="40" height="40" fill="white" transform="translate(0.537109)"/>
</clipPath>
</defs>
</svg>
