<svg width="330" height="140" viewBox="0 0 330 140" fill="none" xmlns="http://www.w3.org/2000/svg">
<rect width="330" height="140" fill="#CBCBCB"/>
<g clip-path="url(#clip0_6556_221085)">
<rect width="1440" height="4496" transform="translate(-947 -2099)" fill="white"/>
<rect x="-947" y="-422" width="1440" height="760" fill="#FFCD65"/>
<g filter="url(#filter0_d_6556_221085)">
<g clip-path="url(#clip1_6556_221085)">
<path d="M0 0H330V125C330 133.284 323.284 140 315 140H15C6.71573 140 0 133.284 0 125V0Z" fill="white"/>
<rect x="-29" width="393" height="8" fill="#525AF2"/>
<path d="M45.0606 73.4388V74.4539H40.9042V77.6776H44.2787V78.6927H40.9042V83H39.6559V73.4388H45.0606ZM47.8166 76.7036C48.036 76.2738 48.347 75.94 48.7493 75.7022C49.1609 75.4645 49.6593 75.3456 50.2446 75.3456V76.635H49.9153C48.5161 76.635 47.8166 77.3941 47.8166 78.9122V83H46.5682V75.4828H47.8166V76.7036ZM52.3303 74.2619C52.0925 74.2619 51.8913 74.1796 51.7267 74.015C51.5621 73.8504 51.4798 73.6492 51.4798 73.4114C51.4798 73.1736 51.5621 72.9724 51.7267 72.8078C51.8913 72.6432 52.0925 72.5609 52.3303 72.5609C52.5589 72.5609 52.751 72.6432 52.9064 72.8078C53.071 72.9724 53.1533 73.1736 53.1533 73.4114C53.1533 73.6492 53.071 73.8504 52.9064 74.015C52.751 74.1796 52.5589 74.2619 52.3303 74.2619ZM52.9339 75.4828V83H51.6856V75.4828H52.9339ZM58.1835 74.2207V73.0822H60.7624V83H59.5004V74.2207H58.1835ZM65.7736 83.1235C65.1975 83.1235 64.6808 83.0274 64.2236 82.8354C63.7663 82.6342 63.4051 82.3598 63.1399 82.0123C62.8747 81.6557 62.7283 81.2487 62.7009 80.7915H63.9904C64.0269 81.1664 64.2007 81.4728 64.5116 81.7105C64.8317 81.9483 65.2478 82.0672 65.7599 82.0672C66.2355 82.0672 66.6104 81.962 66.8848 81.7517C67.1591 81.5414 67.2963 81.2762 67.2963 80.9561C67.2963 80.6269 67.15 80.3845 66.8573 80.229C66.5647 80.0644 66.112 79.9044 65.4993 79.7489C64.9414 79.6026 64.4842 79.4563 64.1275 79.31C63.78 79.1545 63.4782 78.9304 63.2222 78.6378C62.9753 78.336 62.8518 77.9428 62.8518 77.4581C62.8518 77.074 62.9661 76.7219 63.1947 76.4018C63.4234 76.0818 63.748 75.8303 64.1687 75.6474C64.5894 75.4553 65.0695 75.3593 65.609 75.3593C66.4412 75.3593 67.1134 75.5696 67.6255 75.9903C68.1376 76.411 68.412 76.9871 68.4486 77.7187H67.2003C67.1728 77.3255 67.0128 77.01 66.7202 76.7722C66.4367 76.5344 66.0526 76.4156 65.5679 76.4156C65.1198 76.4156 64.7631 76.5116 64.4979 76.7036C64.2327 76.8957 64.1001 77.1472 64.1001 77.4581C64.1001 77.705 64.1778 77.9108 64.3333 78.0754C64.4979 78.2308 64.6991 78.3589 64.9369 78.4595C65.1838 78.5509 65.5222 78.6561 65.952 78.775C66.4915 78.9213 66.9305 79.0676 67.2689 79.2139C67.6072 79.3511 67.8953 79.5615 68.1331 79.845C68.38 80.1284 68.508 80.4988 68.5172 80.9561C68.5172 81.3676 68.4028 81.738 68.1742 82.0672C67.9456 82.3964 67.6209 82.6571 67.2003 82.8491C66.7887 83.032 66.3132 83.1235 65.7736 83.1235ZM71.802 76.5116V80.9424C71.802 81.3082 71.8797 81.5688 72.0352 81.7243C72.1907 81.8706 72.4604 81.9437 72.8445 81.9437H73.7636V83H72.6388C71.9437 83 71.4225 82.84 71.075 82.5199C70.7274 82.1998 70.5537 81.674 70.5537 80.9424V76.5116H69.5797V75.4828H70.5537V73.5897H71.802V75.4828H73.7636V76.5116H71.802ZM76.5655 81.2716L75.0292 84.9616H74.1924L75.1938 81.2716H76.5655ZM85.9874 83.096C85.1003 83.096 84.291 82.8903 83.5594 82.4787C82.8278 82.0581 82.2471 81.4773 81.8172 80.7366C81.3966 79.9867 81.1862 79.1454 81.1862 78.2126C81.1862 77.2798 81.3966 76.443 81.8172 75.7022C82.2471 74.9523 82.8278 74.3716 83.5594 73.9601C84.291 73.5394 85.1003 73.3291 85.9874 73.3291C86.8836 73.3291 87.6975 73.5394 88.4291 73.9601C89.1607 74.3716 89.7369 74.9478 90.1575 75.6885C90.5782 76.4293 90.7885 77.2706 90.7885 78.2126C90.7885 79.1545 90.5782 79.9958 90.1575 80.7366C89.7369 81.4773 89.1607 82.0581 88.4291 82.4787C87.6975 82.8903 86.8836 83.096 85.9874 83.096ZM85.9874 82.0123C86.655 82.0123 87.254 81.8569 87.7844 81.5459C88.3239 81.235 88.7446 80.7915 89.0464 80.2153C89.3573 79.6392 89.5128 78.9716 89.5128 78.2126C89.5128 77.4444 89.3573 76.7768 89.0464 76.2098C88.7446 75.6336 88.3285 75.1901 87.7981 74.8792C87.2677 74.5682 86.6641 74.4128 85.9874 74.4128C85.3106 74.4128 84.7071 74.5682 84.1767 74.8792C83.6462 75.1901 83.2256 75.6336 82.9146 76.2098C82.6129 76.7768 82.462 77.4444 82.462 78.2126C82.462 78.9716 82.6129 79.6392 82.9146 80.2153C83.2256 80.7915 83.6462 81.235 84.1767 81.5459C84.7162 81.8569 85.3198 82.0123 85.9874 82.0123ZM91.9701 79.2277C91.9701 78.4503 92.1255 77.7736 92.4365 77.1975C92.7474 76.6122 93.1772 76.1595 93.7259 75.8394C94.2838 75.5193 94.9194 75.3593 95.6327 75.3593C96.5563 75.3593 97.3154 75.5834 97.9098 76.0315C98.5134 76.4796 98.9112 77.1014 99.1032 77.8971H97.7589C97.6309 77.4398 97.3794 77.0786 97.0044 76.8134C96.6386 76.5482 96.1814 76.4156 95.6327 76.4156C94.9194 76.4156 94.3432 76.6625 93.9043 77.1563C93.4653 77.641 93.2458 78.3314 93.2458 79.2277C93.2458 80.133 93.4653 80.8326 93.9043 81.3265C94.3432 81.8203 94.9194 82.0672 95.6327 82.0672C96.1814 82.0672 96.6386 81.9392 97.0044 81.6831C97.3702 81.427 97.6217 81.0612 97.7589 80.5857H99.1032C98.902 81.3539 98.4997 81.9712 97.8961 82.4376C97.2925 82.8948 96.538 83.1235 95.6327 83.1235C94.9194 83.1235 94.2838 82.9634 93.7259 82.6433C93.1772 82.3233 92.7474 81.8706 92.4365 81.2853C92.1255 80.7 91.9701 80.0141 91.9701 79.2277ZM102.292 76.5116V80.9424C102.292 81.3082 102.369 81.5688 102.525 81.7243C102.68 81.8706 102.95 81.9437 103.334 81.9437H104.253V83H103.128C102.433 83 101.912 82.84 101.564 82.5199C101.217 82.1998 101.043 81.674 101.043 80.9424V76.5116H100.069V75.4828H101.043V73.5897H102.292V75.4828H104.253V76.5116H102.292ZM109.066 81.9986C110.227 81.0658 111.137 80.3022 111.796 79.7078C112.454 79.1042 113.008 78.4778 113.456 77.8285C113.913 77.17 114.142 76.5253 114.142 75.8943C114.142 75.2999 113.995 74.8335 113.703 74.4951C113.419 74.1476 112.957 73.9738 112.317 73.9738C111.695 73.9738 111.211 74.1704 110.863 74.5637C110.525 74.9478 110.342 75.4645 110.314 76.1138H109.107C109.144 75.0895 109.455 74.2985 110.04 73.7406C110.625 73.1828 111.38 72.9038 112.303 72.9038C113.245 72.9038 113.991 73.1645 114.539 73.6857C115.097 74.207 115.376 74.9249 115.376 75.8394C115.376 76.5985 115.148 77.3392 114.69 78.0617C114.242 78.775 113.73 79.406 113.154 79.9547C112.578 80.4943 111.842 81.1253 110.945 81.8477H115.664V82.8903H109.066V81.9986ZM117.107 77.9382C117.107 76.3653 117.363 75.1398 117.875 74.2619C118.388 73.3748 119.284 72.9313 120.564 72.9313C121.835 72.9313 122.727 73.3748 123.239 74.2619C123.751 75.1398 124.007 76.3653 124.007 77.9382C124.007 79.5386 123.751 80.7823 123.239 81.6694C122.727 82.5565 121.835 83 120.564 83C119.284 83 118.388 82.5565 117.875 81.6694C117.363 80.7823 117.107 79.5386 117.107 77.9382ZM122.773 77.9382C122.773 77.1426 122.718 76.4704 122.608 75.9217C122.507 75.3639 122.293 74.9158 121.963 74.5774C121.643 74.239 121.177 74.0698 120.564 74.0698C119.942 74.0698 119.467 74.239 119.137 74.5774C118.817 74.9158 118.602 75.3639 118.493 75.9217C118.392 76.4704 118.342 77.1426 118.342 77.9382C118.342 78.7613 118.392 79.4517 118.493 80.0096C118.602 80.5674 118.817 81.0155 119.137 81.3539C119.467 81.6923 119.942 81.8614 120.564 81.8614C121.177 81.8614 121.643 81.6923 121.963 81.3539C122.293 81.0155 122.507 80.5674 122.608 80.0096C122.718 79.4517 122.773 78.7613 122.773 77.9382ZM125.57 81.9986C126.731 81.0658 127.641 80.3022 128.3 79.7078C128.958 79.1042 129.512 78.4778 129.96 77.8285C130.417 77.17 130.646 76.5253 130.646 75.8943C130.646 75.2999 130.499 74.8335 130.207 74.4951C129.923 74.1476 129.461 73.9738 128.821 73.9738C128.199 73.9738 127.715 74.1704 127.367 74.5637C127.029 74.9478 126.846 75.4645 126.818 76.1138H125.611C125.648 75.0895 125.959 74.2985 126.544 73.7406C127.129 73.1828 127.884 72.9038 128.807 72.9038C129.749 72.9038 130.495 73.1645 131.043 73.6857C131.601 74.207 131.88 74.9249 131.88 75.8394C131.88 76.5985 131.652 77.3392 131.194 78.0617C130.746 78.775 130.234 79.406 129.658 79.9547C129.082 80.4943 128.346 81.1253 127.449 81.8477H132.168V82.8903H125.57V81.9986ZM133.46 81.9986C134.622 81.0658 135.532 80.3022 136.19 79.7078C136.849 79.1042 137.402 78.4778 137.85 77.8285C138.307 77.17 138.536 76.5253 138.536 75.8943C138.536 75.2999 138.39 74.8335 138.097 74.4951C137.813 74.1476 137.352 73.9738 136.711 73.9738C136.09 73.9738 135.605 74.1704 135.257 74.5637C134.919 74.9478 134.736 75.4645 134.709 76.1138H133.502C133.538 75.0895 133.849 74.2985 134.434 73.7406C135.02 73.1828 135.774 72.9038 136.698 72.9038C137.64 72.9038 138.385 73.1645 138.934 73.6857C139.492 74.207 139.77 74.9249 139.77 75.8394C139.77 76.5985 139.542 77.3392 139.085 78.0617C138.636 78.775 138.124 79.406 137.548 79.9547C136.972 80.4943 136.236 81.1253 135.34 81.8477H140.059V82.8903H133.46V81.9986ZM182.826 73.4388V74.4539H178.67V77.6776H182.044V78.6927H178.67V83H177.421V73.4388H182.826ZM185.582 76.7036C185.801 76.2738 186.112 75.94 186.515 75.7022C186.926 75.4645 187.425 75.3456 188.01 75.3456V76.635H187.681C186.282 76.635 185.582 77.3941 185.582 78.9122V83H184.334V75.4828H185.582V76.7036ZM190.096 74.2619C189.858 74.2619 189.657 74.1796 189.492 74.015C189.328 73.8504 189.245 73.6492 189.245 73.4114C189.245 73.1736 189.328 72.9724 189.492 72.8078C189.657 72.6432 189.858 72.5609 190.096 72.5609C190.324 72.5609 190.516 72.6432 190.672 72.8078C190.836 72.9724 190.919 73.1736 190.919 73.4114C190.919 73.6492 190.836 73.8504 190.672 74.015C190.516 74.1796 190.324 74.2619 190.096 74.2619ZM190.699 75.4828V83H189.451V75.4828H190.699ZM195.949 74.2207V73.0822H198.528V83H197.266V74.2207H195.949ZM203.539 83.1235C202.963 83.1235 202.446 83.0274 201.989 82.8354C201.532 82.6342 201.171 82.3598 200.905 82.0123C200.64 81.6557 200.494 81.2487 200.466 80.7915H201.756C201.792 81.1664 201.966 81.4728 202.277 81.7105C202.597 81.9483 203.013 82.0672 203.525 82.0672C204.001 82.0672 204.376 81.962 204.65 81.7517C204.925 81.5414 205.062 81.2762 205.062 80.9561C205.062 80.6269 204.915 80.3845 204.623 80.229C204.33 80.0644 203.877 79.9044 203.265 79.7489C202.707 79.6026 202.25 79.4563 201.893 79.31C201.545 79.1545 201.244 78.9304 200.988 78.6378C200.741 78.336 200.617 77.9428 200.617 77.4581C200.617 77.074 200.732 76.7219 200.96 76.4018C201.189 76.0818 201.513 75.8303 201.934 75.6474C202.355 75.4553 202.835 75.3593 203.374 75.3593C204.207 75.3593 204.879 75.5696 205.391 75.9903C205.903 76.411 206.177 76.9871 206.214 77.7187H204.966C204.938 77.3255 204.778 77.01 204.486 76.7722C204.202 76.5344 203.818 76.4156 203.333 76.4156C202.885 76.4156 202.529 76.5116 202.263 76.7036C201.998 76.8957 201.866 77.1472 201.866 77.4581C201.866 77.705 201.943 77.9108 202.099 78.0754C202.263 78.2308 202.465 78.3589 202.702 78.4595C202.949 78.5509 203.288 78.6561 203.717 78.775C204.257 78.9213 204.696 79.0676 205.034 79.2139C205.373 79.3511 205.661 79.5615 205.899 79.845C206.145 80.1284 206.273 80.4988 206.283 80.9561C206.283 81.3676 206.168 81.738 205.94 82.0672C205.711 82.3964 205.386 82.6571 204.966 82.8491C204.554 83.032 204.079 83.1235 203.539 83.1235ZM209.567 76.5116V80.9424C209.567 81.3082 209.645 81.5688 209.801 81.7243C209.956 81.8706 210.226 81.9437 210.61 81.9437H211.529V83H210.404C209.709 83 209.188 82.84 208.84 82.5199C208.493 82.1998 208.319 81.674 208.319 80.9424V76.5116H207.345V75.4828H208.319V73.5897H209.567V75.4828H211.529V76.5116H209.567ZM214.331 81.2716L212.795 84.9616H211.958L212.959 81.2716H214.331ZM223.753 83.096C222.866 83.096 222.056 82.8903 221.325 82.4787C220.593 82.0581 220.012 81.4773 219.583 80.7366C219.162 79.9867 218.952 79.1454 218.952 78.2126C218.952 77.2798 219.162 76.443 219.583 75.7022C220.012 74.9523 220.593 74.3716 221.325 73.9601C222.056 73.5394 222.866 73.3291 223.753 73.3291C224.649 73.3291 225.463 73.5394 226.195 73.9601C226.926 74.3716 227.502 74.9478 227.923 75.6885C228.344 76.4293 228.554 77.2706 228.554 78.2126C228.554 79.1545 228.344 79.9958 227.923 80.7366C227.502 81.4773 226.926 82.0581 226.195 82.4787C225.463 82.8903 224.649 83.096 223.753 83.096ZM223.753 82.0123C224.42 82.0123 225.019 81.8569 225.55 81.5459C226.089 81.235 226.51 80.7915 226.812 80.2153C227.123 79.6392 227.278 78.9716 227.278 78.2126C227.278 77.4444 227.123 76.7768 226.812 76.2098C226.51 75.6336 226.094 75.1901 225.564 74.8792C225.033 74.5682 224.43 74.4128 223.753 74.4128C223.076 74.4128 222.473 74.5682 221.942 74.8792C221.412 75.1901 220.991 75.6336 220.68 76.2098C220.378 76.7768 220.227 77.4444 220.227 78.2126C220.227 78.9716 220.378 79.6392 220.68 80.2153C220.991 80.7915 221.412 81.235 221.942 81.5459C222.482 81.8569 223.085 82.0123 223.753 82.0123ZM229.736 79.2277C229.736 78.4503 229.891 77.7736 230.202 77.1975C230.513 76.6122 230.943 76.1595 231.491 75.8394C232.049 75.5193 232.685 75.3593 233.398 75.3593C234.322 75.3593 235.081 75.5834 235.675 76.0315C236.279 76.4796 236.677 77.1014 236.869 77.8971H235.524C235.396 77.4398 235.145 77.0786 234.77 76.8134C234.404 76.5482 233.947 76.4156 233.398 76.4156C232.685 76.4156 232.109 76.6625 231.67 77.1563C231.231 77.641 231.011 78.3314 231.011 79.2277C231.011 80.133 231.231 80.8326 231.67 81.3265C232.109 81.8203 232.685 82.0672 233.398 82.0672C233.947 82.0672 234.404 81.9392 234.77 81.6831C235.136 81.427 235.387 81.0612 235.524 80.5857H236.869C236.667 81.3539 236.265 81.9712 235.662 82.4376C235.058 82.8948 234.303 83.1235 233.398 83.1235C232.685 83.1235 232.049 82.9634 231.491 82.6433C230.943 82.3233 230.513 81.8706 230.202 81.2853C229.891 80.7 229.736 80.0141 229.736 79.2277ZM240.057 76.5116V80.9424C240.057 81.3082 240.135 81.5688 240.29 81.7243C240.446 81.8706 240.715 81.9437 241.099 81.9437H242.019V83H240.894C240.199 83 239.677 82.84 239.33 82.5199C238.982 82.1998 238.809 81.674 238.809 80.9424V76.5116H237.835V75.4828H238.809V73.5897H240.057V75.4828H242.019V76.5116H240.057ZM246.832 81.9986C247.993 81.0658 248.903 80.3022 249.561 79.7078C250.22 79.1042 250.773 78.4778 251.221 77.8285C251.678 77.17 251.907 76.5253 251.907 75.8943C251.907 75.2999 251.761 74.8335 251.468 74.4951C251.185 74.1476 250.723 73.9738 250.083 73.9738C249.461 73.9738 248.976 74.1704 248.629 74.5637C248.29 74.9478 248.107 75.4645 248.08 76.1138H246.873C246.909 75.0895 247.22 74.2985 247.805 73.7406C248.391 73.1828 249.145 72.9038 250.069 72.9038C251.011 72.9038 251.756 73.1645 252.305 73.6857C252.863 74.207 253.142 74.9249 253.142 75.8394C253.142 76.5985 252.913 77.3392 252.456 78.0617C252.008 78.775 251.495 79.406 250.919 79.9547C250.343 80.4943 249.607 81.1253 248.711 81.8477H253.43V82.8903H246.832V81.9986ZM254.873 77.9382C254.873 76.3653 255.129 75.1398 255.641 74.2619C256.153 73.3748 257.049 72.9313 258.33 72.9313C259.601 72.9313 260.492 73.3748 261.004 74.2619C261.517 75.1398 261.773 76.3653 261.773 77.9382C261.773 79.5386 261.517 80.7823 261.004 81.6694C260.492 82.5565 259.601 83 258.33 83C257.049 83 256.153 82.5565 255.641 81.6694C255.129 80.7823 254.873 79.5386 254.873 77.9382ZM260.538 77.9382C260.538 77.1426 260.483 76.4704 260.373 75.9217C260.273 75.3639 260.058 74.9158 259.729 74.5774C259.409 74.239 258.942 74.0698 258.33 74.0698C257.708 74.0698 257.232 74.239 256.903 74.5774C256.583 74.9158 256.368 75.3639 256.258 75.9217C256.158 76.4704 256.107 77.1426 256.107 77.9382C256.107 78.7613 256.158 79.4517 256.258 80.0096C256.368 80.5674 256.583 81.0155 256.903 81.3539C257.232 81.6923 257.708 81.8614 258.33 81.8614C258.942 81.8614 259.409 81.6923 259.729 81.3539C260.058 81.0155 260.273 80.5674 260.373 80.0096C260.483 79.4517 260.538 78.7613 260.538 77.9382ZM263.335 81.9986C264.497 81.0658 265.407 80.3022 266.065 79.7078C266.724 79.1042 267.277 78.4778 267.725 77.8285C268.182 77.17 268.411 76.5253 268.411 75.8943C268.411 75.2999 268.265 74.8335 267.972 74.4951C267.689 74.1476 267.227 73.9738 266.587 73.9738C265.965 73.9738 265.48 74.1704 265.132 74.5637C264.794 74.9478 264.611 75.4645 264.584 76.1138H263.377C263.413 75.0895 263.724 74.2985 264.309 73.7406C264.895 73.1828 265.649 72.9038 266.573 72.9038C267.515 72.9038 268.26 73.1645 268.809 73.6857C269.367 74.207 269.646 74.9249 269.646 75.8394C269.646 76.5985 269.417 77.3392 268.96 78.0617C268.512 78.775 267.999 79.406 267.423 79.9547C266.847 80.4943 266.111 81.1253 265.215 81.8477H269.934V82.8903H263.335V81.9986ZM271.047 74.2207V73.0822H273.626V83H272.364V74.2207H271.047Z" fill="#161925"/>
<path d="M154.201 76.5116V80.9424C154.201 81.3082 154.279 81.5688 154.435 81.7243C154.59 81.8706 154.86 81.9437 155.244 81.9437H156.163V83H155.038C154.343 83 153.822 82.84 153.474 82.5199C153.127 82.1998 152.953 81.674 152.953 80.9424V76.5116H151.979V75.4828H152.953V73.5897H154.201V75.4828H156.163V76.5116H154.201ZM160.954 83.1235C160.25 83.1235 159.61 82.9634 159.033 82.6433C158.467 82.3233 158.018 81.8706 157.689 81.2853C157.369 80.6909 157.209 80.005 157.209 79.2277C157.209 78.4595 157.374 77.7827 157.703 77.1975C158.041 76.603 158.499 76.1503 159.075 75.8394C159.651 75.5193 160.296 75.3593 161.009 75.3593C161.722 75.3593 162.367 75.5193 162.943 75.8394C163.519 76.1503 163.972 76.5985 164.301 77.1837C164.639 77.769 164.809 78.4503 164.809 79.2277C164.809 80.005 164.635 80.6909 164.287 81.2853C163.949 81.8706 163.487 82.3233 162.902 82.6433C162.317 82.9634 161.667 83.1235 160.954 83.1235ZM160.954 82.0261C161.402 82.0261 161.823 81.9209 162.216 81.7105C162.609 81.5002 162.925 81.1847 163.162 80.764C163.409 80.3434 163.533 79.8312 163.533 79.2277C163.533 78.6241 163.414 78.112 163.176 77.6913C162.938 77.2706 162.628 76.9597 162.243 76.7585C161.859 76.5482 161.443 76.443 160.995 76.443C160.538 76.443 160.117 76.5482 159.733 76.7585C159.358 76.9597 159.056 77.2706 158.828 77.6913C158.599 78.112 158.485 78.6241 158.485 79.2277C158.485 79.8404 158.595 80.3571 158.814 80.7777C159.043 81.1984 159.344 81.5139 159.719 81.7243C160.094 81.9255 160.506 82.0261 160.954 82.0261Z" fill="#BBBBBB"/>
<rect x="23.78" y="59.78" width="264.94" height="37.44" rx="18.72" stroke="#F0F0F0" stroke-width="1.56"/>
<path d="M33.502 38.098C32.5967 38.098 31.7707 37.888 31.024 37.468C30.2773 37.0387 29.6847 36.446 29.246 35.69C28.8167 34.9247 28.602 34.066 28.602 33.114C28.602 32.162 28.8167 31.308 29.246 30.552C29.6847 29.7867 30.2773 29.194 31.024 28.774C31.7707 28.3447 32.5967 28.13 33.502 28.13C34.4167 28.13 35.2473 28.3447 35.994 28.774C36.7407 29.194 37.3287 29.782 37.758 30.538C38.1873 31.294 38.402 32.1527 38.402 33.114C38.402 34.0753 38.1873 34.934 37.758 35.69C37.3287 36.446 36.7407 37.0387 35.994 37.468C35.2473 37.888 34.4167 38.098 33.502 38.098ZM33.502 36.992C34.1833 36.992 34.7947 36.8333 35.336 36.516C35.8867 36.1987 36.316 35.746 36.624 35.158C36.9413 34.57 37.1 33.8887 37.1 33.114C37.1 32.33 36.9413 31.6487 36.624 31.07C36.316 30.482 35.8913 30.0293 35.35 29.712C34.8087 29.3947 34.1927 29.236 33.502 29.236C32.8113 29.236 32.1953 29.3947 31.654 29.712C31.1127 30.0293 30.6833 30.482 30.366 31.07C30.058 31.6487 29.904 32.33 29.904 33.114C29.904 33.8887 30.058 34.57 30.366 35.158C30.6833 35.746 31.1127 36.1987 31.654 36.516C32.2047 36.8333 32.8207 36.992 33.502 36.992ZM41.3579 31.742C41.6099 31.3033 41.9832 30.9393 42.4779 30.65C42.9819 30.3513 43.5652 30.202 44.2279 30.202C44.9092 30.202 45.5252 30.3653 46.0759 30.692C46.6359 31.0187 47.0745 31.4807 47.3919 32.078C47.7092 32.666 47.8679 33.352 47.8679 34.136C47.8679 34.9107 47.7092 35.6013 47.3919 36.208C47.0745 36.8147 46.6359 37.286 46.0759 37.622C45.5252 37.958 44.9092 38.126 44.2279 38.126C43.5745 38.126 42.9959 37.9813 42.4919 37.692C41.9972 37.3933 41.6192 37.0247 41.3579 36.586V41.64H40.0839V30.328H41.3579V31.742ZM46.5659 34.136C46.5659 33.5573 46.4492 33.0533 46.2159 32.624C45.9825 32.1947 45.6652 31.868 45.2639 31.644C44.8719 31.42 44.4379 31.308 43.9619 31.308C43.4952 31.308 43.0612 31.4247 42.6599 31.658C42.2679 31.882 41.9505 32.2133 41.7079 32.652C41.4745 33.0813 41.3579 33.5807 41.3579 34.15C41.3579 34.7287 41.4745 35.2373 41.7079 35.676C41.9505 36.1053 42.2679 36.4367 42.6599 36.67C43.0612 36.894 43.4952 37.006 43.9619 37.006C44.4379 37.006 44.8719 36.894 45.2639 36.67C45.6652 36.4367 45.9825 36.1053 46.2159 35.676C46.4492 35.2373 46.5659 34.724 46.5659 34.136ZM56.5448 33.87C56.5448 34.1127 56.5308 34.3693 56.5028 34.64H50.3708C50.4175 35.396 50.6741 35.9887 51.1408 36.418C51.6168 36.838 52.1908 37.048 52.8628 37.048C53.4135 37.048 53.8708 36.922 54.2348 36.67C54.6081 36.4087 54.8695 36.0633 55.0188 35.634H56.3908C56.1855 36.3713 55.7748 36.9733 55.1588 37.44C54.5428 37.8973 53.7775 38.126 52.8628 38.126C52.1348 38.126 51.4815 37.9627 50.9028 37.636C50.3335 37.3093 49.8855 36.8473 49.5588 36.25C49.2321 35.6433 49.0688 34.9433 49.0688 34.15C49.0688 33.3567 49.2275 32.6613 49.5448 32.064C49.8621 31.4667 50.3055 31.0093 50.8748 30.692C51.4535 30.3653 52.1161 30.202 52.8628 30.202C53.5908 30.202 54.2348 30.3607 54.7948 30.678C55.3548 30.9953 55.7841 31.434 56.0828 31.994C56.3908 32.5447 56.5448 33.17 56.5448 33.87ZM55.2288 33.604C55.2288 33.1187 55.1215 32.7033 54.9068 32.358C54.6921 32.0033 54.3981 31.7373 54.0248 31.56C53.6608 31.3733 53.2548 31.28 52.8068 31.28C52.1628 31.28 51.6121 31.4853 51.1548 31.896C50.7068 32.3067 50.4501 32.876 50.3848 33.604H55.2288ZM61.9644 30.188C62.8978 30.188 63.6538 30.4727 64.2324 31.042C64.8111 31.602 65.1004 32.414 65.1004 33.478V38H63.8404V33.66C63.8404 32.8947 63.6491 32.3113 63.2664 31.91C62.8838 31.4993 62.3611 31.294 61.6984 31.294C61.0264 31.294 60.4898 31.504 60.0884 31.924C59.6964 32.344 59.5004 32.9553 59.5004 33.758V38H58.2264V30.328H59.5004V31.42C59.7524 31.028 60.0931 30.7247 60.5224 30.51C60.9611 30.2953 61.4418 30.188 61.9644 30.188ZM74.0359 31.378H72.4259V38H71.1519V31.378H70.1579V30.328H71.1519V29.782C71.1519 28.9233 71.3713 28.298 71.8099 27.906C72.2579 27.5047 72.9719 27.304 73.9519 27.304V28.368C73.3919 28.368 72.9953 28.48 72.7619 28.704C72.5379 28.9187 72.4259 29.278 72.4259 29.782V30.328H74.0359V31.378ZM78.8674 38.126C78.1487 38.126 77.4954 37.9627 76.9074 37.636C76.3287 37.3093 75.8714 36.8473 75.5354 36.25C75.2087 35.6433 75.0454 34.9433 75.0454 34.15C75.0454 33.366 75.2134 32.6753 75.5494 32.078C75.8947 31.4713 76.3614 31.0093 76.9494 30.692C77.5374 30.3653 78.1954 30.202 78.9234 30.202C79.6514 30.202 80.3094 30.3653 80.8974 30.692C81.4854 31.0093 81.9474 31.4667 82.2834 32.064C82.6287 32.6613 82.8014 33.3567 82.8014 34.15C82.8014 34.9433 82.624 35.6433 82.2694 36.25C81.924 36.8473 81.4527 37.3093 80.8554 37.636C80.258 37.9627 79.5954 38.126 78.8674 38.126ZM78.8674 37.006C79.3247 37.006 79.754 36.8987 80.1554 36.684C80.5567 36.4693 80.8787 36.1473 81.1214 35.718C81.3734 35.2887 81.4994 34.766 81.4994 34.15C81.4994 33.534 81.378 33.0113 81.1354 32.582C80.8927 32.1527 80.5754 31.8353 80.1834 31.63C79.7914 31.4153 79.3667 31.308 78.9094 31.308C78.4427 31.308 78.0134 31.4153 77.6214 31.63C77.2387 31.8353 76.9307 32.1527 76.6974 32.582C76.464 33.0113 76.3474 33.534 76.3474 34.15C76.3474 34.7753 76.4594 35.3027 76.6834 35.732C76.9167 36.1613 77.2247 36.4833 77.6074 36.698C77.99 36.9033 78.41 37.006 78.8674 37.006ZM85.7504 31.574C85.9744 31.1353 86.2918 30.7947 86.7024 30.552C87.1224 30.3093 87.6311 30.188 88.2284 30.188V31.504H87.8924C86.4644 31.504 85.7504 32.2787 85.7504 33.828V38H84.4764V30.328H85.7504V31.574ZM93.8375 38.084C93.5948 38.084 93.3895 38 93.2215 37.832C93.0535 37.664 92.9695 37.4587 92.9695 37.216C92.9695 36.9733 93.0535 36.768 93.2215 36.6C93.3895 36.432 93.5948 36.348 93.8375 36.348C94.0708 36.348 94.2668 36.432 94.4255 36.6C94.5935 36.768 94.6775 36.9733 94.6775 37.216C94.6775 37.4587 94.5935 37.664 94.4255 37.832C94.2668 38 94.0708 38.084 93.8375 38.084ZM93.8375 32.092C93.5948 32.092 93.3895 32.008 93.2215 31.84C93.0535 31.672 92.9695 31.4667 92.9695 31.224C92.9695 30.9813 93.0535 30.776 93.2215 30.608C93.3895 30.44 93.5948 30.356 93.8375 30.356C94.0708 30.356 94.2668 30.44 94.4255 30.608C94.5935 30.776 94.6775 30.9813 94.6775 31.224C94.6775 31.4667 94.5935 31.672 94.4255 31.84C94.2668 32.008 94.0708 32.092 93.8375 32.092Z" fill="#525AF2"/>
<path d="M105.576 30.286C105.371 29.25 104.732 28.732 103.658 28.732C102.828 28.732 102.207 29.054 101.796 29.698C101.386 30.3327 101.185 31.3827 101.194 32.848C101.409 32.3627 101.764 31.9847 102.258 31.714C102.762 31.434 103.322 31.294 103.938 31.294C104.9 31.294 105.665 31.5927 106.234 32.19C106.813 32.7873 107.102 33.6133 107.102 34.668C107.102 35.3027 106.976 35.872 106.724 36.376C106.482 36.88 106.108 37.2813 105.604 37.58C105.11 37.8787 104.508 38.028 103.798 38.028C102.837 38.028 102.086 37.8133 101.544 37.384C101.003 36.9547 100.625 36.362 100.41 35.606C100.196 34.85 100.088 33.9167 100.088 32.806C100.088 29.3807 101.283 27.668 103.672 27.668C104.587 27.668 105.306 27.9153 105.828 28.41C106.351 28.9047 106.659 29.53 106.752 30.286H105.576ZM103.672 32.372C103.271 32.372 102.893 32.456 102.538 32.624C102.184 32.7827 101.894 33.03 101.67 33.366C101.456 33.6927 101.348 34.094 101.348 34.57C101.348 35.2793 101.554 35.858 101.964 36.306C102.375 36.7447 102.963 36.964 103.728 36.964C104.382 36.964 104.9 36.7633 105.282 36.362C105.674 35.9513 105.87 35.4007 105.87 34.71C105.87 33.982 105.684 33.4127 105.31 33.002C104.937 32.582 104.391 32.372 103.672 32.372ZM112.288 34.136C112.288 33.352 112.446 32.666 112.764 32.078C113.081 31.4807 113.515 31.0187 114.066 30.692C114.626 30.3653 115.251 30.202 115.942 30.202C116.539 30.202 117.094 30.342 117.608 30.622C118.121 30.8927 118.513 31.252 118.784 31.7V27.64H120.072V38H118.784V36.558C118.532 37.0153 118.158 37.3933 117.664 37.692C117.169 37.9813 116.59 38.126 115.928 38.126C115.246 38.126 114.626 37.958 114.066 37.622C113.515 37.286 113.081 36.8147 112.764 36.208C112.446 35.6013 112.288 34.9107 112.288 34.136ZM118.784 34.15C118.784 33.5713 118.667 33.0673 118.434 32.638C118.2 32.2087 117.883 31.882 117.482 31.658C117.09 31.4247 116.656 31.308 116.18 31.308C115.704 31.308 115.27 31.42 114.878 31.644C114.486 31.868 114.173 32.1947 113.94 32.624C113.706 33.0533 113.59 33.5573 113.59 34.136C113.59 34.724 113.706 35.2373 113.94 35.676C114.173 36.1053 114.486 36.4367 114.878 36.67C115.27 36.894 115.704 37.006 116.18 37.006C116.656 37.006 117.09 36.894 117.482 36.67C117.883 36.4367 118.2 36.1053 118.434 35.676C118.667 35.2373 118.784 34.7287 118.784 34.15ZM121.748 34.136C121.748 33.352 121.907 32.666 122.224 32.078C122.542 31.4807 122.976 31.0187 123.526 30.692C124.086 30.3653 124.707 30.202 125.388 30.202C126.06 30.202 126.644 30.3467 127.138 30.636C127.633 30.9253 128.002 31.2893 128.244 31.728V30.328H129.532V38H128.244V36.572C127.992 37.02 127.614 37.3933 127.11 37.692C126.616 37.9813 126.037 38.126 125.374 38.126C124.693 38.126 124.077 37.958 123.526 37.622C122.976 37.286 122.542 36.8147 122.224 36.208C121.907 35.6013 121.748 34.9107 121.748 34.136ZM128.244 34.15C128.244 33.5713 128.128 33.0673 127.894 32.638C127.661 32.2087 127.344 31.882 126.942 31.658C126.55 31.4247 126.116 31.308 125.64 31.308C125.164 31.308 124.73 31.42 124.338 31.644C123.946 31.868 123.634 32.1947 123.4 32.624C123.167 33.0533 123.05 33.5573 123.05 34.136C123.05 34.724 123.167 35.2373 123.4 35.676C123.634 36.1053 123.946 36.4367 124.338 36.67C124.73 36.894 125.164 37.006 125.64 37.006C126.116 37.006 126.55 36.894 126.942 36.67C127.344 36.4367 127.661 36.1053 127.894 35.676C128.128 35.2373 128.244 34.7287 128.244 34.15ZM138.293 30.328L133.673 41.612H132.357L133.869 37.916L130.775 30.328H132.189L134.597 36.544L136.977 30.328H138.293ZM142.29 38.126C141.702 38.126 141.175 38.028 140.708 37.832C140.241 37.6267 139.873 37.3467 139.602 36.992C139.331 36.628 139.182 36.2127 139.154 35.746H140.47C140.507 36.1287 140.685 36.4413 141.002 36.684C141.329 36.9267 141.753 37.048 142.276 37.048C142.761 37.048 143.144 36.9407 143.424 36.726C143.704 36.5113 143.844 36.2407 143.844 35.914C143.844 35.578 143.695 35.3307 143.396 35.172C143.097 35.004 142.635 34.8407 142.01 34.682C141.441 34.5327 140.974 34.3833 140.61 34.234C140.255 34.0753 139.947 33.8467 139.686 33.548C139.434 33.24 139.308 32.8387 139.308 32.344C139.308 31.952 139.425 31.5927 139.658 31.266C139.891 30.9393 140.223 30.6827 140.652 30.496C141.081 30.3 141.571 30.202 142.122 30.202C142.971 30.202 143.657 30.4167 144.18 30.846C144.703 31.2753 144.983 31.8633 145.02 32.61H143.746C143.718 32.2087 143.555 31.8867 143.256 31.644C142.967 31.4013 142.575 31.28 142.08 31.28C141.623 31.28 141.259 31.378 140.988 31.574C140.717 31.77 140.582 32.0267 140.582 32.344C140.582 32.596 140.661 32.806 140.82 32.974C140.988 33.1327 141.193 33.2633 141.436 33.366C141.688 33.4593 142.033 33.5667 142.472 33.688C143.023 33.8373 143.471 33.9867 143.816 34.136C144.161 34.276 144.455 34.4907 144.698 34.78C144.95 35.0693 145.081 35.4473 145.09 35.914C145.09 36.334 144.973 36.712 144.74 37.048C144.507 37.384 144.175 37.65 143.746 37.846C143.326 38.0327 142.841 38.126 142.29 38.126Z" fill="#BBBBBB"/>
</g>
</g>
</g>
<defs>
<filter id="filter0_d_6556_221085" x="-21" y="-17" width="372" height="182" filterUnits="userSpaceOnUse" color-interpolation-filters="sRGB">
<feFlood flood-opacity="0" result="BackgroundImageFix"/>
<feColorMatrix in="SourceAlpha" type="matrix" values="0 0 0 0 0 0 0 0 0 0 0 0 0 0 0 0 0 0 127 0" result="hardAlpha"/>
<feOffset dy="4"/>
<feGaussianBlur stdDeviation="10.5"/>
<feComposite in2="hardAlpha" operator="out"/>
<feColorMatrix type="matrix" values="0 0 0 0 0.7125 0 0 0 0 0.7125 0 0 0 0 0.7125 0 0 0 0.26 0"/>
<feBlend mode="normal" in2="BackgroundImageFix" result="effect1_dropShadow_6556_221085"/>
<feBlend mode="normal" in="SourceGraphic" in2="effect1_dropShadow_6556_221085" result="shape"/>
</filter>
<clipPath id="clip0_6556_221085">
<rect width="1440" height="4496" fill="white" transform="translate(-947 -2099)"/>
</clipPath>
<clipPath id="clip1_6556_221085">
<path d="M0 0H330V125C330 133.284 323.284 140 315 140H15C6.71573 140 0 133.284 0 125V0Z" fill="white"/>
</clipPath>
</defs>
</svg>
