<svg width="101" height="47" viewBox="0 0 101 47" fill="none" xmlns="http://www.w3.org/2000/svg">
<path d="M16.6263 26.1621C14.9572 34.1394 12.9607 36.5231 12.9607 36.5231L6.96056 33.0381C6.96056 33.0381 8.96249 29.4126 9.78845 23.3391C10.3881 18.93 9.96535 13.4491 9.96535 13.4491L16.3679 9.72603C16.3679 9.72603 17.9969 19.6113 16.6263 26.1621Z" fill="url(#paint0_linear_7058_5636)"/>
<path d="M23.5417 23.9386C24.8548 15.0669 27.4078 11.7136 27.4078 11.7136L33.5972 15.2049C33.5972 15.2049 32.1268 17.7491 30.7765 24.906C29.9656 29.2035 30.5749 34.8162 30.5749 34.8162L24.3776 38.5043C24.3776 38.5043 22.7787 29.0931 23.5417 23.9386Z" fill="#122C7B"/>
<path d="M22.6527 21.6435C15.4463 16.161 12.9627 11.6955 12.9627 11.6955L19.2244 8.05323C19.2244 8.05323 20.5784 11.1445 26.8638 15.7044C30.4018 18.2711 34.6751 20.3572 34.6751 20.3572L34.7197 28.3568C34.7197 28.3568 27.0954 25.0235 22.6527 21.6435Z" fill="url(#paint1_linear_7058_5636)"/>
<path d="M17.5201 26.1947C10.2142 21.0023 5.76029 20.4385 5.76029 20.4385L5.76029 27.7216C5.76029 27.7216 8.56688 28.5866 14.4187 32.9158C17.9326 35.5154 21.3715 40.2706 21.3715 40.2706L27.5353 36.5619C27.5353 36.5619 22.9723 30.0697 17.5201 26.1947Z" fill="url(#paint2_linear_7058_5636)"/>
<path d="M20.5515 27.5959C12.4366 31.3992 9.38693 34.4148 9.38693 34.4148L16.0826 38.5898C16.0826 38.5898 18.8328 36.211 25.4805 33.2486C29.4723 31.4697 34.6862 31.1795 34.6862 31.1795L34.6862 23.9515C34.6862 23.9515 26.6074 24.7576 20.5515 27.5959Z" fill="url(#paint3_linear_7058_5636)"/>
<path d="M34.7195 28.356C34.7195 28.356 27.0953 25.0228 22.6525 21.6428L20.4132 20.0097L26.1557 15.2422L28.8355 17.0458C31.8138 18.9597 34.675 20.3565 34.675 20.3565L34.7195 28.356Z" fill="url(#paint4_linear_7058_5636)"/>
<path d="M24.3778 38.504C24.3778 38.504 22.7789 29.0927 23.5418 23.9382C23.6175 23.4272 23.6972 22.9344 23.7804 22.4596C25.9674 23.7564 30.3849 26.3507 30.559 26.353C30.0917 30.3631 30.5751 34.8158 30.5751 34.8158L24.3778 38.504Z" fill="url(#paint5_linear_7058_5636)"/>
<path d="M19.2416 20.8763C10.8846 24.3576 5.7793 24.263 5.7793 24.263V17.0143C5.7793 17.0143 9.1249 17.2387 16.2272 14.2479C20.2548 12.5518 24.1714 9.82617 24.1714 9.82617L31.104 13.8072C31.104 13.8072 24.3936 18.73 19.2416 20.8763Z" fill="#525AF2"/>
<path d="M45.2598 14.3527C45.9266 14.3527 46.4653 14.5451 46.8757 14.9298C47.2861 15.306 47.4913 15.7977 47.4913 16.4047C47.4913 17.0032 47.2861 17.4948 46.8757 17.8796C46.4653 18.2558 45.9266 18.4439 45.2598 18.4439C44.5929 18.4439 44.0542 18.2558 43.6438 17.8796C43.242 17.4948 43.041 17.0032 43.041 16.4047C43.041 15.7977 43.242 15.306 43.6438 14.9298C44.0542 14.5451 44.5929 14.3527 45.2598 14.3527ZM43.2719 33.8594V19.9828H47.2861V33.8594H43.2719ZM58.9942 19.7263C60.3793 19.7263 61.4523 20.1453 62.2132 20.9832C62.9827 21.8211 63.3675 23.1933 63.3675 25.1V33.8594H59.3533V25.0743C59.3533 24.2706 59.1823 23.7192 58.8403 23.4199C58.5068 23.1121 57.981 22.9582 57.2628 22.9582C56.3138 22.9582 55.6041 23.343 55.1339 24.1125V33.8594H51.1454V19.9828H54.8902L55.0313 21.586C55.5101 20.9789 56.0829 20.5172 56.7498 20.2009C57.4253 19.8845 58.1734 19.7263 58.9942 19.7263ZM71.6513 28.3447C70.138 28.0198 68.941 27.5153 68.0604 26.8313C67.1883 26.1473 66.7522 25.2325 66.7522 24.0868C66.7522 23.3002 66.9745 22.5735 67.4191 21.9066C67.8723 21.2397 68.5221 20.7096 69.3685 20.3163C70.2235 19.923 71.2238 19.7263 72.3695 19.7263C73.5665 19.7263 74.6096 19.9187 75.4988 20.3035C76.3965 20.6797 77.0848 21.2098 77.5636 21.8938C78.051 22.5692 78.2946 23.3472 78.2946 24.2279H74.2933C74.2933 23.6807 74.1351 23.2575 73.8187 22.9582C73.5109 22.659 73.0236 22.5093 72.3567 22.5093C71.8181 22.5093 71.382 22.6376 71.0486 22.8941C70.7237 23.1506 70.5612 23.4798 70.5612 23.8816C70.5612 24.2749 70.7493 24.5955 71.1255 24.8435C71.5017 25.0829 72.1301 25.2838 73.0108 25.4462C74.0966 25.6429 75.02 25.9037 75.7809 26.2286C76.5504 26.5535 77.1618 27.0109 77.6149 27.6008C78.0766 28.1822 78.3074 28.9303 78.3074 29.8452C78.3074 30.6574 78.0638 31.3884 77.5764 32.0382C77.0891 32.688 76.3965 33.1968 75.4988 33.5644C74.6011 33.932 73.558 34.1159 72.3695 34.1159C71.1212 34.1159 70.0354 33.8893 69.112 33.4362C68.1972 32.9745 67.5003 32.3845 67.0215 31.6663C66.5427 30.9396 66.3034 30.1915 66.3034 29.422H70.0739C70.0995 30.0547 70.3304 30.5292 70.7664 30.8455C71.2025 31.1619 71.7668 31.32 72.4593 31.32C73.092 31.32 73.5793 31.2003 73.9213 30.9609C74.2719 30.713 74.4472 30.3838 74.4472 29.9734C74.4472 29.7169 74.3659 29.4989 74.2035 29.3194C74.0496 29.1398 73.7717 28.9731 73.3699 28.8192C72.968 28.6653 72.3952 28.5071 71.6513 28.3447ZM81.0253 26.7929C81.0253 25.4334 81.2818 24.2193 81.7948 23.1506C82.3163 22.0818 83.073 21.244 84.0648 20.6369C85.0651 20.0299 86.2579 19.7263 87.6429 19.7263C89.0366 19.7263 90.2336 20.0299 91.2339 20.6369C92.2343 21.244 92.9909 22.0818 93.5039 23.1506C94.0255 24.2108 94.2862 25.4249 94.2862 26.7929V27.0622C94.2862 28.4216 94.0255 29.6357 93.5039 30.7045C92.9909 31.7732 92.2343 32.6111 91.2339 33.2181C90.2421 33.8166 89.0537 34.1159 87.6686 34.1159C86.275 34.1159 85.078 33.8166 84.0776 33.2181C83.0773 32.6111 82.3163 31.7775 81.7948 30.7173C81.2818 29.6485 81.0253 28.4302 81.0253 27.0622V26.7929ZM85.0267 27.0622C85.0267 28.2335 85.2319 29.1655 85.6423 29.858C86.0612 30.542 86.7367 30.884 87.6686 30.884C88.5834 30.884 89.2461 30.5377 89.6565 29.8452C90.0754 29.1526 90.2849 28.225 90.2849 27.0622V26.7929C90.2849 25.6472 90.0754 24.7238 89.6565 24.0227C89.2461 23.313 88.5749 22.9582 87.6429 22.9582C86.7281 22.9582 86.0612 23.313 85.6423 24.0227C85.2319 24.7238 85.0267 25.6472 85.0267 26.7929V27.0622Z" fill="#525AF2"/>
<defs>
<linearGradient id="paint0_linear_7058_5636" x1="13.1467" y1="11.1577" x2="8.99374" y2="34.2951" gradientUnits="userSpaceOnUse">
<stop stop-color="#0D2663"/>
<stop offset="1" stop-color="#0B1063"/>
</linearGradient>
<linearGradient id="paint1_linear_7058_5636" x1="23.7572" y1="13.2327" x2="15.2148" y2="7.40236" gradientUnits="userSpaceOnUse">
<stop stop-color="#324BCA"/>
<stop offset="1" stop-color="#292F9D"/>
</linearGradient>
<linearGradient id="paint2_linear_7058_5636" x1="3.62537" y1="23.8869" x2="24.4024" y2="39.1661" gradientUnits="userSpaceOnUse">
<stop stop-color="#1F2489"/>
<stop offset="1" stop-color="#282FAA"/>
</linearGradient>
<linearGradient id="paint3_linear_7058_5636" x1="35.1054" y1="27.5447" x2="12.9298" y2="37.0601" gradientUnits="userSpaceOnUse">
<stop stop-color="#122C7B"/>
<stop offset="1" stop-color="#525AF2"/>
</linearGradient>
<linearGradient id="paint4_linear_7058_5636" x1="37.4592" y1="25.7155" x2="20.5154" y2="14.3712" gradientUnits="userSpaceOnUse">
<stop stop-color="#4E56F9"/>
<stop offset="1" stop-color="#292F9D"/>
</linearGradient>
<linearGradient id="paint5_linear_7058_5636" x1="27.7274" y1="38.8675" x2="27.1994" y2="21.4257" gradientUnits="userSpaceOnUse">
<stop stop-color="#525AF2"/>
<stop offset="0.0001" stop-color="white"/>
<stop offset="0.0002" stop-color="#525AF2"/>
<stop offset="1" stop-color="#3A41D1"/>
</linearGradient>
</defs>
</svg>
