<svg width="330" height="140" viewBox="0 0 330 140" fill="none" xmlns="http://www.w3.org/2000/svg">
<rect width="330" height="140" fill="#CBCBCB"/>
<g clip-path="url(#clip0_6556_221085)">
<rect width="1440" height="4496" transform="translate(-554 -2098)" fill="white"/>
<rect x="-554" y="-421" width="1440" height="760" fill="#FFCD65"/>
<g filter="url(#filter0_d_6556_221085)">
<g clip-path="url(#clip1_6556_221085)">
<path d="M0 0H330V125C330 133.284 323.284 140 315 140H15C6.71573 140 0 133.284 0 125V0Z" fill="white"/>
<rect x="-29" width="393" height="8" fill="#525AF2"/>
<g clip-path="url(#clip2_6556_221085)">
<rect x="15" y="16" width="301" height="112" rx="6.4" fill="white"/>
<path d="M37.7824 29.9632V31.0288H33.4192V34.4128H36.9616V35.4784H33.4192V40H32.1088V29.9632H37.7824ZM42.8067 40.1296C42.0675 40.1296 41.3955 39.9616 40.7907 39.6256C40.1955 39.2896 39.7251 38.8144 39.3795 38.2C39.0435 37.576 38.8755 36.856 38.8755 36.04C38.8755 35.2336 39.0483 34.5232 39.3939 33.9088C39.7491 33.2848 40.2291 32.8096 40.8339 32.4832C41.4387 32.1472 42.1155 31.9792 42.8643 31.9792C43.6131 31.9792 44.2899 32.1472 44.8947 32.4832C45.4995 32.8096 45.9747 33.28 46.3203 33.8944C46.6755 34.5088 46.8531 35.224 46.8531 36.04C46.8531 36.856 46.6707 37.576 46.3059 38.2C45.9507 38.8144 45.4659 39.2896 44.8515 39.6256C44.2371 39.9616 43.5555 40.1296 42.8067 40.1296ZM42.8067 38.9776C43.2771 38.9776 43.7187 38.8672 44.1315 38.6464C44.5443 38.4256 44.8755 38.0944 45.1251 37.6528C45.3843 37.2112 45.5139 36.6736 45.5139 36.04C45.5139 35.4064 45.3891 34.8688 45.1395 34.4272C44.8899 33.9856 44.5635 33.6592 44.1603 33.448C43.7571 33.2272 43.3203 33.1168 42.8499 33.1168C42.3699 33.1168 41.9283 33.2272 41.5251 33.448C41.1315 33.6592 40.8147 33.9856 40.5747 34.4272C40.3347 34.8688 40.2147 35.4064 40.2147 36.04C40.2147 36.6832 40.3299 37.2256 40.5603 37.6672C40.8003 38.1088 41.1171 38.44 41.5107 38.6608C41.9043 38.872 42.3363 38.9776 42.8067 38.9776ZM49.8864 33.3904C50.1168 32.9392 50.4432 32.5888 50.8656 32.3392C51.2976 32.0896 51.8208 31.9648 52.4352 31.9648V33.3184H52.0896C50.6208 33.3184 49.8864 34.1152 49.8864 35.7088V40H48.576V32.1088H49.8864V33.3904ZM59.3853 33.1888V37.84C59.3853 38.224 59.4669 38.4976 59.6301 38.6608C59.7933 38.8144 60.0765 38.8912 60.4797 38.8912H61.4445V40H60.2637C59.5341 40 58.9869 39.832 58.6221 39.496C58.2573 39.16 58.0749 38.608 58.0749 37.84V33.1888H57.0525V32.1088H58.0749V30.1216H59.3853V32.1088H61.4445V33.1888H59.3853ZM66.949 31.9648C67.5442 31.9648 68.0818 32.0944 68.5618 32.3536C69.0418 32.6032 69.4162 32.9824 69.685 33.4912C69.9634 34 70.1026 34.6192 70.1026 35.3488V40H68.8066V35.536C68.8066 34.7488 68.6098 34.1488 68.2162 33.736C67.8226 33.3136 67.285 33.1024 66.6034 33.1024C65.9122 33.1024 65.3602 33.3184 64.9474 33.7504C64.5442 34.1824 64.3426 34.8112 64.3426 35.6368V40H63.0322V29.344H64.3426V33.232C64.6018 32.8288 64.957 32.5168 65.4082 32.296C65.869 32.0752 66.3826 31.9648 66.949 31.9648ZM72.92 30.8272C72.6704 30.8272 72.4592 30.7408 72.2864 30.568C72.1136 30.3952 72.0272 30.184 72.0272 29.9344C72.0272 29.6848 72.1136 29.4736 72.2864 29.3008C72.4592 29.128 72.6704 29.0416 72.92 29.0416C73.16 29.0416 73.3616 29.128 73.5248 29.3008C73.6976 29.4736 73.784 29.6848 73.784 29.9344C73.784 30.184 73.6976 30.3952 73.5248 30.568C73.3616 30.7408 73.16 30.8272 72.92 30.8272ZM73.5536 32.1088V40H72.2432V32.1088H73.5536ZM78.5805 40.1296C77.9757 40.1296 77.4333 40.0288 76.9533 39.8272C76.4733 39.616 76.0941 39.328 75.8157 38.9632C75.5373 38.5888 75.3837 38.1616 75.3549 37.6816H76.7085C76.7469 38.0752 76.9293 38.3968 77.2557 38.6464C77.5917 38.896 78.0285 39.0208 78.5661 39.0208C79.0653 39.0208 79.4589 38.9104 79.7469 38.6896C80.0349 38.4688 80.1789 38.1904 80.1789 37.8544C80.1789 37.5088 80.0253 37.2544 79.7181 37.0912C79.4109 36.9184 78.9357 36.7504 78.2925 36.5872C77.7069 36.4336 77.2269 36.28 76.8525 36.1264C76.4877 35.9632 76.1709 35.728 75.9021 35.4208C75.6429 35.104 75.5133 34.6912 75.5133 34.1824C75.5133 33.7792 75.6333 33.4096 75.8733 33.0736C76.1133 32.7376 76.4541 32.4736 76.8957 32.2816C77.3373 32.08 77.8413 31.9792 78.4077 31.9792C79.2813 31.9792 79.9869 32.2 80.5245 32.6416C81.0621 33.0832 81.3501 33.688 81.3885 34.456H80.0781C80.0493 34.0432 79.8813 33.712 79.5741 33.4624C79.2765 33.2128 78.8733 33.088 78.3645 33.088C77.8941 33.088 77.5197 33.1888 77.2413 33.3904C76.9629 33.592 76.8237 33.856 76.8237 34.1824C76.8237 34.4416 76.9053 34.6576 77.0685 34.8304C77.2413 34.9936 77.4525 35.128 77.7021 35.2336C77.9613 35.3296 78.3165 35.44 78.7677 35.5648C79.3341 35.7184 79.7949 35.872 80.1501 36.0256C80.5053 36.1696 80.8077 36.3904 81.0573 36.688C81.3165 36.9856 81.4509 37.3744 81.4605 37.8544C81.4605 38.2864 81.3405 38.6752 81.1005 39.0208C80.8605 39.3664 80.5197 39.64 80.0781 39.8416C79.6461 40.0336 79.1469 40.1296 78.5805 40.1296ZM86.6598 36.0256C86.6598 35.2192 86.823 34.5136 87.1494 33.9088C87.4758 33.2944 87.9222 32.8192 88.4886 32.4832C89.0646 32.1472 89.7078 31.9792 90.4182 31.9792C91.0326 31.9792 91.6038 32.1232 92.1318 32.4112C92.6598 32.6896 93.063 33.0592 93.3414 33.52V29.344H94.6662V40H93.3414V38.5168C93.0822 38.9872 92.6982 39.376 92.1894 39.6832C91.6806 39.9808 91.0854 40.1296 90.4038 40.1296C89.703 40.1296 89.0646 39.9568 88.4886 39.6112C87.9222 39.2656 87.4758 38.7808 87.1494 38.1568C86.823 37.5328 86.6598 36.8224 86.6598 36.0256ZM93.3414 36.04C93.3414 35.4448 93.2214 34.9264 92.9814 34.4848C92.7414 34.0432 92.415 33.7072 92.0022 33.4768C91.599 33.2368 91.1526 33.1168 90.663 33.1168C90.1734 33.1168 89.727 33.232 89.3238 33.4624C88.9206 33.6928 88.599 34.0288 88.359 34.4704C88.119 34.912 87.999 35.4304 87.999 36.0256C87.999 36.6304 88.119 37.1584 88.359 37.6096C88.599 38.0512 88.9206 38.392 89.3238 38.632C89.727 38.8624 90.1734 38.9776 90.663 38.9776C91.1526 38.9776 91.599 38.8624 92.0022 38.632C92.415 38.392 92.7414 38.0512 92.9814 37.6096C93.2214 37.1584 93.3414 36.6352 93.3414 36.04ZM97.5575 30.8272C97.3079 30.8272 97.0967 30.7408 96.9239 30.568C96.7511 30.3952 96.6647 30.184 96.6647 29.9344C96.6647 29.6848 96.7511 29.4736 96.9239 29.3008C97.0967 29.128 97.3079 29.0416 97.5575 29.0416C97.7975 29.0416 97.9991 29.128 98.1623 29.3008C98.3351 29.4736 98.4215 29.6848 98.4215 29.9344C98.4215 30.184 98.3351 30.3952 98.1623 30.568C97.9991 30.7408 97.7975 30.8272 97.5575 30.8272ZM98.1911 32.1088V40H96.8807V32.1088H98.1911ZM103.218 40.1296C102.613 40.1296 102.071 40.0288 101.591 39.8272C101.111 39.616 100.732 39.328 100.453 38.9632C100.175 38.5888 100.021 38.1616 99.9924 37.6816H101.346C101.384 38.0752 101.567 38.3968 101.893 38.6464C102.229 38.896 102.666 39.0208 103.204 39.0208C103.703 39.0208 104.096 38.9104 104.384 38.6896C104.672 38.4688 104.816 38.1904 104.816 37.8544C104.816 37.5088 104.663 37.2544 104.356 37.0912C104.048 36.9184 103.573 36.7504 102.93 36.5872C102.344 36.4336 101.864 36.28 101.49 36.1264C101.125 35.9632 100.808 35.728 100.54 35.4208C100.28 35.104 100.151 34.6912 100.151 34.1824C100.151 33.7792 100.271 33.4096 100.511 33.0736C100.751 32.7376 101.092 32.4736 101.533 32.2816C101.975 32.08 102.479 31.9792 103.045 31.9792C103.919 31.9792 104.624 32.2 105.162 32.6416C105.7 33.0832 105.988 33.688 106.026 34.456H104.716C104.687 34.0432 104.519 33.712 104.212 33.4624C103.914 33.2128 103.511 33.088 103.002 33.088C102.532 33.088 102.157 33.1888 101.879 33.3904C101.6 33.592 101.461 33.856 101.461 34.1824C101.461 34.4416 101.543 34.6576 101.706 34.8304C101.879 34.9936 102.09 35.128 102.34 35.2336C102.599 35.3296 102.954 35.44 103.405 35.5648C103.972 35.7184 104.432 35.872 104.788 36.0256C105.143 36.1696 105.445 36.3904 105.695 36.688C105.954 36.9856 106.088 37.3744 106.098 37.8544C106.098 38.2864 105.978 38.6752 105.738 39.0208C105.498 39.3664 105.157 39.64 104.716 39.8416C104.284 40.0336 103.784 40.1296 103.218 40.1296ZM107.458 36.04C107.458 35.224 107.621 34.5136 107.948 33.9088C108.274 33.2944 108.725 32.8192 109.301 32.4832C109.887 32.1472 110.554 31.9792 111.303 31.9792C112.273 31.9792 113.069 32.2144 113.693 32.6848C114.327 33.1552 114.745 33.808 114.946 34.6432H113.535C113.401 34.1632 113.137 33.784 112.743 33.5056C112.359 33.2272 111.879 33.088 111.303 33.088C110.554 33.088 109.949 33.3472 109.489 33.8656C109.028 34.3744 108.797 35.0992 108.797 36.04C108.797 36.9904 109.028 37.7248 109.489 38.2432C109.949 38.7616 110.554 39.0208 111.303 39.0208C111.879 39.0208 112.359 38.8864 112.743 38.6176C113.127 38.3488 113.391 37.9648 113.535 37.4656H114.946C114.735 38.272 114.313 38.92 113.679 39.4096C113.045 39.8896 112.253 40.1296 111.303 40.1296C110.554 40.1296 109.887 39.9616 109.301 39.6256C108.725 39.2896 108.274 38.8144 107.948 38.2C107.621 37.5856 107.458 36.8656 107.458 36.04ZM123.693 32.1088V40H122.383V38.8336C122.133 39.2368 121.783 39.5536 121.332 39.784C120.89 40.0048 120.4 40.1152 119.863 40.1152C119.248 40.1152 118.696 39.9904 118.207 39.7408C117.717 39.4816 117.328 39.0976 117.04 38.5888C116.762 38.08 116.623 37.4608 116.623 36.7312V32.1088H117.919V36.5584C117.919 37.336 118.116 37.936 118.509 38.3584C118.903 38.7712 119.44 38.9776 120.122 38.9776C120.823 38.9776 121.375 38.7616 121.778 38.3296C122.181 37.8976 122.383 37.2688 122.383 36.4432V32.1088H123.693ZM128.699 40.1296C128.094 40.1296 127.552 40.0288 127.072 39.8272C126.592 39.616 126.213 39.328 125.934 38.9632C125.656 38.5888 125.502 38.1616 125.474 37.6816H126.827C126.866 38.0752 127.048 38.3968 127.374 38.6464C127.71 38.896 128.147 39.0208 128.685 39.0208C129.184 39.0208 129.578 38.9104 129.866 38.6896C130.154 38.4688 130.298 38.1904 130.298 37.8544C130.298 37.5088 130.144 37.2544 129.837 37.0912C129.53 36.9184 129.054 36.7504 128.411 36.5872C127.826 36.4336 127.346 36.28 126.971 36.1264C126.606 35.9632 126.29 35.728 126.021 35.4208C125.762 35.104 125.632 34.6912 125.632 34.1824C125.632 33.7792 125.752 33.4096 125.992 33.0736C126.232 32.7376 126.573 32.4736 127.014 32.2816C127.456 32.08 127.96 31.9792 128.526 31.9792C129.4 31.9792 130.106 32.2 130.643 32.6416C131.181 33.0832 131.469 33.688 131.507 34.456H130.197C130.168 34.0432 130 33.712 129.693 33.4624C129.395 33.2128 128.992 33.088 128.483 33.088C128.013 33.088 127.638 33.1888 127.36 33.3904C127.082 33.592 126.942 33.856 126.942 34.1824C126.942 34.4416 127.024 34.6576 127.187 34.8304C127.36 34.9936 127.571 35.128 127.821 35.2336C128.08 35.3296 128.435 35.44 128.886 35.5648C129.453 35.7184 129.914 35.872 130.269 36.0256C130.624 36.1696 130.926 36.3904 131.176 36.688C131.435 36.9856 131.57 37.3744 131.579 37.8544C131.579 38.2864 131.459 38.6752 131.219 39.0208C130.979 39.3664 130.638 39.64 130.197 39.8416C129.765 40.0336 129.266 40.1296 128.699 40.1296ZM136.223 40.1296C135.618 40.1296 135.076 40.0288 134.596 39.8272C134.116 39.616 133.736 39.328 133.458 38.9632C133.18 38.5888 133.026 38.1616 132.997 37.6816H134.351C134.389 38.0752 134.572 38.3968 134.898 38.6464C135.234 38.896 135.671 39.0208 136.208 39.0208C136.708 39.0208 137.101 38.9104 137.389 38.6896C137.677 38.4688 137.821 38.1904 137.821 37.8544C137.821 37.5088 137.668 37.2544 137.36 37.0912C137.053 36.9184 136.578 36.7504 135.935 36.5872C135.349 36.4336 134.869 36.28 134.495 36.1264C134.13 35.9632 133.813 35.728 133.544 35.4208C133.285 35.104 133.156 34.6912 133.156 34.1824C133.156 33.7792 133.276 33.4096 133.516 33.0736C133.756 32.7376 134.096 32.4736 134.538 32.2816C134.98 32.08 135.484 31.9792 136.05 31.9792C136.924 31.9792 137.629 32.2 138.167 32.6416C138.704 33.0832 138.992 33.688 139.031 34.456H137.72C137.692 34.0432 137.524 33.712 137.216 33.4624C136.919 33.2128 136.516 33.088 136.007 33.088C135.536 33.088 135.162 33.1888 134.884 33.3904C134.605 33.592 134.466 33.856 134.466 34.1824C134.466 34.4416 134.548 34.6576 134.711 34.8304C134.884 34.9936 135.095 35.128 135.344 35.2336C135.604 35.3296 135.959 35.44 136.41 35.5648C136.976 35.7184 137.437 35.872 137.792 36.0256C138.148 36.1696 138.45 36.3904 138.7 36.688C138.959 36.9856 139.093 37.3744 139.103 37.8544C139.103 38.2864 138.983 38.6752 138.743 39.0208C138.503 39.3664 138.162 39.64 137.72 39.8416C137.288 40.0336 136.789 40.1296 136.223 40.1296ZM141.629 30.8272C141.38 30.8272 141.169 30.7408 140.996 30.568C140.823 30.3952 140.737 30.184 140.737 29.9344C140.737 29.6848 140.823 29.4736 140.996 29.3008C141.169 29.128 141.38 29.0416 141.629 29.0416C141.869 29.0416 142.071 29.128 142.234 29.3008C142.407 29.4736 142.493 29.6848 142.493 29.9344C142.493 30.184 142.407 30.3952 142.234 30.568C142.071 30.7408 141.869 30.8272 141.629 30.8272ZM142.263 32.1088V40H140.953V32.1088H142.263ZM147.938 40.1296C147.199 40.1296 146.527 39.9616 145.922 39.6256C145.327 39.2896 144.856 38.8144 144.511 38.2C144.175 37.576 144.007 36.856 144.007 36.04C144.007 35.2336 144.18 34.5232 144.525 33.9088C144.88 33.2848 145.36 32.8096 145.965 32.4832C146.57 32.1472 147.247 31.9792 147.996 31.9792C148.744 31.9792 149.421 32.1472 150.026 32.4832C150.631 32.8096 151.106 33.28 151.452 33.8944C151.807 34.5088 151.984 35.224 151.984 36.04C151.984 36.856 151.802 37.576 151.437 38.2C151.082 38.8144 150.597 39.2896 149.983 39.6256C149.368 39.9616 148.687 40.1296 147.938 40.1296ZM147.938 38.9776C148.408 38.9776 148.85 38.8672 149.263 38.6464C149.676 38.4256 150.007 38.0944 150.256 37.6528C150.516 37.2112 150.645 36.6736 150.645 36.04C150.645 35.4064 150.52 34.8688 150.271 34.4272C150.021 33.9856 149.695 33.6592 149.292 33.448C148.888 33.2272 148.452 33.1168 147.981 33.1168C147.501 33.1168 147.06 33.2272 146.656 33.448C146.263 33.6592 145.946 33.9856 145.706 34.4272C145.466 34.8688 145.346 35.4064 145.346 36.04C145.346 36.6832 145.461 37.2256 145.692 37.6672C145.932 38.1088 146.248 38.44 146.642 38.6608C147.036 38.872 147.468 38.9776 147.938 38.9776ZM157.552 31.9648C158.512 31.9648 159.29 32.2576 159.885 32.8432C160.48 33.4192 160.778 34.2544 160.778 35.3488V40H159.482V35.536C159.482 34.7488 159.285 34.1488 158.891 33.736C158.498 33.3136 157.96 33.1024 157.278 33.1024C156.587 33.1024 156.035 33.3184 155.622 33.7504C155.219 34.1824 155.018 34.8112 155.018 35.6368V40H153.707V32.1088H155.018V33.232C155.277 32.8288 155.627 32.5168 156.069 32.296C156.52 32.0752 157.014 31.9648 157.552 31.9648ZM164.272 38.1856L162.659 42.0592H161.781L162.832 38.1856H164.272ZM180.124 32.1088L177.662 40H176.308L174.407 33.736L172.506 40H171.153L168.676 32.1088H170.015L171.83 38.7328L173.788 32.1088H175.127L177.042 38.7472L178.828 32.1088H180.124ZM188.624 35.752C188.624 36.0016 188.61 36.2656 188.581 36.544H182.274C182.322 37.3216 182.586 37.9312 183.066 38.3728C183.556 38.8048 184.146 39.0208 184.837 39.0208C185.404 39.0208 185.874 38.8912 186.248 38.632C186.632 38.3632 186.901 38.008 187.055 37.5664H188.466C188.255 38.3248 187.832 38.944 187.199 39.424C186.565 39.8944 185.778 40.1296 184.837 40.1296C184.088 40.1296 183.416 39.9616 182.821 39.6256C182.236 39.2896 181.775 38.8144 181.439 38.2C181.103 37.576 180.935 36.856 180.935 36.04C180.935 35.224 181.098 34.5088 181.424 33.8944C181.751 33.28 182.207 32.8096 182.792 32.4832C183.388 32.1472 184.069 31.9792 184.837 31.9792C185.586 31.9792 186.248 32.1424 186.824 32.4688C187.4 32.7952 187.842 33.2464 188.149 33.8224C188.466 34.3888 188.624 35.032 188.624 35.752ZM187.271 35.4784C187.271 34.9792 187.16 34.552 186.94 34.1968C186.719 33.832 186.416 33.5584 186.032 33.376C185.658 33.184 185.24 33.088 184.78 33.088C184.117 33.088 183.551 33.2992 183.08 33.7216C182.62 34.144 182.356 34.7296 182.288 35.4784H187.271ZM193.704 36.0256C193.704 35.2192 193.867 34.5136 194.193 33.9088C194.52 33.2944 194.966 32.8192 195.532 32.4832C196.108 32.1472 196.747 31.9792 197.448 31.9792C198.139 31.9792 198.739 32.128 199.248 32.4256C199.756 32.7232 200.136 33.0976 200.385 33.5488V32.1088H201.71V40H200.385V38.5312C200.126 38.992 199.737 39.376 199.219 39.6832C198.71 39.9808 198.115 40.1296 197.433 40.1296C196.732 40.1296 196.099 39.9568 195.532 39.6112C194.966 39.2656 194.52 38.7808 194.193 38.1568C193.867 37.5328 193.704 36.8224 193.704 36.0256ZM200.385 36.04C200.385 35.4448 200.265 34.9264 200.025 34.4848C199.785 34.0432 199.459 33.7072 199.046 33.4768C198.643 33.2368 198.196 33.1168 197.707 33.1168C197.217 33.1168 196.771 33.232 196.368 33.4624C195.964 33.6928 195.643 34.0288 195.403 34.4704C195.163 34.912 195.043 35.4304 195.043 36.0256C195.043 36.6304 195.163 37.1584 195.403 37.6096C195.643 38.0512 195.964 38.392 196.368 38.632C196.771 38.8624 197.217 38.9776 197.707 38.9776C198.196 38.9776 198.643 38.8624 199.046 38.632C199.459 38.392 199.785 38.0512 200.025 37.6096C200.265 37.1584 200.385 36.6352 200.385 36.04ZM205.235 33.3904C205.465 32.9392 205.792 32.5888 206.214 32.3392C206.646 32.0896 207.169 31.9648 207.784 31.9648V33.3184H207.438C205.969 33.3184 205.235 34.1152 205.235 35.7088V40H203.924V32.1088H205.235V33.3904ZM216.496 35.752C216.496 36.0016 216.482 36.2656 216.453 36.544H210.146C210.194 37.3216 210.458 37.9312 210.938 38.3728C211.428 38.8048 212.018 39.0208 212.709 39.0208C213.276 39.0208 213.746 38.8912 214.12 38.632C214.504 38.3632 214.773 38.008 214.927 37.5664H216.338C216.127 38.3248 215.704 38.944 215.071 39.424C214.437 39.8944 213.65 40.1296 212.709 40.1296C211.96 40.1296 211.288 39.9616 210.693 39.6256C210.108 39.2896 209.647 38.8144 209.311 38.2C208.975 37.576 208.807 36.856 208.807 36.04C208.807 35.224 208.97 34.5088 209.296 33.8944C209.623 33.28 210.079 32.8096 210.664 32.4832C211.26 32.1472 211.941 31.9792 212.709 31.9792C213.458 31.9792 214.12 32.1424 214.696 32.4688C215.272 32.7952 215.714 33.2464 216.021 33.8224C216.338 34.3888 216.496 35.032 216.496 35.752ZM215.143 35.4784C215.143 34.9792 215.032 34.552 214.812 34.1968C214.591 33.832 214.288 33.5584 213.904 33.376C213.53 33.184 213.112 33.088 212.652 33.088C211.989 33.088 211.423 33.2992 210.952 33.7216C210.492 34.144 210.228 34.7296 210.16 35.4784H215.143ZM225.319 31.9792C226.001 31.9792 226.596 32.128 227.105 32.4256C227.623 32.7232 228.007 33.0976 228.257 33.5488V32.1088H229.582V40.1728C229.582 40.8928 229.428 41.5312 229.121 42.088C228.814 42.6544 228.372 43.096 227.796 43.4128C227.23 43.7296 226.567 43.888 225.809 43.888C224.772 43.888 223.908 43.6432 223.217 43.1536C222.526 42.664 222.118 41.9968 221.993 41.152H223.289C223.433 41.632 223.731 42.016 224.182 42.304C224.633 42.6016 225.175 42.7504 225.809 42.7504C226.529 42.7504 227.115 42.5248 227.566 42.0736C228.027 41.6224 228.257 40.9888 228.257 40.1728V38.5168C227.998 38.9776 227.614 39.3616 227.105 39.6688C226.596 39.976 226.001 40.1296 225.319 40.1296C224.619 40.1296 223.98 39.9568 223.404 39.6112C222.838 39.2656 222.391 38.7808 222.065 38.1568C221.739 37.5328 221.575 36.8224 221.575 36.0256C221.575 35.2192 221.739 34.5136 222.065 33.9088C222.391 33.2944 222.838 32.8192 223.404 32.4832C223.98 32.1472 224.619 31.9792 225.319 31.9792ZM228.257 36.04C228.257 35.4448 228.137 34.9264 227.897 34.4848C227.657 34.0432 227.331 33.7072 226.918 33.4768C226.515 33.2368 226.068 33.1168 225.579 33.1168C225.089 33.1168 224.643 33.232 224.239 33.4624C223.836 33.6928 223.515 34.0288 223.275 34.4704C223.035 34.912 222.915 35.4304 222.915 36.0256C222.915 36.6304 223.035 37.1584 223.275 37.6096C223.515 38.0512 223.836 38.392 224.239 38.632C224.643 38.8624 225.089 38.9776 225.579 38.9776C226.068 38.9776 226.515 38.8624 226.918 38.632C227.331 38.392 227.657 38.0512 227.897 37.6096C228.137 37.1584 228.257 36.6352 228.257 36.04ZM235.238 40.1296C234.499 40.1296 233.827 39.9616 233.222 39.6256C232.627 39.2896 232.156 38.8144 231.811 38.2C231.475 37.576 231.307 36.856 231.307 36.04C231.307 35.2336 231.48 34.5232 231.825 33.9088C232.18 33.2848 232.66 32.8096 233.265 32.4832C233.87 32.1472 234.547 31.9792 235.296 31.9792C236.044 31.9792 236.721 32.1472 237.326 32.4832C237.931 32.8096 238.406 33.28 238.752 33.8944C239.107 34.5088 239.284 35.224 239.284 36.04C239.284 36.856 239.102 37.576 238.737 38.2C238.382 38.8144 237.897 39.2896 237.283 39.6256C236.668 39.9616 235.987 40.1296 235.238 40.1296ZM235.238 38.9776C235.708 38.9776 236.15 38.8672 236.563 38.6464C236.976 38.4256 237.307 38.0944 237.556 37.6528C237.816 37.2112 237.945 36.6736 237.945 36.04C237.945 35.4064 237.82 34.8688 237.571 34.4272C237.321 33.9856 236.995 33.6592 236.592 33.448C236.188 33.2272 235.752 33.1168 235.281 33.1168C234.801 33.1168 234.36 33.2272 233.956 33.448C233.563 33.6592 233.246 33.9856 233.006 34.4272C232.766 34.8688 232.646 35.4064 232.646 36.04C232.646 36.6832 232.761 37.2256 232.992 37.6672C233.232 38.1088 233.548 38.44 233.942 38.6608C234.336 38.872 234.768 38.9776 235.238 38.9776ZM241.684 30.8272C241.434 30.8272 241.223 30.7408 241.05 30.568C240.878 30.3952 240.791 30.184 240.791 29.9344C240.791 29.6848 240.878 29.4736 241.05 29.3008C241.223 29.128 241.434 29.0416 241.684 29.0416C241.924 29.0416 242.126 29.128 242.289 29.3008C242.462 29.4736 242.548 29.6848 242.548 29.9344C242.548 30.184 242.462 30.3952 242.289 30.568C242.126 30.7408 241.924 30.8272 241.684 30.8272ZM242.318 32.1088V40H241.007V32.1088H242.318ZM248.396 31.9648C249.356 31.9648 250.133 32.2576 250.729 32.8432C251.324 33.4192 251.621 34.2544 251.621 35.3488V40H250.325V35.536C250.325 34.7488 250.129 34.1488 249.735 33.736C249.341 33.3136 248.804 33.1024 248.122 33.1024C247.431 33.1024 246.879 33.3184 246.466 33.7504C246.063 34.1824 245.861 34.8112 245.861 35.6368V40H244.551V32.1088H245.861V33.232C246.121 32.8288 246.471 32.5168 246.913 32.296C247.364 32.0752 247.858 31.9648 248.396 31.9648ZM257.016 31.9792C257.698 31.9792 258.293 32.128 258.802 32.4256C259.32 32.7232 259.704 33.0976 259.954 33.5488V32.1088H261.279V40.1728C261.279 40.8928 261.125 41.5312 260.818 42.088C260.511 42.6544 260.069 43.096 259.493 43.4128C258.927 43.7296 258.264 43.888 257.506 43.888C256.469 43.888 255.605 43.6432 254.914 43.1536C254.223 42.664 253.815 41.9968 253.69 41.152H254.986C255.13 41.632 255.428 42.016 255.879 42.304C256.33 42.6016 256.872 42.7504 257.506 42.7504C258.226 42.7504 258.812 42.5248 259.263 42.0736C259.724 41.6224 259.954 40.9888 259.954 40.1728V38.5168C259.695 38.9776 259.311 39.3616 258.802 39.6688C258.293 39.976 257.698 40.1296 257.016 40.1296C256.316 40.1296 255.677 39.9568 255.101 39.6112C254.535 39.2656 254.088 38.7808 253.762 38.1568C253.436 37.5328 253.272 36.8224 253.272 36.0256C253.272 35.2192 253.436 34.5136 253.762 33.9088C254.088 33.2944 254.535 32.8192 255.101 32.4832C255.677 32.1472 256.316 31.9792 257.016 31.9792ZM259.954 36.04C259.954 35.4448 259.834 34.9264 259.594 34.4848C259.354 34.0432 259.028 33.7072 258.615 33.4768C258.212 33.2368 257.765 33.1168 257.276 33.1168C256.786 33.1168 256.34 33.232 255.936 33.4624C255.533 33.6928 255.212 34.0288 254.972 34.4704C254.732 34.912 254.612 35.4304 254.612 36.0256C254.612 36.6304 254.732 37.1584 254.972 37.6096C255.212 38.0512 255.533 38.392 255.936 38.632C256.34 38.8624 256.786 38.9776 257.276 38.9776C257.765 38.9776 258.212 38.8624 258.615 38.632C259.028 38.392 259.354 38.0512 259.594 37.6096C259.834 37.1584 259.954 36.6352 259.954 36.04ZM268.931 33.1888V37.84C268.931 38.224 269.012 38.4976 269.175 38.6608C269.339 38.8144 269.622 38.8912 270.025 38.8912H270.99V40H269.809C269.079 40 268.532 39.832 268.167 39.496C267.803 39.16 267.62 38.608 267.62 37.84V33.1888H266.598V32.1088H267.62V30.1216H268.931V32.1088H270.99V33.1888H268.931ZM276.019 40.1296C275.28 40.1296 274.608 39.9616 274.003 39.6256C273.408 39.2896 272.938 38.8144 272.592 38.2C272.256 37.576 272.088 36.856 272.088 36.04C272.088 35.2336 272.261 34.5232 272.606 33.9088C272.962 33.2848 273.442 32.8096 274.046 32.4832C274.651 32.1472 275.328 31.9792 276.077 31.9792C276.826 31.9792 277.502 32.1472 278.107 32.4832C278.712 32.8096 279.187 33.28 279.533 33.8944C279.888 34.5088 280.066 35.224 280.066 36.04C280.066 36.856 279.883 37.576 279.518 38.2C279.163 38.8144 278.678 39.2896 278.064 39.6256C277.45 39.9616 276.768 40.1296 276.019 40.1296ZM276.019 38.9776C276.49 38.9776 276.931 38.8672 277.344 38.6464C277.757 38.4256 278.088 38.0944 278.338 37.6528C278.597 37.2112 278.726 36.6736 278.726 36.04C278.726 35.4064 278.602 34.8688 278.352 34.4272C278.102 33.9856 277.776 33.6592 277.373 33.448C276.97 33.2272 276.533 33.1168 276.062 33.1168C275.582 33.1168 275.141 33.2272 274.738 33.448C274.344 33.6592 274.027 33.9856 273.787 34.4272C273.547 34.8688 273.427 35.4064 273.427 36.04C273.427 36.6832 273.542 37.2256 273.773 37.6672C274.013 38.1088 274.33 38.44 274.723 38.6608C275.117 38.872 275.549 38.9776 276.019 38.9776ZM39.3088 57.752C39.3088 58.0016 39.2944 58.2656 39.2656 58.544H32.9584C33.0064 59.3216 33.2704 59.9312 33.7504 60.3728C34.24 60.8048 34.8304 61.0208 35.5216 61.0208C36.088 61.0208 36.5584 60.8912 36.9328 60.632C37.3168 60.3632 37.5856 60.008 37.7392 59.5664H39.1504C38.9392 60.3248 38.5168 60.944 37.8832 61.424C37.2496 61.8944 36.4624 62.1296 35.5216 62.1296C34.7728 62.1296 34.1008 61.9616 33.5056 61.6256C32.92 61.2896 32.4592 60.8144 32.1232 60.2C31.7872 59.576 31.6192 58.856 31.6192 58.04C31.6192 57.224 31.7824 56.5088 32.1088 55.8944C32.4352 55.28 32.8912 54.8096 33.4768 54.4832C34.072 54.1472 34.7536 53.9792 35.5216 53.9792C36.2704 53.9792 36.9328 54.1424 37.5088 54.4688C38.0848 54.7952 38.5264 55.2464 38.8336 55.8224C39.1504 56.3888 39.3088 57.032 39.3088 57.752ZM37.9552 57.4784C37.9552 56.9792 37.8448 56.552 37.624 56.1968C37.4032 55.832 37.1008 55.5584 36.7168 55.376C36.3424 55.184 35.9248 55.088 35.464 55.088C34.8016 55.088 34.2352 55.2992 33.7648 55.7216C33.304 56.144 33.04 56.7296 32.9728 57.4784H37.9552ZM45.1569 62L43.2849 59.0624L41.4849 62H40.1169L42.6657 58.0832L40.1169 54.1088H41.6001L43.4721 57.032L45.2577 54.1088H46.6257L44.0913 58.0112L46.6401 62H45.1569ZM49.2395 55.5632C49.4987 55.112 49.8827 54.7376 50.3915 54.44C50.9099 54.1328 51.5099 53.9792 52.1915 53.9792C52.8923 53.9792 53.5259 54.1472 54.0923 54.4832C54.6683 54.8192 55.1195 55.2944 55.4459 55.9088C55.7723 56.5136 55.9355 57.2192 55.9355 58.0256C55.9355 58.8224 55.7723 59.5328 55.4459 60.1568C55.1195 60.7808 54.6683 61.2656 54.0923 61.6112C53.5259 61.9568 52.8923 62.1296 52.1915 62.1296C51.5195 62.1296 50.9243 61.9808 50.4059 61.6832C49.8971 61.376 49.5083 60.9968 49.2395 60.5456V65.744H47.9291V54.1088H49.2395V55.5632ZM54.5963 58.0256C54.5963 57.4304 54.4763 56.912 54.2363 56.4704C53.9963 56.0288 53.6699 55.6928 53.2571 55.4624C52.8539 55.232 52.4075 55.1168 51.9179 55.1168C51.4379 55.1168 50.9915 55.2368 50.5787 55.4768C50.1755 55.7072 49.8491 56.048 49.5995 56.4992C49.3595 56.9408 49.2395 57.4544 49.2395 58.04C49.2395 58.6352 49.3595 59.1584 49.5995 59.6096C49.8491 60.0512 50.1755 60.392 50.5787 60.632C50.9915 60.8624 51.4379 60.9776 51.9179 60.9776C52.4075 60.9776 52.8539 60.8624 53.2571 60.632C53.6699 60.392 53.9963 60.0512 54.2363 59.6096C54.4763 59.1584 54.5963 58.6304 54.5963 58.0256ZM58.9708 51.344V62H57.6604V51.344H58.9708ZM64.6457 62.1296C63.9065 62.1296 63.2345 61.9616 62.6297 61.6256C62.0345 61.2896 61.5641 60.8144 61.2185 60.2C60.8825 59.576 60.7145 58.856 60.7145 58.04C60.7145 57.2336 60.8873 56.5232 61.2329 55.9088C61.5881 55.2848 62.0681 54.8096 62.6729 54.4832C63.2777 54.1472 63.9545 53.9792 64.7033 53.9792C65.4521 53.9792 66.1289 54.1472 66.7337 54.4832C67.3385 54.8096 67.8137 55.28 68.1593 55.8944C68.5145 56.5088 68.6921 57.224 68.6921 58.04C68.6921 58.856 68.5097 59.576 68.1449 60.2C67.7897 60.8144 67.3049 61.2896 66.6905 61.6256C66.0761 61.9616 65.3945 62.1296 64.6457 62.1296ZM64.6457 60.9776C65.1161 60.9776 65.5577 60.8672 65.9705 60.6464C66.3833 60.4256 66.7145 60.0944 66.9641 59.6528C67.2233 59.2112 67.3529 58.6736 67.3529 58.04C67.3529 57.4064 67.2281 56.8688 66.9785 56.4272C66.7289 55.9856 66.4025 55.6592 65.9993 55.448C65.5961 55.2272 65.1593 55.1168 64.6889 55.1168C64.2089 55.1168 63.7673 55.2272 63.3641 55.448C62.9705 55.6592 62.6537 55.9856 62.4137 56.4272C62.1737 56.8688 62.0537 57.4064 62.0537 58.04C62.0537 58.6832 62.1689 59.2256 62.3993 59.6672C62.6393 60.1088 62.9561 60.44 63.3497 60.6608C63.7433 60.872 64.1753 60.9776 64.6457 60.9776ZM71.7255 55.3904C71.9559 54.9392 72.2823 54.5888 72.7047 54.3392C73.1367 54.0896 73.6599 53.9648 74.2743 53.9648V55.3184H73.9287C72.4599 55.3184 71.7255 56.1152 71.7255 57.7088V62H70.4151V54.1088H71.7255V55.3904ZM82.9869 57.752C82.9869 58.0016 82.9725 58.2656 82.9437 58.544H76.6365C76.6845 59.3216 76.9485 59.9312 77.4285 60.3728C77.9181 60.8048 78.5085 61.0208 79.1997 61.0208C79.7661 61.0208 80.2365 60.8912 80.6109 60.632C80.9949 60.3632 81.2637 60.008 81.4173 59.5664H82.8285C82.6173 60.3248 82.1949 60.944 81.5613 61.424C80.9277 61.8944 80.1405 62.1296 79.1997 62.1296C78.4509 62.1296 77.7789 61.9616 77.1837 61.6256C76.5981 61.2896 76.1373 60.8144 75.8013 60.2C75.4653 59.576 75.2973 58.856 75.2973 58.04C75.2973 57.224 75.4605 56.5088 75.7869 55.8944C76.1133 55.28 76.5693 54.8096 77.1549 54.4832C77.7501 54.1472 78.4317 53.9792 79.1997 53.9792C79.9485 53.9792 80.6109 54.1424 81.1869 54.4688C81.7629 54.7952 82.2045 55.2464 82.5117 55.8224C82.8285 56.3888 82.9869 57.032 82.9869 57.752ZM81.6333 57.4784C81.6333 56.9792 81.5229 56.552 81.3021 56.1968C81.0813 55.832 80.7789 55.5584 80.3949 55.376C80.0205 55.184 79.6029 55.088 79.1421 55.088C78.4797 55.088 77.9133 55.2992 77.4429 55.7216C76.9821 56.144 76.7181 56.7296 76.6509 57.4784H81.6333Z" fill="#161925"/>
<path d="M89.5925 54.7424V59.912C89.5925 60.488 89.6981 60.8864 89.9093 61.1072C90.1205 61.3184 90.4949 61.424 91.0325 61.424H91.9109V62H90.9317C90.2501 62 89.7461 61.8416 89.4197 61.5248C89.1029 61.1984 88.9445 60.6608 88.9445 59.912V54.7424H87.7637V54.1808H88.9445V52.1936H89.5925V54.1808H91.9109V54.7424H89.5925ZM97.0615 62.1152C96.3319 62.1152 95.6743 61.952 95.0887 61.6256C94.5031 61.2992 94.0423 60.8336 93.7063 60.2288C93.3799 59.6144 93.2167 58.8992 93.2167 58.0832C93.2167 57.2768 93.3847 56.5712 93.7207 55.9664C94.0567 55.352 94.5175 54.8864 95.1031 54.5696C95.6983 54.2432 96.3607 54.08 97.0903 54.08C97.8199 54.08 98.4775 54.2432 99.0631 54.5696C99.6487 54.8864 100.105 55.3472 100.431 55.952C100.767 56.5568 100.935 57.2672 100.935 58.0832C100.935 58.8992 100.767 59.6144 100.431 60.2288C100.095 60.8336 99.6295 61.2992 99.0343 61.6256C98.4487 61.952 97.7911 62.1152 97.0615 62.1152ZM97.0615 61.5392C97.6279 61.5392 98.1559 61.4144 98.6455 61.1648C99.1447 60.9056 99.5431 60.5168 99.8407 59.9984C100.138 59.48 100.287 58.8416 100.287 58.0832C100.287 57.3344 100.138 56.7008 99.8407 56.1824C99.5431 55.664 99.1495 55.28 98.6599 55.0304C98.1703 54.7712 97.6423 54.6416 97.0759 54.6416C96.5095 54.6416 95.9815 54.7712 95.4919 55.0304C95.0119 55.28 94.6231 55.664 94.3255 56.1824C94.0279 56.7008 93.8791 57.3344 93.8791 58.0832C93.8791 58.8416 94.0231 59.48 94.3111 59.9984C94.6087 60.5168 94.9975 60.9056 95.4775 61.1648C95.9671 61.4144 96.4951 61.5392 97.0615 61.5392ZM103.549 56.24C103.77 55.6064 104.168 55.088 104.744 54.6848C105.33 54.2816 106.036 54.08 106.861 54.08C107.591 54.08 108.239 54.2432 108.805 54.5696C109.381 54.896 109.828 55.3616 110.144 55.9664C110.471 56.5712 110.634 57.2768 110.634 58.0832C110.634 58.8896 110.471 59.6 110.144 60.2144C109.828 60.8192 109.381 61.2896 108.805 61.6256C108.239 61.952 107.591 62.1152 106.861 62.1152C106.045 62.1152 105.344 61.9136 104.759 61.5104C104.183 61.0976 103.78 60.5792 103.549 59.9552V65.6864H102.901V54.1808H103.549V56.24ZM109.972 58.0832C109.972 57.3728 109.837 56.7584 109.568 56.24C109.3 55.7216 108.92 55.328 108.431 55.0592C107.951 54.7808 107.394 54.6416 106.76 54.6416C106.156 54.6416 105.608 54.7856 105.119 55.0736C104.629 55.352 104.245 55.7552 103.967 56.2832C103.688 56.8016 103.549 57.4016 103.549 58.0832C103.549 58.7744 103.688 59.384 103.967 59.912C104.245 60.4304 104.629 60.8336 105.119 61.1216C105.608 61.4 106.156 61.5392 106.76 61.5392C107.394 61.5392 107.951 61.4 108.431 61.1216C108.92 60.8432 109.3 60.4448 109.568 59.9264C109.837 59.408 109.972 58.7936 109.972 58.0832ZM112.921 52.4384C112.768 52.4384 112.638 52.3904 112.533 52.2944C112.427 52.1888 112.374 52.0496 112.374 51.8768C112.374 51.7136 112.427 51.5792 112.533 51.4736C112.638 51.368 112.768 51.3152 112.921 51.3152C113.075 51.3152 113.205 51.368 113.31 51.4736C113.416 51.5792 113.469 51.7136 113.469 51.8768C113.469 52.0496 113.416 52.1888 113.31 52.2944C113.205 52.3904 113.075 52.4384 112.921 52.4384ZM113.238 54.1808V62H112.59V54.1808H113.238ZM115.21 58.0832C115.21 57.2672 115.369 56.5568 115.686 55.952C116.012 55.3472 116.458 54.8864 117.025 54.5696C117.601 54.2432 118.258 54.08 118.998 54.08C119.977 54.08 120.778 54.3248 121.402 54.8144C122.036 55.304 122.43 55.9616 122.583 56.7872H121.906C121.782 56.1152 121.455 55.5872 120.927 55.2032C120.409 54.8192 119.766 54.6272 118.998 54.6272C118.422 54.6272 117.898 54.7568 117.428 55.016C116.958 55.2656 116.578 55.6544 116.29 56.1824C116.012 56.7008 115.873 57.3344 115.873 58.0832C115.873 58.8416 116.012 59.48 116.29 59.9984C116.578 60.5168 116.958 60.9056 117.428 61.1648C117.898 61.424 118.422 61.5536 118.998 61.5536C119.766 61.5536 120.409 61.3616 120.927 60.9776C121.455 60.5936 121.782 60.0656 121.906 59.3936H122.583C122.43 60.2096 122.036 60.8672 121.402 61.3664C120.769 61.8656 119.967 62.1152 118.998 62.1152C118.258 62.1152 117.601 61.952 117.025 61.6256C116.458 61.2992 116.012 60.8336 115.686 60.2288C115.369 59.6144 115.21 58.8992 115.21 58.0832Z" fill="#BBBBBB"/>
<path d="M86 70H123.6" stroke="#BBBBBB" stroke-width="0.8"/>
</g>
<rect x="15.4" y="16.4" width="300.2" height="111.2" rx="6" stroke="#F0F0F0" stroke-width="0.8"/>
<g clip-path="url(#clip3_6556_221085)">
<path d="M32.7354 116.563C32.7354 117.002 33.0945 117.361 33.5335 117.361H43.1113C43.5503 117.361 43.9095 117.002 43.9095 116.563C43.9095 116.124 43.5503 115.765 43.1113 115.765H33.5335C33.0945 115.765 32.7354 116.124 32.7354 116.563ZM36.327 112.413H40.3178L40.8446 113.69C40.9643 113.977 41.2437 114.169 41.5549 114.169C42.1057 114.169 42.4728 113.602 42.2573 113.099L39.1605 105.94C39.0168 105.604 38.6896 105.389 38.3224 105.389C37.9553 105.389 37.628 105.604 37.4844 105.94L34.3875 113.099C34.172 113.602 34.5472 114.169 35.0979 114.169C35.4092 114.169 35.6885 113.977 35.8082 113.69L36.327 112.413ZM38.3224 106.969L39.815 110.976H36.8299L38.3224 106.969Z" fill="#161925"/>
</g>
<g clip-path="url(#clip4_6556_221085)">
<path d="M67.3089 110.765C67.8145 110.765 68.2243 110.355 68.2243 109.85C68.2243 109.344 67.8145 108.934 67.3089 108.934C66.8034 108.934 66.3936 109.344 66.3936 109.85C66.3936 110.355 66.8034 110.765 67.3089 110.765Z" fill="#161925"/>
<path d="M63.0374 110.765C63.543 110.765 63.9528 110.355 63.9528 109.85C63.9528 109.344 63.543 108.934 63.0374 108.934C62.5319 108.934 62.1221 109.344 62.1221 109.85C62.1221 110.355 62.5319 110.765 63.0374 110.765Z" fill="#161925"/>
<path d="M65.1737 113.816C64.2705 113.816 63.4955 113.322 63.0684 112.596H62.0493C62.5375 113.847 63.7518 114.732 65.1737 114.732C66.5955 114.732 67.8099 113.847 68.2981 112.596H67.279C66.858 113.322 66.0768 113.816 65.1737 113.816ZM65.1676 105.273C61.7991 105.273 59.0713 108.007 59.0713 111.375C59.0713 114.744 61.7991 117.478 65.1676 117.478C68.5422 117.478 71.2761 114.744 71.2761 111.375C71.2761 108.007 68.5422 105.273 65.1676 105.273ZM65.1737 116.257C62.4764 116.257 60.2918 114.073 60.2918 111.375C60.2918 108.678 62.4764 106.493 65.1737 106.493C67.871 106.493 70.0556 108.678 70.0556 111.375C70.0556 114.073 67.871 116.257 65.1737 116.257Z" fill="#161925"/>
</g>
<g clip-path="url(#clip5_6556_221085)">
<path d="M94.7699 107.714V114.732C94.7699 116.08 93.6776 117.173 92.329 117.173C90.9803 117.173 89.888 116.08 89.888 114.732V107.104C89.888 106.262 90.5715 105.578 91.4136 105.578C92.2557 105.578 92.9392 106.262 92.9392 107.104V113.511C92.9392 113.847 92.6646 114.121 92.329 114.121C91.9933 114.121 91.7187 113.847 91.7187 113.511V107.714H90.8034V113.511C90.8034 114.353 91.4868 115.037 92.329 115.037C93.1711 115.037 93.8546 114.353 93.8546 113.511V107.104C93.8546 105.755 92.7622 104.663 91.4136 104.663C90.065 104.663 88.9727 105.755 88.9727 107.104V114.732C88.9727 116.587 90.4738 118.088 92.329 118.088C94.1841 118.088 95.6853 116.587 95.6853 114.732V107.714H94.7699Z" fill="#161925"/>
</g>
<g clip-path="url(#clip6_6556_221085)">
<path d="M123.147 107.104V115.647H114.603V107.104H123.147ZM123.147 105.883H114.603C113.932 105.883 113.383 106.432 113.383 107.104V115.647C113.383 116.318 113.932 116.867 114.603 116.867H123.147C123.818 116.867 124.367 116.318 124.367 115.647V107.104C124.367 106.432 123.818 105.883 123.147 105.883ZM120.181 111.29L118.35 113.652L117.044 112.071L115.214 114.427H122.536L120.181 111.29Z" fill="#161925"/>
</g>
</g>
</g>
</g>
<defs>
<filter id="filter0_d_6556_221085" x="-21" y="-17" width="372" height="182" filterUnits="userSpaceOnUse" color-interpolation-filters="sRGB">
<feFlood flood-opacity="0" result="BackgroundImageFix"/>
<feColorMatrix in="SourceAlpha" type="matrix" values="0 0 0 0 0 0 0 0 0 0 0 0 0 0 0 0 0 0 127 0" result="hardAlpha"/>
<feOffset dy="4"/>
<feGaussianBlur stdDeviation="10.5"/>
<feComposite in2="hardAlpha" operator="out"/>
<feColorMatrix type="matrix" values="0 0 0 0 0.7125 0 0 0 0 0.7125 0 0 0 0 0.7125 0 0 0 0.26 0"/>
<feBlend mode="normal" in2="BackgroundImageFix" result="effect1_dropShadow_6556_221085"/>
<feBlend mode="normal" in="SourceGraphic" in2="effect1_dropShadow_6556_221085" result="shape"/>
</filter>
<clipPath id="clip0_6556_221085">
<rect width="1440" height="4496" fill="white" transform="translate(-554 -2098)"/>
</clipPath>
<clipPath id="clip1_6556_221085">
<path d="M0 0H330V125C330 133.284 323.284 140 315 140H15C6.71573 140 0 133.284 0 125V0Z" fill="white"/>
</clipPath>
<clipPath id="clip2_6556_221085">
<rect x="15" y="16" width="301" height="112" rx="6.4" fill="white"/>
</clipPath>
<clipPath id="clip3_6556_221085">
<rect width="14.6458" height="14.6458" fill="white" transform="translate(31 104.052)"/>
</clipPath>
<clipPath id="clip4_6556_221085">
<rect width="14.6458" height="14.6458" fill="white" transform="translate(57.8506 104.052)"/>
</clipPath>
<clipPath id="clip5_6556_221085">
<rect width="14.6458" height="14.6458" fill="white" transform="translate(84.7012 104.052)"/>
</clipPath>
<clipPath id="clip6_6556_221085">
<rect width="14.6458" height="14.6458" fill="white" transform="translate(111.552 104.052)"/>
</clipPath>
</defs>
</svg>
