<svg width="24" height="24" viewBox="0 0 24 24" fill="none" xmlns="http://www.w3.org/2000/svg">
<g clip-path="url(#clip0_7257_40759)">
<path d="M2.84375 20.5025C2.84375 21.2218 3.43232 21.8104 4.15168 21.8104H19.8469C20.5662 21.8104 21.1548 21.2218 21.1548 20.5025C21.1548 19.7831 20.5662 19.1945 19.8469 19.1945H4.15168C3.43232 19.1945 2.84375 19.7831 2.84375 20.5025ZM8.72945 13.7012H15.2691L16.1323 15.7939C16.3285 16.2648 16.7863 16.5787 17.2964 16.5787C18.1989 16.5787 18.8005 15.65 18.4474 14.826L13.3726 3.09388C13.1372 2.54455 12.6009 2.19141 11.9993 2.19141C11.3976 2.19141 10.8614 2.54455 10.6259 3.09388L5.55117 14.826C5.19803 15.65 5.81276 16.5787 6.71523 16.5787C7.22532 16.5787 7.6831 16.2648 7.87929 15.7939L8.72945 13.7012ZM11.9993 4.78111L14.4451 11.3469H9.55344L11.9993 4.78111Z" fill="#161925"/>
</g>
<defs>
<clipPath id="clip0_7257_40759">
<rect width="24" height="24" fill="white"/>
</clipPath>
</defs>
</svg>
