<svg width="25" height="25" viewBox="0 0 25 25" fill="none" xmlns="http://www.w3.org/2000/svg">
<g clip-path="url(#clip0_6666_232492)">
<path d="M21.2389 12.4087C21.2389 7.3762 17.3339 3.95703 12.9889 3.95703C8.68977 3.95703 4.73893 7.30286 4.73893 12.4637C4.18893 12.7754 3.82227 13.362 3.82227 14.0404V15.8737C3.82227 16.882 4.64727 17.707 5.6556 17.707H6.57227V12.1154C6.57227 8.56786 9.44143 5.6987 12.9889 5.6987C16.5364 5.6987 19.4056 8.56786 19.4056 12.1154V18.6237H12.0723V20.457H19.4056C20.4139 20.457 21.2389 19.632 21.2389 18.6237V17.5054C21.7798 17.2212 22.1556 16.662 22.1556 16.002V13.8937C22.1556 13.252 21.7798 12.6929 21.2389 12.4087Z" fill="#525AF2"/>
</g>
<defs>
<clipPath id="clip0_6666_232492">
<rect width="24" height="24" fill="white" transform="translate(0.98877 0.207031)"/>
</clipPath>
</defs>
</svg>
