<svg width="25" height="25" viewBox="0 0 25 25" fill="none" xmlns="http://www.w3.org/2000/svg">
<g clip-path="url(#clip0_2272_152972)">
<path d="M16 11.3984C16.8284 11.3984 17.5 10.7269 17.5 9.89844C17.5 9.07001 16.8284 8.39844 16 8.39844C15.1716 8.39844 14.5 9.07001 14.5 9.89844C14.5 10.7269 15.1716 11.3984 16 11.3984Z" fill="#161925"/>
<path d="M9 11.3984C9.82843 11.3984 10.5 10.7269 10.5 9.89844C10.5 9.07001 9.82843 8.39844 9 8.39844C8.17157 8.39844 7.5 9.07001 7.5 9.89844C7.5 10.7269 8.17157 11.3984 9 11.3984Z" fill="#161925"/>
<path d="M12.5 16.3984C11.02 16.3984 9.75 15.5884 9.05 14.3984H7.38C8.18 16.4484 10.17 17.8984 12.5 17.8984C14.83 17.8984 16.82 16.4484 17.62 14.3984H15.95C15.26 15.5884 13.98 16.3984 12.5 16.3984ZM12.49 2.39844C6.97 2.39844 2.5 6.87844 2.5 12.3984C2.5 17.9184 6.97 22.3984 12.49 22.3984C18.02 22.3984 22.5 17.9184 22.5 12.3984C22.5 6.87844 18.02 2.39844 12.49 2.39844ZM12.5 20.3984C8.08 20.3984 4.5 16.8184 4.5 12.3984C4.5 7.97844 8.08 4.39844 12.5 4.39844C16.92 4.39844 20.5 7.97844 20.5 12.3984C20.5 16.8184 16.92 20.3984 12.5 20.3984Z" fill="#161925"/>
</g>
<defs>
<clipPath id="clip0_2272_152972">
<rect width="24" height="24" fill="white" transform="translate(0.5 0.398438)"/>
</clipPath>
</defs>
</svg>
