<svg width="25" height="25" viewBox="0 0 25 25" fill="none" xmlns="http://www.w3.org/2000/svg">
<g clip-path="url(#clip0_7187_238408)">
<path d="M17.5 7.39844H14.5C13.95 7.39844 13.5 7.84844 13.5 8.39844C13.5 8.94844 13.95 9.39844 14.5 9.39844H17.5C19.15 9.39844 20.5 10.7484 20.5 12.3984C20.5 14.0484 19.15 15.3984 17.5 15.3984H14.5C13.95 15.3984 13.5 15.8484 13.5 16.3984C13.5 16.9484 13.95 17.3984 14.5 17.3984H17.5C20.26 17.3984 22.5 15.1584 22.5 12.3984C22.5 9.63844 20.26 7.39844 17.5 7.39844ZM8.5 12.3984C8.5 12.9484 8.95 13.3984 9.5 13.3984H15.5C16.05 13.3984 16.5 12.9484 16.5 12.3984C16.5 11.8484 16.05 11.3984 15.5 11.3984H9.5C8.95 11.3984 8.5 11.8484 8.5 12.3984ZM10.5 15.3984H7.5C5.85 15.3984 4.5 14.0484 4.5 12.3984C4.5 10.7484 5.85 9.39844 7.5 9.39844H10.5C11.05 9.39844 11.5 8.94844 11.5 8.39844C11.5 7.84844 11.05 7.39844 10.5 7.39844H7.5C4.74 7.39844 2.5 9.63844 2.5 12.3984C2.5 15.1584 4.74 17.3984 7.5 17.3984H10.5C11.05 17.3984 11.5 16.9484 11.5 16.3984C11.5 15.8484 11.05 15.3984 10.5 15.3984Z" fill="#323232"/>
</g>
<defs>
<clipPath id="clip0_7187_238408">
<rect width="24" height="24" fill="white" transform="translate(0.5 0.398438)"/>
</clipPath>
</defs>
</svg>
