<svg width="25" height="25" viewBox="0 0 25 25" fill="none" xmlns="http://www.w3.org/2000/svg">
<path d="M15.6719 11.4902C16.5003 11.4902 17.1719 10.8187 17.1719 9.99023C17.1719 9.16181 16.5003 8.49023 15.6719 8.49023C14.8434 8.49023 14.1719 9.16181 14.1719 9.99023C14.1719 10.8187 14.8434 11.4902 15.6719 11.4902Z" fill="#525AF2"/>
<path d="M8.67188 11.4902C9.5003 11.4902 10.1719 10.8187 10.1719 9.99023C10.1719 9.16181 9.5003 8.49023 8.67188 8.49023C7.84345 8.49023 7.17188 9.16181 7.17188 9.99023C7.17188 10.8187 7.84345 11.4902 8.67188 11.4902Z" fill="#525AF2"/>
<path d="M16.5819 14.3802C16.2319 14.1602 15.7619 14.2702 15.5519 14.6202C14.8119 15.7902 13.5519 16.4902 12.1719 16.4902C10.7919 16.4902 9.53187 15.7902 8.79187 14.6102C8.57188 14.2602 8.11188 14.1502 7.76188 14.3702C7.41188 14.5902 7.30188 15.0502 7.52187 15.4002C8.54187 17.0302 10.2719 17.9902 12.1719 17.9902C14.0719 17.9902 15.8019 17.0202 16.8219 15.4102C17.0419 15.0602 16.9319 14.6002 16.5819 14.3802Z" fill="#525AF2"/>
<path d="M12.1619 2.49023C6.64187 2.49023 2.17188 6.97023 2.17188 12.4902C2.17188 18.0102 6.64187 22.4902 12.1619 22.4902C17.6919 22.4902 22.1719 18.0102 22.1719 12.4902H20.1719C20.1719 16.9102 16.5919 20.4902 12.1719 20.4902C7.75187 20.4902 4.17188 16.9102 4.17188 12.4902C4.17188 8.07023 7.75187 4.49023 12.1719 4.49023L12.1619 2.49023Z" fill="#525AF2"/>
<path d="M21.0142 3.854V1.07227H19.1597V3.854H16.3779V5.7085H19.1597V8.49023H21.0142V5.7085H23.7959V3.854H21.0142Z" fill="#525AF2"/>
</svg>
