<svg width="25" height="25" viewBox="0 0 25 25" fill="none" xmlns="http://www.w3.org/2000/svg">
<path d="M20.4186 13.187C20.4586 12.867 20.4886 12.547 20.4886 12.207C20.4886 11.867 20.4586 11.547 20.4186 11.227L22.5286 9.57703C22.7186 9.42703 22.7686 9.15703 22.6486 8.93703L20.6486 5.47703C20.5586 5.31703 20.3886 5.22703 20.2086 5.22703C20.1486 5.22703 20.0886 5.23703 20.0386 5.25703L17.5486 6.25703C17.0286 5.85703 16.4686 5.52703 15.8586 5.27703L15.4786 2.62703C15.4486 2.38703 15.2386 2.20703 14.9886 2.20703H10.9886C10.7386 2.20703 10.5286 2.38703 10.4986 2.62703L10.1186 5.27703C9.50861 5.52703 8.94861 5.86703 8.42861 6.25703L5.93861 5.25703C5.87861 5.23703 5.81861 5.22703 5.75861 5.22703C5.58861 5.22703 5.41861 5.31703 5.32861 5.47703L3.32861 8.93703C3.19861 9.15703 3.25861 9.42703 3.44861 9.57703L5.55861 11.227C5.51861 11.547 5.48861 11.877 5.48861 12.207C5.48861 12.537 5.51861 12.867 5.55861 13.187L3.44861 14.837C3.25861 14.987 3.20861 15.257 3.32861 15.477L5.32861 18.937C5.41861 19.097 5.58861 19.187 5.76861 19.187C5.82861 19.187 5.88861 19.177 5.93861 19.157L8.42861 18.157C8.94861 18.557 9.50861 18.887 10.1186 19.137L10.4986 21.787C10.5286 22.027 10.7386 22.207 10.9886 22.207H14.9886C15.2386 22.207 15.4486 22.027 15.4786 21.787L15.8586 19.137C16.4686 18.887 17.0286 18.547 17.5486 18.157L20.0386 19.157C20.0986 19.177 20.1586 19.187 20.2186 19.187C20.3886 19.187 20.5586 19.097 20.6486 18.937L22.6486 15.477C22.7686 15.257 22.7186 14.987 22.5286 14.837L20.4186 13.187ZM18.4386 11.477C18.4786 11.787 18.4886 11.997 18.4886 12.207C18.4886 12.417 18.4686 12.637 18.4386 12.937L18.2986 14.067L19.1886 14.767L20.2686 15.607L19.5686 16.817L18.2986 16.307L17.2586 15.887L16.3586 16.567C15.9286 16.887 15.5186 17.127 15.1086 17.297L14.0486 17.727L13.8886 18.857L13.6886 20.207H12.2886L12.0986 18.857L11.9386 17.727L10.8786 17.297C10.4486 17.117 10.0486 16.887 9.64861 16.587L8.73861 15.887L7.67861 16.317L6.40861 16.827L5.70861 15.617L6.78861 14.777L7.67861 14.077L7.53861 12.947C7.50861 12.637 7.48861 12.407 7.48861 12.207C7.48861 12.007 7.50861 11.777 7.53861 11.477L7.67861 10.347L6.78861 9.64703L5.70861 8.80703L6.40861 7.59703L7.67861 8.10703L8.71861 8.52703L9.61861 7.84703C10.0486 7.52703 10.4586 7.28703 10.8686 7.11703L11.9286 6.68703L12.0886 5.55703L12.2886 4.20703H13.6786L13.8686 5.55703L14.0286 6.68703L15.0886 7.11703C15.5186 7.29703 15.9186 7.52703 16.3186 7.82703L17.2286 8.52703L18.2886 8.09703L19.5586 7.58703L20.2586 8.79703L19.1886 9.64703L18.2986 10.347L18.4386 11.477ZM12.9886 8.20703C10.7786 8.20703 8.98861 9.99703 8.98861 12.207C8.98861 14.417 10.7786 16.207 12.9886 16.207C15.1986 16.207 16.9886 14.417 16.9886 12.207C16.9886 9.99703 15.1986 8.20703 12.9886 8.20703ZM12.9886 14.207C11.8886 14.207 10.9886 13.307 10.9886 12.207C10.9886 11.107 11.8886 10.207 12.9886 10.207C14.0886 10.207 14.9886 11.107 14.9886 12.207C14.9886 13.307 14.0886 14.207 12.9886 14.207Z" fill="#525AF2"/>
</svg>
