<svg width="133" height="63" viewBox="0 0 133 63" fill="none" xmlns="http://www.w3.org/2000/svg">
<path fill-rule="evenodd" clip-rule="evenodd" d="M123.692 34.7769C127.346 25.5113 131.179 16.198 132.08 14.5714C134.397 10.2969 129.996 9.11202 121.322 6.32608C116.275 4.69325 108.687 1.59244 107.44 0.684602C105.497 -0.776613 103.929 0.503127 105.337 2.37061C106.584 3.99462 107.726 11.0197 107.738 11.0643C107.693 11.0762 68.801 27.6823 56.9554 34.6293C54.501 36.075 54.5011 36.075 55.268 33.7681C56.4287 30.2572 58.7682 20.9858 59.8217 16.0947C61.1441 9.88975 58.6065 10.0445 52.4842 11.9715C48.2824 13.3123 15.9279 22.7695 4.00015 28.1625C1.80677 29.1562 0.457414 31.4282 0.620747 33.8202C0.699641 35.1841 0.78168 36.7382 0.78542 38.6237C0.75052 49.188 2.18903 50.5457 9.57679 47.014C25.7066 39.3011 23.261 40.6011 33.1681 36.4898C36.5407 35.0847 37.4319 34.8458 37.3448 35.3229C37.2947 35.6706 36.6341 38.6417 35.9234 41.9605C32.764 56.3708 32.4324 59.946 34.0893 61.3169C35.9558 62.8466 37.4099 62.4809 46.4607 58.0259C53.3583 54.6255 51.494 56.2235 68.9685 47.2906C73.401 45.0283 102.951 32.8597 112.692 27.1454C114.781 25.9409 114.708 25.9364 114.765 26.6852C114.859 27.5676 115.874 28.4178 117.432 32.1795C120.102 38.5803 121.899 39.3167 123.692 34.7769ZM15.6322 30.1322C15.2169 30.7211 7.69631 41.3329 6.22347 42.2529C5.93542 42.4256 5.79652 41.8181 5.82743 40.3293C5.84085 39.1317 5.78492 37.1407 5.66904 35.9061C5.44717 33.0283 5.21146 33.3065 10.1003 31.2324C17.0847 28.3341 16.951 28.3699 15.6322 30.1322ZM23.9509 31.0554L20.4193 36.3238C20.4193 36.3238 15.7163 38.4675 14.1066 39.2331C10.51 40.961 10.5175 41.0784 13.5967 36.5281C15.0058 34.4789 19.6614 27.5241 19.6614 27.5241L23.8807 25.8921C28.9228 23.9441 28.8958 23.6649 23.9509 31.0554ZM39.5908 22.4945C37.3447 25.3411 34.6928 29.3472 33.2022 31.5376C31.6382 32.0283 29.985 32.5428 27.2123 33.6917C24.3342 34.8927 24.3625 34.9091 26.3043 32.2635C28.1972 29.7026 30.3493 25.2575 31.4389 23.1745L36.2733 21.5208C42.0598 19.5883 41.9304 19.5513 39.5908 22.4945ZM43.2089 28.6891C42.175 30.0885 42.053 30.1689 41.1076 29.849C39.7906 29.39 37.3889 29.962 36.9031 30.0206C38.7601 27.326 44.4944 18.9599 44.5107 18.9316C51.3253 16.9146 53.2577 16.3731 53.3142 16.4057C53.4554 16.4872 46.9131 23.7086 43.2089 28.6891ZM41.0314 44.2691C40.8532 44.3169 42.7796 35.1084 43.0648 33.7663C43.0811 33.7381 53.4465 20.2865 53.4628 20.2582C54.1248 19.6988 51.0131 30.6335 50.3059 33.1632C49.8994 33.6065 41.1814 44.2051 41.0314 44.2691ZM49.6956 49.4221C47.9082 51.9308 47.9071 51.2146 41.5204 54.3826C38.7346 55.7499 38.763 55.7663 39.3759 52.6171C39.9473 49.6701 40.136 50.909 45.8157 42.9634C48.3849 39.3616 48.3849 39.3615 48.3596 40.5146C48.2925 42.8489 49.2666 44.8804 52.0838 43.7196C52.5175 43.5556 55.4165 41.2743 55.4762 41.4971C55.5 41.5862 51.6418 46.7036 49.6956 49.4221ZM64.674 43.1161C64.3119 43.5474 61.6511 45.0246 58.7718 46.4886C52.7014 49.5002 52.8294 49.8001 57.4807 42.9181L60.3197 38.7189L69.8489 34.0879C69.241 35.206 65.4915 42.1568 64.674 43.1161ZM69.7217 40.8323C69.674 40.654 72.548 34.893 73.8301 32.2809L83.87 27.4177C82.4455 30.2113 82.3226 30.5546 79.3733 36.8373C78.4125 37.2619 69.7532 41.0388 69.7217 40.8323ZM83.6464 33.0893C84.8231 30.5293 85.915 27.9203 86.635 26.1513C92.4098 23.195 92.7708 23.0268 93.0413 23.1454C93.3521 23.3248 91.2145 26.3093 88.5314 32.7833C82.5871 35.6418 82.286 36.0328 83.6464 33.0893ZM93.0455 30.3797C93.1803 30.0809 97.1011 21.0067 97.1011 21.0067L101.045 19.3289C105.8 17.2906 105.615 17.221 104.095 20.3743C102.674 23.358 102.168 25.2131 101.745 26.6638C93.6965 30.492 92.7921 30.9491 93.0455 30.3797ZM105.551 25.0947C105.438 25.0294 107.743 19.9941 108.324 17.6175C108.732 15.9321 109.638 14.9489 111.333 15.2113C112.679 15.4237 113.424 13.4809 112.5 12.0809C111.576 10.6808 110.582 6.52908 110.403 5.86067C110.431 5.87698 116.403 7.93075 116.142 8.38275C115.75 9.06076 112.262 17.2547 111.292 19.7832L110.044 23.0551C107.757 24.1455 105.636 25.1436 105.551 25.0947ZM114.026 21.9641C113.48 21.7998 113.449 21.5934 113.993 20.3254C114.741 18.5727 117.967 10.1144 118.14 9.42324C118.234 9.06355 118.643 9.07367 119.499 9.41736C121.87 10.3342 122.346 10.6843 122.053 11.1928C121.727 11.7578 118.452 18.3424 116.074 23.6362C115.868 23.4047 114.874 22.1904 114.026 21.9641ZM118.004 26.295C119.559 23.2754 121.934 18.7706 123.346 15.2163C124.983 11.0763 124.95 11.1328 125.936 11.5135C127.248 12.0453 127.3 12.1508 126.848 13.8482C126.21 16.1921 121.723 26.1821 120.073 30.5405L118.004 26.295Z" fill="#525AF2"/>
</svg>
