<svg width="300" height="120" viewBox="0 0 300 120" fill="none" xmlns="http://www.w3.org/2000/svg">
<g clip-path="url(#clip0_6825_228753)">
<rect width="302.4" height="144" fill="#FFCD65"/>
<path d="M97.8424 18.6425C96.69 19.7064 94.9126 19.703 93.7642 18.6348L88.705 13.9287C63.5062 -9.41953 46.8701 -24.8184 46.8701 -43.7169C46.8701 -59.1158 58.7111 -71.2148 73.7814 -71.2148C81.0694 -71.2148 88.1064 -68.2473 93.3271 -63.3786C94.6972 -62.1009 96.9023 -62.1009 98.2724 -63.3786C103.493 -68.2473 110.53 -71.2148 117.818 -71.2148C132.888 -71.2148 144.729 -59.1158 144.729 -43.7169C144.729 -24.8184 128.093 -9.41953 102.895 13.9787L97.8424 18.6425Z" fill="#525AF2"/>
<path d="M194.038 88.1167C195.027 86.9858 195.027 85.2977 194.038 84.1668L182.796 71.3116C182.255 70.693 181.991 69.8797 182.067 69.0614L183.633 52.0659C183.771 50.5674 182.777 49.1985 181.31 48.8652L164.693 45.0906C163.888 44.9078 163.194 44.4014 162.774 43.6908L154.071 28.9558C153.304 27.6565 151.691 27.1295 150.304 27.7248L134.66 34.4428C133.904 34.7673 133.048 34.7673 132.292 34.4428L116.644 27.7234C115.259 27.1286 113.648 27.654 112.88 28.9508L104.181 43.6331C103.759 44.3443 103.063 44.8502 102.257 45.0311L85.65 48.7573C84.179 49.0873 83.1814 50.4578 83.3193 51.959L84.886 69.0083C84.961 69.8245 84.6988 70.6358 84.1603 71.2538L72.9071 84.1673C71.9214 85.2984 71.9229 86.9838 72.9106 88.1132L84.1566 100.972C84.6974 101.591 84.9609 102.404 84.8857 103.222L83.3187 120.275C83.181 121.773 84.1744 123.142 85.6416 123.475L102.262 127.25C103.065 127.433 103.758 127.938 104.178 128.646L112.876 143.327C113.646 144.626 115.262 145.151 116.648 144.552L132.29 137.789C133.047 137.461 133.906 137.46 134.664 137.786L150.308 144.504C151.693 145.098 153.304 144.573 154.072 143.276L162.774 128.59C163.194 127.881 163.887 127.376 164.69 127.193L181.31 123.418C182.777 123.085 183.771 121.716 183.633 120.218L182.067 103.222C181.991 102.404 182.255 101.59 182.796 100.972L194.038 88.1167ZM124.784 110.74C123.612 111.915 121.708 111.915 120.536 110.74L103.258 93.4161C102.089 92.2441 102.09 90.3468 103.261 89.1763L107.397 85.0399C108.57 83.8666 110.473 83.8686 111.644 85.0445L120.535 93.974C121.708 95.1513 123.613 95.1517 124.786 93.9749L153.666 64.9967C154.837 63.8217 156.739 63.8201 157.912 64.9931L162.049 69.1305C163.22 70.3009 163.221 72.1982 162.052 73.3702L124.784 110.74Z" fill="#525AF2"/>
<path d="M15.8028 151.096C17.3319 153.744 20.9796 155.17 24.1577 153.335L45.3448 141.102C48.5229 139.267 49.1126 135.396 47.5835 132.747L44.5254 127.451L12.7447 145.799L15.8028 151.096ZM-26.4108 41.2827C-47.0682 53.2093 -54.0082 79.1095 -42.0816 99.767C-34.7421 112.479 -21.964 119.933 -8.76002 120.784L-1.72639 132.967C-0.19734 135.615 3.45043 137.041 6.6285 135.206L38.4092 116.857C41.5873 115.022 42.177 111.151 40.6479 108.502L33.6143 96.3196C39.173 83.9291 39.1071 69.1362 32.0735 56.9536C20.1469 36.2961 -5.7533 29.3561 -26.4108 41.2827Z" fill="#525AF2"/>
<path d="M229.405 205.041C229.405 206.145 228.509 207.041 227.405 207.041H197.766C196.661 207.041 195.766 206.145 195.766 205.041V135.646C195.766 134.542 196.661 133.646 197.766 133.646H227.405C228.509 133.646 229.405 134.542 229.405 135.646V205.041ZM273.747 98.9492C273.747 97.8447 272.852 96.9492 271.747 96.9492H242.108C241.004 96.9492 240.108 97.8446 240.108 98.9492V205.041C240.108 206.145 241.004 207.041 242.108 207.041H271.747C272.852 207.041 273.747 206.145 273.747 205.041V98.9492ZM318.09 147.879C318.09 146.774 317.194 145.879 316.09 145.879H286.451C285.346 145.879 284.451 146.774 284.451 147.879V205.041C284.451 206.145 285.346 207.041 286.451 207.041H316.09C317.194 207.041 318.09 206.145 318.09 205.041V147.879Z" fill="#525AF2"/>
<path d="M267.208 17.7084C266.419 16.6491 266.416 15.1982 267.2 14.1351L295.071 -23.6485C296.831 -26.0349 294.431 -29.2563 291.641 -28.2521L247.464 -12.3533C246.221 -11.9059 244.831 -12.3243 244.042 -13.3836L219.024 -46.9608C217.28 -49.3017 213.559 -48.0253 213.619 -45.1067L214.484 -3.02977C214.511 -1.73631 213.705 -0.57149 212.486 -0.139929L170.446 14.7356C167.695 15.7089 167.812 19.6387 170.616 20.4465L212.035 32.3788C213.329 32.7517 214.216 33.9413 214.204 35.2881L213.823 78.4587C213.798 81.3754 217.528 82.6096 219.247 80.2531L245.535 44.2132C246.297 43.1686 247.642 42.7297 248.873 43.124L288.913 55.945C291.692 56.8349 293.977 53.6354 292.234 51.2955L267.208 17.7084Z" fill="#525AF2"/>
</g>
<defs>
<clipPath id="clip0_6825_228753">
<rect width="300" height="120" rx="10" fill="white"/>
</clipPath>
</defs>
</svg>
