<svg width="305" height="157" viewBox="0 0 305 157" fill="none" xmlns="http://www.w3.org/2000/svg">
<path fill-rule="evenodd" clip-rule="evenodd" d="M50.6587 4.47897C30.8932 7.13305 37.0098 12.7014 48.5633 11.9728C65.4404 10.932 120.772 6.45653 164.438 7.02898C222.885 7.80959 242.593 7.54939 264.681 10.4116C283.144 12.8575 285.183 12.4412 290.053 21.8606C294.697 30.9157 296.17 45.435 293.565 61.9319C293.281 63.8054 292.772 70.8309 292.432 77.5441C290.506 116.054 288.751 123.444 279.859 129.689C273.289 134.268 275.272 134.06 215.692 137.183C162.116 139.993 62.4387 149.048 44.4289 149.464C24.267 149.933 21.2654 146.914 16.9046 139.004C5.29447 117.772 9.99512 49.1819 15.6019 27.9493C17.9806 18.9983 21.4353 14.1586 28.288 10.6718C32.1958 8.64224 32.479 8.01773 29.8738 6.87283C16.5647 0.940189 5.63423 16.1361 2.40605 45.0707C-2.06808 85.4543 0.876975 120.166 1.8964 124.537C7.10678 146.966 23.7007 156.594 47.1474 156.542C69.8012 156.49 148.353 148.476 204.931 145.249C277.594 141.138 279.632 142.647 288.071 135.465C293.111 131.146 296.849 124.641 298.775 115.482C302.06 99.5053 302.626 68.437 303.815 59.9023C306.477 40.5952 304.608 25.6075 298.662 16.5525C291.752 5.98819 280.595 5.41572 267.513 3.90654C250.522 1.98103 245.822 0.627957 206.914 0.315713C195.53 0.159591 94.6072 -1.45367 50.6587 4.47897Z" fill="#FFCD65"/>
<path fill-rule="evenodd" clip-rule="evenodd" d="M94.3889 62.0143C89.4249 62.7384 84.439 66.754 81.6935 72.2179C78.1572 79.2837 76.7954 85.9107 78.904 85.9107C79.0358 85.9107 79.2555 85.0548 79.4092 83.8918C79.6508 82.0486 80.7051 78.2963 80.9247 78.5157C80.9687 78.5596 80.8589 79.2398 80.6832 80.0079C77.7399 92.4717 93.5982 99.5375 105.7 91.1771C122.284 79.7445 114.267 59.0958 94.3889 62.0143ZM101.659 63.5722C102.516 63.7039 102.56 64.2744 100.561 64.3842C98.035 64.5378 93.73 65.4374 91.1162 66.9296C89.5348 67.8293 89.0296 66.9296 90.3694 66.0079C93.5981 63.8136 97.7934 62.9578 101.659 63.5722ZM103.021 66.4907C105.217 66.8857 107.524 68.0926 108.819 69.5189C118.572 80.337 98.4743 97.8918 88.151 87.5783C79.4971 78.9765 89.9521 64.1647 103.021 66.4907ZM86.1742 87.9953C88.5025 90.2774 91.6653 91.7695 95.2235 92.2742C97.0905 92.5376 97.1125 92.6253 95.4432 92.9106C84.2194 94.8636 83.4067 83.8699 83.3848 83.826C83.7801 84.5063 84.3292 86.1959 86.1742 87.9953Z" fill="#FFCD65"/>
<path fill-rule="evenodd" clip-rule="evenodd" d="M140.691 62.0143C135.727 62.7384 130.741 66.754 127.995 72.2179C124.459 79.2837 123.097 85.9107 125.206 85.9107C125.338 85.9107 125.557 85.0548 125.711 83.8918C125.953 82.0486 127.007 78.2963 127.226 78.5157C127.27 78.5596 127.161 79.2398 126.985 80.0079C124.042 92.4717 139.9 99.5375 152.002 91.1771C168.585 79.7445 160.568 59.0958 140.691 62.0143ZM147.961 63.5722C148.817 63.7039 148.861 64.2744 146.863 64.3842C144.337 64.5378 140.032 65.4374 137.418 66.9296C135.837 67.8293 135.331 66.9296 136.671 66.0079C139.9 63.8136 144.095 62.9578 147.961 63.5722ZM149.323 66.4907C151.519 66.8857 153.825 68.0926 155.121 69.5189C164.873 80.337 144.776 97.8918 134.453 87.5783C125.799 78.9765 136.254 64.1647 149.323 66.4907ZM132.476 87.9953C134.804 90.2774 137.967 91.7695 141.525 92.2742C143.392 92.5376 143.414 92.6253 141.745 92.9106C130.521 94.8636 129.708 83.8699 129.687 83.826C130.082 84.5063 130.631 86.1959 132.476 87.9953Z" fill="#FFCD65"/>
<path fill-rule="evenodd" clip-rule="evenodd" d="M194.341 62.0143C189.377 62.7384 184.391 66.754 181.646 72.2179C178.109 79.2837 176.748 85.9107 178.856 85.9107C178.988 85.9107 179.208 85.0548 179.361 83.8918C179.603 82.0486 180.657 78.2963 180.877 78.5157C180.921 78.5596 180.811 79.2398 180.635 80.0079C177.692 92.4717 193.55 99.5375 205.653 91.1771C222.236 79.7445 214.219 59.0958 194.341 62.0143ZM201.611 63.5722C202.468 63.7039 202.512 64.2744 200.513 64.3842C197.987 64.5378 193.682 65.4374 191.068 66.9296C189.487 67.8293 188.982 66.9296 190.322 66.0079C193.55 63.8136 197.746 62.9578 201.611 63.5722ZM202.973 66.4907C205.169 66.8857 207.476 68.0926 208.772 69.5189C218.524 80.337 198.426 97.8918 188.103 87.5783C179.449 78.9765 189.904 64.1647 202.973 66.4907ZM186.126 87.9953C188.455 90.2774 191.617 91.7695 195.176 92.2742C197.043 92.5376 197.065 92.6253 195.395 92.9106C184.172 94.8636 183.359 83.8699 183.337 83.826C183.732 84.5063 184.281 86.1959 186.126 87.9953Z" fill="#FFCD65"/>
</svg>
