<svg width="36" height="47" viewBox="0 0 36 47" fill="none" xmlns="http://www.w3.org/2000/svg">
<path d="M24.9451 15.8155L33.567 19.1682C35.0313 19.7322 36 21.2009 36 22.8381C36 24.4753 35.0313 25.944 33.567 26.508L24.9936 29.8489L21.6142 44.0351C21.1969 45.778 19.7102 47 18 47C16.2898 47 14.8031 45.778 14.3858 44.039L11.0064 29.8528L2.43304 26.5119C0.968746 25.944 0 24.4753 0 22.8381C0 21.2009 0.968746 19.7322 2.43304 19.1643L11.0511 15.8116L14.4045 2.88658C14.8479 1.18283 16.3196 0 18 0C19.6804 0 21.1521 1.18284 21.5918 2.8905L24.9451 15.8155Z" fill="#565FFF"/>
</svg>
