<svg width="90" height="35" viewBox="0 0 90 35" fill="none" xmlns="http://www.w3.org/2000/svg">
<path d="M0 17.2988C0 7.90999 7.61116 0.298828 17 0.298828H73C82.3888 0.298828 90 7.90999 90 17.2988C90 26.6877 82.3888 34.2988 73 34.2988H17C7.61116 34.2988 0 26.6877 0 17.2988Z" fill="#07A098"/>
<path d="M30 11.9652V16.6318H23.4466L22.6666 17.4118V11.9652H30ZM30.6666 10.6318H22C21.6333 10.6318 21.3333 10.9318 21.3333 11.2985V20.6318L24 17.9652H30.6666C31.0333 17.9652 31.3333 17.6652 31.3333 17.2985V11.2985C31.3333 10.9318 31.0333 10.6318 30.6666 10.6318ZM34 13.2985H32.6666V19.2985H24V20.6318C24 20.9985 24.3 21.2985 24.6666 21.2985H32L34.6666 23.9652V13.9652C34.6666 13.5985 34.3666 13.2985 34 13.2985Z" fill="white"/>
<path d="M53 15.2988L58 20.2988L63 15.2988H53Z" fill="white"/>
</svg>
