<svg width="1440" height="898" viewBox="0 0 1440 898" fill="none" xmlns="http://www.w3.org/2000/svg">
<g clip-path="url(#clip0_4926_193291)">
<g opacity="0.07">
<path d="M1245 395.266C1172.45 741.695 1085.68 845.211 1085.68 845.211L824.875 693.867C824.875 693.867 911.89 536.426 947.791 272.673C973.853 81.1993 955.48 -156.821 955.48 -156.821L1233.77 -318.501C1233.77 -318.501 1304.57 110.784 1245 395.266Z" fill="white" stroke="#07A098" stroke-width="3"/>
<path d="M1545.58 298.705C1602.66 -86.5614 1713.63 -232.186 1713.63 -232.186L1982.65 -80.5693C1982.65 -80.5693 1918.74 29.9174 1860.04 340.715C1824.8 527.344 1851.29 771.085 1851.29 771.085L1581.92 931.249C1581.92 931.249 1512.42 522.548 1545.58 298.705Z" fill="white" stroke="#07A098" stroke-width="3"/>
<path d="M1506.94 199.033C1193.7 -39.0554 1085.75 -232.976 1085.75 -232.976L1357.92 -391.15C1357.92 -391.15 1416.78 -256.905 1689.97 -58.8833C1843.75 52.5804 2029.5 143.174 2029.5 143.174L2031.43 490.568C2031.43 490.568 1700.04 345.814 1506.94 199.033Z" fill="white" stroke="#07A098" stroke-width="3"/>
<path d="M1283.85 396.709C966.299 171.217 772.707 146.735 772.707 146.735L772.707 463.015C772.707 463.015 894.697 500.578 1149.05 688.582C1301.78 801.474 1451.26 1007.98 1451.26 1007.98L1719.17 846.922C1719.17 846.922 1520.84 564.988 1283.85 396.709Z" fill="white" stroke="#07A098" stroke-width="3"/>
<path d="M1415.61 457.534C1062.89 622.698 930.336 753.657 930.336 753.657L1221.37 934.963C1221.37 934.963 1340.91 831.661 1629.85 703.012C1803.36 625.761 2029.98 613.157 2029.98 613.157L2029.98 299.27C2029.98 299.27 1678.83 334.276 1415.61 457.534Z" fill="white" stroke="#07A098" stroke-width="3"/>
<path d="M2031.43 490.571C2031.43 490.571 1700.04 345.817 1506.94 199.035L1409.6 128.114L1659.2 -78.9203L1775.68 -0.595037C1905.13 82.5195 2029.5 143.176 2029.5 143.176L2031.43 490.571Z" fill="white" stroke="#07A098" stroke-width="3"/>
<path d="M1581.92 931.25C1581.92 931.25 1512.42 522.549 1545.58 298.706C1548.87 276.512 1552.34 255.115 1555.95 234.494C1651.01 290.811 1843.02 403.471 1850.59 403.573C1830.28 577.72 1851.29 771.086 1851.29 771.086L1581.92 931.25Z" fill="white" stroke="#07A098" stroke-width="3"/>
<path d="M1358.68 165.745C995.439 316.93 773.535 312.822 773.535 312.822V-1.96945C773.535 -1.96945 918.953 7.77759 1227.66 -122.105C1402.72 -195.76 1572.96 -314.125 1572.96 -314.125L1874.28 -141.243C1874.28 -141.243 1582.62 72.5402 1358.68 165.745Z" fill="white" stroke="#07A098" stroke-width="3"/>
</g>
</g>
<defs>
<clipPath id="clip0_4926_193291">
<rect width="1440" height="898" fill="white"/>
</clipPath>
</defs>
</svg>
