<svg width="182" height="182" viewBox="0 0 182 182" fill="none" xmlns="http://www.w3.org/2000/svg">
<path d="M141.235 91.0005C141.235 102.059 137.587 112.808 130.855 121.582C124.123 130.355 114.684 136.662 104.002 139.524L91.0005 91.0005H141.235Z" fill="#6A90BC"/>
<path d="M133.736 90.9998C133.736 100.408 130.632 109.553 124.905 117.017C119.177 124.48 111.147 129.846 102.06 132.281L90.9989 90.9998H133.736Z" fill="#C4DFFF"/>
<path d="M127.685 90.9999C127.685 99.0756 125.021 106.926 120.104 113.333C115.188 119.74 108.295 124.345 100.495 126.435L90.9999 90.9999H127.685Z" fill="#8CC1FF"/>
<path d="M119.597 90.9999C119.597 97.2954 117.52 103.415 113.688 108.41C109.855 113.404 104.482 116.995 98.4008 118.624L90.9989 90.9999H119.597Z" fill="#75B2F9"/>
<path d="M112.529 90.9999C112.529 95.7393 110.965 100.346 108.08 104.106C105.195 107.866 101.15 110.569 96.5721 111.796L91 90.9999H112.529Z" fill="#3794FF"/>
<path d="M105.353 90.9997C105.353 94.1594 104.31 97.2307 102.387 99.7375C100.463 102.244 97.7666 104.046 94.7146 104.864L90.9997 90.9997H105.353Z" fill="#1984FF"/>
<path d="M107.654 153.154C93.9719 156.82 79.4623 155.869 66.3756 150.448C53.2889 145.028 42.3566 135.44 35.2741 123.173L91 90.9997L107.654 153.154Z" fill="#3E7EA4"/>
<path d="M105.803 146.247C93.6406 149.506 80.7432 148.661 69.1106 143.842C57.478 139.024 47.7603 130.502 41.4648 119.598L90.9989 90.9991L105.803 146.247Z" fill="#0A405F"/>
<path d="M104 139.523C93.3182 142.385 81.9907 141.642 71.774 137.411C61.5574 133.179 53.0226 125.694 47.4934 116.117L90.9981 90.9996L104 139.523Z" fill="#165377"/>
<path d="M102.06 132.28C92.9729 134.715 83.336 134.084 74.6442 130.483C65.9525 126.883 58.6915 120.515 53.9876 112.368L90.999 90.9993L102.06 132.28Z" fill="#1471A7"/>
<path d="M100.494 126.435C92.6933 128.525 84.421 127.983 76.96 124.893C69.499 121.802 63.2662 116.336 59.2284 109.342L90.9989 90.9997L100.494 126.435Z" fill="#067DC1"/>
<path d="M98.4003 118.624C92.3193 120.253 85.8706 119.83 80.0543 117.421C74.238 115.012 69.3792 110.751 66.2314 105.299L90.9985 90.9995L98.4003 118.624Z" fill="#1B9DE8"/>
<mask id="path-13-inside-1_5335_7592" fill="white">
<path d="M96.5714 111.796C91.9935 113.023 87.1389 112.705 82.7603 110.891C78.3817 109.077 74.724 105.87 72.3543 101.765L90.9992 91.0007L96.5714 111.796Z"/>
</mask>
<path d="M96.5714 111.796C91.9935 113.023 87.1389 112.705 82.7603 110.891C78.3817 109.077 74.724 105.87 72.3543 101.765L90.9992 91.0007L96.5714 111.796Z" fill="#48BBFD" stroke="#04FF4A" stroke-width="3.85655" mask="url(#path-13-inside-1_5335_7592)"/>
<path d="M94.714 104.864C91.6621 105.682 88.4255 105.47 85.5064 104.261C82.5873 103.052 80.1487 100.913 78.5689 98.1766L90.9991 91L94.714 104.864Z" fill="#1FC4FF"/>
<path d="M41.466 119.599C35.1705 108.695 32.6489 96.0186 34.2924 83.5352C35.9358 71.0519 41.6525 59.4597 50.5557 50.5565L91.0001 91.0009L41.466 119.599Z" fill="#4CF2FF"/>
<path d="M47.4942 116.118C41.965 106.541 39.7504 95.4073 41.1938 84.4435C42.6372 73.4797 47.658 63.2985 55.4775 55.479L90.9989 91.0004L47.4942 116.118Z" fill="#22DAE8"/>
<path d="M53.9894 112.369C49.2855 104.222 47.4014 94.7498 48.6293 85.4224C49.8573 76.0949 54.1287 67.4334 60.7811 60.7809L91.0009 91.0007L53.9894 112.369Z" fill="#00B4C1"/>
<path d="M59.2295 109.343C55.1916 102.349 53.5743 94.2182 54.6284 86.2115C55.6825 78.2049 59.3491 70.7698 65.0595 65.0594L91 90.9999L59.2295 109.343Z" fill="#00C3D2"/>
<path d="M66.2329 105.299C63.0852 99.8472 61.8244 93.5088 62.6461 87.2671C63.4678 81.0255 66.3262 75.2294 70.7778 70.7778L91 91L66.2329 105.299Z" fill="#009AA6"/>
<path d="M72.3538 101.765C69.9842 97.6609 69.035 92.8893 69.6537 88.1905C70.2723 83.4917 72.424 79.1283 75.7752 75.7771L90.9987 91.0006L72.3538 101.765Z" fill="#056D75"/>
<path d="M78.5683 98.1769C76.9884 95.4405 76.3557 92.2594 76.7681 89.1268C77.1805 85.9942 78.6151 83.0852 80.8493 80.851L90.9985 91.0003L78.5683 98.1769Z" fill="#E42AB1"/>
<path d="M100.496 55.5644C108.296 57.6546 115.189 62.2603 120.105 68.6672C125.021 75.0741 127.686 82.9242 127.686 90.9999L91.0006 90.9999L100.496 55.5644Z" fill="#00B4C1"/>
<path d="M98.4024 63.3764C104.483 65.0058 109.857 68.5962 113.689 73.5907C117.522 78.5853 119.599 84.7049 119.599 91.0004L91.0005 91.0004L98.4024 63.3764Z" fill="#009AA6"/>
<path d="M96.5728 70.2035C101.151 71.4302 105.196 74.1331 108.081 77.893C110.966 81.653 112.53 86.2599 112.53 90.9992L91.0006 90.9992L96.5728 70.2035Z" fill="#056D75"/>
<path d="M94.7159 77.1359C97.7678 77.9537 100.465 79.7557 102.388 82.2624C104.312 84.7691 105.354 87.8405 105.354 91.0001L91.001 91.0001L94.7159 77.1359Z" fill="#822468"/>
<path d="M45.5 45.5C55.5161 35.4839 68.5573 29.0527 82.6011 27.2038C96.6448 25.3549 110.906 28.1917 123.173 35.2741L91 91L45.5 45.5Z" fill="#846FBD"/>
<path d="M50.5555 50.5554C59.4587 41.6521 71.051 35.9355 83.5343 34.292C96.0176 32.6486 108.694 35.1702 119.599 41.4657L91 90.9998L50.5555 50.5554Z" fill="#EEE8FF"/>
<path d="M55.4785 55.4786C63.298 47.6592 73.4792 42.6384 84.443 41.1949C95.4068 39.7515 106.541 41.9662 116.117 47.4954L91 91.0001L55.4785 55.4786Z" fill="#D1C2FF"/>
<path d="M60.7803 60.7803C67.4327 54.1279 76.0943 49.8565 85.4217 48.6285C94.7491 47.4005 104.221 49.2846 112.369 53.9886L91 91L60.7803 60.7803Z" fill="#BFAAFF"/>
<path d="M65.0595 65.0592C70.7699 59.3488 78.2049 55.6823 86.2116 54.6282C94.2182 53.5741 102.349 55.1914 109.343 59.2292L91 90.9998L65.0595 65.0592Z" fill="#AD93FF"/>
<path d="M70.7778 70.7777C75.2294 66.3261 81.0255 63.4678 87.2671 62.646C93.5088 61.8243 99.8472 63.0851 105.299 66.2328L91 90.9999L70.7778 70.7777Z" fill="#916EFF"/>
<path d="M75.7765 75.7759C79.1277 72.4247 83.4911 70.2729 88.1899 69.6543C92.8886 69.0357 97.6602 69.9848 101.765 72.3545L91 90.9993L75.7765 75.7759Z" fill="#7C53FC"/>
<path d="M80.8507 80.85C83.0849 78.6158 85.9939 77.1812 89.1265 76.7688C92.2591 76.3564 95.4403 76.9892 98.1766 78.569L91 90.9993L80.8507 80.85Z" fill="#6E44F2"/>
</svg>
