<svg width="112" height="97" viewBox="0 0 112 97" fill="none" xmlns="http://www.w3.org/2000/svg">
<path d="M13.5274 25.6951C12.806 22.2484 11.243 21.1662 10.3613 23.4507C9.27915 26.3364 10.1208 29.6228 11.9644 29.6228C13.6878 29.6228 14.1286 28.5006 13.5274 25.6951Z" fill="#FFCD65"/>
<path d="M94.6064 91.8653C91.841 90.703 80.7392 86.8956 76.4909 85.6531C71.441 84.1702 71.6015 84.2905 71.4411 81.6453C70.7197 66.4555 69.9584 63.3695 68.3953 64.9726C67.9945 65.3734 68.0343 73.0685 68.4752 78.7596C69.0363 85.8134 69.3569 86.1341 77.8936 88.659C83.3443 90.2622 85.4685 91.1439 87.5927 91.9454C73.5652 91.9454 45.6306 91.9855 45.6306 91.8252C45.6306 91.7451 48.8368 90.182 52.7244 88.2983C61.3814 84.1301 60.5398 85.4928 60.2593 76.1144C59.8184 62.6481 59.8585 62.7282 54.0471 60.4838C49.9591 58.9208 45.31 56.2355 42.8251 54.0312C40.8613 52.3078 40.6207 52.1876 40.1398 52.9491C38.6569 55.2736 31.8436 55.8748 28.1564 54.0312C12.646 46.1357 17.0947 18.2812 33.1662 22.77C35.4507 23.4112 36.0519 23.4513 36.6531 23.0104C39.6189 20.9664 61.4618 19.724 74.2067 19.6839C75.3289 19.6839 85.7492 20.8863 78.4549 18.1609C71.1205 15.3955 48.1957 15.2352 37.8153 19.4034C36.8935 19.7641 36.9336 16.1169 37.8554 15.1951C39.6189 13.5118 53.7664 11.2274 67.9542 11.9488C75.2084 12.3095 81.8215 13.8725 85.3484 14.9547C86.4706 15.3154 87.2721 16.3574 87.2721 17.5598V18.6419C87.2721 21.768 88.4745 24.4132 89.8772 24.4132C90.5185 24.4132 90.9595 23.1708 90.6389 22.3291C90.0377 20.8061 96.5705 16.7983 99.6565 16.7983C110.758 16.7983 110.037 34.7935 103.624 45.0937C97.7325 54.5522 93.7249 56.0752 83.024 52.8689C77.1725 51.1054 71.0003 50.6646 53.8467 52.8288C48.9571 53.4701 50.4399 55.3538 56.7323 55.2335C71.922 54.9129 80.2183 55.1935 79.4568 55.995C78.5751 56.9569 74.5671 59.1212 71.8818 60.043C67.6335 61.5259 69.8779 64.8524 73.485 63.1691C76.1702 61.8866 80.6993 59.0811 82.6631 57.2775C84.3464 55.7546 84.5068 55.6744 85.3484 56.1954C94.8471 62.2473 105.067 55.6343 109.956 40.2041C115.207 23.6116 104.586 8.98298 92.282 15.9166L90.1176 17.1189L89.6768 15.7963C88.9554 13.592 87.232 11.9889 84.7872 11.1071C73.0041 7.01913 46.9132 6.81874 35.6511 12.7103C34.1281 13.5118 33.1662 15.115 33.1662 16.8383C33.1662 16.9185 33.1662 20.4454 33.1662 20.3252L32.0441 20.0446C16.1329 16.0368 7.11513 38.5609 19.299 51.907C24.1886 57.2775 31.523 59.1612 38.6169 56.8768L41.0617 56.0752L42.3842 57.3978C44.3481 59.4017 49.438 62.2072 53.3256 63.4496L56.8125 64.5317C57.2534 68.1388 57.2935 67.6178 57.053 83.3686C54.3677 84.571 39.6189 91.0637 36.613 92.0256C33.4067 93.0276 34.3685 95.312 36.7732 95.3922C40.0196 95.5124 50.4801 95.5926 62.6239 95.5926C79.8977 95.5926 95.4481 96.0735 95.408 96.0735C97.0913 96.2739 97.8127 93.228 94.6064 91.8653Z" fill="#FFCD65"/>
<path d="M40.2604 67.0563C39.7795 65.1326 37.1343 65.6536 37.4549 67.6174C37.7755 69.6214 36.0522 72.5471 33.8478 71.2646C31.6034 70.0221 31.6434 66.0945 36.1322 66.0544C36.6131 66.0544 37.2945 65.854 37.6152 65.6536C39.1782 64.6116 35.1704 63.5695 33.0061 64.4512C30.0003 65.6937 29.399 70.9439 32.0842 72.3467C36.0119 74.3506 41.2223 70.984 40.2604 67.0563Z" fill="#FFCD65"/>
<path d="M35.05 27.4991C29.1985 23.2508 20.9023 26.2967 21.2229 35.8755C21.5836 45.6145 28.0762 51.7065 36.9737 50.6244C40.1799 50.2236 40.2602 50.1434 39.2582 46.9772C34.569 31.5871 37.2944 29.1423 35.05 27.4991ZM33.6472 48.2597C28.437 46.5363 25.9121 42.6888 25.6315 36.156C25.351 28.8618 26.8738 26.6173 30.7214 28.5812L32.6453 29.5431L32.7253 32.7093C32.8055 36.2362 33.9678 42.6888 35.2102 46.2558C36.1721 49.0613 36.1722 49.1014 33.6472 48.2597Z" fill="#FFCD65"/>
<path d="M11.3216 14.6335C13.2454 16.0763 14.3275 14.6735 14.3275 10.7859C14.3275 5.33526 12.8445 2.48968 11.0811 4.61384C10.1593 5.73604 10.3597 13.912 11.3216 14.6335Z" fill="#FFCD65"/>
<path d="M94.1996 8.94279C97.1253 8.46185 98.929 4.37382 96.9652 2.61037C95.7628 1.52825 95.2416 1.76875 95.5221 3.29173C95.8427 4.97503 94.1997 7.49997 92.2759 6.53808C90.3121 5.5762 90.1518 1.60842 94.7609 1.56834C95.7227 1.56834 96.0833 1.00723 95.402 0.606446C93.2377 -0.716144 89.5906 0.165622 88.3882 2.85088C87.0256 5.81669 89.6307 9.70428 94.1996 8.94279Z" fill="#FFCD65"/>
<path d="M13.166 18.6009C13.166 19.8033 17.5345 19.6831 22.4641 18.3605C26.993 17.1581 22.6646 15.7153 17.775 16.7974C14.4084 17.5589 13.166 18.0398 13.166 18.6009Z" fill="#FFCD65"/>
<path d="M1.342 17.5589C-0.221062 17.8796 -0.501611 19.0819 0.941214 19.4426C2.66459 19.8835 9.83864 19.4025 10.5601 18.8013C12.1632 17.4387 5.75063 16.597 1.342 17.5589Z" fill="#FFCD65"/>
<path d="M98.1679 70.2228C99.9313 70.7037 100.492 69.9022 100.492 66.9765C100.492 63.169 100.252 62.4876 98.8892 62.4876C98.0876 62.4876 97.7268 62.7281 97.5264 63.3694C96.9252 65.8142 97.2861 69.9823 98.1679 70.2228Z" fill="#FFCD65"/>
<path d="M89.353 50.1028C98.6111 54.8321 109.913 34.3921 103.38 24.6931C101.617 22.088 98.2101 20.8455 95.5248 21.8074C93.1201 22.6892 88.6313 27.3783 89.1123 28.5807C89.6333 29.9834 88.471 38.9209 87.3087 42.4478C85.5854 47.5779 85.786 48.2592 89.353 50.1028ZM89.513 45.574C90.5551 42.5681 91.6774 35.5544 91.6774 31.9874C91.6774 26.0558 97.6493 21.1261 100.856 24.3725C103.902 27.4184 100.815 40.2035 95.7252 45.7744C92.7193 49.0608 88.3508 48.9406 89.513 45.574Z" fill="#FFCD65"/>
<path d="M96.9295 79.5203C95.5669 83.0472 96.9699 86.8547 99.4548 86.3337C101.338 85.973 101.699 83.2076 100.296 79.8009C99.6149 78.0775 97.5307 77.9172 96.9295 79.5203Z" fill="#FFCD65"/>
<path d="M109.676 74.3501C107.953 73.9894 101.82 73.8692 100.979 74.1899C97.9329 75.3121 104.906 77.0755 108.954 76.1938C110.597 75.8331 111.079 74.6307 109.676 74.3501Z" fill="#FFCD65"/>
<path d="M89.398 73.9497C88.6765 74.2303 88.7566 75.1521 89.5181 75.4326C91.4419 76.1941 97.2935 75.593 97.2935 74.6711C97.3336 73.7894 91.2416 73.2283 89.398 73.9497Z" fill="#FFCD65"/>
<path d="M74.9243 25.6954C74.2831 24.5331 64.7443 23.8117 57.2497 24.4129C50.9974 24.8938 45.0658 26.0961 42.1801 27.2584C39.4548 28.3806 40.0961 30.104 42.8214 29.6231C46.6289 28.9417 61.2172 27.5791 65.4655 27.5791C73.6015 27.539 75.6858 27.1382 74.9243 25.6954Z" fill="#FFCD65"/>
</svg>
