<svg width="82" height="29" viewBox="0 0 82 29" fill="none" xmlns="http://www.w3.org/2000/svg">
<rect width="8.22133" height="28.1193" rx="2" transform="matrix(-1 0 0 1 8.22095 0)" fill="#E84949"/>
<rect width="8.22133" height="16.2613" rx="2" transform="matrix(-1 0 0 1 20.4436 11.8594)" fill="#E84949"/>
<rect width="8.22133" height="18.0098" rx="2" transform="matrix(-1 0 0 1 32.6643 10.1094)" fill="#E84949"/>
<rect width="8.22133" height="12.9825" rx="2" transform="matrix(-1 0 0 1 44.885 15.1367)" fill="#E84949"/>
<rect width="8.22133" height="10.036" rx="2" transform="matrix(-1 0 0 1 57.1077 18.082)" fill="#E84949"/>
<rect width="8.22133" height="14.5375" rx="2" transform="matrix(-1 0 0 1 69.3284 13.582)" fill="#E84949"/>
<rect width="8.22133" height="6.53829" rx="2" transform="matrix(-1 0 0 1 81.5491 21.582)" fill="#E84949"/>
</svg>
