<svg width="47" height="67" viewBox="0 0 47 67" fill="none" xmlns="http://www.w3.org/2000/svg">
<path d="M40.2857 16.537H33.5714C33.5714 15.234 33.3109 13.9438 32.8048 12.74C32.2987 11.5361 31.5568 10.4423 30.6216 9.52097C29.6864 8.5996 28.5761 7.86874 27.3542 7.3701C26.1322 6.87146 24.8226 6.61481 23.5 6.61481C22.1774 6.61481 20.8678 6.87146 19.6458 7.3701C18.4239 7.86874 17.3136 8.5996 16.3784 9.52097C15.4432 10.4423 14.7014 11.5361 14.1952 12.74C13.6891 13.9438 13.4286 15.234 13.4286 16.537L13.4286 33.0741H40.2857C42.0665 33.0741 43.7743 33.771 45.0334 35.0115C46.2926 36.252 47 37.9345 47 39.6889V59.5333C47 61.2877 46.2926 62.9702 45.0334 64.2107C43.7743 65.4512 42.0665 66.1481 40.2857 66.1481H6.71429C4.93355 66.1481 3.22574 65.4512 1.96657 64.2107C0.707396 62.9702 0 61.2877 0 59.5333L0 39.6889C0 37.9345 0.707396 36.252 1.96657 35.0115C3.22574 33.771 4.93355 33.0741 6.71429 33.0741V16.537C6.71429 12.1511 8.48278 7.94488 11.6307 4.84359C14.7786 1.74229 19.0482 0 23.5 0C27.9518 0 32.2214 1.74229 35.3693 4.84359C38.5172 7.94488 40.2857 12.1511 40.2857 16.537ZM23.5 56.2259C25.2807 56.2259 26.9885 55.529 28.2477 54.2885C29.5069 53.048 30.2143 51.3655 30.2143 49.6111C30.2143 47.8568 29.5069 46.1742 28.2477 44.9337C26.9885 43.6932 25.2807 42.9963 23.5 42.9963C21.7193 42.9963 20.0115 43.6932 18.7523 44.9337C17.4931 46.1742 16.7857 47.8568 16.7857 49.6111C16.7857 51.3655 17.4931 53.048 18.7523 54.2885C20.0115 55.529 21.7193 56.2259 23.5 56.2259Z" fill="#FFCD65"/>
</svg>
